G04 #@! TF.GenerationSoftware,KiCad,Pcbnew,5.1.0*
G04 #@! TF.CreationDate,2019-05-06T16:15:21+02:00*
G04 #@! TF.ProjectId,JlinkBreakout,4a6c696e-6b42-4726-9561-6b6f75742e6b,rev?*
G04 #@! TF.SameCoordinates,Original*
G04 #@! TF.FileFunction,Copper,L2,Bot*
G04 #@! TF.FilePolarity,Positive*
%FSLAX46Y46*%
G04 Gerber Fmt 4.6, Leading zero omitted, Abs format (unit mm)*
G04 Created by KiCad (PCBNEW 5.1.0) date 2019-05-06 16:15:21*
%MOMM*%
%LPD*%
G04 APERTURE LIST*
%ADD10C,0.050000*%
%ADD11C,0.010000*%
%ADD12O,1.700000X1.700000*%
%ADD13R,1.700000X1.700000*%
%ADD14C,0.250000*%
%ADD15C,0.157000*%
G04 APERTURE END LIST*
D10*
X58500000Y-60000000D02*
G75*
G02X58000000Y-59500000I0J500000D01*
G01*
X58000000Y-33500000D02*
G75*
G02X58500000Y-33000000I500000J0D01*
G01*
X96000000Y-38000000D02*
G75*
G02X96500000Y-38500000I0J-500000D01*
G01*
X96500000Y-54500000D02*
G75*
G02X96000000Y-55000000I-500000J0D01*
G01*
X86000000Y-38000000D02*
X65000000Y-33000000D01*
X96000000Y-38000000D02*
X86000000Y-38000000D01*
X96500000Y-54500000D02*
X96500000Y-38500000D01*
X86000000Y-55000000D02*
X96000000Y-55000000D01*
X65000000Y-60000000D02*
X86000000Y-55000000D01*
X65000000Y-33000000D02*
X58500000Y-33000000D01*
X58500000Y-60000000D02*
X65000000Y-60000000D01*
X58000000Y-33500000D02*
X58000000Y-59500000D01*
D11*
G36*
X93503657Y-40505592D02*
G01*
X93524677Y-40547119D01*
X93556866Y-40559398D01*
X93597897Y-40540679D01*
X93614666Y-40525734D01*
X93635764Y-40487356D01*
X93647410Y-40432316D01*
X93648758Y-40374126D01*
X93638965Y-40326296D01*
X93628213Y-40308987D01*
X93590089Y-40290413D01*
X93572333Y-40292012D01*
X93572333Y-40418010D01*
X93593238Y-40420866D01*
X93596835Y-40448365D01*
X93587492Y-40481918D01*
X93571568Y-40500161D01*
X93562092Y-40499237D01*
X93547769Y-40473959D01*
X93551861Y-40440679D01*
X93572005Y-40418139D01*
X93572333Y-40418010D01*
X93572333Y-40292012D01*
X93547084Y-40294286D01*
X93515123Y-40318877D01*
X93513662Y-40321421D01*
X93503146Y-40357656D01*
X93496890Y-40411246D01*
X93496133Y-40436567D01*
X93503657Y-40505592D01*
X93503657Y-40505592D01*
G37*
X93503657Y-40505592D02*
X93524677Y-40547119D01*
X93556866Y-40559398D01*
X93597897Y-40540679D01*
X93614666Y-40525734D01*
X93635764Y-40487356D01*
X93647410Y-40432316D01*
X93648758Y-40374126D01*
X93638965Y-40326296D01*
X93628213Y-40308987D01*
X93590089Y-40290413D01*
X93572333Y-40292012D01*
X93572333Y-40418010D01*
X93593238Y-40420866D01*
X93596835Y-40448365D01*
X93587492Y-40481918D01*
X93571568Y-40500161D01*
X93562092Y-40499237D01*
X93547769Y-40473959D01*
X93551861Y-40440679D01*
X93572005Y-40418139D01*
X93572333Y-40418010D01*
X93572333Y-40292012D01*
X93547084Y-40294286D01*
X93515123Y-40318877D01*
X93513662Y-40321421D01*
X93503146Y-40357656D01*
X93496890Y-40411246D01*
X93496133Y-40436567D01*
X93503657Y-40505592D01*
G36*
X93344043Y-40782276D02*
G01*
X93354891Y-41067015D01*
X93387017Y-41328901D01*
X93428982Y-41527083D01*
X93457313Y-41627482D01*
X93487568Y-41705611D01*
X93525960Y-41772791D01*
X93578704Y-41840345D01*
X93634196Y-41900993D01*
X93695835Y-41968937D01*
X93760431Y-42045118D01*
X93815503Y-42114742D01*
X93822873Y-42124660D01*
X93864001Y-42174484D01*
X93924335Y-42239549D01*
X93997300Y-42313136D01*
X94076319Y-42388528D01*
X94121399Y-42429601D01*
X94200895Y-42501142D01*
X94258607Y-42554847D01*
X94298283Y-42595131D01*
X94323671Y-42626406D01*
X94338521Y-42653086D01*
X94346579Y-42679586D01*
X94349935Y-42698693D01*
X94364595Y-42761807D01*
X94386552Y-42822639D01*
X94391527Y-42833068D01*
X94403045Y-42857164D01*
X94409804Y-42879760D01*
X94411270Y-42907053D01*
X94406907Y-42945243D01*
X94396182Y-43000525D01*
X94378559Y-43079097D01*
X94365423Y-43135824D01*
X94327312Y-43294967D01*
X94287194Y-43451919D01*
X94243188Y-43613358D01*
X94193415Y-43785964D01*
X94135996Y-43976415D01*
X94069049Y-44191388D01*
X94062246Y-44212945D01*
X93975624Y-44496887D01*
X93900655Y-44762949D01*
X93837794Y-45009073D01*
X93787496Y-45233201D01*
X93750216Y-45433277D01*
X93726410Y-45607241D01*
X93716531Y-45753038D01*
X93716266Y-45777576D01*
X93718335Y-45848227D01*
X93724052Y-45944685D01*
X93732682Y-46059175D01*
X93743487Y-46183923D01*
X93755734Y-46311153D01*
X93768687Y-46433091D01*
X93781609Y-46541962D01*
X93793765Y-46629991D01*
X93800943Y-46672534D01*
X93809297Y-46733108D01*
X93811380Y-46786629D01*
X93809130Y-46809113D01*
X93811155Y-46850491D01*
X93831177Y-46914889D01*
X93865576Y-46995379D01*
X93900277Y-47065289D01*
X93936592Y-47124616D01*
X93981304Y-47182605D01*
X94041198Y-47248500D01*
X94082216Y-47290600D01*
X94154133Y-47365605D01*
X94230194Y-47448659D01*
X94300021Y-47528255D01*
X94341823Y-47578467D01*
X94404895Y-47656517D01*
X94476756Y-47744851D01*
X94544562Y-47827698D01*
X94562422Y-47849401D01*
X94612427Y-47911900D01*
X94656356Y-47970133D01*
X94688121Y-48015865D01*
X94698945Y-48034144D01*
X94720119Y-48066665D01*
X94758356Y-48116852D01*
X94807877Y-48177368D01*
X94853265Y-48230022D01*
X94923911Y-48316172D01*
X94988408Y-48406062D01*
X95038231Y-48487643D01*
X95045975Y-48502479D01*
X95086802Y-48581557D01*
X95134798Y-48671371D01*
X95180061Y-48753408D01*
X95183055Y-48758707D01*
X95327114Y-49030038D01*
X95470183Y-49333639D01*
X95573469Y-49574280D01*
X95700061Y-49880301D01*
X95680106Y-50617451D01*
X95675776Y-50796402D01*
X95672130Y-50985292D01*
X95669243Y-51176929D01*
X95667194Y-51364121D01*
X95666060Y-51539678D01*
X95665918Y-51696407D01*
X95666846Y-51827118D01*
X95666983Y-51837201D01*
X95669061Y-51978082D01*
X95671160Y-52090317D01*
X95673738Y-52179122D01*
X95677255Y-52249714D01*
X95682171Y-52307309D01*
X95688945Y-52357125D01*
X95698036Y-52404379D01*
X95709905Y-52454287D01*
X95725010Y-52512066D01*
X95727129Y-52520027D01*
X95754429Y-52613215D01*
X95786553Y-52708608D01*
X95819003Y-52793456D01*
X95841147Y-52843110D01*
X95880680Y-52916936D01*
X95921069Y-52981886D01*
X95958460Y-53032782D01*
X95988995Y-53064449D01*
X96008819Y-53071710D01*
X96010523Y-53070481D01*
X96011553Y-53050176D01*
X96004638Y-53005247D01*
X95991160Y-52943629D01*
X95982541Y-52909614D01*
X95958737Y-52784649D01*
X95945141Y-52633147D01*
X95941364Y-52460740D01*
X95947016Y-52273057D01*
X95961708Y-52075728D01*
X95985051Y-51874384D01*
X96016657Y-51674655D01*
X96056134Y-51482170D01*
X96090623Y-51346134D01*
X96116157Y-51251289D01*
X96136124Y-51168365D01*
X96151454Y-51090329D01*
X96163079Y-51010148D01*
X96171929Y-50920787D01*
X96178934Y-50815215D01*
X96185025Y-50686397D01*
X96188078Y-50609534D01*
X96193202Y-50492070D01*
X96199168Y-50382854D01*
X96205579Y-50287451D01*
X96212034Y-50211427D01*
X96218134Y-50160347D01*
X96221460Y-50143979D01*
X96231228Y-50089194D01*
X96236645Y-50011172D01*
X96237888Y-49920236D01*
X96235133Y-49826713D01*
X96228557Y-49740925D01*
X96218338Y-49673199D01*
X96213057Y-49652801D01*
X96200444Y-49589811D01*
X96192279Y-49496768D01*
X96188852Y-49377226D01*
X96188764Y-49356467D01*
X96186363Y-49276090D01*
X96179698Y-49169396D01*
X96169323Y-49041011D01*
X96155792Y-48895559D01*
X96139658Y-48737668D01*
X96121477Y-48571963D01*
X96101800Y-48403069D01*
X96081184Y-48235613D01*
X96060180Y-48074219D01*
X96039344Y-47923515D01*
X96019229Y-47788125D01*
X96000389Y-47672676D01*
X95983378Y-47581794D01*
X95968973Y-47520874D01*
X95962580Y-47489459D01*
X95964647Y-47457980D01*
X95977416Y-47417856D01*
X96003127Y-47360507D01*
X96019838Y-47326141D01*
X96053950Y-47249356D01*
X96083742Y-47169043D01*
X96103814Y-47100081D01*
X96106486Y-47087400D01*
X96111795Y-47040848D01*
X96116409Y-46962083D01*
X96120287Y-46852752D01*
X96123388Y-46714504D01*
X96125670Y-46548984D01*
X96127092Y-46357841D01*
X96127462Y-46255280D01*
X96127801Y-46077341D01*
X96127787Y-45930206D01*
X96127315Y-45810811D01*
X96126279Y-45716095D01*
X96124574Y-45642996D01*
X96122095Y-45588450D01*
X96118736Y-45549396D01*
X96114392Y-45522770D01*
X96108957Y-45505511D01*
X96102326Y-45494557D01*
X96101232Y-45493280D01*
X96096365Y-45488590D01*
X96092082Y-45484727D01*
X96088373Y-45479616D01*
X96085231Y-45471185D01*
X96082648Y-45457359D01*
X96080616Y-45436064D01*
X96079126Y-45405225D01*
X96078171Y-45362770D01*
X96077743Y-45306624D01*
X96077833Y-45234713D01*
X96078433Y-45144964D01*
X96079536Y-45035301D01*
X96081133Y-44903652D01*
X96083217Y-44747943D01*
X96085779Y-44566098D01*
X96088811Y-44356046D01*
X96092305Y-44115710D01*
X96095130Y-43920867D01*
X96096870Y-43767769D01*
X96097646Y-43620742D01*
X96097498Y-43484468D01*
X96096464Y-43363630D01*
X96094583Y-43262912D01*
X96091894Y-43186995D01*
X96088687Y-43142629D01*
X96081441Y-43074529D01*
X96079979Y-43030555D01*
X96085519Y-43001275D01*
X96099281Y-42977259D01*
X96112119Y-42961300D01*
X96141646Y-42909214D01*
X96160630Y-42842490D01*
X96161953Y-42833605D01*
X96164328Y-42798902D01*
X96166561Y-42734513D01*
X96168589Y-42644616D01*
X96170347Y-42533392D01*
X96171773Y-42405020D01*
X96172803Y-42263680D01*
X96173375Y-42113551D01*
X96173438Y-42075134D01*
X96173664Y-41918062D01*
X96173949Y-41764109D01*
X96174280Y-41618301D01*
X96174642Y-41485659D01*
X96175021Y-41371208D01*
X96175404Y-41279972D01*
X96175777Y-41216974D01*
X96175821Y-41211534D01*
X96175163Y-41111660D01*
X96172091Y-41001812D01*
X96167181Y-40899836D01*
X96164490Y-40860822D01*
X96157344Y-40782434D01*
X96149676Y-40731755D01*
X96139972Y-40702640D01*
X96126719Y-40688946D01*
X96121654Y-40686872D01*
X96083827Y-40683194D01*
X96049580Y-40699366D01*
X96017394Y-40737991D01*
X95985752Y-40801671D01*
X95953134Y-40893008D01*
X95918022Y-41014607D01*
X95907779Y-41053498D01*
X95880261Y-41151672D01*
X95848050Y-41254245D01*
X95815430Y-41348153D01*
X95790233Y-41412207D01*
X95728280Y-41556418D01*
X95649373Y-41499895D01*
X95600834Y-41469306D01*
X95523817Y-41426321D01*
X95420835Y-41372199D01*
X95294398Y-41308201D01*
X95147020Y-41235589D01*
X94981213Y-41155624D01*
X94799490Y-41069566D01*
X94689919Y-41018349D01*
X94385105Y-40876520D01*
X94305873Y-40705360D01*
X94266556Y-40614343D01*
X94224302Y-40506673D01*
X94185217Y-40398336D01*
X94164391Y-40335085D01*
X94120334Y-40211577D01*
X94068652Y-40095351D01*
X94012597Y-39992063D01*
X93955420Y-39907368D01*
X93900373Y-39846922D01*
X93871529Y-39825679D01*
X93815031Y-39803646D01*
X93792170Y-39799117D01*
X93792170Y-39851431D01*
X93826791Y-39865635D01*
X93859633Y-39889154D01*
X93901996Y-39931556D01*
X93945952Y-39996415D01*
X93992867Y-40086363D01*
X94044109Y-40204035D01*
X94101045Y-40352062D01*
X94103800Y-40359581D01*
X94158722Y-40506766D01*
X94205722Y-40625308D01*
X94246727Y-40718969D01*
X94283665Y-40791508D01*
X94318461Y-40846688D01*
X94353044Y-40888269D01*
X94389339Y-40920012D01*
X94391921Y-40921909D01*
X94442217Y-40957174D01*
X94489407Y-40986355D01*
X94540983Y-41013109D01*
X94604440Y-41041097D01*
X94687271Y-41073978D01*
X94759196Y-41101265D01*
X94816940Y-41123152D01*
X94866943Y-41142944D01*
X94913624Y-41162928D01*
X94961404Y-41185392D01*
X95014702Y-41212625D01*
X95077938Y-41246913D01*
X95155531Y-41290544D01*
X95251902Y-41345807D01*
X95371470Y-41414988D01*
X95422664Y-41444682D01*
X95529403Y-41507490D01*
X95608706Y-41556334D01*
X95663126Y-41592979D01*
X95695221Y-41619191D01*
X95707545Y-41636735D01*
X95707562Y-41641546D01*
X95698981Y-41676849D01*
X95688828Y-41724108D01*
X95688656Y-41724962D01*
X95675791Y-41763713D01*
X95657113Y-41772941D01*
X95651952Y-41771456D01*
X95579017Y-41751729D01*
X95509141Y-41754307D01*
X95475373Y-41761840D01*
X95418415Y-41780233D01*
X95351725Y-41807000D01*
X95282453Y-41838563D01*
X95217749Y-41871342D01*
X95164763Y-41901759D01*
X95130646Y-41926235D01*
X95121733Y-41938836D01*
X95132752Y-41945092D01*
X95167291Y-41937042D01*
X95227571Y-41913989D01*
X95294883Y-41884700D01*
X95373676Y-41851801D01*
X95449727Y-41824343D01*
X95512859Y-41805783D01*
X95544650Y-41799865D01*
X95593685Y-41798037D01*
X95627770Y-41807954D01*
X95662003Y-41835617D01*
X95679621Y-41853518D01*
X95715871Y-41888630D01*
X95743372Y-41910571D01*
X95751588Y-41914267D01*
X95763976Y-41901462D01*
X95763244Y-41872653D01*
X95751169Y-41842251D01*
X95741304Y-41830849D01*
X95731959Y-41817460D01*
X95730454Y-41794709D01*
X95737810Y-41756546D01*
X95755049Y-41696920D01*
X95773836Y-41638276D01*
X95802122Y-41551395D01*
X95836238Y-41446164D01*
X95871684Y-41336484D01*
X95901022Y-41245400D01*
X95942242Y-41121076D01*
X95980969Y-41011736D01*
X96015857Y-40920671D01*
X96045560Y-40851169D01*
X96068731Y-40806520D01*
X96084023Y-40790012D01*
X96086986Y-40791158D01*
X96096563Y-40818021D01*
X96105255Y-40873091D01*
X96112797Y-40950711D01*
X96118926Y-41045229D01*
X96123376Y-41150988D01*
X96125884Y-41262335D01*
X96126186Y-41373613D01*
X96124018Y-41479170D01*
X96121648Y-41533267D01*
X96117979Y-41626619D01*
X96115406Y-41745574D01*
X96113986Y-41881885D01*
X96113777Y-42027302D01*
X96114835Y-42173579D01*
X96116484Y-42278334D01*
X96119542Y-42453226D01*
X96120647Y-42596739D01*
X96119145Y-42711336D01*
X96114382Y-42799479D01*
X96105705Y-42863633D01*
X96092459Y-42906259D01*
X96073992Y-42929820D01*
X96061098Y-42933506D01*
X96061098Y-45569781D01*
X96068082Y-45578900D01*
X96073215Y-45597267D01*
X96077270Y-45632677D01*
X96080114Y-45697326D01*
X96081830Y-45786610D01*
X96082499Y-45895927D01*
X96082201Y-46020673D01*
X96081020Y-46156245D01*
X96079036Y-46298040D01*
X96076330Y-46441455D01*
X96072986Y-46581886D01*
X96069083Y-46714730D01*
X96064704Y-46835385D01*
X96059930Y-46939247D01*
X96054843Y-47021712D01*
X96049524Y-47078178D01*
X96046659Y-47095896D01*
X96029789Y-47163967D01*
X96010529Y-47227848D01*
X95996548Y-47265230D01*
X95983798Y-47292840D01*
X95976668Y-47301480D01*
X95974352Y-47287315D01*
X95976042Y-47246511D01*
X95980091Y-47187089D01*
X95982518Y-47108880D01*
X95981259Y-47005296D01*
X95976841Y-46884567D01*
X95969789Y-46754920D01*
X95960628Y-46624587D01*
X95949881Y-46501795D01*
X95938076Y-46394774D01*
X95925735Y-46311754D01*
X95923499Y-46300000D01*
X95906650Y-46229530D01*
X95886384Y-46164824D01*
X95866969Y-46119427D01*
X95866199Y-46118082D01*
X95834211Y-46063164D01*
X95899827Y-45940282D01*
X95939372Y-45859913D01*
X95980048Y-45767195D01*
X96013066Y-45682160D01*
X96013145Y-45681934D01*
X96036322Y-45617504D01*
X96051408Y-45581384D01*
X96061098Y-45569781D01*
X96061098Y-42933506D01*
X96049649Y-42936779D01*
X96018777Y-42929600D01*
X95980723Y-42910744D01*
X95953043Y-42894150D01*
X95904633Y-42865114D01*
X95874306Y-42852431D01*
X95851658Y-42854133D01*
X95826290Y-42868252D01*
X95824013Y-42869740D01*
X95785397Y-42903111D01*
X95766670Y-42936124D01*
X95771470Y-42959116D01*
X95790155Y-42957260D01*
X95812996Y-42941452D01*
X95840773Y-42920752D01*
X95867751Y-42916166D01*
X95903390Y-42928910D01*
X95956669Y-42959901D01*
X96031699Y-43006467D01*
X96042384Y-43201200D01*
X96044084Y-43254308D01*
X96045157Y-43337508D01*
X96045618Y-43447033D01*
X96045484Y-43579114D01*
X96044771Y-43729985D01*
X96043495Y-43895876D01*
X96041672Y-44073020D01*
X96039318Y-44257650D01*
X96037273Y-44395001D01*
X96033629Y-44615874D01*
X96030132Y-44805531D01*
X96026683Y-44966621D01*
X96023182Y-45101792D01*
X96019528Y-45213693D01*
X96015620Y-45304973D01*
X96011358Y-45378282D01*
X96006643Y-45436268D01*
X96001372Y-45481580D01*
X95995446Y-45516868D01*
X95994578Y-45521067D01*
X95960580Y-45663713D01*
X95922277Y-45783385D01*
X95874955Y-45890975D01*
X95813901Y-45997374D01*
X95743899Y-46100303D01*
X95687357Y-46184961D01*
X95639989Y-46267182D01*
X95604849Y-46340685D01*
X95584990Y-46399190D01*
X95582412Y-46432472D01*
X95593044Y-46432377D01*
X95618160Y-46404877D01*
X95655910Y-46352233D01*
X95687215Y-46304234D01*
X95727782Y-46241055D01*
X95761479Y-46190075D01*
X95784398Y-46157111D01*
X95792456Y-46147600D01*
X95802914Y-46161211D01*
X95822626Y-46195691D01*
X95833736Y-46216908D01*
X95862509Y-46286679D01*
X95885580Y-46373769D01*
X95903508Y-46481893D01*
X95916850Y-46614769D01*
X95926164Y-46776113D01*
X95928951Y-46851468D01*
X95931668Y-47025873D01*
X95927059Y-47170212D01*
X95914319Y-47287649D01*
X95892645Y-47381351D01*
X95861234Y-47454483D01*
X95819281Y-47510211D01*
X95765984Y-47551700D01*
X95748764Y-47561277D01*
X95713005Y-47586948D01*
X95680137Y-47621715D01*
X95657362Y-47656202D01*
X95651880Y-47681033D01*
X95654033Y-47684612D01*
X95670892Y-47680029D01*
X95702095Y-47656900D01*
X95719693Y-47640810D01*
X95757605Y-47608282D01*
X95788365Y-47589109D01*
X95796594Y-47586934D01*
X95820328Y-47575306D01*
X95854495Y-47546120D01*
X95867754Y-47532360D01*
X95897642Y-47501339D01*
X95915435Y-47486162D01*
X95917599Y-47486256D01*
X95919839Y-47505170D01*
X95925996Y-47551423D01*
X95935227Y-47618823D01*
X95946690Y-47701179D01*
X95951634Y-47736366D01*
X95987628Y-47995987D01*
X96020443Y-48240876D01*
X96049808Y-48468701D01*
X96075452Y-48677129D01*
X96097105Y-48863829D01*
X96114498Y-49026467D01*
X96127358Y-49162711D01*
X96135418Y-49270230D01*
X96138405Y-49346691D01*
X96138411Y-49348001D01*
X96140841Y-49438413D01*
X96146765Y-49528063D01*
X96155203Y-49604718D01*
X96162137Y-49644334D01*
X96177416Y-49742474D01*
X96185197Y-49859738D01*
X96185208Y-49982162D01*
X96177178Y-50095785D01*
X96171694Y-50135401D01*
X96165281Y-50187931D01*
X96158587Y-50265685D01*
X96152227Y-50360031D01*
X96146816Y-50462337D01*
X96144559Y-50516401D01*
X96139775Y-50616812D01*
X96132736Y-50712803D01*
X96122586Y-50811312D01*
X96108471Y-50919276D01*
X96089536Y-51043630D01*
X96064928Y-51191314D01*
X96052782Y-51261467D01*
X96019063Y-51456034D01*
X95991034Y-51621848D01*
X95968176Y-51763448D01*
X95949973Y-51885372D01*
X95935906Y-51992161D01*
X95925457Y-52088353D01*
X95918109Y-52178488D01*
X95913342Y-52267106D01*
X95910640Y-52358745D01*
X95909484Y-52457944D01*
X95909318Y-52518752D01*
X95909025Y-52623698D01*
X95908312Y-52716141D01*
X95907256Y-52791106D01*
X95905932Y-52843614D01*
X95904416Y-52868689D01*
X95903947Y-52870119D01*
X95890538Y-52854368D01*
X95871484Y-52810151D01*
X95848272Y-52742109D01*
X95822388Y-52654885D01*
X95795319Y-52553120D01*
X95773327Y-52462272D01*
X95712853Y-52201267D01*
X95725859Y-51168334D01*
X95729007Y-50918895D01*
X95731734Y-50701019D01*
X95734015Y-50512407D01*
X95735822Y-50350757D01*
X95737130Y-50213768D01*
X95737914Y-50099140D01*
X95738146Y-50004572D01*
X95737800Y-49927763D01*
X95736850Y-49866413D01*
X95735271Y-49818221D01*
X95733036Y-49780885D01*
X95730118Y-49752106D01*
X95726493Y-49729583D01*
X95722132Y-49711015D01*
X95717011Y-49694101D01*
X95711103Y-49676540D01*
X95708818Y-49669734D01*
X95669102Y-49565559D01*
X95612049Y-49438268D01*
X95539875Y-49292394D01*
X95454798Y-49132469D01*
X95385748Y-49009334D01*
X95326729Y-48906040D01*
X95262266Y-48792880D01*
X95199136Y-48681771D01*
X95144118Y-48584629D01*
X95130550Y-48560601D01*
X95061188Y-48439966D01*
X94995835Y-48332131D01*
X94930532Y-48231634D01*
X94861322Y-48133012D01*
X94784243Y-48030804D01*
X94695337Y-47919549D01*
X94590645Y-47793784D01*
X94484247Y-47669022D01*
X94423381Y-47597195D01*
X94349131Y-47508050D01*
X94269126Y-47410830D01*
X94190994Y-47314777D01*
X94155825Y-47271088D01*
X94061305Y-47149568D01*
X93984619Y-47040844D01*
X93923543Y-46938804D01*
X93875850Y-46837337D01*
X93839317Y-46730330D01*
X93811718Y-46611672D01*
X93790828Y-46475249D01*
X93774423Y-46314951D01*
X93765350Y-46198400D01*
X93754848Y-45987298D01*
X93756342Y-45798095D01*
X93770926Y-45620624D01*
X93799691Y-45444722D01*
X93843731Y-45260224D01*
X93879562Y-45135816D01*
X93904047Y-45051007D01*
X93933177Y-44943582D01*
X93964224Y-44823984D01*
X93994461Y-44702652D01*
X94013375Y-44623601D01*
X94043669Y-44501869D01*
X94079474Y-44369840D01*
X94117325Y-44239608D01*
X94153756Y-44123265D01*
X94173256Y-44065819D01*
X94209664Y-43958623D01*
X94247001Y-43841492D01*
X94281157Y-43727745D01*
X94308022Y-43630703D01*
X94310679Y-43620348D01*
X94332655Y-43528596D01*
X94356037Y-43422216D01*
X94379648Y-43307537D01*
X94402313Y-43190894D01*
X94422856Y-43078616D01*
X94440100Y-42977038D01*
X94452870Y-42892489D01*
X94459989Y-42831304D01*
X94461070Y-42810574D01*
X94456001Y-42748194D01*
X94442135Y-42684860D01*
X94422261Y-42626728D01*
X94399170Y-42579956D01*
X94375653Y-42550699D01*
X94354499Y-42545114D01*
X94344918Y-42554306D01*
X94329985Y-42549086D01*
X94295844Y-42522979D01*
X94246420Y-42479833D01*
X94185638Y-42423497D01*
X94117423Y-42357819D01*
X94045700Y-42286646D01*
X93974394Y-42213828D01*
X93907429Y-42143212D01*
X93848731Y-42078646D01*
X93802225Y-42023979D01*
X93795751Y-42015867D01*
X93741956Y-41950729D01*
X93680533Y-41880807D01*
X93640805Y-41838067D01*
X93593034Y-41785069D01*
X93557554Y-41735102D01*
X93530076Y-41679275D01*
X93506311Y-41608694D01*
X93481971Y-41514468D01*
X93479277Y-41503133D01*
X93420944Y-41186595D01*
X93395734Y-40868811D01*
X93394533Y-40781532D01*
X93394533Y-40546040D01*
X93495011Y-40252254D01*
X93532250Y-40147005D01*
X93565813Y-40059178D01*
X93593995Y-39992881D01*
X93615088Y-39952223D01*
X93624113Y-39941534D01*
X93656699Y-39921330D01*
X93700913Y-39892883D01*
X93710653Y-39886500D01*
X93757991Y-39858467D01*
X93792170Y-39851431D01*
X93792170Y-39799117D01*
X93738350Y-39788453D01*
X93702196Y-39784809D01*
X93589266Y-39776736D01*
X93466500Y-40149544D01*
X93343733Y-40522351D01*
X93344043Y-40782276D01*
X93344043Y-40782276D01*
G37*
X93344043Y-40782276D02*
X93354891Y-41067015D01*
X93387017Y-41328901D01*
X93428982Y-41527083D01*
X93457313Y-41627482D01*
X93487568Y-41705611D01*
X93525960Y-41772791D01*
X93578704Y-41840345D01*
X93634196Y-41900993D01*
X93695835Y-41968937D01*
X93760431Y-42045118D01*
X93815503Y-42114742D01*
X93822873Y-42124660D01*
X93864001Y-42174484D01*
X93924335Y-42239549D01*
X93997300Y-42313136D01*
X94076319Y-42388528D01*
X94121399Y-42429601D01*
X94200895Y-42501142D01*
X94258607Y-42554847D01*
X94298283Y-42595131D01*
X94323671Y-42626406D01*
X94338521Y-42653086D01*
X94346579Y-42679586D01*
X94349935Y-42698693D01*
X94364595Y-42761807D01*
X94386552Y-42822639D01*
X94391527Y-42833068D01*
X94403045Y-42857164D01*
X94409804Y-42879760D01*
X94411270Y-42907053D01*
X94406907Y-42945243D01*
X94396182Y-43000525D01*
X94378559Y-43079097D01*
X94365423Y-43135824D01*
X94327312Y-43294967D01*
X94287194Y-43451919D01*
X94243188Y-43613358D01*
X94193415Y-43785964D01*
X94135996Y-43976415D01*
X94069049Y-44191388D01*
X94062246Y-44212945D01*
X93975624Y-44496887D01*
X93900655Y-44762949D01*
X93837794Y-45009073D01*
X93787496Y-45233201D01*
X93750216Y-45433277D01*
X93726410Y-45607241D01*
X93716531Y-45753038D01*
X93716266Y-45777576D01*
X93718335Y-45848227D01*
X93724052Y-45944685D01*
X93732682Y-46059175D01*
X93743487Y-46183923D01*
X93755734Y-46311153D01*
X93768687Y-46433091D01*
X93781609Y-46541962D01*
X93793765Y-46629991D01*
X93800943Y-46672534D01*
X93809297Y-46733108D01*
X93811380Y-46786629D01*
X93809130Y-46809113D01*
X93811155Y-46850491D01*
X93831177Y-46914889D01*
X93865576Y-46995379D01*
X93900277Y-47065289D01*
X93936592Y-47124616D01*
X93981304Y-47182605D01*
X94041198Y-47248500D01*
X94082216Y-47290600D01*
X94154133Y-47365605D01*
X94230194Y-47448659D01*
X94300021Y-47528255D01*
X94341823Y-47578467D01*
X94404895Y-47656517D01*
X94476756Y-47744851D01*
X94544562Y-47827698D01*
X94562422Y-47849401D01*
X94612427Y-47911900D01*
X94656356Y-47970133D01*
X94688121Y-48015865D01*
X94698945Y-48034144D01*
X94720119Y-48066665D01*
X94758356Y-48116852D01*
X94807877Y-48177368D01*
X94853265Y-48230022D01*
X94923911Y-48316172D01*
X94988408Y-48406062D01*
X95038231Y-48487643D01*
X95045975Y-48502479D01*
X95086802Y-48581557D01*
X95134798Y-48671371D01*
X95180061Y-48753408D01*
X95183055Y-48758707D01*
X95327114Y-49030038D01*
X95470183Y-49333639D01*
X95573469Y-49574280D01*
X95700061Y-49880301D01*
X95680106Y-50617451D01*
X95675776Y-50796402D01*
X95672130Y-50985292D01*
X95669243Y-51176929D01*
X95667194Y-51364121D01*
X95666060Y-51539678D01*
X95665918Y-51696407D01*
X95666846Y-51827118D01*
X95666983Y-51837201D01*
X95669061Y-51978082D01*
X95671160Y-52090317D01*
X95673738Y-52179122D01*
X95677255Y-52249714D01*
X95682171Y-52307309D01*
X95688945Y-52357125D01*
X95698036Y-52404379D01*
X95709905Y-52454287D01*
X95725010Y-52512066D01*
X95727129Y-52520027D01*
X95754429Y-52613215D01*
X95786553Y-52708608D01*
X95819003Y-52793456D01*
X95841147Y-52843110D01*
X95880680Y-52916936D01*
X95921069Y-52981886D01*
X95958460Y-53032782D01*
X95988995Y-53064449D01*
X96008819Y-53071710D01*
X96010523Y-53070481D01*
X96011553Y-53050176D01*
X96004638Y-53005247D01*
X95991160Y-52943629D01*
X95982541Y-52909614D01*
X95958737Y-52784649D01*
X95945141Y-52633147D01*
X95941364Y-52460740D01*
X95947016Y-52273057D01*
X95961708Y-52075728D01*
X95985051Y-51874384D01*
X96016657Y-51674655D01*
X96056134Y-51482170D01*
X96090623Y-51346134D01*
X96116157Y-51251289D01*
X96136124Y-51168365D01*
X96151454Y-51090329D01*
X96163079Y-51010148D01*
X96171929Y-50920787D01*
X96178934Y-50815215D01*
X96185025Y-50686397D01*
X96188078Y-50609534D01*
X96193202Y-50492070D01*
X96199168Y-50382854D01*
X96205579Y-50287451D01*
X96212034Y-50211427D01*
X96218134Y-50160347D01*
X96221460Y-50143979D01*
X96231228Y-50089194D01*
X96236645Y-50011172D01*
X96237888Y-49920236D01*
X96235133Y-49826713D01*
X96228557Y-49740925D01*
X96218338Y-49673199D01*
X96213057Y-49652801D01*
X96200444Y-49589811D01*
X96192279Y-49496768D01*
X96188852Y-49377226D01*
X96188764Y-49356467D01*
X96186363Y-49276090D01*
X96179698Y-49169396D01*
X96169323Y-49041011D01*
X96155792Y-48895559D01*
X96139658Y-48737668D01*
X96121477Y-48571963D01*
X96101800Y-48403069D01*
X96081184Y-48235613D01*
X96060180Y-48074219D01*
X96039344Y-47923515D01*
X96019229Y-47788125D01*
X96000389Y-47672676D01*
X95983378Y-47581794D01*
X95968973Y-47520874D01*
X95962580Y-47489459D01*
X95964647Y-47457980D01*
X95977416Y-47417856D01*
X96003127Y-47360507D01*
X96019838Y-47326141D01*
X96053950Y-47249356D01*
X96083742Y-47169043D01*
X96103814Y-47100081D01*
X96106486Y-47087400D01*
X96111795Y-47040848D01*
X96116409Y-46962083D01*
X96120287Y-46852752D01*
X96123388Y-46714504D01*
X96125670Y-46548984D01*
X96127092Y-46357841D01*
X96127462Y-46255280D01*
X96127801Y-46077341D01*
X96127787Y-45930206D01*
X96127315Y-45810811D01*
X96126279Y-45716095D01*
X96124574Y-45642996D01*
X96122095Y-45588450D01*
X96118736Y-45549396D01*
X96114392Y-45522770D01*
X96108957Y-45505511D01*
X96102326Y-45494557D01*
X96101232Y-45493280D01*
X96096365Y-45488590D01*
X96092082Y-45484727D01*
X96088373Y-45479616D01*
X96085231Y-45471185D01*
X96082648Y-45457359D01*
X96080616Y-45436064D01*
X96079126Y-45405225D01*
X96078171Y-45362770D01*
X96077743Y-45306624D01*
X96077833Y-45234713D01*
X96078433Y-45144964D01*
X96079536Y-45035301D01*
X96081133Y-44903652D01*
X96083217Y-44747943D01*
X96085779Y-44566098D01*
X96088811Y-44356046D01*
X96092305Y-44115710D01*
X96095130Y-43920867D01*
X96096870Y-43767769D01*
X96097646Y-43620742D01*
X96097498Y-43484468D01*
X96096464Y-43363630D01*
X96094583Y-43262912D01*
X96091894Y-43186995D01*
X96088687Y-43142629D01*
X96081441Y-43074529D01*
X96079979Y-43030555D01*
X96085519Y-43001275D01*
X96099281Y-42977259D01*
X96112119Y-42961300D01*
X96141646Y-42909214D01*
X96160630Y-42842490D01*
X96161953Y-42833605D01*
X96164328Y-42798902D01*
X96166561Y-42734513D01*
X96168589Y-42644616D01*
X96170347Y-42533392D01*
X96171773Y-42405020D01*
X96172803Y-42263680D01*
X96173375Y-42113551D01*
X96173438Y-42075134D01*
X96173664Y-41918062D01*
X96173949Y-41764109D01*
X96174280Y-41618301D01*
X96174642Y-41485659D01*
X96175021Y-41371208D01*
X96175404Y-41279972D01*
X96175777Y-41216974D01*
X96175821Y-41211534D01*
X96175163Y-41111660D01*
X96172091Y-41001812D01*
X96167181Y-40899836D01*
X96164490Y-40860822D01*
X96157344Y-40782434D01*
X96149676Y-40731755D01*
X96139972Y-40702640D01*
X96126719Y-40688946D01*
X96121654Y-40686872D01*
X96083827Y-40683194D01*
X96049580Y-40699366D01*
X96017394Y-40737991D01*
X95985752Y-40801671D01*
X95953134Y-40893008D01*
X95918022Y-41014607D01*
X95907779Y-41053498D01*
X95880261Y-41151672D01*
X95848050Y-41254245D01*
X95815430Y-41348153D01*
X95790233Y-41412207D01*
X95728280Y-41556418D01*
X95649373Y-41499895D01*
X95600834Y-41469306D01*
X95523817Y-41426321D01*
X95420835Y-41372199D01*
X95294398Y-41308201D01*
X95147020Y-41235589D01*
X94981213Y-41155624D01*
X94799490Y-41069566D01*
X94689919Y-41018349D01*
X94385105Y-40876520D01*
X94305873Y-40705360D01*
X94266556Y-40614343D01*
X94224302Y-40506673D01*
X94185217Y-40398336D01*
X94164391Y-40335085D01*
X94120334Y-40211577D01*
X94068652Y-40095351D01*
X94012597Y-39992063D01*
X93955420Y-39907368D01*
X93900373Y-39846922D01*
X93871529Y-39825679D01*
X93815031Y-39803646D01*
X93792170Y-39799117D01*
X93792170Y-39851431D01*
X93826791Y-39865635D01*
X93859633Y-39889154D01*
X93901996Y-39931556D01*
X93945952Y-39996415D01*
X93992867Y-40086363D01*
X94044109Y-40204035D01*
X94101045Y-40352062D01*
X94103800Y-40359581D01*
X94158722Y-40506766D01*
X94205722Y-40625308D01*
X94246727Y-40718969D01*
X94283665Y-40791508D01*
X94318461Y-40846688D01*
X94353044Y-40888269D01*
X94389339Y-40920012D01*
X94391921Y-40921909D01*
X94442217Y-40957174D01*
X94489407Y-40986355D01*
X94540983Y-41013109D01*
X94604440Y-41041097D01*
X94687271Y-41073978D01*
X94759196Y-41101265D01*
X94816940Y-41123152D01*
X94866943Y-41142944D01*
X94913624Y-41162928D01*
X94961404Y-41185392D01*
X95014702Y-41212625D01*
X95077938Y-41246913D01*
X95155531Y-41290544D01*
X95251902Y-41345807D01*
X95371470Y-41414988D01*
X95422664Y-41444682D01*
X95529403Y-41507490D01*
X95608706Y-41556334D01*
X95663126Y-41592979D01*
X95695221Y-41619191D01*
X95707545Y-41636735D01*
X95707562Y-41641546D01*
X95698981Y-41676849D01*
X95688828Y-41724108D01*
X95688656Y-41724962D01*
X95675791Y-41763713D01*
X95657113Y-41772941D01*
X95651952Y-41771456D01*
X95579017Y-41751729D01*
X95509141Y-41754307D01*
X95475373Y-41761840D01*
X95418415Y-41780233D01*
X95351725Y-41807000D01*
X95282453Y-41838563D01*
X95217749Y-41871342D01*
X95164763Y-41901759D01*
X95130646Y-41926235D01*
X95121733Y-41938836D01*
X95132752Y-41945092D01*
X95167291Y-41937042D01*
X95227571Y-41913989D01*
X95294883Y-41884700D01*
X95373676Y-41851801D01*
X95449727Y-41824343D01*
X95512859Y-41805783D01*
X95544650Y-41799865D01*
X95593685Y-41798037D01*
X95627770Y-41807954D01*
X95662003Y-41835617D01*
X95679621Y-41853518D01*
X95715871Y-41888630D01*
X95743372Y-41910571D01*
X95751588Y-41914267D01*
X95763976Y-41901462D01*
X95763244Y-41872653D01*
X95751169Y-41842251D01*
X95741304Y-41830849D01*
X95731959Y-41817460D01*
X95730454Y-41794709D01*
X95737810Y-41756546D01*
X95755049Y-41696920D01*
X95773836Y-41638276D01*
X95802122Y-41551395D01*
X95836238Y-41446164D01*
X95871684Y-41336484D01*
X95901022Y-41245400D01*
X95942242Y-41121076D01*
X95980969Y-41011736D01*
X96015857Y-40920671D01*
X96045560Y-40851169D01*
X96068731Y-40806520D01*
X96084023Y-40790012D01*
X96086986Y-40791158D01*
X96096563Y-40818021D01*
X96105255Y-40873091D01*
X96112797Y-40950711D01*
X96118926Y-41045229D01*
X96123376Y-41150988D01*
X96125884Y-41262335D01*
X96126186Y-41373613D01*
X96124018Y-41479170D01*
X96121648Y-41533267D01*
X96117979Y-41626619D01*
X96115406Y-41745574D01*
X96113986Y-41881885D01*
X96113777Y-42027302D01*
X96114835Y-42173579D01*
X96116484Y-42278334D01*
X96119542Y-42453226D01*
X96120647Y-42596739D01*
X96119145Y-42711336D01*
X96114382Y-42799479D01*
X96105705Y-42863633D01*
X96092459Y-42906259D01*
X96073992Y-42929820D01*
X96061098Y-42933506D01*
X96061098Y-45569781D01*
X96068082Y-45578900D01*
X96073215Y-45597267D01*
X96077270Y-45632677D01*
X96080114Y-45697326D01*
X96081830Y-45786610D01*
X96082499Y-45895927D01*
X96082201Y-46020673D01*
X96081020Y-46156245D01*
X96079036Y-46298040D01*
X96076330Y-46441455D01*
X96072986Y-46581886D01*
X96069083Y-46714730D01*
X96064704Y-46835385D01*
X96059930Y-46939247D01*
X96054843Y-47021712D01*
X96049524Y-47078178D01*
X96046659Y-47095896D01*
X96029789Y-47163967D01*
X96010529Y-47227848D01*
X95996548Y-47265230D01*
X95983798Y-47292840D01*
X95976668Y-47301480D01*
X95974352Y-47287315D01*
X95976042Y-47246511D01*
X95980091Y-47187089D01*
X95982518Y-47108880D01*
X95981259Y-47005296D01*
X95976841Y-46884567D01*
X95969789Y-46754920D01*
X95960628Y-46624587D01*
X95949881Y-46501795D01*
X95938076Y-46394774D01*
X95925735Y-46311754D01*
X95923499Y-46300000D01*
X95906650Y-46229530D01*
X95886384Y-46164824D01*
X95866969Y-46119427D01*
X95866199Y-46118082D01*
X95834211Y-46063164D01*
X95899827Y-45940282D01*
X95939372Y-45859913D01*
X95980048Y-45767195D01*
X96013066Y-45682160D01*
X96013145Y-45681934D01*
X96036322Y-45617504D01*
X96051408Y-45581384D01*
X96061098Y-45569781D01*
X96061098Y-42933506D01*
X96049649Y-42936779D01*
X96018777Y-42929600D01*
X95980723Y-42910744D01*
X95953043Y-42894150D01*
X95904633Y-42865114D01*
X95874306Y-42852431D01*
X95851658Y-42854133D01*
X95826290Y-42868252D01*
X95824013Y-42869740D01*
X95785397Y-42903111D01*
X95766670Y-42936124D01*
X95771470Y-42959116D01*
X95790155Y-42957260D01*
X95812996Y-42941452D01*
X95840773Y-42920752D01*
X95867751Y-42916166D01*
X95903390Y-42928910D01*
X95956669Y-42959901D01*
X96031699Y-43006467D01*
X96042384Y-43201200D01*
X96044084Y-43254308D01*
X96045157Y-43337508D01*
X96045618Y-43447033D01*
X96045484Y-43579114D01*
X96044771Y-43729985D01*
X96043495Y-43895876D01*
X96041672Y-44073020D01*
X96039318Y-44257650D01*
X96037273Y-44395001D01*
X96033629Y-44615874D01*
X96030132Y-44805531D01*
X96026683Y-44966621D01*
X96023182Y-45101792D01*
X96019528Y-45213693D01*
X96015620Y-45304973D01*
X96011358Y-45378282D01*
X96006643Y-45436268D01*
X96001372Y-45481580D01*
X95995446Y-45516868D01*
X95994578Y-45521067D01*
X95960580Y-45663713D01*
X95922277Y-45783385D01*
X95874955Y-45890975D01*
X95813901Y-45997374D01*
X95743899Y-46100303D01*
X95687357Y-46184961D01*
X95639989Y-46267182D01*
X95604849Y-46340685D01*
X95584990Y-46399190D01*
X95582412Y-46432472D01*
X95593044Y-46432377D01*
X95618160Y-46404877D01*
X95655910Y-46352233D01*
X95687215Y-46304234D01*
X95727782Y-46241055D01*
X95761479Y-46190075D01*
X95784398Y-46157111D01*
X95792456Y-46147600D01*
X95802914Y-46161211D01*
X95822626Y-46195691D01*
X95833736Y-46216908D01*
X95862509Y-46286679D01*
X95885580Y-46373769D01*
X95903508Y-46481893D01*
X95916850Y-46614769D01*
X95926164Y-46776113D01*
X95928951Y-46851468D01*
X95931668Y-47025873D01*
X95927059Y-47170212D01*
X95914319Y-47287649D01*
X95892645Y-47381351D01*
X95861234Y-47454483D01*
X95819281Y-47510211D01*
X95765984Y-47551700D01*
X95748764Y-47561277D01*
X95713005Y-47586948D01*
X95680137Y-47621715D01*
X95657362Y-47656202D01*
X95651880Y-47681033D01*
X95654033Y-47684612D01*
X95670892Y-47680029D01*
X95702095Y-47656900D01*
X95719693Y-47640810D01*
X95757605Y-47608282D01*
X95788365Y-47589109D01*
X95796594Y-47586934D01*
X95820328Y-47575306D01*
X95854495Y-47546120D01*
X95867754Y-47532360D01*
X95897642Y-47501339D01*
X95915435Y-47486162D01*
X95917599Y-47486256D01*
X95919839Y-47505170D01*
X95925996Y-47551423D01*
X95935227Y-47618823D01*
X95946690Y-47701179D01*
X95951634Y-47736366D01*
X95987628Y-47995987D01*
X96020443Y-48240876D01*
X96049808Y-48468701D01*
X96075452Y-48677129D01*
X96097105Y-48863829D01*
X96114498Y-49026467D01*
X96127358Y-49162711D01*
X96135418Y-49270230D01*
X96138405Y-49346691D01*
X96138411Y-49348001D01*
X96140841Y-49438413D01*
X96146765Y-49528063D01*
X96155203Y-49604718D01*
X96162137Y-49644334D01*
X96177416Y-49742474D01*
X96185197Y-49859738D01*
X96185208Y-49982162D01*
X96177178Y-50095785D01*
X96171694Y-50135401D01*
X96165281Y-50187931D01*
X96158587Y-50265685D01*
X96152227Y-50360031D01*
X96146816Y-50462337D01*
X96144559Y-50516401D01*
X96139775Y-50616812D01*
X96132736Y-50712803D01*
X96122586Y-50811312D01*
X96108471Y-50919276D01*
X96089536Y-51043630D01*
X96064928Y-51191314D01*
X96052782Y-51261467D01*
X96019063Y-51456034D01*
X95991034Y-51621848D01*
X95968176Y-51763448D01*
X95949973Y-51885372D01*
X95935906Y-51992161D01*
X95925457Y-52088353D01*
X95918109Y-52178488D01*
X95913342Y-52267106D01*
X95910640Y-52358745D01*
X95909484Y-52457944D01*
X95909318Y-52518752D01*
X95909025Y-52623698D01*
X95908312Y-52716141D01*
X95907256Y-52791106D01*
X95905932Y-52843614D01*
X95904416Y-52868689D01*
X95903947Y-52870119D01*
X95890538Y-52854368D01*
X95871484Y-52810151D01*
X95848272Y-52742109D01*
X95822388Y-52654885D01*
X95795319Y-52553120D01*
X95773327Y-52462272D01*
X95712853Y-52201267D01*
X95725859Y-51168334D01*
X95729007Y-50918895D01*
X95731734Y-50701019D01*
X95734015Y-50512407D01*
X95735822Y-50350757D01*
X95737130Y-50213768D01*
X95737914Y-50099140D01*
X95738146Y-50004572D01*
X95737800Y-49927763D01*
X95736850Y-49866413D01*
X95735271Y-49818221D01*
X95733036Y-49780885D01*
X95730118Y-49752106D01*
X95726493Y-49729583D01*
X95722132Y-49711015D01*
X95717011Y-49694101D01*
X95711103Y-49676540D01*
X95708818Y-49669734D01*
X95669102Y-49565559D01*
X95612049Y-49438268D01*
X95539875Y-49292394D01*
X95454798Y-49132469D01*
X95385748Y-49009334D01*
X95326729Y-48906040D01*
X95262266Y-48792880D01*
X95199136Y-48681771D01*
X95144118Y-48584629D01*
X95130550Y-48560601D01*
X95061188Y-48439966D01*
X94995835Y-48332131D01*
X94930532Y-48231634D01*
X94861322Y-48133012D01*
X94784243Y-48030804D01*
X94695337Y-47919549D01*
X94590645Y-47793784D01*
X94484247Y-47669022D01*
X94423381Y-47597195D01*
X94349131Y-47508050D01*
X94269126Y-47410830D01*
X94190994Y-47314777D01*
X94155825Y-47271088D01*
X94061305Y-47149568D01*
X93984619Y-47040844D01*
X93923543Y-46938804D01*
X93875850Y-46837337D01*
X93839317Y-46730330D01*
X93811718Y-46611672D01*
X93790828Y-46475249D01*
X93774423Y-46314951D01*
X93765350Y-46198400D01*
X93754848Y-45987298D01*
X93756342Y-45798095D01*
X93770926Y-45620624D01*
X93799691Y-45444722D01*
X93843731Y-45260224D01*
X93879562Y-45135816D01*
X93904047Y-45051007D01*
X93933177Y-44943582D01*
X93964224Y-44823984D01*
X93994461Y-44702652D01*
X94013375Y-44623601D01*
X94043669Y-44501869D01*
X94079474Y-44369840D01*
X94117325Y-44239608D01*
X94153756Y-44123265D01*
X94173256Y-44065819D01*
X94209664Y-43958623D01*
X94247001Y-43841492D01*
X94281157Y-43727745D01*
X94308022Y-43630703D01*
X94310679Y-43620348D01*
X94332655Y-43528596D01*
X94356037Y-43422216D01*
X94379648Y-43307537D01*
X94402313Y-43190894D01*
X94422856Y-43078616D01*
X94440100Y-42977038D01*
X94452870Y-42892489D01*
X94459989Y-42831304D01*
X94461070Y-42810574D01*
X94456001Y-42748194D01*
X94442135Y-42684860D01*
X94422261Y-42626728D01*
X94399170Y-42579956D01*
X94375653Y-42550699D01*
X94354499Y-42545114D01*
X94344918Y-42554306D01*
X94329985Y-42549086D01*
X94295844Y-42522979D01*
X94246420Y-42479833D01*
X94185638Y-42423497D01*
X94117423Y-42357819D01*
X94045700Y-42286646D01*
X93974394Y-42213828D01*
X93907429Y-42143212D01*
X93848731Y-42078646D01*
X93802225Y-42023979D01*
X93795751Y-42015867D01*
X93741956Y-41950729D01*
X93680533Y-41880807D01*
X93640805Y-41838067D01*
X93593034Y-41785069D01*
X93557554Y-41735102D01*
X93530076Y-41679275D01*
X93506311Y-41608694D01*
X93481971Y-41514468D01*
X93479277Y-41503133D01*
X93420944Y-41186595D01*
X93395734Y-40868811D01*
X93394533Y-40781532D01*
X93394533Y-40546040D01*
X93495011Y-40252254D01*
X93532250Y-40147005D01*
X93565813Y-40059178D01*
X93593995Y-39992881D01*
X93615088Y-39952223D01*
X93624113Y-39941534D01*
X93656699Y-39921330D01*
X93700913Y-39892883D01*
X93710653Y-39886500D01*
X93757991Y-39858467D01*
X93792170Y-39851431D01*
X93792170Y-39799117D01*
X93738350Y-39788453D01*
X93702196Y-39784809D01*
X93589266Y-39776736D01*
X93466500Y-40149544D01*
X93343733Y-40522351D01*
X93344043Y-40782276D01*
D12*
X88000000Y-40150000D03*
X88000000Y-42690000D03*
X88000000Y-45230000D03*
X88000000Y-47770000D03*
X88000000Y-50310000D03*
D13*
X88000000Y-52850000D03*
D12*
X71960000Y-43970000D03*
X74500000Y-43970000D03*
X71960000Y-46510000D03*
X74500000Y-46510000D03*
X71960000Y-49050000D03*
D13*
X74500000Y-49050000D03*
D12*
X62740000Y-57960000D03*
X60200000Y-57960000D03*
X62740000Y-55420000D03*
X60200000Y-55420000D03*
X62740000Y-52880000D03*
X60200000Y-52880000D03*
X62740000Y-50340000D03*
X60200000Y-50340000D03*
X62740000Y-47800000D03*
X60200000Y-47800000D03*
X62740000Y-45260000D03*
X60200000Y-45260000D03*
X62740000Y-42720000D03*
X60200000Y-42720000D03*
X62740000Y-40180000D03*
X60200000Y-40180000D03*
X62740000Y-37640000D03*
X60200000Y-37640000D03*
X62740000Y-35100000D03*
D13*
X60200000Y-35100000D03*
D14*
X78340000Y-42690000D02*
X74540000Y-46490000D01*
X88000000Y-42690000D02*
X78340000Y-42690000D01*
X86797919Y-40150000D02*
X88000000Y-40150000D01*
X72000000Y-42850000D02*
X72000000Y-43950000D01*
X74700000Y-40150000D02*
X72000000Y-42850000D01*
X76450000Y-40150000D02*
X76600000Y-40150000D01*
X76600000Y-40150000D02*
X74700000Y-40150000D01*
X76600000Y-40150000D02*
X86797919Y-40150000D01*
X69050000Y-49030000D02*
X62740000Y-42720000D01*
X72000000Y-49030000D02*
X69050000Y-49030000D01*
X64000000Y-40229002D02*
X64000000Y-36360000D01*
X73260000Y-47750000D02*
X71520998Y-47750000D01*
X64000000Y-36360000D02*
X62740000Y-35100000D01*
X71520998Y-47750000D02*
X64000000Y-40229002D01*
X74540000Y-49030000D02*
X73260000Y-47750000D01*
D15*
G36*
X85931958Y-38251581D02*
G01*
X85948933Y-38256730D01*
X85969638Y-38258769D01*
X85990214Y-38261576D01*
X86007900Y-38260500D01*
X89721500Y-38260500D01*
X89721500Y-54739500D01*
X86007900Y-54739500D01*
X85990214Y-54738424D01*
X85969638Y-54741231D01*
X85948933Y-54743270D01*
X85931958Y-54748419D01*
X64969416Y-59739500D01*
X58512742Y-59739500D01*
X58453721Y-59733713D01*
X58409213Y-59720275D01*
X58368153Y-59698443D01*
X58332119Y-59669054D01*
X58302483Y-59633231D01*
X58280365Y-59592325D01*
X58266615Y-59547907D01*
X58260500Y-59489725D01*
X58260500Y-57960000D01*
X59066040Y-57960000D01*
X59087829Y-58181225D01*
X59152358Y-58393948D01*
X59257147Y-58589994D01*
X59398169Y-58761831D01*
X59570006Y-58902853D01*
X59766052Y-59007642D01*
X59978775Y-59072171D01*
X60144564Y-59088500D01*
X60255436Y-59088500D01*
X60421225Y-59072171D01*
X60633948Y-59007642D01*
X60829994Y-58902853D01*
X61001831Y-58761831D01*
X61142853Y-58589994D01*
X61247642Y-58393948D01*
X61312171Y-58181225D01*
X61333960Y-57960000D01*
X61606040Y-57960000D01*
X61627829Y-58181225D01*
X61692358Y-58393948D01*
X61797147Y-58589994D01*
X61938169Y-58761831D01*
X62110006Y-58902853D01*
X62306052Y-59007642D01*
X62518775Y-59072171D01*
X62684564Y-59088500D01*
X62795436Y-59088500D01*
X62961225Y-59072171D01*
X63173948Y-59007642D01*
X63369994Y-58902853D01*
X63541831Y-58761831D01*
X63682853Y-58589994D01*
X63787642Y-58393948D01*
X63852171Y-58181225D01*
X63873960Y-57960000D01*
X63852171Y-57738775D01*
X63787642Y-57526052D01*
X63682853Y-57330006D01*
X63541831Y-57158169D01*
X63369994Y-57017147D01*
X63173948Y-56912358D01*
X62961225Y-56847829D01*
X62795436Y-56831500D01*
X62684564Y-56831500D01*
X62518775Y-56847829D01*
X62306052Y-56912358D01*
X62110006Y-57017147D01*
X61938169Y-57158169D01*
X61797147Y-57330006D01*
X61692358Y-57526052D01*
X61627829Y-57738775D01*
X61606040Y-57960000D01*
X61333960Y-57960000D01*
X61312171Y-57738775D01*
X61247642Y-57526052D01*
X61142853Y-57330006D01*
X61001831Y-57158169D01*
X60829994Y-57017147D01*
X60633948Y-56912358D01*
X60421225Y-56847829D01*
X60255436Y-56831500D01*
X60144564Y-56831500D01*
X59978775Y-56847829D01*
X59766052Y-56912358D01*
X59570006Y-57017147D01*
X59398169Y-57158169D01*
X59257147Y-57330006D01*
X59152358Y-57526052D01*
X59087829Y-57738775D01*
X59066040Y-57960000D01*
X58260500Y-57960000D01*
X58260500Y-55420000D01*
X59066040Y-55420000D01*
X59087829Y-55641225D01*
X59152358Y-55853948D01*
X59257147Y-56049994D01*
X59398169Y-56221831D01*
X59570006Y-56362853D01*
X59766052Y-56467642D01*
X59978775Y-56532171D01*
X60144564Y-56548500D01*
X60255436Y-56548500D01*
X60421225Y-56532171D01*
X60633948Y-56467642D01*
X60829994Y-56362853D01*
X61001831Y-56221831D01*
X61142853Y-56049994D01*
X61247642Y-55853948D01*
X61312171Y-55641225D01*
X61333960Y-55420000D01*
X61606040Y-55420000D01*
X61627829Y-55641225D01*
X61692358Y-55853948D01*
X61797147Y-56049994D01*
X61938169Y-56221831D01*
X62110006Y-56362853D01*
X62306052Y-56467642D01*
X62518775Y-56532171D01*
X62684564Y-56548500D01*
X62795436Y-56548500D01*
X62961225Y-56532171D01*
X63173948Y-56467642D01*
X63369994Y-56362853D01*
X63541831Y-56221831D01*
X63682853Y-56049994D01*
X63787642Y-55853948D01*
X63852171Y-55641225D01*
X63873960Y-55420000D01*
X63852171Y-55198775D01*
X63787642Y-54986052D01*
X63682853Y-54790006D01*
X63541831Y-54618169D01*
X63369994Y-54477147D01*
X63173948Y-54372358D01*
X62961225Y-54307829D01*
X62795436Y-54291500D01*
X62684564Y-54291500D01*
X62518775Y-54307829D01*
X62306052Y-54372358D01*
X62110006Y-54477147D01*
X61938169Y-54618169D01*
X61797147Y-54790006D01*
X61692358Y-54986052D01*
X61627829Y-55198775D01*
X61606040Y-55420000D01*
X61333960Y-55420000D01*
X61312171Y-55198775D01*
X61247642Y-54986052D01*
X61142853Y-54790006D01*
X61001831Y-54618169D01*
X60829994Y-54477147D01*
X60633948Y-54372358D01*
X60421225Y-54307829D01*
X60255436Y-54291500D01*
X60144564Y-54291500D01*
X59978775Y-54307829D01*
X59766052Y-54372358D01*
X59570006Y-54477147D01*
X59398169Y-54618169D01*
X59257147Y-54790006D01*
X59152358Y-54986052D01*
X59087829Y-55198775D01*
X59066040Y-55420000D01*
X58260500Y-55420000D01*
X58260500Y-52880000D01*
X59066040Y-52880000D01*
X59087829Y-53101225D01*
X59152358Y-53313948D01*
X59257147Y-53509994D01*
X59398169Y-53681831D01*
X59570006Y-53822853D01*
X59766052Y-53927642D01*
X59978775Y-53992171D01*
X60144564Y-54008500D01*
X60255436Y-54008500D01*
X60421225Y-53992171D01*
X60633948Y-53927642D01*
X60829994Y-53822853D01*
X61001831Y-53681831D01*
X61142853Y-53509994D01*
X61247642Y-53313948D01*
X61312171Y-53101225D01*
X61333960Y-52880000D01*
X61606040Y-52880000D01*
X61627829Y-53101225D01*
X61692358Y-53313948D01*
X61797147Y-53509994D01*
X61938169Y-53681831D01*
X62110006Y-53822853D01*
X62306052Y-53927642D01*
X62518775Y-53992171D01*
X62684564Y-54008500D01*
X62795436Y-54008500D01*
X62961225Y-53992171D01*
X63173948Y-53927642D01*
X63369994Y-53822853D01*
X63519691Y-53700000D01*
X86870152Y-53700000D01*
X86875529Y-53754596D01*
X86891454Y-53807093D01*
X86917315Y-53855475D01*
X86952118Y-53897882D01*
X86994525Y-53932685D01*
X87042907Y-53958546D01*
X87095404Y-53974471D01*
X87150000Y-53979848D01*
X87708875Y-53978500D01*
X87778500Y-53908875D01*
X87778500Y-53071500D01*
X88221500Y-53071500D01*
X88221500Y-53908875D01*
X88291125Y-53978500D01*
X88850000Y-53979848D01*
X88904596Y-53974471D01*
X88957093Y-53958546D01*
X89005475Y-53932685D01*
X89047882Y-53897882D01*
X89082685Y-53855475D01*
X89108546Y-53807093D01*
X89124471Y-53754596D01*
X89129848Y-53700000D01*
X89128500Y-53141125D01*
X89058875Y-53071500D01*
X88221500Y-53071500D01*
X87778500Y-53071500D01*
X86941125Y-53071500D01*
X86871500Y-53141125D01*
X86870152Y-53700000D01*
X63519691Y-53700000D01*
X63541831Y-53681831D01*
X63682853Y-53509994D01*
X63787642Y-53313948D01*
X63852171Y-53101225D01*
X63873960Y-52880000D01*
X63852171Y-52658775D01*
X63787642Y-52446052D01*
X63682853Y-52250006D01*
X63541831Y-52078169D01*
X63446582Y-52000000D01*
X86870152Y-52000000D01*
X86871500Y-52558875D01*
X86941125Y-52628500D01*
X87778500Y-52628500D01*
X87778500Y-51791125D01*
X88221500Y-51791125D01*
X88221500Y-52628500D01*
X89058875Y-52628500D01*
X89128500Y-52558875D01*
X89129848Y-52000000D01*
X89124471Y-51945404D01*
X89108546Y-51892907D01*
X89082685Y-51844525D01*
X89047882Y-51802118D01*
X89005475Y-51767315D01*
X88957093Y-51741454D01*
X88904596Y-51725529D01*
X88850000Y-51720152D01*
X88291125Y-51721500D01*
X88221500Y-51791125D01*
X87778500Y-51791125D01*
X87708875Y-51721500D01*
X87150000Y-51720152D01*
X87095404Y-51725529D01*
X87042907Y-51741454D01*
X86994525Y-51767315D01*
X86952118Y-51802118D01*
X86917315Y-51844525D01*
X86891454Y-51892907D01*
X86875529Y-51945404D01*
X86870152Y-52000000D01*
X63446582Y-52000000D01*
X63369994Y-51937147D01*
X63173948Y-51832358D01*
X62961225Y-51767829D01*
X62795436Y-51751500D01*
X62684564Y-51751500D01*
X62518775Y-51767829D01*
X62306052Y-51832358D01*
X62110006Y-51937147D01*
X61938169Y-52078169D01*
X61797147Y-52250006D01*
X61692358Y-52446052D01*
X61627829Y-52658775D01*
X61606040Y-52880000D01*
X61333960Y-52880000D01*
X61312171Y-52658775D01*
X61247642Y-52446052D01*
X61142853Y-52250006D01*
X61001831Y-52078169D01*
X60829994Y-51937147D01*
X60633948Y-51832358D01*
X60421225Y-51767829D01*
X60255436Y-51751500D01*
X60144564Y-51751500D01*
X59978775Y-51767829D01*
X59766052Y-51832358D01*
X59570006Y-51937147D01*
X59398169Y-52078169D01*
X59257147Y-52250006D01*
X59152358Y-52446052D01*
X59087829Y-52658775D01*
X59066040Y-52880000D01*
X58260500Y-52880000D01*
X58260500Y-50340000D01*
X59066040Y-50340000D01*
X59087829Y-50561225D01*
X59152358Y-50773948D01*
X59257147Y-50969994D01*
X59398169Y-51141831D01*
X59570006Y-51282853D01*
X59766052Y-51387642D01*
X59978775Y-51452171D01*
X60144564Y-51468500D01*
X60255436Y-51468500D01*
X60421225Y-51452171D01*
X60633948Y-51387642D01*
X60829994Y-51282853D01*
X61001831Y-51141831D01*
X61142853Y-50969994D01*
X61247642Y-50773948D01*
X61312171Y-50561225D01*
X61333960Y-50340000D01*
X61606040Y-50340000D01*
X61627829Y-50561225D01*
X61692358Y-50773948D01*
X61797147Y-50969994D01*
X61938169Y-51141831D01*
X62110006Y-51282853D01*
X62306052Y-51387642D01*
X62518775Y-51452171D01*
X62684564Y-51468500D01*
X62795436Y-51468500D01*
X62961225Y-51452171D01*
X63173948Y-51387642D01*
X63369994Y-51282853D01*
X63541831Y-51141831D01*
X63682853Y-50969994D01*
X63787642Y-50773948D01*
X63852171Y-50561225D01*
X63873960Y-50340000D01*
X63871006Y-50310000D01*
X86866040Y-50310000D01*
X86887829Y-50531225D01*
X86952358Y-50743948D01*
X87057147Y-50939994D01*
X87198169Y-51111831D01*
X87370006Y-51252853D01*
X87566052Y-51357642D01*
X87778775Y-51422171D01*
X87944564Y-51438500D01*
X88055436Y-51438500D01*
X88221225Y-51422171D01*
X88433948Y-51357642D01*
X88629994Y-51252853D01*
X88801831Y-51111831D01*
X88942853Y-50939994D01*
X89047642Y-50743948D01*
X89112171Y-50531225D01*
X89133960Y-50310000D01*
X89112171Y-50088775D01*
X89047642Y-49876052D01*
X88942853Y-49680006D01*
X88801831Y-49508169D01*
X88629994Y-49367147D01*
X88433948Y-49262358D01*
X88221225Y-49197829D01*
X88055436Y-49181500D01*
X87944564Y-49181500D01*
X87778775Y-49197829D01*
X87566052Y-49262358D01*
X87370006Y-49367147D01*
X87198169Y-49508169D01*
X87057147Y-49680006D01*
X86952358Y-49876052D01*
X86887829Y-50088775D01*
X86866040Y-50310000D01*
X63871006Y-50310000D01*
X63852171Y-50118775D01*
X63787642Y-49906052D01*
X63682853Y-49710006D01*
X63541831Y-49538169D01*
X63369994Y-49397147D01*
X63173948Y-49292358D01*
X62961225Y-49227829D01*
X62795436Y-49211500D01*
X62684564Y-49211500D01*
X62518775Y-49227829D01*
X62306052Y-49292358D01*
X62110006Y-49397147D01*
X61938169Y-49538169D01*
X61797147Y-49710006D01*
X61692358Y-49906052D01*
X61627829Y-50118775D01*
X61606040Y-50340000D01*
X61333960Y-50340000D01*
X61312171Y-50118775D01*
X61247642Y-49906052D01*
X61142853Y-49710006D01*
X61001831Y-49538169D01*
X60829994Y-49397147D01*
X60633948Y-49292358D01*
X60421225Y-49227829D01*
X60255436Y-49211500D01*
X60144564Y-49211500D01*
X59978775Y-49227829D01*
X59766052Y-49292358D01*
X59570006Y-49397147D01*
X59398169Y-49538169D01*
X59257147Y-49710006D01*
X59152358Y-49906052D01*
X59087829Y-50118775D01*
X59066040Y-50340000D01*
X58260500Y-50340000D01*
X58260500Y-47578498D01*
X59071500Y-47578498D01*
X59071500Y-48021502D01*
X59164551Y-48021502D01*
X59141725Y-48191875D01*
X59174580Y-48271222D01*
X59286214Y-48462217D01*
X59432964Y-48627764D01*
X59609191Y-48761500D01*
X59808123Y-48858286D01*
X59978500Y-48836935D01*
X59978500Y-48021500D01*
X59958500Y-48021500D01*
X59958500Y-47578500D01*
X59978500Y-47578500D01*
X59978500Y-46763065D01*
X60421500Y-46763065D01*
X60421500Y-47578500D01*
X60441500Y-47578500D01*
X60441500Y-48021500D01*
X60421500Y-48021500D01*
X60421500Y-48836935D01*
X60591877Y-48858286D01*
X60790809Y-48761500D01*
X60967036Y-48627764D01*
X61113786Y-48462217D01*
X61225420Y-48271222D01*
X61258275Y-48191875D01*
X61235449Y-48021502D01*
X61328500Y-48021502D01*
X61328500Y-47800000D01*
X61606040Y-47800000D01*
X61627829Y-48021225D01*
X61692358Y-48233948D01*
X61797147Y-48429994D01*
X61938169Y-48601831D01*
X62110006Y-48742853D01*
X62306052Y-48847642D01*
X62518775Y-48912171D01*
X62684564Y-48928500D01*
X62795436Y-48928500D01*
X62961225Y-48912171D01*
X63173948Y-48847642D01*
X63369994Y-48742853D01*
X63541831Y-48601831D01*
X63682853Y-48429994D01*
X63787642Y-48233948D01*
X63852171Y-48021225D01*
X63873960Y-47800000D01*
X63852171Y-47578775D01*
X63787642Y-47366052D01*
X63682853Y-47170006D01*
X63541831Y-46998169D01*
X63369994Y-46857147D01*
X63173948Y-46752358D01*
X62961225Y-46687829D01*
X62795436Y-46671500D01*
X62684564Y-46671500D01*
X62518775Y-46687829D01*
X62306052Y-46752358D01*
X62110006Y-46857147D01*
X61938169Y-46998169D01*
X61797147Y-47170006D01*
X61692358Y-47366052D01*
X61627829Y-47578775D01*
X61606040Y-47800000D01*
X61328500Y-47800000D01*
X61328500Y-47578498D01*
X61235449Y-47578498D01*
X61258275Y-47408125D01*
X61225420Y-47328778D01*
X61113786Y-47137783D01*
X60967036Y-46972236D01*
X60790809Y-46838500D01*
X60591877Y-46741714D01*
X60421500Y-46763065D01*
X59978500Y-46763065D01*
X59808123Y-46741714D01*
X59609191Y-46838500D01*
X59432964Y-46972236D01*
X59286214Y-47137783D01*
X59174580Y-47328778D01*
X59141725Y-47408125D01*
X59164551Y-47578498D01*
X59071500Y-47578498D01*
X58260500Y-47578498D01*
X58260500Y-45038498D01*
X59071500Y-45038498D01*
X59071500Y-45481502D01*
X59164551Y-45481502D01*
X59141725Y-45651875D01*
X59174580Y-45731222D01*
X59286214Y-45922217D01*
X59432964Y-46087764D01*
X59609191Y-46221500D01*
X59808123Y-46318286D01*
X59978500Y-46296935D01*
X59978500Y-45481500D01*
X59958500Y-45481500D01*
X59958500Y-45038500D01*
X59978500Y-45038500D01*
X59978500Y-44223065D01*
X60421500Y-44223065D01*
X60421500Y-45038500D01*
X60441500Y-45038500D01*
X60441500Y-45481500D01*
X60421500Y-45481500D01*
X60421500Y-46296935D01*
X60591877Y-46318286D01*
X60790809Y-46221500D01*
X60967036Y-46087764D01*
X61113786Y-45922217D01*
X61225420Y-45731222D01*
X61258275Y-45651875D01*
X61235449Y-45481502D01*
X61328500Y-45481502D01*
X61328500Y-45260000D01*
X61606040Y-45260000D01*
X61627829Y-45481225D01*
X61692358Y-45693948D01*
X61797147Y-45889994D01*
X61938169Y-46061831D01*
X62110006Y-46202853D01*
X62306052Y-46307642D01*
X62518775Y-46372171D01*
X62684564Y-46388500D01*
X62795436Y-46388500D01*
X62961225Y-46372171D01*
X63173948Y-46307642D01*
X63369994Y-46202853D01*
X63541831Y-46061831D01*
X63682853Y-45889994D01*
X63787642Y-45693948D01*
X63852171Y-45481225D01*
X63873960Y-45260000D01*
X63852171Y-45038775D01*
X63787642Y-44826052D01*
X63682853Y-44630006D01*
X63541831Y-44458169D01*
X63369994Y-44317147D01*
X63173948Y-44212358D01*
X62961225Y-44147829D01*
X62795436Y-44131500D01*
X62684564Y-44131500D01*
X62518775Y-44147829D01*
X62306052Y-44212358D01*
X62110006Y-44317147D01*
X61938169Y-44458169D01*
X61797147Y-44630006D01*
X61692358Y-44826052D01*
X61627829Y-45038775D01*
X61606040Y-45260000D01*
X61328500Y-45260000D01*
X61328500Y-45038498D01*
X61235449Y-45038498D01*
X61258275Y-44868125D01*
X61225420Y-44788778D01*
X61113786Y-44597783D01*
X60967036Y-44432236D01*
X60790809Y-44298500D01*
X60591877Y-44201714D01*
X60421500Y-44223065D01*
X59978500Y-44223065D01*
X59808123Y-44201714D01*
X59609191Y-44298500D01*
X59432964Y-44432236D01*
X59286214Y-44597783D01*
X59174580Y-44788778D01*
X59141725Y-44868125D01*
X59164551Y-45038498D01*
X59071500Y-45038498D01*
X58260500Y-45038498D01*
X58260500Y-43111875D01*
X59141725Y-43111875D01*
X59174580Y-43191222D01*
X59286214Y-43382217D01*
X59432964Y-43547764D01*
X59609191Y-43681500D01*
X59808123Y-43778286D01*
X59978500Y-43756935D01*
X59978500Y-42941500D01*
X60421500Y-42941500D01*
X60421500Y-43756935D01*
X60591877Y-43778286D01*
X60790809Y-43681500D01*
X60967036Y-43547764D01*
X61113786Y-43382217D01*
X61225420Y-43191222D01*
X61258275Y-43111875D01*
X61235449Y-42941500D01*
X60421500Y-42941500D01*
X59978500Y-42941500D01*
X59164551Y-42941500D01*
X59141725Y-43111875D01*
X58260500Y-43111875D01*
X58260500Y-42328125D01*
X59141725Y-42328125D01*
X59164551Y-42498500D01*
X59978500Y-42498500D01*
X59978500Y-41683065D01*
X60421500Y-41683065D01*
X60421500Y-42498500D01*
X61235449Y-42498500D01*
X61258275Y-42328125D01*
X61225420Y-42248778D01*
X61113786Y-42057783D01*
X60967036Y-41892236D01*
X60790809Y-41758500D01*
X60591877Y-41661714D01*
X60421500Y-41683065D01*
X59978500Y-41683065D01*
X59808123Y-41661714D01*
X59609191Y-41758500D01*
X59432964Y-41892236D01*
X59286214Y-42057783D01*
X59174580Y-42248778D01*
X59141725Y-42328125D01*
X58260500Y-42328125D01*
X58260500Y-40571875D01*
X59141725Y-40571875D01*
X59174580Y-40651222D01*
X59286214Y-40842217D01*
X59432964Y-41007764D01*
X59609191Y-41141500D01*
X59808123Y-41238286D01*
X59978500Y-41216935D01*
X59978500Y-40401500D01*
X60421500Y-40401500D01*
X60421500Y-41216935D01*
X60591877Y-41238286D01*
X60790809Y-41141500D01*
X60967036Y-41007764D01*
X61113786Y-40842217D01*
X61225420Y-40651222D01*
X61258275Y-40571875D01*
X61235449Y-40401500D01*
X60421500Y-40401500D01*
X59978500Y-40401500D01*
X59164551Y-40401500D01*
X59141725Y-40571875D01*
X58260500Y-40571875D01*
X58260500Y-39788125D01*
X59141725Y-39788125D01*
X59164551Y-39958500D01*
X59978500Y-39958500D01*
X59978500Y-39143065D01*
X60421500Y-39143065D01*
X60421500Y-39958500D01*
X61235449Y-39958500D01*
X61258275Y-39788125D01*
X61225420Y-39708778D01*
X61113786Y-39517783D01*
X60967036Y-39352236D01*
X60790809Y-39218500D01*
X60591877Y-39121714D01*
X60421500Y-39143065D01*
X59978500Y-39143065D01*
X59808123Y-39121714D01*
X59609191Y-39218500D01*
X59432964Y-39352236D01*
X59286214Y-39517783D01*
X59174580Y-39708778D01*
X59141725Y-39788125D01*
X58260500Y-39788125D01*
X58260500Y-38031875D01*
X59141725Y-38031875D01*
X59174580Y-38111222D01*
X59286214Y-38302217D01*
X59432964Y-38467764D01*
X59609191Y-38601500D01*
X59808123Y-38698286D01*
X59978500Y-38676935D01*
X59978500Y-37861500D01*
X60421500Y-37861500D01*
X60421500Y-38676935D01*
X60591877Y-38698286D01*
X60790809Y-38601500D01*
X60967036Y-38467764D01*
X61113786Y-38302217D01*
X61225420Y-38111222D01*
X61258275Y-38031875D01*
X61235449Y-37861500D01*
X60421500Y-37861500D01*
X59978500Y-37861500D01*
X59164551Y-37861500D01*
X59141725Y-38031875D01*
X58260500Y-38031875D01*
X58260500Y-37248125D01*
X59141725Y-37248125D01*
X59164551Y-37418500D01*
X59978500Y-37418500D01*
X59978500Y-36603065D01*
X60421500Y-36603065D01*
X60421500Y-37418500D01*
X61235449Y-37418500D01*
X61258275Y-37248125D01*
X61225420Y-37168778D01*
X61113786Y-36977783D01*
X60967036Y-36812236D01*
X60790809Y-36678500D01*
X60591877Y-36581714D01*
X60421500Y-36603065D01*
X59978500Y-36603065D01*
X59808123Y-36581714D01*
X59609191Y-36678500D01*
X59432964Y-36812236D01*
X59286214Y-36977783D01*
X59174580Y-37168778D01*
X59141725Y-37248125D01*
X58260500Y-37248125D01*
X58260500Y-34250000D01*
X59070153Y-34250000D01*
X59070153Y-35950000D01*
X59075530Y-36004595D01*
X59091455Y-36057093D01*
X59117316Y-36105475D01*
X59152118Y-36147882D01*
X59194525Y-36182684D01*
X59242907Y-36208545D01*
X59295405Y-36224470D01*
X59350000Y-36229847D01*
X61050000Y-36229847D01*
X61104595Y-36224470D01*
X61157093Y-36208545D01*
X61205475Y-36182684D01*
X61247882Y-36147882D01*
X61282684Y-36105475D01*
X61308545Y-36057093D01*
X61324470Y-36004595D01*
X61329847Y-35950000D01*
X61329847Y-35100000D01*
X61606040Y-35100000D01*
X61627829Y-35321225D01*
X61692358Y-35533948D01*
X61797147Y-35729994D01*
X61938169Y-35901831D01*
X62110006Y-36042853D01*
X62306052Y-36147642D01*
X62518775Y-36212171D01*
X62684564Y-36228500D01*
X62795436Y-36228500D01*
X62961225Y-36212171D01*
X63173948Y-36147642D01*
X63202008Y-36132643D01*
X63596501Y-36527136D01*
X63596501Y-36904785D01*
X63541831Y-36838169D01*
X63369994Y-36697147D01*
X63173948Y-36592358D01*
X62961225Y-36527829D01*
X62795436Y-36511500D01*
X62684564Y-36511500D01*
X62518775Y-36527829D01*
X62306052Y-36592358D01*
X62110006Y-36697147D01*
X61938169Y-36838169D01*
X61797147Y-37010006D01*
X61692358Y-37206052D01*
X61627829Y-37418775D01*
X61606040Y-37640000D01*
X61627829Y-37861225D01*
X61692358Y-38073948D01*
X61797147Y-38269994D01*
X61938169Y-38441831D01*
X62110006Y-38582853D01*
X62306052Y-38687642D01*
X62518775Y-38752171D01*
X62684564Y-38768500D01*
X62795436Y-38768500D01*
X62961225Y-38752171D01*
X63173948Y-38687642D01*
X63369994Y-38582853D01*
X63541831Y-38441831D01*
X63596500Y-38375216D01*
X63596500Y-39444784D01*
X63541831Y-39378169D01*
X63369994Y-39237147D01*
X63173948Y-39132358D01*
X62961225Y-39067829D01*
X62795436Y-39051500D01*
X62684564Y-39051500D01*
X62518775Y-39067829D01*
X62306052Y-39132358D01*
X62110006Y-39237147D01*
X61938169Y-39378169D01*
X61797147Y-39550006D01*
X61692358Y-39746052D01*
X61627829Y-39958775D01*
X61606040Y-40180000D01*
X61627829Y-40401225D01*
X61692358Y-40613948D01*
X61797147Y-40809994D01*
X61938169Y-40981831D01*
X62110006Y-41122853D01*
X62306052Y-41227642D01*
X62518775Y-41292171D01*
X62684564Y-41308500D01*
X62795436Y-41308500D01*
X62961225Y-41292171D01*
X63173948Y-41227642D01*
X63369994Y-41122853D01*
X63541831Y-40981831D01*
X63682853Y-40809994D01*
X63787642Y-40613948D01*
X63793849Y-40593486D01*
X71221665Y-48021302D01*
X71234300Y-48036698D01*
X71295741Y-48087121D01*
X71331606Y-48106292D01*
X71330006Y-48107147D01*
X71158169Y-48248169D01*
X71017147Y-48420006D01*
X70912358Y-48616052D01*
X70909189Y-48626500D01*
X69217135Y-48626500D01*
X63772643Y-43182008D01*
X63787642Y-43153948D01*
X63852171Y-42941225D01*
X63873960Y-42720000D01*
X63852171Y-42498775D01*
X63787642Y-42286052D01*
X63682853Y-42090006D01*
X63541831Y-41918169D01*
X63369994Y-41777147D01*
X63173948Y-41672358D01*
X62961225Y-41607829D01*
X62795436Y-41591500D01*
X62684564Y-41591500D01*
X62518775Y-41607829D01*
X62306052Y-41672358D01*
X62110006Y-41777147D01*
X61938169Y-41918169D01*
X61797147Y-42090006D01*
X61692358Y-42286052D01*
X61627829Y-42498775D01*
X61606040Y-42720000D01*
X61627829Y-42941225D01*
X61692358Y-43153948D01*
X61797147Y-43349994D01*
X61938169Y-43521831D01*
X62110006Y-43662853D01*
X62306052Y-43767642D01*
X62518775Y-43832171D01*
X62684564Y-43848500D01*
X62795436Y-43848500D01*
X62961225Y-43832171D01*
X63173948Y-43767642D01*
X63202008Y-43752643D01*
X68750667Y-49301302D01*
X68763302Y-49316698D01*
X68824742Y-49367120D01*
X68824743Y-49367121D01*
X68894840Y-49404589D01*
X68970900Y-49427661D01*
X69050000Y-49435452D01*
X69069818Y-49433500D01*
X70897055Y-49433500D01*
X70912358Y-49483948D01*
X71017147Y-49679994D01*
X71158169Y-49851831D01*
X71330006Y-49992853D01*
X71526052Y-50097642D01*
X71738775Y-50162171D01*
X71904564Y-50178500D01*
X72015436Y-50178500D01*
X72181225Y-50162171D01*
X72393948Y-50097642D01*
X72589994Y-49992853D01*
X72761831Y-49851831D01*
X72902853Y-49679994D01*
X73007642Y-49483948D01*
X73072171Y-49271225D01*
X73093960Y-49050000D01*
X73072171Y-48828775D01*
X73007642Y-48616052D01*
X72902853Y-48420006D01*
X72761831Y-48248169D01*
X72646476Y-48153500D01*
X73092865Y-48153500D01*
X73370153Y-48430788D01*
X73370153Y-49900000D01*
X73375530Y-49954595D01*
X73391455Y-50007093D01*
X73417316Y-50055475D01*
X73452118Y-50097882D01*
X73494525Y-50132684D01*
X73542907Y-50158545D01*
X73595405Y-50174470D01*
X73650000Y-50179847D01*
X75350000Y-50179847D01*
X75404595Y-50174470D01*
X75457093Y-50158545D01*
X75505475Y-50132684D01*
X75547882Y-50097882D01*
X75582684Y-50055475D01*
X75608545Y-50007093D01*
X75624470Y-49954595D01*
X75629847Y-49900000D01*
X75629847Y-48200000D01*
X75624470Y-48145405D01*
X75608545Y-48092907D01*
X75582684Y-48044525D01*
X75547882Y-48002118D01*
X75505475Y-47967316D01*
X75457093Y-47941455D01*
X75404595Y-47925530D01*
X75350000Y-47920153D01*
X74000788Y-47920153D01*
X73850635Y-47770000D01*
X86866040Y-47770000D01*
X86887829Y-47991225D01*
X86952358Y-48203948D01*
X87057147Y-48399994D01*
X87198169Y-48571831D01*
X87370006Y-48712853D01*
X87566052Y-48817642D01*
X87778775Y-48882171D01*
X87944564Y-48898500D01*
X88055436Y-48898500D01*
X88221225Y-48882171D01*
X88433948Y-48817642D01*
X88629994Y-48712853D01*
X88801831Y-48571831D01*
X88942853Y-48399994D01*
X89047642Y-48203948D01*
X89112171Y-47991225D01*
X89133960Y-47770000D01*
X89112171Y-47548775D01*
X89047642Y-47336052D01*
X88942853Y-47140006D01*
X88801831Y-46968169D01*
X88629994Y-46827147D01*
X88433948Y-46722358D01*
X88221225Y-46657829D01*
X88055436Y-46641500D01*
X87944564Y-46641500D01*
X87778775Y-46657829D01*
X87566052Y-46722358D01*
X87370006Y-46827147D01*
X87198169Y-46968169D01*
X87057147Y-47140006D01*
X86952358Y-47336052D01*
X86887829Y-47548775D01*
X86866040Y-47770000D01*
X73850635Y-47770000D01*
X73559333Y-47478698D01*
X73546698Y-47463302D01*
X73485257Y-47412879D01*
X73415160Y-47375411D01*
X73339100Y-47352339D01*
X73279818Y-47346500D01*
X73260000Y-47344548D01*
X73240182Y-47346500D01*
X72719586Y-47346500D01*
X72761831Y-47311831D01*
X72902853Y-47139994D01*
X73007642Y-46943948D01*
X73072171Y-46731225D01*
X73093960Y-46510000D01*
X73366040Y-46510000D01*
X73387829Y-46731225D01*
X73452358Y-46943948D01*
X73557147Y-47139994D01*
X73698169Y-47311831D01*
X73870006Y-47452853D01*
X74066052Y-47557642D01*
X74278775Y-47622171D01*
X74444564Y-47638500D01*
X74555436Y-47638500D01*
X74721225Y-47622171D01*
X74933948Y-47557642D01*
X75129994Y-47452853D01*
X75301831Y-47311831D01*
X75442853Y-47139994D01*
X75547642Y-46943948D01*
X75612171Y-46731225D01*
X75633960Y-46510000D01*
X75612171Y-46288775D01*
X75547642Y-46076052D01*
X75539610Y-46061025D01*
X76370635Y-45230000D01*
X86866040Y-45230000D01*
X86887829Y-45451225D01*
X86952358Y-45663948D01*
X87057147Y-45859994D01*
X87198169Y-46031831D01*
X87370006Y-46172853D01*
X87566052Y-46277642D01*
X87778775Y-46342171D01*
X87944564Y-46358500D01*
X88055436Y-46358500D01*
X88221225Y-46342171D01*
X88433948Y-46277642D01*
X88629994Y-46172853D01*
X88801831Y-46031831D01*
X88942853Y-45859994D01*
X89047642Y-45663948D01*
X89112171Y-45451225D01*
X89133960Y-45230000D01*
X89112171Y-45008775D01*
X89047642Y-44796052D01*
X88942853Y-44600006D01*
X88801831Y-44428169D01*
X88629994Y-44287147D01*
X88433948Y-44182358D01*
X88221225Y-44117829D01*
X88055436Y-44101500D01*
X87944564Y-44101500D01*
X87778775Y-44117829D01*
X87566052Y-44182358D01*
X87370006Y-44287147D01*
X87198169Y-44428169D01*
X87057147Y-44600006D01*
X86952358Y-44796052D01*
X86887829Y-45008775D01*
X86866040Y-45230000D01*
X76370635Y-45230000D01*
X78507135Y-43093500D01*
X86943122Y-43093500D01*
X86952358Y-43123948D01*
X87057147Y-43319994D01*
X87198169Y-43491831D01*
X87370006Y-43632853D01*
X87566052Y-43737642D01*
X87778775Y-43802171D01*
X87944564Y-43818500D01*
X88055436Y-43818500D01*
X88221225Y-43802171D01*
X88433948Y-43737642D01*
X88629994Y-43632853D01*
X88801831Y-43491831D01*
X88942853Y-43319994D01*
X89047642Y-43123948D01*
X89112171Y-42911225D01*
X89133960Y-42690000D01*
X89112171Y-42468775D01*
X89047642Y-42256052D01*
X88942853Y-42060006D01*
X88801831Y-41888169D01*
X88629994Y-41747147D01*
X88433948Y-41642358D01*
X88221225Y-41577829D01*
X88055436Y-41561500D01*
X87944564Y-41561500D01*
X87778775Y-41577829D01*
X87566052Y-41642358D01*
X87370006Y-41747147D01*
X87198169Y-41888169D01*
X87057147Y-42060006D01*
X86952358Y-42256052D01*
X86943122Y-42286500D01*
X78359818Y-42286500D01*
X78340000Y-42284548D01*
X78320182Y-42286500D01*
X78260900Y-42292339D01*
X78184840Y-42315411D01*
X78114743Y-42352879D01*
X78053302Y-42403302D01*
X78040667Y-42418698D01*
X74975042Y-45484323D01*
X74933948Y-45462358D01*
X74721225Y-45397829D01*
X74555436Y-45381500D01*
X74444564Y-45381500D01*
X74278775Y-45397829D01*
X74066052Y-45462358D01*
X73870006Y-45567147D01*
X73698169Y-45708169D01*
X73557147Y-45880006D01*
X73452358Y-46076052D01*
X73387829Y-46288775D01*
X73366040Y-46510000D01*
X73093960Y-46510000D01*
X73072171Y-46288775D01*
X73007642Y-46076052D01*
X72902853Y-45880006D01*
X72761831Y-45708169D01*
X72589994Y-45567147D01*
X72393948Y-45462358D01*
X72181225Y-45397829D01*
X72015436Y-45381500D01*
X71904564Y-45381500D01*
X71738775Y-45397829D01*
X71526052Y-45462358D01*
X71330006Y-45567147D01*
X71158169Y-45708169D01*
X71017147Y-45880006D01*
X70912358Y-46076052D01*
X70847829Y-46288775D01*
X70828335Y-46486702D01*
X68311633Y-43970000D01*
X70826040Y-43970000D01*
X70847829Y-44191225D01*
X70912358Y-44403948D01*
X71017147Y-44599994D01*
X71158169Y-44771831D01*
X71330006Y-44912853D01*
X71526052Y-45017642D01*
X71738775Y-45082171D01*
X71904564Y-45098500D01*
X72015436Y-45098500D01*
X72181225Y-45082171D01*
X72393948Y-45017642D01*
X72589994Y-44912853D01*
X72761831Y-44771831D01*
X72902853Y-44599994D01*
X73007642Y-44403948D01*
X73020404Y-44361875D01*
X73441725Y-44361875D01*
X73474580Y-44441222D01*
X73586214Y-44632217D01*
X73732964Y-44797764D01*
X73909191Y-44931500D01*
X74108123Y-45028286D01*
X74278500Y-45006935D01*
X74278500Y-44191500D01*
X74721500Y-44191500D01*
X74721500Y-45006935D01*
X74891877Y-45028286D01*
X75090809Y-44931500D01*
X75267036Y-44797764D01*
X75413786Y-44632217D01*
X75525420Y-44441222D01*
X75558275Y-44361875D01*
X75535449Y-44191500D01*
X74721500Y-44191500D01*
X74278500Y-44191500D01*
X73464551Y-44191500D01*
X73441725Y-44361875D01*
X73020404Y-44361875D01*
X73072171Y-44191225D01*
X73093960Y-43970000D01*
X73072171Y-43748775D01*
X73020405Y-43578125D01*
X73441725Y-43578125D01*
X73464551Y-43748500D01*
X74278500Y-43748500D01*
X74278500Y-42933065D01*
X74721500Y-42933065D01*
X74721500Y-43748500D01*
X75535449Y-43748500D01*
X75558275Y-43578125D01*
X75525420Y-43498778D01*
X75413786Y-43307783D01*
X75267036Y-43142236D01*
X75090809Y-43008500D01*
X74891877Y-42911714D01*
X74721500Y-42933065D01*
X74278500Y-42933065D01*
X74108123Y-42911714D01*
X73909191Y-43008500D01*
X73732964Y-43142236D01*
X73586214Y-43307783D01*
X73474580Y-43498778D01*
X73441725Y-43578125D01*
X73020405Y-43578125D01*
X73007642Y-43536052D01*
X72902853Y-43340006D01*
X72761831Y-43168169D01*
X72589994Y-43027147D01*
X72461936Y-42958699D01*
X74867135Y-40553500D01*
X86943122Y-40553500D01*
X86952358Y-40583948D01*
X87057147Y-40779994D01*
X87198169Y-40951831D01*
X87370006Y-41092853D01*
X87566052Y-41197642D01*
X87778775Y-41262171D01*
X87944564Y-41278500D01*
X88055436Y-41278500D01*
X88221225Y-41262171D01*
X88433948Y-41197642D01*
X88629994Y-41092853D01*
X88801831Y-40951831D01*
X88942853Y-40779994D01*
X89047642Y-40583948D01*
X89112171Y-40371225D01*
X89133960Y-40150000D01*
X89112171Y-39928775D01*
X89047642Y-39716052D01*
X88942853Y-39520006D01*
X88801831Y-39348169D01*
X88629994Y-39207147D01*
X88433948Y-39102358D01*
X88221225Y-39037829D01*
X88055436Y-39021500D01*
X87944564Y-39021500D01*
X87778775Y-39037829D01*
X87566052Y-39102358D01*
X87370006Y-39207147D01*
X87198169Y-39348169D01*
X87057147Y-39520006D01*
X86952358Y-39716052D01*
X86943122Y-39746500D01*
X74719818Y-39746500D01*
X74700000Y-39744548D01*
X74680182Y-39746500D01*
X74620900Y-39752339D01*
X74544840Y-39775411D01*
X74474743Y-39812879D01*
X74413302Y-39863302D01*
X74400667Y-39878698D01*
X71728698Y-42550667D01*
X71713302Y-42563302D01*
X71662879Y-42624744D01*
X71627999Y-42690000D01*
X71625411Y-42694841D01*
X71602339Y-42770901D01*
X71594548Y-42850000D01*
X71596500Y-42869818D01*
X71596500Y-42900988D01*
X71526052Y-42922358D01*
X71330006Y-43027147D01*
X71158169Y-43168169D01*
X71017147Y-43340006D01*
X70912358Y-43536052D01*
X70847829Y-43748775D01*
X70826040Y-43970000D01*
X68311633Y-43970000D01*
X64403500Y-40061867D01*
X64403500Y-36379817D01*
X64405452Y-36359999D01*
X64397661Y-36280900D01*
X64374589Y-36204840D01*
X64362746Y-36182684D01*
X64337121Y-36134743D01*
X64286698Y-36073302D01*
X64271302Y-36060667D01*
X63772643Y-35562008D01*
X63787642Y-35533948D01*
X63852171Y-35321225D01*
X63873960Y-35100000D01*
X63852171Y-34878775D01*
X63787642Y-34666052D01*
X63682853Y-34470006D01*
X63541831Y-34298169D01*
X63369994Y-34157147D01*
X63173948Y-34052358D01*
X62961225Y-33987829D01*
X62795436Y-33971500D01*
X62684564Y-33971500D01*
X62518775Y-33987829D01*
X62306052Y-34052358D01*
X62110006Y-34157147D01*
X61938169Y-34298169D01*
X61797147Y-34470006D01*
X61692358Y-34666052D01*
X61627829Y-34878775D01*
X61606040Y-35100000D01*
X61329847Y-35100000D01*
X61329847Y-34250000D01*
X61324470Y-34195405D01*
X61308545Y-34142907D01*
X61282684Y-34094525D01*
X61247882Y-34052118D01*
X61205475Y-34017316D01*
X61157093Y-33991455D01*
X61104595Y-33975530D01*
X61050000Y-33970153D01*
X59350000Y-33970153D01*
X59295405Y-33975530D01*
X59242907Y-33991455D01*
X59194525Y-34017316D01*
X59152118Y-34052118D01*
X59117316Y-34094525D01*
X59091455Y-34142907D01*
X59075530Y-34195405D01*
X59070153Y-34250000D01*
X58260500Y-34250000D01*
X58260500Y-33512741D01*
X58266287Y-33453721D01*
X58279725Y-33409212D01*
X58301554Y-33368155D01*
X58330946Y-33332119D01*
X58366771Y-33302482D01*
X58407675Y-33280365D01*
X58452093Y-33266615D01*
X58510276Y-33260500D01*
X64969416Y-33260500D01*
X85931958Y-38251581D01*
X85931958Y-38251581D01*
G37*
X85931958Y-38251581D02*
X85948933Y-38256730D01*
X85969638Y-38258769D01*
X85990214Y-38261576D01*
X86007900Y-38260500D01*
X89721500Y-38260500D01*
X89721500Y-54739500D01*
X86007900Y-54739500D01*
X85990214Y-54738424D01*
X85969638Y-54741231D01*
X85948933Y-54743270D01*
X85931958Y-54748419D01*
X64969416Y-59739500D01*
X58512742Y-59739500D01*
X58453721Y-59733713D01*
X58409213Y-59720275D01*
X58368153Y-59698443D01*
X58332119Y-59669054D01*
X58302483Y-59633231D01*
X58280365Y-59592325D01*
X58266615Y-59547907D01*
X58260500Y-59489725D01*
X58260500Y-57960000D01*
X59066040Y-57960000D01*
X59087829Y-58181225D01*
X59152358Y-58393948D01*
X59257147Y-58589994D01*
X59398169Y-58761831D01*
X59570006Y-58902853D01*
X59766052Y-59007642D01*
X59978775Y-59072171D01*
X60144564Y-59088500D01*
X60255436Y-59088500D01*
X60421225Y-59072171D01*
X60633948Y-59007642D01*
X60829994Y-58902853D01*
X61001831Y-58761831D01*
X61142853Y-58589994D01*
X61247642Y-58393948D01*
X61312171Y-58181225D01*
X61333960Y-57960000D01*
X61606040Y-57960000D01*
X61627829Y-58181225D01*
X61692358Y-58393948D01*
X61797147Y-58589994D01*
X61938169Y-58761831D01*
X62110006Y-58902853D01*
X62306052Y-59007642D01*
X62518775Y-59072171D01*
X62684564Y-59088500D01*
X62795436Y-59088500D01*
X62961225Y-59072171D01*
X63173948Y-59007642D01*
X63369994Y-58902853D01*
X63541831Y-58761831D01*
X63682853Y-58589994D01*
X63787642Y-58393948D01*
X63852171Y-58181225D01*
X63873960Y-57960000D01*
X63852171Y-57738775D01*
X63787642Y-57526052D01*
X63682853Y-57330006D01*
X63541831Y-57158169D01*
X63369994Y-57017147D01*
X63173948Y-56912358D01*
X62961225Y-56847829D01*
X62795436Y-56831500D01*
X62684564Y-56831500D01*
X62518775Y-56847829D01*
X62306052Y-56912358D01*
X62110006Y-57017147D01*
X61938169Y-57158169D01*
X61797147Y-57330006D01*
X61692358Y-57526052D01*
X61627829Y-57738775D01*
X61606040Y-57960000D01*
X61333960Y-57960000D01*
X61312171Y-57738775D01*
X61247642Y-57526052D01*
X61142853Y-57330006D01*
X61001831Y-57158169D01*
X60829994Y-57017147D01*
X60633948Y-56912358D01*
X60421225Y-56847829D01*
X60255436Y-56831500D01*
X60144564Y-56831500D01*
X59978775Y-56847829D01*
X59766052Y-56912358D01*
X59570006Y-57017147D01*
X59398169Y-57158169D01*
X59257147Y-57330006D01*
X59152358Y-57526052D01*
X59087829Y-57738775D01*
X59066040Y-57960000D01*
X58260500Y-57960000D01*
X58260500Y-55420000D01*
X59066040Y-55420000D01*
X59087829Y-55641225D01*
X59152358Y-55853948D01*
X59257147Y-56049994D01*
X59398169Y-56221831D01*
X59570006Y-56362853D01*
X59766052Y-56467642D01*
X59978775Y-56532171D01*
X60144564Y-56548500D01*
X60255436Y-56548500D01*
X60421225Y-56532171D01*
X60633948Y-56467642D01*
X60829994Y-56362853D01*
X61001831Y-56221831D01*
X61142853Y-56049994D01*
X61247642Y-55853948D01*
X61312171Y-55641225D01*
X61333960Y-55420000D01*
X61606040Y-55420000D01*
X61627829Y-55641225D01*
X61692358Y-55853948D01*
X61797147Y-56049994D01*
X61938169Y-56221831D01*
X62110006Y-56362853D01*
X62306052Y-56467642D01*
X62518775Y-56532171D01*
X62684564Y-56548500D01*
X62795436Y-56548500D01*
X62961225Y-56532171D01*
X63173948Y-56467642D01*
X63369994Y-56362853D01*
X63541831Y-56221831D01*
X63682853Y-56049994D01*
X63787642Y-55853948D01*
X63852171Y-55641225D01*
X63873960Y-55420000D01*
X63852171Y-55198775D01*
X63787642Y-54986052D01*
X63682853Y-54790006D01*
X63541831Y-54618169D01*
X63369994Y-54477147D01*
X63173948Y-54372358D01*
X62961225Y-54307829D01*
X62795436Y-54291500D01*
X62684564Y-54291500D01*
X62518775Y-54307829D01*
X62306052Y-54372358D01*
X62110006Y-54477147D01*
X61938169Y-54618169D01*
X61797147Y-54790006D01*
X61692358Y-54986052D01*
X61627829Y-55198775D01*
X61606040Y-55420000D01*
X61333960Y-55420000D01*
X61312171Y-55198775D01*
X61247642Y-54986052D01*
X61142853Y-54790006D01*
X61001831Y-54618169D01*
X60829994Y-54477147D01*
X60633948Y-54372358D01*
X60421225Y-54307829D01*
X60255436Y-54291500D01*
X60144564Y-54291500D01*
X59978775Y-54307829D01*
X59766052Y-54372358D01*
X59570006Y-54477147D01*
X59398169Y-54618169D01*
X59257147Y-54790006D01*
X59152358Y-54986052D01*
X59087829Y-55198775D01*
X59066040Y-55420000D01*
X58260500Y-55420000D01*
X58260500Y-52880000D01*
X59066040Y-52880000D01*
X59087829Y-53101225D01*
X59152358Y-53313948D01*
X59257147Y-53509994D01*
X59398169Y-53681831D01*
X59570006Y-53822853D01*
X59766052Y-53927642D01*
X59978775Y-53992171D01*
X60144564Y-54008500D01*
X60255436Y-54008500D01*
X60421225Y-53992171D01*
X60633948Y-53927642D01*
X60829994Y-53822853D01*
X61001831Y-53681831D01*
X61142853Y-53509994D01*
X61247642Y-53313948D01*
X61312171Y-53101225D01*
X61333960Y-52880000D01*
X61606040Y-52880000D01*
X61627829Y-53101225D01*
X61692358Y-53313948D01*
X61797147Y-53509994D01*
X61938169Y-53681831D01*
X62110006Y-53822853D01*
X62306052Y-53927642D01*
X62518775Y-53992171D01*
X62684564Y-54008500D01*
X62795436Y-54008500D01*
X62961225Y-53992171D01*
X63173948Y-53927642D01*
X63369994Y-53822853D01*
X63519691Y-53700000D01*
X86870152Y-53700000D01*
X86875529Y-53754596D01*
X86891454Y-53807093D01*
X86917315Y-53855475D01*
X86952118Y-53897882D01*
X86994525Y-53932685D01*
X87042907Y-53958546D01*
X87095404Y-53974471D01*
X87150000Y-53979848D01*
X87708875Y-53978500D01*
X87778500Y-53908875D01*
X87778500Y-53071500D01*
X88221500Y-53071500D01*
X88221500Y-53908875D01*
X88291125Y-53978500D01*
X88850000Y-53979848D01*
X88904596Y-53974471D01*
X88957093Y-53958546D01*
X89005475Y-53932685D01*
X89047882Y-53897882D01*
X89082685Y-53855475D01*
X89108546Y-53807093D01*
X89124471Y-53754596D01*
X89129848Y-53700000D01*
X89128500Y-53141125D01*
X89058875Y-53071500D01*
X88221500Y-53071500D01*
X87778500Y-53071500D01*
X86941125Y-53071500D01*
X86871500Y-53141125D01*
X86870152Y-53700000D01*
X63519691Y-53700000D01*
X63541831Y-53681831D01*
X63682853Y-53509994D01*
X63787642Y-53313948D01*
X63852171Y-53101225D01*
X63873960Y-52880000D01*
X63852171Y-52658775D01*
X63787642Y-52446052D01*
X63682853Y-52250006D01*
X63541831Y-52078169D01*
X63446582Y-52000000D01*
X86870152Y-52000000D01*
X86871500Y-52558875D01*
X86941125Y-52628500D01*
X87778500Y-52628500D01*
X87778500Y-51791125D01*
X88221500Y-51791125D01*
X88221500Y-52628500D01*
X89058875Y-52628500D01*
X89128500Y-52558875D01*
X89129848Y-52000000D01*
X89124471Y-51945404D01*
X89108546Y-51892907D01*
X89082685Y-51844525D01*
X89047882Y-51802118D01*
X89005475Y-51767315D01*
X88957093Y-51741454D01*
X88904596Y-51725529D01*
X88850000Y-51720152D01*
X88291125Y-51721500D01*
X88221500Y-51791125D01*
X87778500Y-51791125D01*
X87708875Y-51721500D01*
X87150000Y-51720152D01*
X87095404Y-51725529D01*
X87042907Y-51741454D01*
X86994525Y-51767315D01*
X86952118Y-51802118D01*
X86917315Y-51844525D01*
X86891454Y-51892907D01*
X86875529Y-51945404D01*
X86870152Y-52000000D01*
X63446582Y-52000000D01*
X63369994Y-51937147D01*
X63173948Y-51832358D01*
X62961225Y-51767829D01*
X62795436Y-51751500D01*
X62684564Y-51751500D01*
X62518775Y-51767829D01*
X62306052Y-51832358D01*
X62110006Y-51937147D01*
X61938169Y-52078169D01*
X61797147Y-52250006D01*
X61692358Y-52446052D01*
X61627829Y-52658775D01*
X61606040Y-52880000D01*
X61333960Y-52880000D01*
X61312171Y-52658775D01*
X61247642Y-52446052D01*
X61142853Y-52250006D01*
X61001831Y-52078169D01*
X60829994Y-51937147D01*
X60633948Y-51832358D01*
X60421225Y-51767829D01*
X60255436Y-51751500D01*
X60144564Y-51751500D01*
X59978775Y-51767829D01*
X59766052Y-51832358D01*
X59570006Y-51937147D01*
X59398169Y-52078169D01*
X59257147Y-52250006D01*
X59152358Y-52446052D01*
X59087829Y-52658775D01*
X59066040Y-52880000D01*
X58260500Y-52880000D01*
X58260500Y-50340000D01*
X59066040Y-50340000D01*
X59087829Y-50561225D01*
X59152358Y-50773948D01*
X59257147Y-50969994D01*
X59398169Y-51141831D01*
X59570006Y-51282853D01*
X59766052Y-51387642D01*
X59978775Y-51452171D01*
X60144564Y-51468500D01*
X60255436Y-51468500D01*
X60421225Y-51452171D01*
X60633948Y-51387642D01*
X60829994Y-51282853D01*
X61001831Y-51141831D01*
X61142853Y-50969994D01*
X61247642Y-50773948D01*
X61312171Y-50561225D01*
X61333960Y-50340000D01*
X61606040Y-50340000D01*
X61627829Y-50561225D01*
X61692358Y-50773948D01*
X61797147Y-50969994D01*
X61938169Y-51141831D01*
X62110006Y-51282853D01*
X62306052Y-51387642D01*
X62518775Y-51452171D01*
X62684564Y-51468500D01*
X62795436Y-51468500D01*
X62961225Y-51452171D01*
X63173948Y-51387642D01*
X63369994Y-51282853D01*
X63541831Y-51141831D01*
X63682853Y-50969994D01*
X63787642Y-50773948D01*
X63852171Y-50561225D01*
X63873960Y-50340000D01*
X63871006Y-50310000D01*
X86866040Y-50310000D01*
X86887829Y-50531225D01*
X86952358Y-50743948D01*
X87057147Y-50939994D01*
X87198169Y-51111831D01*
X87370006Y-51252853D01*
X87566052Y-51357642D01*
X87778775Y-51422171D01*
X87944564Y-51438500D01*
X88055436Y-51438500D01*
X88221225Y-51422171D01*
X88433948Y-51357642D01*
X88629994Y-51252853D01*
X88801831Y-51111831D01*
X88942853Y-50939994D01*
X89047642Y-50743948D01*
X89112171Y-50531225D01*
X89133960Y-50310000D01*
X89112171Y-50088775D01*
X89047642Y-49876052D01*
X88942853Y-49680006D01*
X88801831Y-49508169D01*
X88629994Y-49367147D01*
X88433948Y-49262358D01*
X88221225Y-49197829D01*
X88055436Y-49181500D01*
X87944564Y-49181500D01*
X87778775Y-49197829D01*
X87566052Y-49262358D01*
X87370006Y-49367147D01*
X87198169Y-49508169D01*
X87057147Y-49680006D01*
X86952358Y-49876052D01*
X86887829Y-50088775D01*
X86866040Y-50310000D01*
X63871006Y-50310000D01*
X63852171Y-50118775D01*
X63787642Y-49906052D01*
X63682853Y-49710006D01*
X63541831Y-49538169D01*
X63369994Y-49397147D01*
X63173948Y-49292358D01*
X62961225Y-49227829D01*
X62795436Y-49211500D01*
X62684564Y-49211500D01*
X62518775Y-49227829D01*
X62306052Y-49292358D01*
X62110006Y-49397147D01*
X61938169Y-49538169D01*
X61797147Y-49710006D01*
X61692358Y-49906052D01*
X61627829Y-50118775D01*
X61606040Y-50340000D01*
X61333960Y-50340000D01*
X61312171Y-50118775D01*
X61247642Y-49906052D01*
X61142853Y-49710006D01*
X61001831Y-49538169D01*
X60829994Y-49397147D01*
X60633948Y-49292358D01*
X60421225Y-49227829D01*
X60255436Y-49211500D01*
X60144564Y-49211500D01*
X59978775Y-49227829D01*
X59766052Y-49292358D01*
X59570006Y-49397147D01*
X59398169Y-49538169D01*
X59257147Y-49710006D01*
X59152358Y-49906052D01*
X59087829Y-50118775D01*
X59066040Y-50340000D01*
X58260500Y-50340000D01*
X58260500Y-47578498D01*
X59071500Y-47578498D01*
X59071500Y-48021502D01*
X59164551Y-48021502D01*
X59141725Y-48191875D01*
X59174580Y-48271222D01*
X59286214Y-48462217D01*
X59432964Y-48627764D01*
X59609191Y-48761500D01*
X59808123Y-48858286D01*
X59978500Y-48836935D01*
X59978500Y-48021500D01*
X59958500Y-48021500D01*
X59958500Y-47578500D01*
X59978500Y-47578500D01*
X59978500Y-46763065D01*
X60421500Y-46763065D01*
X60421500Y-47578500D01*
X60441500Y-47578500D01*
X60441500Y-48021500D01*
X60421500Y-48021500D01*
X60421500Y-48836935D01*
X60591877Y-48858286D01*
X60790809Y-48761500D01*
X60967036Y-48627764D01*
X61113786Y-48462217D01*
X61225420Y-48271222D01*
X61258275Y-48191875D01*
X61235449Y-48021502D01*
X61328500Y-48021502D01*
X61328500Y-47800000D01*
X61606040Y-47800000D01*
X61627829Y-48021225D01*
X61692358Y-48233948D01*
X61797147Y-48429994D01*
X61938169Y-48601831D01*
X62110006Y-48742853D01*
X62306052Y-48847642D01*
X62518775Y-48912171D01*
X62684564Y-48928500D01*
X62795436Y-48928500D01*
X62961225Y-48912171D01*
X63173948Y-48847642D01*
X63369994Y-48742853D01*
X63541831Y-48601831D01*
X63682853Y-48429994D01*
X63787642Y-48233948D01*
X63852171Y-48021225D01*
X63873960Y-47800000D01*
X63852171Y-47578775D01*
X63787642Y-47366052D01*
X63682853Y-47170006D01*
X63541831Y-46998169D01*
X63369994Y-46857147D01*
X63173948Y-46752358D01*
X62961225Y-46687829D01*
X62795436Y-46671500D01*
X62684564Y-46671500D01*
X62518775Y-46687829D01*
X62306052Y-46752358D01*
X62110006Y-46857147D01*
X61938169Y-46998169D01*
X61797147Y-47170006D01*
X61692358Y-47366052D01*
X61627829Y-47578775D01*
X61606040Y-47800000D01*
X61328500Y-47800000D01*
X61328500Y-47578498D01*
X61235449Y-47578498D01*
X61258275Y-47408125D01*
X61225420Y-47328778D01*
X61113786Y-47137783D01*
X60967036Y-46972236D01*
X60790809Y-46838500D01*
X60591877Y-46741714D01*
X60421500Y-46763065D01*
X59978500Y-46763065D01*
X59808123Y-46741714D01*
X59609191Y-46838500D01*
X59432964Y-46972236D01*
X59286214Y-47137783D01*
X59174580Y-47328778D01*
X59141725Y-47408125D01*
X59164551Y-47578498D01*
X59071500Y-47578498D01*
X58260500Y-47578498D01*
X58260500Y-45038498D01*
X59071500Y-45038498D01*
X59071500Y-45481502D01*
X59164551Y-45481502D01*
X59141725Y-45651875D01*
X59174580Y-45731222D01*
X59286214Y-45922217D01*
X59432964Y-46087764D01*
X59609191Y-46221500D01*
X59808123Y-46318286D01*
X59978500Y-46296935D01*
X59978500Y-45481500D01*
X59958500Y-45481500D01*
X59958500Y-45038500D01*
X59978500Y-45038500D01*
X59978500Y-44223065D01*
X60421500Y-44223065D01*
X60421500Y-45038500D01*
X60441500Y-45038500D01*
X60441500Y-45481500D01*
X60421500Y-45481500D01*
X60421500Y-46296935D01*
X60591877Y-46318286D01*
X60790809Y-46221500D01*
X60967036Y-46087764D01*
X61113786Y-45922217D01*
X61225420Y-45731222D01*
X61258275Y-45651875D01*
X61235449Y-45481502D01*
X61328500Y-45481502D01*
X61328500Y-45260000D01*
X61606040Y-45260000D01*
X61627829Y-45481225D01*
X61692358Y-45693948D01*
X61797147Y-45889994D01*
X61938169Y-46061831D01*
X62110006Y-46202853D01*
X62306052Y-46307642D01*
X62518775Y-46372171D01*
X62684564Y-46388500D01*
X62795436Y-46388500D01*
X62961225Y-46372171D01*
X63173948Y-46307642D01*
X63369994Y-46202853D01*
X63541831Y-46061831D01*
X63682853Y-45889994D01*
X63787642Y-45693948D01*
X63852171Y-45481225D01*
X63873960Y-45260000D01*
X63852171Y-45038775D01*
X63787642Y-44826052D01*
X63682853Y-44630006D01*
X63541831Y-44458169D01*
X63369994Y-44317147D01*
X63173948Y-44212358D01*
X62961225Y-44147829D01*
X62795436Y-44131500D01*
X62684564Y-44131500D01*
X62518775Y-44147829D01*
X62306052Y-44212358D01*
X62110006Y-44317147D01*
X61938169Y-44458169D01*
X61797147Y-44630006D01*
X61692358Y-44826052D01*
X61627829Y-45038775D01*
X61606040Y-45260000D01*
X61328500Y-45260000D01*
X61328500Y-45038498D01*
X61235449Y-45038498D01*
X61258275Y-44868125D01*
X61225420Y-44788778D01*
X61113786Y-44597783D01*
X60967036Y-44432236D01*
X60790809Y-44298500D01*
X60591877Y-44201714D01*
X60421500Y-44223065D01*
X59978500Y-44223065D01*
X59808123Y-44201714D01*
X59609191Y-44298500D01*
X59432964Y-44432236D01*
X59286214Y-44597783D01*
X59174580Y-44788778D01*
X59141725Y-44868125D01*
X59164551Y-45038498D01*
X59071500Y-45038498D01*
X58260500Y-45038498D01*
X58260500Y-43111875D01*
X59141725Y-43111875D01*
X59174580Y-43191222D01*
X59286214Y-43382217D01*
X59432964Y-43547764D01*
X59609191Y-43681500D01*
X59808123Y-43778286D01*
X59978500Y-43756935D01*
X59978500Y-42941500D01*
X60421500Y-42941500D01*
X60421500Y-43756935D01*
X60591877Y-43778286D01*
X60790809Y-43681500D01*
X60967036Y-43547764D01*
X61113786Y-43382217D01*
X61225420Y-43191222D01*
X61258275Y-43111875D01*
X61235449Y-42941500D01*
X60421500Y-42941500D01*
X59978500Y-42941500D01*
X59164551Y-42941500D01*
X59141725Y-43111875D01*
X58260500Y-43111875D01*
X58260500Y-42328125D01*
X59141725Y-42328125D01*
X59164551Y-42498500D01*
X59978500Y-42498500D01*
X59978500Y-41683065D01*
X60421500Y-41683065D01*
X60421500Y-42498500D01*
X61235449Y-42498500D01*
X61258275Y-42328125D01*
X61225420Y-42248778D01*
X61113786Y-42057783D01*
X60967036Y-41892236D01*
X60790809Y-41758500D01*
X60591877Y-41661714D01*
X60421500Y-41683065D01*
X59978500Y-41683065D01*
X59808123Y-41661714D01*
X59609191Y-41758500D01*
X59432964Y-41892236D01*
X59286214Y-42057783D01*
X59174580Y-42248778D01*
X59141725Y-42328125D01*
X58260500Y-42328125D01*
X58260500Y-40571875D01*
X59141725Y-40571875D01*
X59174580Y-40651222D01*
X59286214Y-40842217D01*
X59432964Y-41007764D01*
X59609191Y-41141500D01*
X59808123Y-41238286D01*
X59978500Y-41216935D01*
X59978500Y-40401500D01*
X60421500Y-40401500D01*
X60421500Y-41216935D01*
X60591877Y-41238286D01*
X60790809Y-41141500D01*
X60967036Y-41007764D01*
X61113786Y-40842217D01*
X61225420Y-40651222D01*
X61258275Y-40571875D01*
X61235449Y-40401500D01*
X60421500Y-40401500D01*
X59978500Y-40401500D01*
X59164551Y-40401500D01*
X59141725Y-40571875D01*
X58260500Y-40571875D01*
X58260500Y-39788125D01*
X59141725Y-39788125D01*
X59164551Y-39958500D01*
X59978500Y-39958500D01*
X59978500Y-39143065D01*
X60421500Y-39143065D01*
X60421500Y-39958500D01*
X61235449Y-39958500D01*
X61258275Y-39788125D01*
X61225420Y-39708778D01*
X61113786Y-39517783D01*
X60967036Y-39352236D01*
X60790809Y-39218500D01*
X60591877Y-39121714D01*
X60421500Y-39143065D01*
X59978500Y-39143065D01*
X59808123Y-39121714D01*
X59609191Y-39218500D01*
X59432964Y-39352236D01*
X59286214Y-39517783D01*
X59174580Y-39708778D01*
X59141725Y-39788125D01*
X58260500Y-39788125D01*
X58260500Y-38031875D01*
X59141725Y-38031875D01*
X59174580Y-38111222D01*
X59286214Y-38302217D01*
X59432964Y-38467764D01*
X59609191Y-38601500D01*
X59808123Y-38698286D01*
X59978500Y-38676935D01*
X59978500Y-37861500D01*
X60421500Y-37861500D01*
X60421500Y-38676935D01*
X60591877Y-38698286D01*
X60790809Y-38601500D01*
X60967036Y-38467764D01*
X61113786Y-38302217D01*
X61225420Y-38111222D01*
X61258275Y-38031875D01*
X61235449Y-37861500D01*
X60421500Y-37861500D01*
X59978500Y-37861500D01*
X59164551Y-37861500D01*
X59141725Y-38031875D01*
X58260500Y-38031875D01*
X58260500Y-37248125D01*
X59141725Y-37248125D01*
X59164551Y-37418500D01*
X59978500Y-37418500D01*
X59978500Y-36603065D01*
X60421500Y-36603065D01*
X60421500Y-37418500D01*
X61235449Y-37418500D01*
X61258275Y-37248125D01*
X61225420Y-37168778D01*
X61113786Y-36977783D01*
X60967036Y-36812236D01*
X60790809Y-36678500D01*
X60591877Y-36581714D01*
X60421500Y-36603065D01*
X59978500Y-36603065D01*
X59808123Y-36581714D01*
X59609191Y-36678500D01*
X59432964Y-36812236D01*
X59286214Y-36977783D01*
X59174580Y-37168778D01*
X59141725Y-37248125D01*
X58260500Y-37248125D01*
X58260500Y-34250000D01*
X59070153Y-34250000D01*
X59070153Y-35950000D01*
X59075530Y-36004595D01*
X59091455Y-36057093D01*
X59117316Y-36105475D01*
X59152118Y-36147882D01*
X59194525Y-36182684D01*
X59242907Y-36208545D01*
X59295405Y-36224470D01*
X59350000Y-36229847D01*
X61050000Y-36229847D01*
X61104595Y-36224470D01*
X61157093Y-36208545D01*
X61205475Y-36182684D01*
X61247882Y-36147882D01*
X61282684Y-36105475D01*
X61308545Y-36057093D01*
X61324470Y-36004595D01*
X61329847Y-35950000D01*
X61329847Y-35100000D01*
X61606040Y-35100000D01*
X61627829Y-35321225D01*
X61692358Y-35533948D01*
X61797147Y-35729994D01*
X61938169Y-35901831D01*
X62110006Y-36042853D01*
X62306052Y-36147642D01*
X62518775Y-36212171D01*
X62684564Y-36228500D01*
X62795436Y-36228500D01*
X62961225Y-36212171D01*
X63173948Y-36147642D01*
X63202008Y-36132643D01*
X63596501Y-36527136D01*
X63596501Y-36904785D01*
X63541831Y-36838169D01*
X63369994Y-36697147D01*
X63173948Y-36592358D01*
X62961225Y-36527829D01*
X62795436Y-36511500D01*
X62684564Y-36511500D01*
X62518775Y-36527829D01*
X62306052Y-36592358D01*
X62110006Y-36697147D01*
X61938169Y-36838169D01*
X61797147Y-37010006D01*
X61692358Y-37206052D01*
X61627829Y-37418775D01*
X61606040Y-37640000D01*
X61627829Y-37861225D01*
X61692358Y-38073948D01*
X61797147Y-38269994D01*
X61938169Y-38441831D01*
X62110006Y-38582853D01*
X62306052Y-38687642D01*
X62518775Y-38752171D01*
X62684564Y-38768500D01*
X62795436Y-38768500D01*
X62961225Y-38752171D01*
X63173948Y-38687642D01*
X63369994Y-38582853D01*
X63541831Y-38441831D01*
X63596500Y-38375216D01*
X63596500Y-39444784D01*
X63541831Y-39378169D01*
X63369994Y-39237147D01*
X63173948Y-39132358D01*
X62961225Y-39067829D01*
X62795436Y-39051500D01*
X62684564Y-39051500D01*
X62518775Y-39067829D01*
X62306052Y-39132358D01*
X62110006Y-39237147D01*
X61938169Y-39378169D01*
X61797147Y-39550006D01*
X61692358Y-39746052D01*
X61627829Y-39958775D01*
X61606040Y-40180000D01*
X61627829Y-40401225D01*
X61692358Y-40613948D01*
X61797147Y-40809994D01*
X61938169Y-40981831D01*
X62110006Y-41122853D01*
X62306052Y-41227642D01*
X62518775Y-41292171D01*
X62684564Y-41308500D01*
X62795436Y-41308500D01*
X62961225Y-41292171D01*
X63173948Y-41227642D01*
X63369994Y-41122853D01*
X63541831Y-40981831D01*
X63682853Y-40809994D01*
X63787642Y-40613948D01*
X63793849Y-40593486D01*
X71221665Y-48021302D01*
X71234300Y-48036698D01*
X71295741Y-48087121D01*
X71331606Y-48106292D01*
X71330006Y-48107147D01*
X71158169Y-48248169D01*
X71017147Y-48420006D01*
X70912358Y-48616052D01*
X70909189Y-48626500D01*
X69217135Y-48626500D01*
X63772643Y-43182008D01*
X63787642Y-43153948D01*
X63852171Y-42941225D01*
X63873960Y-42720000D01*
X63852171Y-42498775D01*
X63787642Y-42286052D01*
X63682853Y-42090006D01*
X63541831Y-41918169D01*
X63369994Y-41777147D01*
X63173948Y-41672358D01*
X62961225Y-41607829D01*
X62795436Y-41591500D01*
X62684564Y-41591500D01*
X62518775Y-41607829D01*
X62306052Y-41672358D01*
X62110006Y-41777147D01*
X61938169Y-41918169D01*
X61797147Y-42090006D01*
X61692358Y-42286052D01*
X61627829Y-42498775D01*
X61606040Y-42720000D01*
X61627829Y-42941225D01*
X61692358Y-43153948D01*
X61797147Y-43349994D01*
X61938169Y-43521831D01*
X62110006Y-43662853D01*
X62306052Y-43767642D01*
X62518775Y-43832171D01*
X62684564Y-43848500D01*
X62795436Y-43848500D01*
X62961225Y-43832171D01*
X63173948Y-43767642D01*
X63202008Y-43752643D01*
X68750667Y-49301302D01*
X68763302Y-49316698D01*
X68824742Y-49367120D01*
X68824743Y-49367121D01*
X68894840Y-49404589D01*
X68970900Y-49427661D01*
X69050000Y-49435452D01*
X69069818Y-49433500D01*
X70897055Y-49433500D01*
X70912358Y-49483948D01*
X71017147Y-49679994D01*
X71158169Y-49851831D01*
X71330006Y-49992853D01*
X71526052Y-50097642D01*
X71738775Y-50162171D01*
X71904564Y-50178500D01*
X72015436Y-50178500D01*
X72181225Y-50162171D01*
X72393948Y-50097642D01*
X72589994Y-49992853D01*
X72761831Y-49851831D01*
X72902853Y-49679994D01*
X73007642Y-49483948D01*
X73072171Y-49271225D01*
X73093960Y-49050000D01*
X73072171Y-48828775D01*
X73007642Y-48616052D01*
X72902853Y-48420006D01*
X72761831Y-48248169D01*
X72646476Y-48153500D01*
X73092865Y-48153500D01*
X73370153Y-48430788D01*
X73370153Y-49900000D01*
X73375530Y-49954595D01*
X73391455Y-50007093D01*
X73417316Y-50055475D01*
X73452118Y-50097882D01*
X73494525Y-50132684D01*
X73542907Y-50158545D01*
X73595405Y-50174470D01*
X73650000Y-50179847D01*
X75350000Y-50179847D01*
X75404595Y-50174470D01*
X75457093Y-50158545D01*
X75505475Y-50132684D01*
X75547882Y-50097882D01*
X75582684Y-50055475D01*
X75608545Y-50007093D01*
X75624470Y-49954595D01*
X75629847Y-49900000D01*
X75629847Y-48200000D01*
X75624470Y-48145405D01*
X75608545Y-48092907D01*
X75582684Y-48044525D01*
X75547882Y-48002118D01*
X75505475Y-47967316D01*
X75457093Y-47941455D01*
X75404595Y-47925530D01*
X75350000Y-47920153D01*
X74000788Y-47920153D01*
X73850635Y-47770000D01*
X86866040Y-47770000D01*
X86887829Y-47991225D01*
X86952358Y-48203948D01*
X87057147Y-48399994D01*
X87198169Y-48571831D01*
X87370006Y-48712853D01*
X87566052Y-48817642D01*
X87778775Y-48882171D01*
X87944564Y-48898500D01*
X88055436Y-48898500D01*
X88221225Y-48882171D01*
X88433948Y-48817642D01*
X88629994Y-48712853D01*
X88801831Y-48571831D01*
X88942853Y-48399994D01*
X89047642Y-48203948D01*
X89112171Y-47991225D01*
X89133960Y-47770000D01*
X89112171Y-47548775D01*
X89047642Y-47336052D01*
X88942853Y-47140006D01*
X88801831Y-46968169D01*
X88629994Y-46827147D01*
X88433948Y-46722358D01*
X88221225Y-46657829D01*
X88055436Y-46641500D01*
X87944564Y-46641500D01*
X87778775Y-46657829D01*
X87566052Y-46722358D01*
X87370006Y-46827147D01*
X87198169Y-46968169D01*
X87057147Y-47140006D01*
X86952358Y-47336052D01*
X86887829Y-47548775D01*
X86866040Y-47770000D01*
X73850635Y-47770000D01*
X73559333Y-47478698D01*
X73546698Y-47463302D01*
X73485257Y-47412879D01*
X73415160Y-47375411D01*
X73339100Y-47352339D01*
X73279818Y-47346500D01*
X73260000Y-47344548D01*
X73240182Y-47346500D01*
X72719586Y-47346500D01*
X72761831Y-47311831D01*
X72902853Y-47139994D01*
X73007642Y-46943948D01*
X73072171Y-46731225D01*
X73093960Y-46510000D01*
X73366040Y-46510000D01*
X73387829Y-46731225D01*
X73452358Y-46943948D01*
X73557147Y-47139994D01*
X73698169Y-47311831D01*
X73870006Y-47452853D01*
X74066052Y-47557642D01*
X74278775Y-47622171D01*
X74444564Y-47638500D01*
X74555436Y-47638500D01*
X74721225Y-47622171D01*
X74933948Y-47557642D01*
X75129994Y-47452853D01*
X75301831Y-47311831D01*
X75442853Y-47139994D01*
X75547642Y-46943948D01*
X75612171Y-46731225D01*
X75633960Y-46510000D01*
X75612171Y-46288775D01*
X75547642Y-46076052D01*
X75539610Y-46061025D01*
X76370635Y-45230000D01*
X86866040Y-45230000D01*
X86887829Y-45451225D01*
X86952358Y-45663948D01*
X87057147Y-45859994D01*
X87198169Y-46031831D01*
X87370006Y-46172853D01*
X87566052Y-46277642D01*
X87778775Y-46342171D01*
X87944564Y-46358500D01*
X88055436Y-46358500D01*
X88221225Y-46342171D01*
X88433948Y-46277642D01*
X88629994Y-46172853D01*
X88801831Y-46031831D01*
X88942853Y-45859994D01*
X89047642Y-45663948D01*
X89112171Y-45451225D01*
X89133960Y-45230000D01*
X89112171Y-45008775D01*
X89047642Y-44796052D01*
X88942853Y-44600006D01*
X88801831Y-44428169D01*
X88629994Y-44287147D01*
X88433948Y-44182358D01*
X88221225Y-44117829D01*
X88055436Y-44101500D01*
X87944564Y-44101500D01*
X87778775Y-44117829D01*
X87566052Y-44182358D01*
X87370006Y-44287147D01*
X87198169Y-44428169D01*
X87057147Y-44600006D01*
X86952358Y-44796052D01*
X86887829Y-45008775D01*
X86866040Y-45230000D01*
X76370635Y-45230000D01*
X78507135Y-43093500D01*
X86943122Y-43093500D01*
X86952358Y-43123948D01*
X87057147Y-43319994D01*
X87198169Y-43491831D01*
X87370006Y-43632853D01*
X87566052Y-43737642D01*
X87778775Y-43802171D01*
X87944564Y-43818500D01*
X88055436Y-43818500D01*
X88221225Y-43802171D01*
X88433948Y-43737642D01*
X88629994Y-43632853D01*
X88801831Y-43491831D01*
X88942853Y-43319994D01*
X89047642Y-43123948D01*
X89112171Y-42911225D01*
X89133960Y-42690000D01*
X89112171Y-42468775D01*
X89047642Y-42256052D01*
X88942853Y-42060006D01*
X88801831Y-41888169D01*
X88629994Y-41747147D01*
X88433948Y-41642358D01*
X88221225Y-41577829D01*
X88055436Y-41561500D01*
X87944564Y-41561500D01*
X87778775Y-41577829D01*
X87566052Y-41642358D01*
X87370006Y-41747147D01*
X87198169Y-41888169D01*
X87057147Y-42060006D01*
X86952358Y-42256052D01*
X86943122Y-42286500D01*
X78359818Y-42286500D01*
X78340000Y-42284548D01*
X78320182Y-42286500D01*
X78260900Y-42292339D01*
X78184840Y-42315411D01*
X78114743Y-42352879D01*
X78053302Y-42403302D01*
X78040667Y-42418698D01*
X74975042Y-45484323D01*
X74933948Y-45462358D01*
X74721225Y-45397829D01*
X74555436Y-45381500D01*
X74444564Y-45381500D01*
X74278775Y-45397829D01*
X74066052Y-45462358D01*
X73870006Y-45567147D01*
X73698169Y-45708169D01*
X73557147Y-45880006D01*
X73452358Y-46076052D01*
X73387829Y-46288775D01*
X73366040Y-46510000D01*
X73093960Y-46510000D01*
X73072171Y-46288775D01*
X73007642Y-46076052D01*
X72902853Y-45880006D01*
X72761831Y-45708169D01*
X72589994Y-45567147D01*
X72393948Y-45462358D01*
X72181225Y-45397829D01*
X72015436Y-45381500D01*
X71904564Y-45381500D01*
X71738775Y-45397829D01*
X71526052Y-45462358D01*
X71330006Y-45567147D01*
X71158169Y-45708169D01*
X71017147Y-45880006D01*
X70912358Y-46076052D01*
X70847829Y-46288775D01*
X70828335Y-46486702D01*
X68311633Y-43970000D01*
X70826040Y-43970000D01*
X70847829Y-44191225D01*
X70912358Y-44403948D01*
X71017147Y-44599994D01*
X71158169Y-44771831D01*
X71330006Y-44912853D01*
X71526052Y-45017642D01*
X71738775Y-45082171D01*
X71904564Y-45098500D01*
X72015436Y-45098500D01*
X72181225Y-45082171D01*
X72393948Y-45017642D01*
X72589994Y-44912853D01*
X72761831Y-44771831D01*
X72902853Y-44599994D01*
X73007642Y-44403948D01*
X73020404Y-44361875D01*
X73441725Y-44361875D01*
X73474580Y-44441222D01*
X73586214Y-44632217D01*
X73732964Y-44797764D01*
X73909191Y-44931500D01*
X74108123Y-45028286D01*
X74278500Y-45006935D01*
X74278500Y-44191500D01*
X74721500Y-44191500D01*
X74721500Y-45006935D01*
X74891877Y-45028286D01*
X75090809Y-44931500D01*
X75267036Y-44797764D01*
X75413786Y-44632217D01*
X75525420Y-44441222D01*
X75558275Y-44361875D01*
X75535449Y-44191500D01*
X74721500Y-44191500D01*
X74278500Y-44191500D01*
X73464551Y-44191500D01*
X73441725Y-44361875D01*
X73020404Y-44361875D01*
X73072171Y-44191225D01*
X73093960Y-43970000D01*
X73072171Y-43748775D01*
X73020405Y-43578125D01*
X73441725Y-43578125D01*
X73464551Y-43748500D01*
X74278500Y-43748500D01*
X74278500Y-42933065D01*
X74721500Y-42933065D01*
X74721500Y-43748500D01*
X75535449Y-43748500D01*
X75558275Y-43578125D01*
X75525420Y-43498778D01*
X75413786Y-43307783D01*
X75267036Y-43142236D01*
X75090809Y-43008500D01*
X74891877Y-42911714D01*
X74721500Y-42933065D01*
X74278500Y-42933065D01*
X74108123Y-42911714D01*
X73909191Y-43008500D01*
X73732964Y-43142236D01*
X73586214Y-43307783D01*
X73474580Y-43498778D01*
X73441725Y-43578125D01*
X73020405Y-43578125D01*
X73007642Y-43536052D01*
X72902853Y-43340006D01*
X72761831Y-43168169D01*
X72589994Y-43027147D01*
X72461936Y-42958699D01*
X74867135Y-40553500D01*
X86943122Y-40553500D01*
X86952358Y-40583948D01*
X87057147Y-40779994D01*
X87198169Y-40951831D01*
X87370006Y-41092853D01*
X87566052Y-41197642D01*
X87778775Y-41262171D01*
X87944564Y-41278500D01*
X88055436Y-41278500D01*
X88221225Y-41262171D01*
X88433948Y-41197642D01*
X88629994Y-41092853D01*
X88801831Y-40951831D01*
X88942853Y-40779994D01*
X89047642Y-40583948D01*
X89112171Y-40371225D01*
X89133960Y-40150000D01*
X89112171Y-39928775D01*
X89047642Y-39716052D01*
X88942853Y-39520006D01*
X88801831Y-39348169D01*
X88629994Y-39207147D01*
X88433948Y-39102358D01*
X88221225Y-39037829D01*
X88055436Y-39021500D01*
X87944564Y-39021500D01*
X87778775Y-39037829D01*
X87566052Y-39102358D01*
X87370006Y-39207147D01*
X87198169Y-39348169D01*
X87057147Y-39520006D01*
X86952358Y-39716052D01*
X86943122Y-39746500D01*
X74719818Y-39746500D01*
X74700000Y-39744548D01*
X74680182Y-39746500D01*
X74620900Y-39752339D01*
X74544840Y-39775411D01*
X74474743Y-39812879D01*
X74413302Y-39863302D01*
X74400667Y-39878698D01*
X71728698Y-42550667D01*
X71713302Y-42563302D01*
X71662879Y-42624744D01*
X71627999Y-42690000D01*
X71625411Y-42694841D01*
X71602339Y-42770901D01*
X71594548Y-42850000D01*
X71596500Y-42869818D01*
X71596500Y-42900988D01*
X71526052Y-42922358D01*
X71330006Y-43027147D01*
X71158169Y-43168169D01*
X71017147Y-43340006D01*
X70912358Y-43536052D01*
X70847829Y-43748775D01*
X70826040Y-43970000D01*
X68311633Y-43970000D01*
X64403500Y-40061867D01*
X64403500Y-36379817D01*
X64405452Y-36359999D01*
X64397661Y-36280900D01*
X64374589Y-36204840D01*
X64362746Y-36182684D01*
X64337121Y-36134743D01*
X64286698Y-36073302D01*
X64271302Y-36060667D01*
X63772643Y-35562008D01*
X63787642Y-35533948D01*
X63852171Y-35321225D01*
X63873960Y-35100000D01*
X63852171Y-34878775D01*
X63787642Y-34666052D01*
X63682853Y-34470006D01*
X63541831Y-34298169D01*
X63369994Y-34157147D01*
X63173948Y-34052358D01*
X62961225Y-33987829D01*
X62795436Y-33971500D01*
X62684564Y-33971500D01*
X62518775Y-33987829D01*
X62306052Y-34052358D01*
X62110006Y-34157147D01*
X61938169Y-34298169D01*
X61797147Y-34470006D01*
X61692358Y-34666052D01*
X61627829Y-34878775D01*
X61606040Y-35100000D01*
X61329847Y-35100000D01*
X61329847Y-34250000D01*
X61324470Y-34195405D01*
X61308545Y-34142907D01*
X61282684Y-34094525D01*
X61247882Y-34052118D01*
X61205475Y-34017316D01*
X61157093Y-33991455D01*
X61104595Y-33975530D01*
X61050000Y-33970153D01*
X59350000Y-33970153D01*
X59295405Y-33975530D01*
X59242907Y-33991455D01*
X59194525Y-34017316D01*
X59152118Y-34052118D01*
X59117316Y-34094525D01*
X59091455Y-34142907D01*
X59075530Y-34195405D01*
X59070153Y-34250000D01*
X58260500Y-34250000D01*
X58260500Y-33512741D01*
X58266287Y-33453721D01*
X58279725Y-33409212D01*
X58301554Y-33368155D01*
X58330946Y-33332119D01*
X58366771Y-33302482D01*
X58407675Y-33280365D01*
X58452093Y-33266615D01*
X58510276Y-33260500D01*
X64969416Y-33260500D01*
X85931958Y-38251581D01*
M02*
