M48
;DRILL file {KiCad 5.0.1} date Sat 02 Nov 2019 02:38:17 PM CET
;FORMAT={-:-/ absolute / inch / decimal}
FMAT,2
INCH,TZ
T1C0.0394
%
G90
G05
M72
T1
X3.4646Y-1.5807
X3.4646Y-1.6807
X3.4646Y-1.7807
X3.4646Y-1.8807
X3.4646Y-1.9807
X3.4646Y-2.0807
X2.8331Y-1.7311
X2.8331Y-1.8311
X2.8331Y-1.9311
X2.9331Y-1.7311
X2.9331Y-1.8311
X2.9331Y-1.9311
X2.3701Y-1.3819
X2.3701Y-1.4819
X2.3701Y-1.5819
X2.3701Y-1.6819
X2.3701Y-1.7819
X2.3701Y-1.8819
X2.3701Y-1.9819
X2.3701Y-2.0819
X2.3701Y-2.1819
X2.3701Y-2.2819
X2.4701Y-1.3819
X2.4701Y-1.4819
X2.4701Y-1.5819
X2.4701Y-1.6819
X2.4701Y-1.7819
X2.4701Y-1.8819
X2.4701Y-1.9819
X2.4701Y-2.0819
X2.4701Y-2.1819
X2.4701Y-2.2819
T0
M30
