G04 #@! TF.GenerationSoftware,KiCad,Pcbnew,5.1.0*
G04 #@! TF.CreationDate,2019-05-06T16:15:21+02:00*
G04 #@! TF.ProjectId,JlinkBreakout,4a6c696e-6b42-4726-9561-6b6f75742e6b,rev?*
G04 #@! TF.SameCoordinates,Original*
G04 #@! TF.FileFunction,Copper,L1,Top*
G04 #@! TF.FilePolarity,Positive*
%FSLAX46Y46*%
G04 Gerber Fmt 4.6, Leading zero omitted, Abs format (unit mm)*
G04 Created by KiCad (PCBNEW 5.1.0) date 2019-05-06 16:15:21*
%MOMM*%
%LPD*%
G04 APERTURE LIST*
%ADD10C,0.050000*%
%ADD11O,1.700000X1.700000*%
%ADD12R,1.700000X1.700000*%
%ADD13C,0.250000*%
%ADD14C,0.157000*%
G04 APERTURE END LIST*
D10*
X58500000Y-60000000D02*
G75*
G02X58000000Y-59500000I0J500000D01*
G01*
X58000000Y-33500000D02*
G75*
G02X58500000Y-33000000I500000J0D01*
G01*
X96000000Y-38000000D02*
G75*
G02X96500000Y-38500000I0J-500000D01*
G01*
X96500000Y-54500000D02*
G75*
G02X96000000Y-55000000I-500000J0D01*
G01*
X86000000Y-38000000D02*
X65000000Y-33000000D01*
X96000000Y-38000000D02*
X86000000Y-38000000D01*
X96500000Y-54500000D02*
X96500000Y-38500000D01*
X86000000Y-55000000D02*
X96000000Y-55000000D01*
X65000000Y-60000000D02*
X86000000Y-55000000D01*
X65000000Y-33000000D02*
X58500000Y-33000000D01*
X58500000Y-60000000D02*
X65000000Y-60000000D01*
X58000000Y-33500000D02*
X58000000Y-59500000D01*
D11*
X88000000Y-40150000D03*
X88000000Y-42690000D03*
X88000000Y-45230000D03*
X88000000Y-47770000D03*
X88000000Y-50310000D03*
D12*
X88000000Y-52850000D03*
D11*
X71960000Y-43970000D03*
X74500000Y-43970000D03*
X71960000Y-46510000D03*
X74500000Y-46510000D03*
X71960000Y-49050000D03*
D12*
X74500000Y-49050000D03*
D11*
X62740000Y-57960000D03*
X60200000Y-57960000D03*
X62740000Y-55420000D03*
X60200000Y-55420000D03*
X62740000Y-52880000D03*
X60200000Y-52880000D03*
X62740000Y-50340000D03*
X60200000Y-50340000D03*
X62740000Y-47800000D03*
X60200000Y-47800000D03*
X62740000Y-45260000D03*
X60200000Y-45260000D03*
X62740000Y-42720000D03*
X60200000Y-42720000D03*
X62740000Y-40180000D03*
X60200000Y-40180000D03*
X62740000Y-37640000D03*
X60200000Y-37640000D03*
X62740000Y-35100000D03*
D12*
X60200000Y-35100000D03*
D13*
X73235907Y-47794093D02*
X74540000Y-46490000D01*
X62740000Y-52880000D02*
X67825907Y-47794093D01*
X67825907Y-47794093D02*
X73235907Y-47794093D01*
X69130000Y-43950000D02*
X62740000Y-50340000D01*
X72000000Y-43950000D02*
X69130000Y-43950000D01*
X73260000Y-45230000D02*
X72000000Y-46490000D01*
X88000000Y-45230000D02*
X73260000Y-45230000D01*
X63589999Y-44410001D02*
X62740000Y-45260000D01*
X72574999Y-42774999D02*
X65225001Y-42774999D01*
X65225001Y-42774999D02*
X62740000Y-45260000D01*
X73260000Y-45230000D02*
X73260000Y-43460000D01*
X73260000Y-43460000D02*
X72574999Y-42774999D01*
X73280000Y-50310000D02*
X88000000Y-50310000D01*
X72000000Y-49030000D02*
X73280000Y-50310000D01*
X75800000Y-47770000D02*
X74540000Y-49030000D01*
X88000000Y-47770000D02*
X75800000Y-47770000D01*
D14*
G36*
X85931958Y-38251581D02*
G01*
X85948933Y-38256730D01*
X85969638Y-38258769D01*
X85990214Y-38261576D01*
X86007900Y-38260500D01*
X95987259Y-38260500D01*
X96046279Y-38266287D01*
X96090788Y-38279725D01*
X96131845Y-38301554D01*
X96167881Y-38330946D01*
X96197518Y-38366771D01*
X96219635Y-38407675D01*
X96233385Y-38452093D01*
X96239501Y-38510285D01*
X96239500Y-54487258D01*
X96233713Y-54546279D01*
X96220275Y-54590787D01*
X96198443Y-54631847D01*
X96169054Y-54667881D01*
X96133231Y-54697517D01*
X96092325Y-54719635D01*
X96047907Y-54733385D01*
X95989725Y-54739500D01*
X86007900Y-54739500D01*
X85990214Y-54738424D01*
X85969638Y-54741231D01*
X85948933Y-54743270D01*
X85931958Y-54748419D01*
X64969416Y-59739500D01*
X58512742Y-59739500D01*
X58453721Y-59733713D01*
X58409213Y-59720275D01*
X58368153Y-59698443D01*
X58332119Y-59669054D01*
X58302483Y-59633231D01*
X58280365Y-59592325D01*
X58266615Y-59547907D01*
X58260500Y-59489725D01*
X58260500Y-57960000D01*
X59066040Y-57960000D01*
X59087829Y-58181225D01*
X59152358Y-58393948D01*
X59257147Y-58589994D01*
X59398169Y-58761831D01*
X59570006Y-58902853D01*
X59766052Y-59007642D01*
X59978775Y-59072171D01*
X60144564Y-59088500D01*
X60255436Y-59088500D01*
X60421225Y-59072171D01*
X60633948Y-59007642D01*
X60829994Y-58902853D01*
X61001831Y-58761831D01*
X61142853Y-58589994D01*
X61247642Y-58393948D01*
X61312171Y-58181225D01*
X61333960Y-57960000D01*
X61606040Y-57960000D01*
X61627829Y-58181225D01*
X61692358Y-58393948D01*
X61797147Y-58589994D01*
X61938169Y-58761831D01*
X62110006Y-58902853D01*
X62306052Y-59007642D01*
X62518775Y-59072171D01*
X62684564Y-59088500D01*
X62795436Y-59088500D01*
X62961225Y-59072171D01*
X63173948Y-59007642D01*
X63369994Y-58902853D01*
X63541831Y-58761831D01*
X63682853Y-58589994D01*
X63787642Y-58393948D01*
X63852171Y-58181225D01*
X63873960Y-57960000D01*
X63852171Y-57738775D01*
X63787642Y-57526052D01*
X63682853Y-57330006D01*
X63541831Y-57158169D01*
X63369994Y-57017147D01*
X63173948Y-56912358D01*
X62961225Y-56847829D01*
X62795436Y-56831500D01*
X62684564Y-56831500D01*
X62518775Y-56847829D01*
X62306052Y-56912358D01*
X62110006Y-57017147D01*
X61938169Y-57158169D01*
X61797147Y-57330006D01*
X61692358Y-57526052D01*
X61627829Y-57738775D01*
X61606040Y-57960000D01*
X61333960Y-57960000D01*
X61312171Y-57738775D01*
X61247642Y-57526052D01*
X61142853Y-57330006D01*
X61001831Y-57158169D01*
X60829994Y-57017147D01*
X60633948Y-56912358D01*
X60421225Y-56847829D01*
X60255436Y-56831500D01*
X60144564Y-56831500D01*
X59978775Y-56847829D01*
X59766052Y-56912358D01*
X59570006Y-57017147D01*
X59398169Y-57158169D01*
X59257147Y-57330006D01*
X59152358Y-57526052D01*
X59087829Y-57738775D01*
X59066040Y-57960000D01*
X58260500Y-57960000D01*
X58260500Y-55420000D01*
X59066040Y-55420000D01*
X59087829Y-55641225D01*
X59152358Y-55853948D01*
X59257147Y-56049994D01*
X59398169Y-56221831D01*
X59570006Y-56362853D01*
X59766052Y-56467642D01*
X59978775Y-56532171D01*
X60144564Y-56548500D01*
X60255436Y-56548500D01*
X60421225Y-56532171D01*
X60633948Y-56467642D01*
X60829994Y-56362853D01*
X61001831Y-56221831D01*
X61142853Y-56049994D01*
X61247642Y-55853948D01*
X61312171Y-55641225D01*
X61333960Y-55420000D01*
X61606040Y-55420000D01*
X61627829Y-55641225D01*
X61692358Y-55853948D01*
X61797147Y-56049994D01*
X61938169Y-56221831D01*
X62110006Y-56362853D01*
X62306052Y-56467642D01*
X62518775Y-56532171D01*
X62684564Y-56548500D01*
X62795436Y-56548500D01*
X62961225Y-56532171D01*
X63173948Y-56467642D01*
X63369994Y-56362853D01*
X63541831Y-56221831D01*
X63682853Y-56049994D01*
X63787642Y-55853948D01*
X63852171Y-55641225D01*
X63873960Y-55420000D01*
X63852171Y-55198775D01*
X63787642Y-54986052D01*
X63682853Y-54790006D01*
X63541831Y-54618169D01*
X63369994Y-54477147D01*
X63173948Y-54372358D01*
X62961225Y-54307829D01*
X62795436Y-54291500D01*
X62684564Y-54291500D01*
X62518775Y-54307829D01*
X62306052Y-54372358D01*
X62110006Y-54477147D01*
X61938169Y-54618169D01*
X61797147Y-54790006D01*
X61692358Y-54986052D01*
X61627829Y-55198775D01*
X61606040Y-55420000D01*
X61333960Y-55420000D01*
X61312171Y-55198775D01*
X61247642Y-54986052D01*
X61142853Y-54790006D01*
X61001831Y-54618169D01*
X60829994Y-54477147D01*
X60633948Y-54372358D01*
X60421225Y-54307829D01*
X60255436Y-54291500D01*
X60144564Y-54291500D01*
X59978775Y-54307829D01*
X59766052Y-54372358D01*
X59570006Y-54477147D01*
X59398169Y-54618169D01*
X59257147Y-54790006D01*
X59152358Y-54986052D01*
X59087829Y-55198775D01*
X59066040Y-55420000D01*
X58260500Y-55420000D01*
X58260500Y-52880000D01*
X59066040Y-52880000D01*
X59087829Y-53101225D01*
X59152358Y-53313948D01*
X59257147Y-53509994D01*
X59398169Y-53681831D01*
X59570006Y-53822853D01*
X59766052Y-53927642D01*
X59978775Y-53992171D01*
X60144564Y-54008500D01*
X60255436Y-54008500D01*
X60421225Y-53992171D01*
X60633948Y-53927642D01*
X60829994Y-53822853D01*
X61001831Y-53681831D01*
X61142853Y-53509994D01*
X61247642Y-53313948D01*
X61312171Y-53101225D01*
X61333960Y-52880000D01*
X61312171Y-52658775D01*
X61247642Y-52446052D01*
X61142853Y-52250006D01*
X61001831Y-52078169D01*
X60829994Y-51937147D01*
X60633948Y-51832358D01*
X60421225Y-51767829D01*
X60255436Y-51751500D01*
X60144564Y-51751500D01*
X59978775Y-51767829D01*
X59766052Y-51832358D01*
X59570006Y-51937147D01*
X59398169Y-52078169D01*
X59257147Y-52250006D01*
X59152358Y-52446052D01*
X59087829Y-52658775D01*
X59066040Y-52880000D01*
X58260500Y-52880000D01*
X58260500Y-50340000D01*
X59066040Y-50340000D01*
X59087829Y-50561225D01*
X59152358Y-50773948D01*
X59257147Y-50969994D01*
X59398169Y-51141831D01*
X59570006Y-51282853D01*
X59766052Y-51387642D01*
X59978775Y-51452171D01*
X60144564Y-51468500D01*
X60255436Y-51468500D01*
X60421225Y-51452171D01*
X60633948Y-51387642D01*
X60829994Y-51282853D01*
X61001831Y-51141831D01*
X61142853Y-50969994D01*
X61247642Y-50773948D01*
X61312171Y-50561225D01*
X61333960Y-50340000D01*
X61312171Y-50118775D01*
X61247642Y-49906052D01*
X61142853Y-49710006D01*
X61001831Y-49538169D01*
X60829994Y-49397147D01*
X60633948Y-49292358D01*
X60421225Y-49227829D01*
X60255436Y-49211500D01*
X60144564Y-49211500D01*
X59978775Y-49227829D01*
X59766052Y-49292358D01*
X59570006Y-49397147D01*
X59398169Y-49538169D01*
X59257147Y-49710006D01*
X59152358Y-49906052D01*
X59087829Y-50118775D01*
X59066040Y-50340000D01*
X58260500Y-50340000D01*
X58260500Y-47578498D01*
X59071500Y-47578498D01*
X59071500Y-48021502D01*
X59164551Y-48021502D01*
X59141725Y-48191875D01*
X59174580Y-48271222D01*
X59286214Y-48462217D01*
X59432964Y-48627764D01*
X59609191Y-48761500D01*
X59808123Y-48858286D01*
X59978500Y-48836935D01*
X59978500Y-48021500D01*
X59958500Y-48021500D01*
X59958500Y-47578500D01*
X59978500Y-47578500D01*
X59978500Y-46763065D01*
X60421500Y-46763065D01*
X60421500Y-47578500D01*
X60441500Y-47578500D01*
X60441500Y-48021500D01*
X60421500Y-48021500D01*
X60421500Y-48836935D01*
X60591877Y-48858286D01*
X60790809Y-48761500D01*
X60967036Y-48627764D01*
X61113786Y-48462217D01*
X61225420Y-48271222D01*
X61258275Y-48191875D01*
X61235449Y-48021502D01*
X61328500Y-48021502D01*
X61328500Y-47800000D01*
X61606040Y-47800000D01*
X61627829Y-48021225D01*
X61692358Y-48233948D01*
X61797147Y-48429994D01*
X61938169Y-48601831D01*
X62110006Y-48742853D01*
X62306052Y-48847642D01*
X62518775Y-48912171D01*
X62684564Y-48928500D01*
X62795436Y-48928500D01*
X62961225Y-48912171D01*
X63173948Y-48847642D01*
X63369994Y-48742853D01*
X63541831Y-48601831D01*
X63682853Y-48429994D01*
X63787642Y-48233948D01*
X63852171Y-48021225D01*
X63873960Y-47800000D01*
X63852171Y-47578775D01*
X63787642Y-47366052D01*
X63682853Y-47170006D01*
X63541831Y-46998169D01*
X63369994Y-46857147D01*
X63173948Y-46752358D01*
X62961225Y-46687829D01*
X62795436Y-46671500D01*
X62684564Y-46671500D01*
X62518775Y-46687829D01*
X62306052Y-46752358D01*
X62110006Y-46857147D01*
X61938169Y-46998169D01*
X61797147Y-47170006D01*
X61692358Y-47366052D01*
X61627829Y-47578775D01*
X61606040Y-47800000D01*
X61328500Y-47800000D01*
X61328500Y-47578498D01*
X61235449Y-47578498D01*
X61258275Y-47408125D01*
X61225420Y-47328778D01*
X61113786Y-47137783D01*
X60967036Y-46972236D01*
X60790809Y-46838500D01*
X60591877Y-46741714D01*
X60421500Y-46763065D01*
X59978500Y-46763065D01*
X59808123Y-46741714D01*
X59609191Y-46838500D01*
X59432964Y-46972236D01*
X59286214Y-47137783D01*
X59174580Y-47328778D01*
X59141725Y-47408125D01*
X59164551Y-47578498D01*
X59071500Y-47578498D01*
X58260500Y-47578498D01*
X58260500Y-45038498D01*
X59071500Y-45038498D01*
X59071500Y-45481502D01*
X59164551Y-45481502D01*
X59141725Y-45651875D01*
X59174580Y-45731222D01*
X59286214Y-45922217D01*
X59432964Y-46087764D01*
X59609191Y-46221500D01*
X59808123Y-46318286D01*
X59978500Y-46296935D01*
X59978500Y-45481500D01*
X59958500Y-45481500D01*
X59958500Y-45038500D01*
X59978500Y-45038500D01*
X59978500Y-44223065D01*
X60421500Y-44223065D01*
X60421500Y-45038500D01*
X60441500Y-45038500D01*
X60441500Y-45481500D01*
X60421500Y-45481500D01*
X60421500Y-46296935D01*
X60591877Y-46318286D01*
X60790809Y-46221500D01*
X60967036Y-46087764D01*
X61113786Y-45922217D01*
X61225420Y-45731222D01*
X61258275Y-45651875D01*
X61235449Y-45481502D01*
X61328500Y-45481502D01*
X61328500Y-45260000D01*
X61606040Y-45260000D01*
X61627829Y-45481225D01*
X61692358Y-45693948D01*
X61797147Y-45889994D01*
X61938169Y-46061831D01*
X62110006Y-46202853D01*
X62306052Y-46307642D01*
X62518775Y-46372171D01*
X62684564Y-46388500D01*
X62795436Y-46388500D01*
X62961225Y-46372171D01*
X63173948Y-46307642D01*
X63369994Y-46202853D01*
X63541831Y-46061831D01*
X63682853Y-45889994D01*
X63787642Y-45693948D01*
X63852171Y-45481225D01*
X63873960Y-45260000D01*
X63852171Y-45038775D01*
X63787642Y-44826052D01*
X63772643Y-44797992D01*
X65392136Y-43178499D01*
X71149691Y-43178499D01*
X71017147Y-43340006D01*
X70912358Y-43536052D01*
X70909189Y-43546500D01*
X69149818Y-43546500D01*
X69130000Y-43544548D01*
X69110182Y-43546500D01*
X69050900Y-43552339D01*
X68974840Y-43575411D01*
X68904743Y-43612879D01*
X68843302Y-43663302D01*
X68830667Y-43678698D01*
X63202008Y-49307357D01*
X63173948Y-49292358D01*
X62961225Y-49227829D01*
X62795436Y-49211500D01*
X62684564Y-49211500D01*
X62518775Y-49227829D01*
X62306052Y-49292358D01*
X62110006Y-49397147D01*
X61938169Y-49538169D01*
X61797147Y-49710006D01*
X61692358Y-49906052D01*
X61627829Y-50118775D01*
X61606040Y-50340000D01*
X61627829Y-50561225D01*
X61692358Y-50773948D01*
X61797147Y-50969994D01*
X61938169Y-51141831D01*
X62110006Y-51282853D01*
X62306052Y-51387642D01*
X62518775Y-51452171D01*
X62684564Y-51468500D01*
X62795436Y-51468500D01*
X62961225Y-51452171D01*
X63173948Y-51387642D01*
X63369994Y-51282853D01*
X63541831Y-51141831D01*
X63682853Y-50969994D01*
X63787642Y-50773948D01*
X63852171Y-50561225D01*
X63873960Y-50340000D01*
X63852171Y-50118775D01*
X63787642Y-49906052D01*
X63772643Y-49877992D01*
X69297135Y-44353500D01*
X70897055Y-44353500D01*
X70912358Y-44403948D01*
X71017147Y-44599994D01*
X71158169Y-44771831D01*
X71330006Y-44912853D01*
X71526052Y-45017642D01*
X71738775Y-45082171D01*
X71904564Y-45098500D01*
X72015436Y-45098500D01*
X72181225Y-45082171D01*
X72393948Y-45017642D01*
X72589994Y-44912853D01*
X72761831Y-44771831D01*
X72856500Y-44656475D01*
X72856500Y-45062865D01*
X72435042Y-45484323D01*
X72393948Y-45462358D01*
X72181225Y-45397829D01*
X72015436Y-45381500D01*
X71904564Y-45381500D01*
X71738775Y-45397829D01*
X71526052Y-45462358D01*
X71330006Y-45567147D01*
X71158169Y-45708169D01*
X71017147Y-45880006D01*
X70912358Y-46076052D01*
X70847829Y-46288775D01*
X70826040Y-46510000D01*
X70847829Y-46731225D01*
X70912358Y-46943948D01*
X71017147Y-47139994D01*
X71158169Y-47311831D01*
X71254141Y-47390593D01*
X67845725Y-47390593D01*
X67825907Y-47388641D01*
X67806089Y-47390593D01*
X67746807Y-47396432D01*
X67670747Y-47419504D01*
X67600650Y-47456972D01*
X67539209Y-47507395D01*
X67526576Y-47522789D01*
X63202008Y-51847357D01*
X63173948Y-51832358D01*
X62961225Y-51767829D01*
X62795436Y-51751500D01*
X62684564Y-51751500D01*
X62518775Y-51767829D01*
X62306052Y-51832358D01*
X62110006Y-51937147D01*
X61938169Y-52078169D01*
X61797147Y-52250006D01*
X61692358Y-52446052D01*
X61627829Y-52658775D01*
X61606040Y-52880000D01*
X61627829Y-53101225D01*
X61692358Y-53313948D01*
X61797147Y-53509994D01*
X61938169Y-53681831D01*
X62110006Y-53822853D01*
X62306052Y-53927642D01*
X62518775Y-53992171D01*
X62684564Y-54008500D01*
X62795436Y-54008500D01*
X62961225Y-53992171D01*
X63173948Y-53927642D01*
X63369994Y-53822853D01*
X63519691Y-53700000D01*
X86870152Y-53700000D01*
X86875529Y-53754596D01*
X86891454Y-53807093D01*
X86917315Y-53855475D01*
X86952118Y-53897882D01*
X86994525Y-53932685D01*
X87042907Y-53958546D01*
X87095404Y-53974471D01*
X87150000Y-53979848D01*
X87708875Y-53978500D01*
X87778500Y-53908875D01*
X87778500Y-53071500D01*
X88221500Y-53071500D01*
X88221500Y-53908875D01*
X88291125Y-53978500D01*
X88850000Y-53979848D01*
X88904596Y-53974471D01*
X88957093Y-53958546D01*
X89005475Y-53932685D01*
X89047882Y-53897882D01*
X89082685Y-53855475D01*
X89108546Y-53807093D01*
X89124471Y-53754596D01*
X89129848Y-53700000D01*
X89128500Y-53141125D01*
X89058875Y-53071500D01*
X88221500Y-53071500D01*
X87778500Y-53071500D01*
X86941125Y-53071500D01*
X86871500Y-53141125D01*
X86870152Y-53700000D01*
X63519691Y-53700000D01*
X63541831Y-53681831D01*
X63682853Y-53509994D01*
X63787642Y-53313948D01*
X63852171Y-53101225D01*
X63873960Y-52880000D01*
X63852171Y-52658775D01*
X63787642Y-52446052D01*
X63772643Y-52417992D01*
X64190635Y-52000000D01*
X86870152Y-52000000D01*
X86871500Y-52558875D01*
X86941125Y-52628500D01*
X87778500Y-52628500D01*
X87778500Y-51791125D01*
X88221500Y-51791125D01*
X88221500Y-52628500D01*
X89058875Y-52628500D01*
X89128500Y-52558875D01*
X89129848Y-52000000D01*
X89124471Y-51945404D01*
X89108546Y-51892907D01*
X89082685Y-51844525D01*
X89047882Y-51802118D01*
X89005475Y-51767315D01*
X88957093Y-51741454D01*
X88904596Y-51725529D01*
X88850000Y-51720152D01*
X88291125Y-51721500D01*
X88221500Y-51791125D01*
X87778500Y-51791125D01*
X87708875Y-51721500D01*
X87150000Y-51720152D01*
X87095404Y-51725529D01*
X87042907Y-51741454D01*
X86994525Y-51767315D01*
X86952118Y-51802118D01*
X86917315Y-51844525D01*
X86891454Y-51892907D01*
X86875529Y-51945404D01*
X86870152Y-52000000D01*
X64190635Y-52000000D01*
X67993042Y-48197593D01*
X71219796Y-48197593D01*
X71158169Y-48248169D01*
X71017147Y-48420006D01*
X70912358Y-48616052D01*
X70847829Y-48828775D01*
X70826040Y-49050000D01*
X70847829Y-49271225D01*
X70912358Y-49483948D01*
X71017147Y-49679994D01*
X71158169Y-49851831D01*
X71330006Y-49992853D01*
X71526052Y-50097642D01*
X71738775Y-50162171D01*
X71904564Y-50178500D01*
X72015436Y-50178500D01*
X72181225Y-50162171D01*
X72393948Y-50097642D01*
X72461109Y-50061744D01*
X72980667Y-50581302D01*
X72993302Y-50596698D01*
X73054743Y-50647121D01*
X73124840Y-50684589D01*
X73183197Y-50702291D01*
X73200899Y-50707661D01*
X73208846Y-50708444D01*
X73260182Y-50713500D01*
X73260188Y-50713500D01*
X73279999Y-50715451D01*
X73299810Y-50713500D01*
X86943122Y-50713500D01*
X86952358Y-50743948D01*
X87057147Y-50939994D01*
X87198169Y-51111831D01*
X87370006Y-51252853D01*
X87566052Y-51357642D01*
X87778775Y-51422171D01*
X87944564Y-51438500D01*
X88055436Y-51438500D01*
X88221225Y-51422171D01*
X88433948Y-51357642D01*
X88629994Y-51252853D01*
X88801831Y-51111831D01*
X88942853Y-50939994D01*
X89047642Y-50743948D01*
X89112171Y-50531225D01*
X89133960Y-50310000D01*
X89112171Y-50088775D01*
X89047642Y-49876052D01*
X88942853Y-49680006D01*
X88801831Y-49508169D01*
X88629994Y-49367147D01*
X88433948Y-49262358D01*
X88221225Y-49197829D01*
X88055436Y-49181500D01*
X87944564Y-49181500D01*
X87778775Y-49197829D01*
X87566052Y-49262358D01*
X87370006Y-49367147D01*
X87198169Y-49508169D01*
X87057147Y-49680006D01*
X86952358Y-49876052D01*
X86943122Y-49906500D01*
X75629207Y-49906500D01*
X75629847Y-49900000D01*
X75629847Y-48510788D01*
X75967135Y-48173500D01*
X86943122Y-48173500D01*
X86952358Y-48203948D01*
X87057147Y-48399994D01*
X87198169Y-48571831D01*
X87370006Y-48712853D01*
X87566052Y-48817642D01*
X87778775Y-48882171D01*
X87944564Y-48898500D01*
X88055436Y-48898500D01*
X88221225Y-48882171D01*
X88433948Y-48817642D01*
X88629994Y-48712853D01*
X88801831Y-48571831D01*
X88942853Y-48399994D01*
X89047642Y-48203948D01*
X89112171Y-47991225D01*
X89133960Y-47770000D01*
X89112171Y-47548775D01*
X89047642Y-47336052D01*
X88942853Y-47140006D01*
X88801831Y-46968169D01*
X88629994Y-46827147D01*
X88433948Y-46722358D01*
X88221225Y-46657829D01*
X88055436Y-46641500D01*
X87944564Y-46641500D01*
X87778775Y-46657829D01*
X87566052Y-46722358D01*
X87370006Y-46827147D01*
X87198169Y-46968169D01*
X87057147Y-47140006D01*
X86952358Y-47336052D01*
X86943122Y-47366500D01*
X75819817Y-47366500D01*
X75799999Y-47364548D01*
X75720900Y-47372339D01*
X75644840Y-47395411D01*
X75574743Y-47432879D01*
X75513302Y-47483302D01*
X75500667Y-47498698D01*
X75079212Y-47920153D01*
X73680482Y-47920153D01*
X74051025Y-47549610D01*
X74066052Y-47557642D01*
X74278775Y-47622171D01*
X74444564Y-47638500D01*
X74555436Y-47638500D01*
X74721225Y-47622171D01*
X74933948Y-47557642D01*
X75129994Y-47452853D01*
X75301831Y-47311831D01*
X75442853Y-47139994D01*
X75547642Y-46943948D01*
X75612171Y-46731225D01*
X75633960Y-46510000D01*
X75612171Y-46288775D01*
X75547642Y-46076052D01*
X75442853Y-45880006D01*
X75301831Y-45708169D01*
X75210846Y-45633500D01*
X86943122Y-45633500D01*
X86952358Y-45663948D01*
X87057147Y-45859994D01*
X87198169Y-46031831D01*
X87370006Y-46172853D01*
X87566052Y-46277642D01*
X87778775Y-46342171D01*
X87944564Y-46358500D01*
X88055436Y-46358500D01*
X88221225Y-46342171D01*
X88433948Y-46277642D01*
X88629994Y-46172853D01*
X88801831Y-46031831D01*
X88942853Y-45859994D01*
X89047642Y-45663948D01*
X89112171Y-45451225D01*
X89133960Y-45230000D01*
X89112171Y-45008775D01*
X89047642Y-44796052D01*
X88942853Y-44600006D01*
X88801831Y-44428169D01*
X88629994Y-44287147D01*
X88433948Y-44182358D01*
X88221225Y-44117829D01*
X88055436Y-44101500D01*
X87944564Y-44101500D01*
X87778775Y-44117829D01*
X87566052Y-44182358D01*
X87370006Y-44287147D01*
X87198169Y-44428169D01*
X87057147Y-44600006D01*
X86952358Y-44796052D01*
X86943122Y-44826500D01*
X75229170Y-44826500D01*
X75267036Y-44797764D01*
X75413786Y-44632217D01*
X75525420Y-44441222D01*
X75558275Y-44361875D01*
X75535449Y-44191500D01*
X74721500Y-44191500D01*
X74721500Y-44211500D01*
X74278500Y-44211500D01*
X74278500Y-44191500D01*
X74258500Y-44191500D01*
X74258500Y-43748500D01*
X74278500Y-43748500D01*
X74278500Y-42933065D01*
X74721500Y-42933065D01*
X74721500Y-43748500D01*
X75535449Y-43748500D01*
X75558275Y-43578125D01*
X75525420Y-43498778D01*
X75413786Y-43307783D01*
X75267036Y-43142236D01*
X75090809Y-43008500D01*
X74891877Y-42911714D01*
X74721500Y-42933065D01*
X74278500Y-42933065D01*
X74108123Y-42911714D01*
X73909191Y-43008500D01*
X73732964Y-43142236D01*
X73617373Y-43272632D01*
X73597121Y-43234743D01*
X73559331Y-43188696D01*
X73546698Y-43173302D01*
X73531302Y-43160667D01*
X73060635Y-42690000D01*
X86866040Y-42690000D01*
X86887829Y-42911225D01*
X86952358Y-43123948D01*
X87057147Y-43319994D01*
X87198169Y-43491831D01*
X87370006Y-43632853D01*
X87566052Y-43737642D01*
X87778775Y-43802171D01*
X87944564Y-43818500D01*
X88055436Y-43818500D01*
X88221225Y-43802171D01*
X88433948Y-43737642D01*
X88629994Y-43632853D01*
X88801831Y-43491831D01*
X88942853Y-43319994D01*
X89047642Y-43123948D01*
X89112171Y-42911225D01*
X89133960Y-42690000D01*
X89112171Y-42468775D01*
X89047642Y-42256052D01*
X88942853Y-42060006D01*
X88801831Y-41888169D01*
X88629994Y-41747147D01*
X88433948Y-41642358D01*
X88221225Y-41577829D01*
X88055436Y-41561500D01*
X87944564Y-41561500D01*
X87778775Y-41577829D01*
X87566052Y-41642358D01*
X87370006Y-41747147D01*
X87198169Y-41888169D01*
X87057147Y-42060006D01*
X86952358Y-42256052D01*
X86887829Y-42468775D01*
X86866040Y-42690000D01*
X73060635Y-42690000D01*
X72874332Y-42503697D01*
X72861697Y-42488301D01*
X72800256Y-42437878D01*
X72730159Y-42400410D01*
X72654099Y-42377338D01*
X72594817Y-42371499D01*
X72574999Y-42369547D01*
X72555181Y-42371499D01*
X65244818Y-42371499D01*
X65225000Y-42369547D01*
X65145901Y-42377338D01*
X65069841Y-42400410D01*
X64999744Y-42437878D01*
X64938303Y-42488301D01*
X64925668Y-42503697D01*
X63202008Y-44227357D01*
X63173948Y-44212358D01*
X62961225Y-44147829D01*
X62795436Y-44131500D01*
X62684564Y-44131500D01*
X62518775Y-44147829D01*
X62306052Y-44212358D01*
X62110006Y-44317147D01*
X61938169Y-44458169D01*
X61797147Y-44630006D01*
X61692358Y-44826052D01*
X61627829Y-45038775D01*
X61606040Y-45260000D01*
X61328500Y-45260000D01*
X61328500Y-45038498D01*
X61235449Y-45038498D01*
X61258275Y-44868125D01*
X61225420Y-44788778D01*
X61113786Y-44597783D01*
X60967036Y-44432236D01*
X60790809Y-44298500D01*
X60591877Y-44201714D01*
X60421500Y-44223065D01*
X59978500Y-44223065D01*
X59808123Y-44201714D01*
X59609191Y-44298500D01*
X59432964Y-44432236D01*
X59286214Y-44597783D01*
X59174580Y-44788778D01*
X59141725Y-44868125D01*
X59164551Y-45038498D01*
X59071500Y-45038498D01*
X58260500Y-45038498D01*
X58260500Y-42498498D01*
X59071500Y-42498498D01*
X59071500Y-42941502D01*
X59164551Y-42941502D01*
X59141725Y-43111875D01*
X59174580Y-43191222D01*
X59286214Y-43382217D01*
X59432964Y-43547764D01*
X59609191Y-43681500D01*
X59808123Y-43778286D01*
X59978500Y-43756935D01*
X59978500Y-42941500D01*
X59958500Y-42941500D01*
X59958500Y-42498500D01*
X59978500Y-42498500D01*
X59978500Y-41683065D01*
X60421500Y-41683065D01*
X60421500Y-42498500D01*
X60441500Y-42498500D01*
X60441500Y-42941500D01*
X60421500Y-42941500D01*
X60421500Y-43756935D01*
X60591877Y-43778286D01*
X60790809Y-43681500D01*
X60967036Y-43547764D01*
X61113786Y-43382217D01*
X61225420Y-43191222D01*
X61258275Y-43111875D01*
X61235449Y-42941502D01*
X61328500Y-42941502D01*
X61328500Y-42720000D01*
X61606040Y-42720000D01*
X61627829Y-42941225D01*
X61692358Y-43153948D01*
X61797147Y-43349994D01*
X61938169Y-43521831D01*
X62110006Y-43662853D01*
X62306052Y-43767642D01*
X62518775Y-43832171D01*
X62684564Y-43848500D01*
X62795436Y-43848500D01*
X62961225Y-43832171D01*
X63173948Y-43767642D01*
X63369994Y-43662853D01*
X63541831Y-43521831D01*
X63682853Y-43349994D01*
X63787642Y-43153948D01*
X63852171Y-42941225D01*
X63873960Y-42720000D01*
X63852171Y-42498775D01*
X63787642Y-42286052D01*
X63682853Y-42090006D01*
X63541831Y-41918169D01*
X63369994Y-41777147D01*
X63173948Y-41672358D01*
X62961225Y-41607829D01*
X62795436Y-41591500D01*
X62684564Y-41591500D01*
X62518775Y-41607829D01*
X62306052Y-41672358D01*
X62110006Y-41777147D01*
X61938169Y-41918169D01*
X61797147Y-42090006D01*
X61692358Y-42286052D01*
X61627829Y-42498775D01*
X61606040Y-42720000D01*
X61328500Y-42720000D01*
X61328500Y-42498498D01*
X61235449Y-42498498D01*
X61258275Y-42328125D01*
X61225420Y-42248778D01*
X61113786Y-42057783D01*
X60967036Y-41892236D01*
X60790809Y-41758500D01*
X60591877Y-41661714D01*
X60421500Y-41683065D01*
X59978500Y-41683065D01*
X59808123Y-41661714D01*
X59609191Y-41758500D01*
X59432964Y-41892236D01*
X59286214Y-42057783D01*
X59174580Y-42248778D01*
X59141725Y-42328125D01*
X59164551Y-42498498D01*
X59071500Y-42498498D01*
X58260500Y-42498498D01*
X58260500Y-39958498D01*
X59071500Y-39958498D01*
X59071500Y-40401502D01*
X59164551Y-40401502D01*
X59141725Y-40571875D01*
X59174580Y-40651222D01*
X59286214Y-40842217D01*
X59432964Y-41007764D01*
X59609191Y-41141500D01*
X59808123Y-41238286D01*
X59978500Y-41216935D01*
X59978500Y-40401500D01*
X59958500Y-40401500D01*
X59958500Y-39958500D01*
X59978500Y-39958500D01*
X59978500Y-39143065D01*
X60421500Y-39143065D01*
X60421500Y-39958500D01*
X60441500Y-39958500D01*
X60441500Y-40401500D01*
X60421500Y-40401500D01*
X60421500Y-41216935D01*
X60591877Y-41238286D01*
X60790809Y-41141500D01*
X60967036Y-41007764D01*
X61113786Y-40842217D01*
X61225420Y-40651222D01*
X61258275Y-40571875D01*
X61235449Y-40401502D01*
X61328500Y-40401502D01*
X61328500Y-40180000D01*
X61606040Y-40180000D01*
X61627829Y-40401225D01*
X61692358Y-40613948D01*
X61797147Y-40809994D01*
X61938169Y-40981831D01*
X62110006Y-41122853D01*
X62306052Y-41227642D01*
X62518775Y-41292171D01*
X62684564Y-41308500D01*
X62795436Y-41308500D01*
X62961225Y-41292171D01*
X63173948Y-41227642D01*
X63369994Y-41122853D01*
X63541831Y-40981831D01*
X63682853Y-40809994D01*
X63787642Y-40613948D01*
X63852171Y-40401225D01*
X63873960Y-40180000D01*
X63871006Y-40150000D01*
X86866040Y-40150000D01*
X86887829Y-40371225D01*
X86952358Y-40583948D01*
X87057147Y-40779994D01*
X87198169Y-40951831D01*
X87370006Y-41092853D01*
X87566052Y-41197642D01*
X87778775Y-41262171D01*
X87944564Y-41278500D01*
X88055436Y-41278500D01*
X88221225Y-41262171D01*
X88433948Y-41197642D01*
X88629994Y-41092853D01*
X88801831Y-40951831D01*
X88942853Y-40779994D01*
X89047642Y-40583948D01*
X89112171Y-40371225D01*
X89133960Y-40150000D01*
X89112171Y-39928775D01*
X89047642Y-39716052D01*
X88942853Y-39520006D01*
X88801831Y-39348169D01*
X88629994Y-39207147D01*
X88433948Y-39102358D01*
X88221225Y-39037829D01*
X88055436Y-39021500D01*
X87944564Y-39021500D01*
X87778775Y-39037829D01*
X87566052Y-39102358D01*
X87370006Y-39207147D01*
X87198169Y-39348169D01*
X87057147Y-39520006D01*
X86952358Y-39716052D01*
X86887829Y-39928775D01*
X86866040Y-40150000D01*
X63871006Y-40150000D01*
X63852171Y-39958775D01*
X63787642Y-39746052D01*
X63682853Y-39550006D01*
X63541831Y-39378169D01*
X63369994Y-39237147D01*
X63173948Y-39132358D01*
X62961225Y-39067829D01*
X62795436Y-39051500D01*
X62684564Y-39051500D01*
X62518775Y-39067829D01*
X62306052Y-39132358D01*
X62110006Y-39237147D01*
X61938169Y-39378169D01*
X61797147Y-39550006D01*
X61692358Y-39746052D01*
X61627829Y-39958775D01*
X61606040Y-40180000D01*
X61328500Y-40180000D01*
X61328500Y-39958498D01*
X61235449Y-39958498D01*
X61258275Y-39788125D01*
X61225420Y-39708778D01*
X61113786Y-39517783D01*
X60967036Y-39352236D01*
X60790809Y-39218500D01*
X60591877Y-39121714D01*
X60421500Y-39143065D01*
X59978500Y-39143065D01*
X59808123Y-39121714D01*
X59609191Y-39218500D01*
X59432964Y-39352236D01*
X59286214Y-39517783D01*
X59174580Y-39708778D01*
X59141725Y-39788125D01*
X59164551Y-39958498D01*
X59071500Y-39958498D01*
X58260500Y-39958498D01*
X58260500Y-37418498D01*
X59071500Y-37418498D01*
X59071500Y-37861502D01*
X59164551Y-37861502D01*
X59141725Y-38031875D01*
X59174580Y-38111222D01*
X59286214Y-38302217D01*
X59432964Y-38467764D01*
X59609191Y-38601500D01*
X59808123Y-38698286D01*
X59978500Y-38676935D01*
X59978500Y-37861500D01*
X59958500Y-37861500D01*
X59958500Y-37418500D01*
X59978500Y-37418500D01*
X59978500Y-36603065D01*
X60421500Y-36603065D01*
X60421500Y-37418500D01*
X60441500Y-37418500D01*
X60441500Y-37861500D01*
X60421500Y-37861500D01*
X60421500Y-38676935D01*
X60591877Y-38698286D01*
X60790809Y-38601500D01*
X60967036Y-38467764D01*
X61113786Y-38302217D01*
X61225420Y-38111222D01*
X61258275Y-38031875D01*
X61235449Y-37861502D01*
X61328500Y-37861502D01*
X61328500Y-37640000D01*
X61606040Y-37640000D01*
X61627829Y-37861225D01*
X61692358Y-38073948D01*
X61797147Y-38269994D01*
X61938169Y-38441831D01*
X62110006Y-38582853D01*
X62306052Y-38687642D01*
X62518775Y-38752171D01*
X62684564Y-38768500D01*
X62795436Y-38768500D01*
X62961225Y-38752171D01*
X63173948Y-38687642D01*
X63369994Y-38582853D01*
X63541831Y-38441831D01*
X63682853Y-38269994D01*
X63787642Y-38073948D01*
X63852171Y-37861225D01*
X63873960Y-37640000D01*
X63852171Y-37418775D01*
X63787642Y-37206052D01*
X63682853Y-37010006D01*
X63541831Y-36838169D01*
X63369994Y-36697147D01*
X63173948Y-36592358D01*
X62961225Y-36527829D01*
X62795436Y-36511500D01*
X62684564Y-36511500D01*
X62518775Y-36527829D01*
X62306052Y-36592358D01*
X62110006Y-36697147D01*
X61938169Y-36838169D01*
X61797147Y-37010006D01*
X61692358Y-37206052D01*
X61627829Y-37418775D01*
X61606040Y-37640000D01*
X61328500Y-37640000D01*
X61328500Y-37418498D01*
X61235449Y-37418498D01*
X61258275Y-37248125D01*
X61225420Y-37168778D01*
X61113786Y-36977783D01*
X60967036Y-36812236D01*
X60790809Y-36678500D01*
X60591877Y-36581714D01*
X60421500Y-36603065D01*
X59978500Y-36603065D01*
X59808123Y-36581714D01*
X59609191Y-36678500D01*
X59432964Y-36812236D01*
X59286214Y-36977783D01*
X59174580Y-37168778D01*
X59141725Y-37248125D01*
X59164551Y-37418498D01*
X59071500Y-37418498D01*
X58260500Y-37418498D01*
X58260500Y-34250000D01*
X59070153Y-34250000D01*
X59070153Y-35950000D01*
X59075530Y-36004595D01*
X59091455Y-36057093D01*
X59117316Y-36105475D01*
X59152118Y-36147882D01*
X59194525Y-36182684D01*
X59242907Y-36208545D01*
X59295405Y-36224470D01*
X59350000Y-36229847D01*
X61050000Y-36229847D01*
X61104595Y-36224470D01*
X61157093Y-36208545D01*
X61205475Y-36182684D01*
X61247882Y-36147882D01*
X61282684Y-36105475D01*
X61308545Y-36057093D01*
X61324470Y-36004595D01*
X61329847Y-35950000D01*
X61329847Y-35100000D01*
X61606040Y-35100000D01*
X61627829Y-35321225D01*
X61692358Y-35533948D01*
X61797147Y-35729994D01*
X61938169Y-35901831D01*
X62110006Y-36042853D01*
X62306052Y-36147642D01*
X62518775Y-36212171D01*
X62684564Y-36228500D01*
X62795436Y-36228500D01*
X62961225Y-36212171D01*
X63173948Y-36147642D01*
X63369994Y-36042853D01*
X63541831Y-35901831D01*
X63682853Y-35729994D01*
X63787642Y-35533948D01*
X63852171Y-35321225D01*
X63873960Y-35100000D01*
X63852171Y-34878775D01*
X63787642Y-34666052D01*
X63682853Y-34470006D01*
X63541831Y-34298169D01*
X63369994Y-34157147D01*
X63173948Y-34052358D01*
X62961225Y-33987829D01*
X62795436Y-33971500D01*
X62684564Y-33971500D01*
X62518775Y-33987829D01*
X62306052Y-34052358D01*
X62110006Y-34157147D01*
X61938169Y-34298169D01*
X61797147Y-34470006D01*
X61692358Y-34666052D01*
X61627829Y-34878775D01*
X61606040Y-35100000D01*
X61329847Y-35100000D01*
X61329847Y-34250000D01*
X61324470Y-34195405D01*
X61308545Y-34142907D01*
X61282684Y-34094525D01*
X61247882Y-34052118D01*
X61205475Y-34017316D01*
X61157093Y-33991455D01*
X61104595Y-33975530D01*
X61050000Y-33970153D01*
X59350000Y-33970153D01*
X59295405Y-33975530D01*
X59242907Y-33991455D01*
X59194525Y-34017316D01*
X59152118Y-34052118D01*
X59117316Y-34094525D01*
X59091455Y-34142907D01*
X59075530Y-34195405D01*
X59070153Y-34250000D01*
X58260500Y-34250000D01*
X58260500Y-33512741D01*
X58266287Y-33453721D01*
X58279725Y-33409212D01*
X58301554Y-33368155D01*
X58330946Y-33332119D01*
X58366771Y-33302482D01*
X58407675Y-33280365D01*
X58452093Y-33266615D01*
X58510276Y-33260500D01*
X64969416Y-33260500D01*
X85931958Y-38251581D01*
X85931958Y-38251581D01*
G37*
X85931958Y-38251581D02*
X85948933Y-38256730D01*
X85969638Y-38258769D01*
X85990214Y-38261576D01*
X86007900Y-38260500D01*
X95987259Y-38260500D01*
X96046279Y-38266287D01*
X96090788Y-38279725D01*
X96131845Y-38301554D01*
X96167881Y-38330946D01*
X96197518Y-38366771D01*
X96219635Y-38407675D01*
X96233385Y-38452093D01*
X96239501Y-38510285D01*
X96239500Y-54487258D01*
X96233713Y-54546279D01*
X96220275Y-54590787D01*
X96198443Y-54631847D01*
X96169054Y-54667881D01*
X96133231Y-54697517D01*
X96092325Y-54719635D01*
X96047907Y-54733385D01*
X95989725Y-54739500D01*
X86007900Y-54739500D01*
X85990214Y-54738424D01*
X85969638Y-54741231D01*
X85948933Y-54743270D01*
X85931958Y-54748419D01*
X64969416Y-59739500D01*
X58512742Y-59739500D01*
X58453721Y-59733713D01*
X58409213Y-59720275D01*
X58368153Y-59698443D01*
X58332119Y-59669054D01*
X58302483Y-59633231D01*
X58280365Y-59592325D01*
X58266615Y-59547907D01*
X58260500Y-59489725D01*
X58260500Y-57960000D01*
X59066040Y-57960000D01*
X59087829Y-58181225D01*
X59152358Y-58393948D01*
X59257147Y-58589994D01*
X59398169Y-58761831D01*
X59570006Y-58902853D01*
X59766052Y-59007642D01*
X59978775Y-59072171D01*
X60144564Y-59088500D01*
X60255436Y-59088500D01*
X60421225Y-59072171D01*
X60633948Y-59007642D01*
X60829994Y-58902853D01*
X61001831Y-58761831D01*
X61142853Y-58589994D01*
X61247642Y-58393948D01*
X61312171Y-58181225D01*
X61333960Y-57960000D01*
X61606040Y-57960000D01*
X61627829Y-58181225D01*
X61692358Y-58393948D01*
X61797147Y-58589994D01*
X61938169Y-58761831D01*
X62110006Y-58902853D01*
X62306052Y-59007642D01*
X62518775Y-59072171D01*
X62684564Y-59088500D01*
X62795436Y-59088500D01*
X62961225Y-59072171D01*
X63173948Y-59007642D01*
X63369994Y-58902853D01*
X63541831Y-58761831D01*
X63682853Y-58589994D01*
X63787642Y-58393948D01*
X63852171Y-58181225D01*
X63873960Y-57960000D01*
X63852171Y-57738775D01*
X63787642Y-57526052D01*
X63682853Y-57330006D01*
X63541831Y-57158169D01*
X63369994Y-57017147D01*
X63173948Y-56912358D01*
X62961225Y-56847829D01*
X62795436Y-56831500D01*
X62684564Y-56831500D01*
X62518775Y-56847829D01*
X62306052Y-56912358D01*
X62110006Y-57017147D01*
X61938169Y-57158169D01*
X61797147Y-57330006D01*
X61692358Y-57526052D01*
X61627829Y-57738775D01*
X61606040Y-57960000D01*
X61333960Y-57960000D01*
X61312171Y-57738775D01*
X61247642Y-57526052D01*
X61142853Y-57330006D01*
X61001831Y-57158169D01*
X60829994Y-57017147D01*
X60633948Y-56912358D01*
X60421225Y-56847829D01*
X60255436Y-56831500D01*
X60144564Y-56831500D01*
X59978775Y-56847829D01*
X59766052Y-56912358D01*
X59570006Y-57017147D01*
X59398169Y-57158169D01*
X59257147Y-57330006D01*
X59152358Y-57526052D01*
X59087829Y-57738775D01*
X59066040Y-57960000D01*
X58260500Y-57960000D01*
X58260500Y-55420000D01*
X59066040Y-55420000D01*
X59087829Y-55641225D01*
X59152358Y-55853948D01*
X59257147Y-56049994D01*
X59398169Y-56221831D01*
X59570006Y-56362853D01*
X59766052Y-56467642D01*
X59978775Y-56532171D01*
X60144564Y-56548500D01*
X60255436Y-56548500D01*
X60421225Y-56532171D01*
X60633948Y-56467642D01*
X60829994Y-56362853D01*
X61001831Y-56221831D01*
X61142853Y-56049994D01*
X61247642Y-55853948D01*
X61312171Y-55641225D01*
X61333960Y-55420000D01*
X61606040Y-55420000D01*
X61627829Y-55641225D01*
X61692358Y-55853948D01*
X61797147Y-56049994D01*
X61938169Y-56221831D01*
X62110006Y-56362853D01*
X62306052Y-56467642D01*
X62518775Y-56532171D01*
X62684564Y-56548500D01*
X62795436Y-56548500D01*
X62961225Y-56532171D01*
X63173948Y-56467642D01*
X63369994Y-56362853D01*
X63541831Y-56221831D01*
X63682853Y-56049994D01*
X63787642Y-55853948D01*
X63852171Y-55641225D01*
X63873960Y-55420000D01*
X63852171Y-55198775D01*
X63787642Y-54986052D01*
X63682853Y-54790006D01*
X63541831Y-54618169D01*
X63369994Y-54477147D01*
X63173948Y-54372358D01*
X62961225Y-54307829D01*
X62795436Y-54291500D01*
X62684564Y-54291500D01*
X62518775Y-54307829D01*
X62306052Y-54372358D01*
X62110006Y-54477147D01*
X61938169Y-54618169D01*
X61797147Y-54790006D01*
X61692358Y-54986052D01*
X61627829Y-55198775D01*
X61606040Y-55420000D01*
X61333960Y-55420000D01*
X61312171Y-55198775D01*
X61247642Y-54986052D01*
X61142853Y-54790006D01*
X61001831Y-54618169D01*
X60829994Y-54477147D01*
X60633948Y-54372358D01*
X60421225Y-54307829D01*
X60255436Y-54291500D01*
X60144564Y-54291500D01*
X59978775Y-54307829D01*
X59766052Y-54372358D01*
X59570006Y-54477147D01*
X59398169Y-54618169D01*
X59257147Y-54790006D01*
X59152358Y-54986052D01*
X59087829Y-55198775D01*
X59066040Y-55420000D01*
X58260500Y-55420000D01*
X58260500Y-52880000D01*
X59066040Y-52880000D01*
X59087829Y-53101225D01*
X59152358Y-53313948D01*
X59257147Y-53509994D01*
X59398169Y-53681831D01*
X59570006Y-53822853D01*
X59766052Y-53927642D01*
X59978775Y-53992171D01*
X60144564Y-54008500D01*
X60255436Y-54008500D01*
X60421225Y-53992171D01*
X60633948Y-53927642D01*
X60829994Y-53822853D01*
X61001831Y-53681831D01*
X61142853Y-53509994D01*
X61247642Y-53313948D01*
X61312171Y-53101225D01*
X61333960Y-52880000D01*
X61312171Y-52658775D01*
X61247642Y-52446052D01*
X61142853Y-52250006D01*
X61001831Y-52078169D01*
X60829994Y-51937147D01*
X60633948Y-51832358D01*
X60421225Y-51767829D01*
X60255436Y-51751500D01*
X60144564Y-51751500D01*
X59978775Y-51767829D01*
X59766052Y-51832358D01*
X59570006Y-51937147D01*
X59398169Y-52078169D01*
X59257147Y-52250006D01*
X59152358Y-52446052D01*
X59087829Y-52658775D01*
X59066040Y-52880000D01*
X58260500Y-52880000D01*
X58260500Y-50340000D01*
X59066040Y-50340000D01*
X59087829Y-50561225D01*
X59152358Y-50773948D01*
X59257147Y-50969994D01*
X59398169Y-51141831D01*
X59570006Y-51282853D01*
X59766052Y-51387642D01*
X59978775Y-51452171D01*
X60144564Y-51468500D01*
X60255436Y-51468500D01*
X60421225Y-51452171D01*
X60633948Y-51387642D01*
X60829994Y-51282853D01*
X61001831Y-51141831D01*
X61142853Y-50969994D01*
X61247642Y-50773948D01*
X61312171Y-50561225D01*
X61333960Y-50340000D01*
X61312171Y-50118775D01*
X61247642Y-49906052D01*
X61142853Y-49710006D01*
X61001831Y-49538169D01*
X60829994Y-49397147D01*
X60633948Y-49292358D01*
X60421225Y-49227829D01*
X60255436Y-49211500D01*
X60144564Y-49211500D01*
X59978775Y-49227829D01*
X59766052Y-49292358D01*
X59570006Y-49397147D01*
X59398169Y-49538169D01*
X59257147Y-49710006D01*
X59152358Y-49906052D01*
X59087829Y-50118775D01*
X59066040Y-50340000D01*
X58260500Y-50340000D01*
X58260500Y-47578498D01*
X59071500Y-47578498D01*
X59071500Y-48021502D01*
X59164551Y-48021502D01*
X59141725Y-48191875D01*
X59174580Y-48271222D01*
X59286214Y-48462217D01*
X59432964Y-48627764D01*
X59609191Y-48761500D01*
X59808123Y-48858286D01*
X59978500Y-48836935D01*
X59978500Y-48021500D01*
X59958500Y-48021500D01*
X59958500Y-47578500D01*
X59978500Y-47578500D01*
X59978500Y-46763065D01*
X60421500Y-46763065D01*
X60421500Y-47578500D01*
X60441500Y-47578500D01*
X60441500Y-48021500D01*
X60421500Y-48021500D01*
X60421500Y-48836935D01*
X60591877Y-48858286D01*
X60790809Y-48761500D01*
X60967036Y-48627764D01*
X61113786Y-48462217D01*
X61225420Y-48271222D01*
X61258275Y-48191875D01*
X61235449Y-48021502D01*
X61328500Y-48021502D01*
X61328500Y-47800000D01*
X61606040Y-47800000D01*
X61627829Y-48021225D01*
X61692358Y-48233948D01*
X61797147Y-48429994D01*
X61938169Y-48601831D01*
X62110006Y-48742853D01*
X62306052Y-48847642D01*
X62518775Y-48912171D01*
X62684564Y-48928500D01*
X62795436Y-48928500D01*
X62961225Y-48912171D01*
X63173948Y-48847642D01*
X63369994Y-48742853D01*
X63541831Y-48601831D01*
X63682853Y-48429994D01*
X63787642Y-48233948D01*
X63852171Y-48021225D01*
X63873960Y-47800000D01*
X63852171Y-47578775D01*
X63787642Y-47366052D01*
X63682853Y-47170006D01*
X63541831Y-46998169D01*
X63369994Y-46857147D01*
X63173948Y-46752358D01*
X62961225Y-46687829D01*
X62795436Y-46671500D01*
X62684564Y-46671500D01*
X62518775Y-46687829D01*
X62306052Y-46752358D01*
X62110006Y-46857147D01*
X61938169Y-46998169D01*
X61797147Y-47170006D01*
X61692358Y-47366052D01*
X61627829Y-47578775D01*
X61606040Y-47800000D01*
X61328500Y-47800000D01*
X61328500Y-47578498D01*
X61235449Y-47578498D01*
X61258275Y-47408125D01*
X61225420Y-47328778D01*
X61113786Y-47137783D01*
X60967036Y-46972236D01*
X60790809Y-46838500D01*
X60591877Y-46741714D01*
X60421500Y-46763065D01*
X59978500Y-46763065D01*
X59808123Y-46741714D01*
X59609191Y-46838500D01*
X59432964Y-46972236D01*
X59286214Y-47137783D01*
X59174580Y-47328778D01*
X59141725Y-47408125D01*
X59164551Y-47578498D01*
X59071500Y-47578498D01*
X58260500Y-47578498D01*
X58260500Y-45038498D01*
X59071500Y-45038498D01*
X59071500Y-45481502D01*
X59164551Y-45481502D01*
X59141725Y-45651875D01*
X59174580Y-45731222D01*
X59286214Y-45922217D01*
X59432964Y-46087764D01*
X59609191Y-46221500D01*
X59808123Y-46318286D01*
X59978500Y-46296935D01*
X59978500Y-45481500D01*
X59958500Y-45481500D01*
X59958500Y-45038500D01*
X59978500Y-45038500D01*
X59978500Y-44223065D01*
X60421500Y-44223065D01*
X60421500Y-45038500D01*
X60441500Y-45038500D01*
X60441500Y-45481500D01*
X60421500Y-45481500D01*
X60421500Y-46296935D01*
X60591877Y-46318286D01*
X60790809Y-46221500D01*
X60967036Y-46087764D01*
X61113786Y-45922217D01*
X61225420Y-45731222D01*
X61258275Y-45651875D01*
X61235449Y-45481502D01*
X61328500Y-45481502D01*
X61328500Y-45260000D01*
X61606040Y-45260000D01*
X61627829Y-45481225D01*
X61692358Y-45693948D01*
X61797147Y-45889994D01*
X61938169Y-46061831D01*
X62110006Y-46202853D01*
X62306052Y-46307642D01*
X62518775Y-46372171D01*
X62684564Y-46388500D01*
X62795436Y-46388500D01*
X62961225Y-46372171D01*
X63173948Y-46307642D01*
X63369994Y-46202853D01*
X63541831Y-46061831D01*
X63682853Y-45889994D01*
X63787642Y-45693948D01*
X63852171Y-45481225D01*
X63873960Y-45260000D01*
X63852171Y-45038775D01*
X63787642Y-44826052D01*
X63772643Y-44797992D01*
X65392136Y-43178499D01*
X71149691Y-43178499D01*
X71017147Y-43340006D01*
X70912358Y-43536052D01*
X70909189Y-43546500D01*
X69149818Y-43546500D01*
X69130000Y-43544548D01*
X69110182Y-43546500D01*
X69050900Y-43552339D01*
X68974840Y-43575411D01*
X68904743Y-43612879D01*
X68843302Y-43663302D01*
X68830667Y-43678698D01*
X63202008Y-49307357D01*
X63173948Y-49292358D01*
X62961225Y-49227829D01*
X62795436Y-49211500D01*
X62684564Y-49211500D01*
X62518775Y-49227829D01*
X62306052Y-49292358D01*
X62110006Y-49397147D01*
X61938169Y-49538169D01*
X61797147Y-49710006D01*
X61692358Y-49906052D01*
X61627829Y-50118775D01*
X61606040Y-50340000D01*
X61627829Y-50561225D01*
X61692358Y-50773948D01*
X61797147Y-50969994D01*
X61938169Y-51141831D01*
X62110006Y-51282853D01*
X62306052Y-51387642D01*
X62518775Y-51452171D01*
X62684564Y-51468500D01*
X62795436Y-51468500D01*
X62961225Y-51452171D01*
X63173948Y-51387642D01*
X63369994Y-51282853D01*
X63541831Y-51141831D01*
X63682853Y-50969994D01*
X63787642Y-50773948D01*
X63852171Y-50561225D01*
X63873960Y-50340000D01*
X63852171Y-50118775D01*
X63787642Y-49906052D01*
X63772643Y-49877992D01*
X69297135Y-44353500D01*
X70897055Y-44353500D01*
X70912358Y-44403948D01*
X71017147Y-44599994D01*
X71158169Y-44771831D01*
X71330006Y-44912853D01*
X71526052Y-45017642D01*
X71738775Y-45082171D01*
X71904564Y-45098500D01*
X72015436Y-45098500D01*
X72181225Y-45082171D01*
X72393948Y-45017642D01*
X72589994Y-44912853D01*
X72761831Y-44771831D01*
X72856500Y-44656475D01*
X72856500Y-45062865D01*
X72435042Y-45484323D01*
X72393948Y-45462358D01*
X72181225Y-45397829D01*
X72015436Y-45381500D01*
X71904564Y-45381500D01*
X71738775Y-45397829D01*
X71526052Y-45462358D01*
X71330006Y-45567147D01*
X71158169Y-45708169D01*
X71017147Y-45880006D01*
X70912358Y-46076052D01*
X70847829Y-46288775D01*
X70826040Y-46510000D01*
X70847829Y-46731225D01*
X70912358Y-46943948D01*
X71017147Y-47139994D01*
X71158169Y-47311831D01*
X71254141Y-47390593D01*
X67845725Y-47390593D01*
X67825907Y-47388641D01*
X67806089Y-47390593D01*
X67746807Y-47396432D01*
X67670747Y-47419504D01*
X67600650Y-47456972D01*
X67539209Y-47507395D01*
X67526576Y-47522789D01*
X63202008Y-51847357D01*
X63173948Y-51832358D01*
X62961225Y-51767829D01*
X62795436Y-51751500D01*
X62684564Y-51751500D01*
X62518775Y-51767829D01*
X62306052Y-51832358D01*
X62110006Y-51937147D01*
X61938169Y-52078169D01*
X61797147Y-52250006D01*
X61692358Y-52446052D01*
X61627829Y-52658775D01*
X61606040Y-52880000D01*
X61627829Y-53101225D01*
X61692358Y-53313948D01*
X61797147Y-53509994D01*
X61938169Y-53681831D01*
X62110006Y-53822853D01*
X62306052Y-53927642D01*
X62518775Y-53992171D01*
X62684564Y-54008500D01*
X62795436Y-54008500D01*
X62961225Y-53992171D01*
X63173948Y-53927642D01*
X63369994Y-53822853D01*
X63519691Y-53700000D01*
X86870152Y-53700000D01*
X86875529Y-53754596D01*
X86891454Y-53807093D01*
X86917315Y-53855475D01*
X86952118Y-53897882D01*
X86994525Y-53932685D01*
X87042907Y-53958546D01*
X87095404Y-53974471D01*
X87150000Y-53979848D01*
X87708875Y-53978500D01*
X87778500Y-53908875D01*
X87778500Y-53071500D01*
X88221500Y-53071500D01*
X88221500Y-53908875D01*
X88291125Y-53978500D01*
X88850000Y-53979848D01*
X88904596Y-53974471D01*
X88957093Y-53958546D01*
X89005475Y-53932685D01*
X89047882Y-53897882D01*
X89082685Y-53855475D01*
X89108546Y-53807093D01*
X89124471Y-53754596D01*
X89129848Y-53700000D01*
X89128500Y-53141125D01*
X89058875Y-53071500D01*
X88221500Y-53071500D01*
X87778500Y-53071500D01*
X86941125Y-53071500D01*
X86871500Y-53141125D01*
X86870152Y-53700000D01*
X63519691Y-53700000D01*
X63541831Y-53681831D01*
X63682853Y-53509994D01*
X63787642Y-53313948D01*
X63852171Y-53101225D01*
X63873960Y-52880000D01*
X63852171Y-52658775D01*
X63787642Y-52446052D01*
X63772643Y-52417992D01*
X64190635Y-52000000D01*
X86870152Y-52000000D01*
X86871500Y-52558875D01*
X86941125Y-52628500D01*
X87778500Y-52628500D01*
X87778500Y-51791125D01*
X88221500Y-51791125D01*
X88221500Y-52628500D01*
X89058875Y-52628500D01*
X89128500Y-52558875D01*
X89129848Y-52000000D01*
X89124471Y-51945404D01*
X89108546Y-51892907D01*
X89082685Y-51844525D01*
X89047882Y-51802118D01*
X89005475Y-51767315D01*
X88957093Y-51741454D01*
X88904596Y-51725529D01*
X88850000Y-51720152D01*
X88291125Y-51721500D01*
X88221500Y-51791125D01*
X87778500Y-51791125D01*
X87708875Y-51721500D01*
X87150000Y-51720152D01*
X87095404Y-51725529D01*
X87042907Y-51741454D01*
X86994525Y-51767315D01*
X86952118Y-51802118D01*
X86917315Y-51844525D01*
X86891454Y-51892907D01*
X86875529Y-51945404D01*
X86870152Y-52000000D01*
X64190635Y-52000000D01*
X67993042Y-48197593D01*
X71219796Y-48197593D01*
X71158169Y-48248169D01*
X71017147Y-48420006D01*
X70912358Y-48616052D01*
X70847829Y-48828775D01*
X70826040Y-49050000D01*
X70847829Y-49271225D01*
X70912358Y-49483948D01*
X71017147Y-49679994D01*
X71158169Y-49851831D01*
X71330006Y-49992853D01*
X71526052Y-50097642D01*
X71738775Y-50162171D01*
X71904564Y-50178500D01*
X72015436Y-50178500D01*
X72181225Y-50162171D01*
X72393948Y-50097642D01*
X72461109Y-50061744D01*
X72980667Y-50581302D01*
X72993302Y-50596698D01*
X73054743Y-50647121D01*
X73124840Y-50684589D01*
X73183197Y-50702291D01*
X73200899Y-50707661D01*
X73208846Y-50708444D01*
X73260182Y-50713500D01*
X73260188Y-50713500D01*
X73279999Y-50715451D01*
X73299810Y-50713500D01*
X86943122Y-50713500D01*
X86952358Y-50743948D01*
X87057147Y-50939994D01*
X87198169Y-51111831D01*
X87370006Y-51252853D01*
X87566052Y-51357642D01*
X87778775Y-51422171D01*
X87944564Y-51438500D01*
X88055436Y-51438500D01*
X88221225Y-51422171D01*
X88433948Y-51357642D01*
X88629994Y-51252853D01*
X88801831Y-51111831D01*
X88942853Y-50939994D01*
X89047642Y-50743948D01*
X89112171Y-50531225D01*
X89133960Y-50310000D01*
X89112171Y-50088775D01*
X89047642Y-49876052D01*
X88942853Y-49680006D01*
X88801831Y-49508169D01*
X88629994Y-49367147D01*
X88433948Y-49262358D01*
X88221225Y-49197829D01*
X88055436Y-49181500D01*
X87944564Y-49181500D01*
X87778775Y-49197829D01*
X87566052Y-49262358D01*
X87370006Y-49367147D01*
X87198169Y-49508169D01*
X87057147Y-49680006D01*
X86952358Y-49876052D01*
X86943122Y-49906500D01*
X75629207Y-49906500D01*
X75629847Y-49900000D01*
X75629847Y-48510788D01*
X75967135Y-48173500D01*
X86943122Y-48173500D01*
X86952358Y-48203948D01*
X87057147Y-48399994D01*
X87198169Y-48571831D01*
X87370006Y-48712853D01*
X87566052Y-48817642D01*
X87778775Y-48882171D01*
X87944564Y-48898500D01*
X88055436Y-48898500D01*
X88221225Y-48882171D01*
X88433948Y-48817642D01*
X88629994Y-48712853D01*
X88801831Y-48571831D01*
X88942853Y-48399994D01*
X89047642Y-48203948D01*
X89112171Y-47991225D01*
X89133960Y-47770000D01*
X89112171Y-47548775D01*
X89047642Y-47336052D01*
X88942853Y-47140006D01*
X88801831Y-46968169D01*
X88629994Y-46827147D01*
X88433948Y-46722358D01*
X88221225Y-46657829D01*
X88055436Y-46641500D01*
X87944564Y-46641500D01*
X87778775Y-46657829D01*
X87566052Y-46722358D01*
X87370006Y-46827147D01*
X87198169Y-46968169D01*
X87057147Y-47140006D01*
X86952358Y-47336052D01*
X86943122Y-47366500D01*
X75819817Y-47366500D01*
X75799999Y-47364548D01*
X75720900Y-47372339D01*
X75644840Y-47395411D01*
X75574743Y-47432879D01*
X75513302Y-47483302D01*
X75500667Y-47498698D01*
X75079212Y-47920153D01*
X73680482Y-47920153D01*
X74051025Y-47549610D01*
X74066052Y-47557642D01*
X74278775Y-47622171D01*
X74444564Y-47638500D01*
X74555436Y-47638500D01*
X74721225Y-47622171D01*
X74933948Y-47557642D01*
X75129994Y-47452853D01*
X75301831Y-47311831D01*
X75442853Y-47139994D01*
X75547642Y-46943948D01*
X75612171Y-46731225D01*
X75633960Y-46510000D01*
X75612171Y-46288775D01*
X75547642Y-46076052D01*
X75442853Y-45880006D01*
X75301831Y-45708169D01*
X75210846Y-45633500D01*
X86943122Y-45633500D01*
X86952358Y-45663948D01*
X87057147Y-45859994D01*
X87198169Y-46031831D01*
X87370006Y-46172853D01*
X87566052Y-46277642D01*
X87778775Y-46342171D01*
X87944564Y-46358500D01*
X88055436Y-46358500D01*
X88221225Y-46342171D01*
X88433948Y-46277642D01*
X88629994Y-46172853D01*
X88801831Y-46031831D01*
X88942853Y-45859994D01*
X89047642Y-45663948D01*
X89112171Y-45451225D01*
X89133960Y-45230000D01*
X89112171Y-45008775D01*
X89047642Y-44796052D01*
X88942853Y-44600006D01*
X88801831Y-44428169D01*
X88629994Y-44287147D01*
X88433948Y-44182358D01*
X88221225Y-44117829D01*
X88055436Y-44101500D01*
X87944564Y-44101500D01*
X87778775Y-44117829D01*
X87566052Y-44182358D01*
X87370006Y-44287147D01*
X87198169Y-44428169D01*
X87057147Y-44600006D01*
X86952358Y-44796052D01*
X86943122Y-44826500D01*
X75229170Y-44826500D01*
X75267036Y-44797764D01*
X75413786Y-44632217D01*
X75525420Y-44441222D01*
X75558275Y-44361875D01*
X75535449Y-44191500D01*
X74721500Y-44191500D01*
X74721500Y-44211500D01*
X74278500Y-44211500D01*
X74278500Y-44191500D01*
X74258500Y-44191500D01*
X74258500Y-43748500D01*
X74278500Y-43748500D01*
X74278500Y-42933065D01*
X74721500Y-42933065D01*
X74721500Y-43748500D01*
X75535449Y-43748500D01*
X75558275Y-43578125D01*
X75525420Y-43498778D01*
X75413786Y-43307783D01*
X75267036Y-43142236D01*
X75090809Y-43008500D01*
X74891877Y-42911714D01*
X74721500Y-42933065D01*
X74278500Y-42933065D01*
X74108123Y-42911714D01*
X73909191Y-43008500D01*
X73732964Y-43142236D01*
X73617373Y-43272632D01*
X73597121Y-43234743D01*
X73559331Y-43188696D01*
X73546698Y-43173302D01*
X73531302Y-43160667D01*
X73060635Y-42690000D01*
X86866040Y-42690000D01*
X86887829Y-42911225D01*
X86952358Y-43123948D01*
X87057147Y-43319994D01*
X87198169Y-43491831D01*
X87370006Y-43632853D01*
X87566052Y-43737642D01*
X87778775Y-43802171D01*
X87944564Y-43818500D01*
X88055436Y-43818500D01*
X88221225Y-43802171D01*
X88433948Y-43737642D01*
X88629994Y-43632853D01*
X88801831Y-43491831D01*
X88942853Y-43319994D01*
X89047642Y-43123948D01*
X89112171Y-42911225D01*
X89133960Y-42690000D01*
X89112171Y-42468775D01*
X89047642Y-42256052D01*
X88942853Y-42060006D01*
X88801831Y-41888169D01*
X88629994Y-41747147D01*
X88433948Y-41642358D01*
X88221225Y-41577829D01*
X88055436Y-41561500D01*
X87944564Y-41561500D01*
X87778775Y-41577829D01*
X87566052Y-41642358D01*
X87370006Y-41747147D01*
X87198169Y-41888169D01*
X87057147Y-42060006D01*
X86952358Y-42256052D01*
X86887829Y-42468775D01*
X86866040Y-42690000D01*
X73060635Y-42690000D01*
X72874332Y-42503697D01*
X72861697Y-42488301D01*
X72800256Y-42437878D01*
X72730159Y-42400410D01*
X72654099Y-42377338D01*
X72594817Y-42371499D01*
X72574999Y-42369547D01*
X72555181Y-42371499D01*
X65244818Y-42371499D01*
X65225000Y-42369547D01*
X65145901Y-42377338D01*
X65069841Y-42400410D01*
X64999744Y-42437878D01*
X64938303Y-42488301D01*
X64925668Y-42503697D01*
X63202008Y-44227357D01*
X63173948Y-44212358D01*
X62961225Y-44147829D01*
X62795436Y-44131500D01*
X62684564Y-44131500D01*
X62518775Y-44147829D01*
X62306052Y-44212358D01*
X62110006Y-44317147D01*
X61938169Y-44458169D01*
X61797147Y-44630006D01*
X61692358Y-44826052D01*
X61627829Y-45038775D01*
X61606040Y-45260000D01*
X61328500Y-45260000D01*
X61328500Y-45038498D01*
X61235449Y-45038498D01*
X61258275Y-44868125D01*
X61225420Y-44788778D01*
X61113786Y-44597783D01*
X60967036Y-44432236D01*
X60790809Y-44298500D01*
X60591877Y-44201714D01*
X60421500Y-44223065D01*
X59978500Y-44223065D01*
X59808123Y-44201714D01*
X59609191Y-44298500D01*
X59432964Y-44432236D01*
X59286214Y-44597783D01*
X59174580Y-44788778D01*
X59141725Y-44868125D01*
X59164551Y-45038498D01*
X59071500Y-45038498D01*
X58260500Y-45038498D01*
X58260500Y-42498498D01*
X59071500Y-42498498D01*
X59071500Y-42941502D01*
X59164551Y-42941502D01*
X59141725Y-43111875D01*
X59174580Y-43191222D01*
X59286214Y-43382217D01*
X59432964Y-43547764D01*
X59609191Y-43681500D01*
X59808123Y-43778286D01*
X59978500Y-43756935D01*
X59978500Y-42941500D01*
X59958500Y-42941500D01*
X59958500Y-42498500D01*
X59978500Y-42498500D01*
X59978500Y-41683065D01*
X60421500Y-41683065D01*
X60421500Y-42498500D01*
X60441500Y-42498500D01*
X60441500Y-42941500D01*
X60421500Y-42941500D01*
X60421500Y-43756935D01*
X60591877Y-43778286D01*
X60790809Y-43681500D01*
X60967036Y-43547764D01*
X61113786Y-43382217D01*
X61225420Y-43191222D01*
X61258275Y-43111875D01*
X61235449Y-42941502D01*
X61328500Y-42941502D01*
X61328500Y-42720000D01*
X61606040Y-42720000D01*
X61627829Y-42941225D01*
X61692358Y-43153948D01*
X61797147Y-43349994D01*
X61938169Y-43521831D01*
X62110006Y-43662853D01*
X62306052Y-43767642D01*
X62518775Y-43832171D01*
X62684564Y-43848500D01*
X62795436Y-43848500D01*
X62961225Y-43832171D01*
X63173948Y-43767642D01*
X63369994Y-43662853D01*
X63541831Y-43521831D01*
X63682853Y-43349994D01*
X63787642Y-43153948D01*
X63852171Y-42941225D01*
X63873960Y-42720000D01*
X63852171Y-42498775D01*
X63787642Y-42286052D01*
X63682853Y-42090006D01*
X63541831Y-41918169D01*
X63369994Y-41777147D01*
X63173948Y-41672358D01*
X62961225Y-41607829D01*
X62795436Y-41591500D01*
X62684564Y-41591500D01*
X62518775Y-41607829D01*
X62306052Y-41672358D01*
X62110006Y-41777147D01*
X61938169Y-41918169D01*
X61797147Y-42090006D01*
X61692358Y-42286052D01*
X61627829Y-42498775D01*
X61606040Y-42720000D01*
X61328500Y-42720000D01*
X61328500Y-42498498D01*
X61235449Y-42498498D01*
X61258275Y-42328125D01*
X61225420Y-42248778D01*
X61113786Y-42057783D01*
X60967036Y-41892236D01*
X60790809Y-41758500D01*
X60591877Y-41661714D01*
X60421500Y-41683065D01*
X59978500Y-41683065D01*
X59808123Y-41661714D01*
X59609191Y-41758500D01*
X59432964Y-41892236D01*
X59286214Y-42057783D01*
X59174580Y-42248778D01*
X59141725Y-42328125D01*
X59164551Y-42498498D01*
X59071500Y-42498498D01*
X58260500Y-42498498D01*
X58260500Y-39958498D01*
X59071500Y-39958498D01*
X59071500Y-40401502D01*
X59164551Y-40401502D01*
X59141725Y-40571875D01*
X59174580Y-40651222D01*
X59286214Y-40842217D01*
X59432964Y-41007764D01*
X59609191Y-41141500D01*
X59808123Y-41238286D01*
X59978500Y-41216935D01*
X59978500Y-40401500D01*
X59958500Y-40401500D01*
X59958500Y-39958500D01*
X59978500Y-39958500D01*
X59978500Y-39143065D01*
X60421500Y-39143065D01*
X60421500Y-39958500D01*
X60441500Y-39958500D01*
X60441500Y-40401500D01*
X60421500Y-40401500D01*
X60421500Y-41216935D01*
X60591877Y-41238286D01*
X60790809Y-41141500D01*
X60967036Y-41007764D01*
X61113786Y-40842217D01*
X61225420Y-40651222D01*
X61258275Y-40571875D01*
X61235449Y-40401502D01*
X61328500Y-40401502D01*
X61328500Y-40180000D01*
X61606040Y-40180000D01*
X61627829Y-40401225D01*
X61692358Y-40613948D01*
X61797147Y-40809994D01*
X61938169Y-40981831D01*
X62110006Y-41122853D01*
X62306052Y-41227642D01*
X62518775Y-41292171D01*
X62684564Y-41308500D01*
X62795436Y-41308500D01*
X62961225Y-41292171D01*
X63173948Y-41227642D01*
X63369994Y-41122853D01*
X63541831Y-40981831D01*
X63682853Y-40809994D01*
X63787642Y-40613948D01*
X63852171Y-40401225D01*
X63873960Y-40180000D01*
X63871006Y-40150000D01*
X86866040Y-40150000D01*
X86887829Y-40371225D01*
X86952358Y-40583948D01*
X87057147Y-40779994D01*
X87198169Y-40951831D01*
X87370006Y-41092853D01*
X87566052Y-41197642D01*
X87778775Y-41262171D01*
X87944564Y-41278500D01*
X88055436Y-41278500D01*
X88221225Y-41262171D01*
X88433948Y-41197642D01*
X88629994Y-41092853D01*
X88801831Y-40951831D01*
X88942853Y-40779994D01*
X89047642Y-40583948D01*
X89112171Y-40371225D01*
X89133960Y-40150000D01*
X89112171Y-39928775D01*
X89047642Y-39716052D01*
X88942853Y-39520006D01*
X88801831Y-39348169D01*
X88629994Y-39207147D01*
X88433948Y-39102358D01*
X88221225Y-39037829D01*
X88055436Y-39021500D01*
X87944564Y-39021500D01*
X87778775Y-39037829D01*
X87566052Y-39102358D01*
X87370006Y-39207147D01*
X87198169Y-39348169D01*
X87057147Y-39520006D01*
X86952358Y-39716052D01*
X86887829Y-39928775D01*
X86866040Y-40150000D01*
X63871006Y-40150000D01*
X63852171Y-39958775D01*
X63787642Y-39746052D01*
X63682853Y-39550006D01*
X63541831Y-39378169D01*
X63369994Y-39237147D01*
X63173948Y-39132358D01*
X62961225Y-39067829D01*
X62795436Y-39051500D01*
X62684564Y-39051500D01*
X62518775Y-39067829D01*
X62306052Y-39132358D01*
X62110006Y-39237147D01*
X61938169Y-39378169D01*
X61797147Y-39550006D01*
X61692358Y-39746052D01*
X61627829Y-39958775D01*
X61606040Y-40180000D01*
X61328500Y-40180000D01*
X61328500Y-39958498D01*
X61235449Y-39958498D01*
X61258275Y-39788125D01*
X61225420Y-39708778D01*
X61113786Y-39517783D01*
X60967036Y-39352236D01*
X60790809Y-39218500D01*
X60591877Y-39121714D01*
X60421500Y-39143065D01*
X59978500Y-39143065D01*
X59808123Y-39121714D01*
X59609191Y-39218500D01*
X59432964Y-39352236D01*
X59286214Y-39517783D01*
X59174580Y-39708778D01*
X59141725Y-39788125D01*
X59164551Y-39958498D01*
X59071500Y-39958498D01*
X58260500Y-39958498D01*
X58260500Y-37418498D01*
X59071500Y-37418498D01*
X59071500Y-37861502D01*
X59164551Y-37861502D01*
X59141725Y-38031875D01*
X59174580Y-38111222D01*
X59286214Y-38302217D01*
X59432964Y-38467764D01*
X59609191Y-38601500D01*
X59808123Y-38698286D01*
X59978500Y-38676935D01*
X59978500Y-37861500D01*
X59958500Y-37861500D01*
X59958500Y-37418500D01*
X59978500Y-37418500D01*
X59978500Y-36603065D01*
X60421500Y-36603065D01*
X60421500Y-37418500D01*
X60441500Y-37418500D01*
X60441500Y-37861500D01*
X60421500Y-37861500D01*
X60421500Y-38676935D01*
X60591877Y-38698286D01*
X60790809Y-38601500D01*
X60967036Y-38467764D01*
X61113786Y-38302217D01*
X61225420Y-38111222D01*
X61258275Y-38031875D01*
X61235449Y-37861502D01*
X61328500Y-37861502D01*
X61328500Y-37640000D01*
X61606040Y-37640000D01*
X61627829Y-37861225D01*
X61692358Y-38073948D01*
X61797147Y-38269994D01*
X61938169Y-38441831D01*
X62110006Y-38582853D01*
X62306052Y-38687642D01*
X62518775Y-38752171D01*
X62684564Y-38768500D01*
X62795436Y-38768500D01*
X62961225Y-38752171D01*
X63173948Y-38687642D01*
X63369994Y-38582853D01*
X63541831Y-38441831D01*
X63682853Y-38269994D01*
X63787642Y-38073948D01*
X63852171Y-37861225D01*
X63873960Y-37640000D01*
X63852171Y-37418775D01*
X63787642Y-37206052D01*
X63682853Y-37010006D01*
X63541831Y-36838169D01*
X63369994Y-36697147D01*
X63173948Y-36592358D01*
X62961225Y-36527829D01*
X62795436Y-36511500D01*
X62684564Y-36511500D01*
X62518775Y-36527829D01*
X62306052Y-36592358D01*
X62110006Y-36697147D01*
X61938169Y-36838169D01*
X61797147Y-37010006D01*
X61692358Y-37206052D01*
X61627829Y-37418775D01*
X61606040Y-37640000D01*
X61328500Y-37640000D01*
X61328500Y-37418498D01*
X61235449Y-37418498D01*
X61258275Y-37248125D01*
X61225420Y-37168778D01*
X61113786Y-36977783D01*
X60967036Y-36812236D01*
X60790809Y-36678500D01*
X60591877Y-36581714D01*
X60421500Y-36603065D01*
X59978500Y-36603065D01*
X59808123Y-36581714D01*
X59609191Y-36678500D01*
X59432964Y-36812236D01*
X59286214Y-36977783D01*
X59174580Y-37168778D01*
X59141725Y-37248125D01*
X59164551Y-37418498D01*
X59071500Y-37418498D01*
X58260500Y-37418498D01*
X58260500Y-34250000D01*
X59070153Y-34250000D01*
X59070153Y-35950000D01*
X59075530Y-36004595D01*
X59091455Y-36057093D01*
X59117316Y-36105475D01*
X59152118Y-36147882D01*
X59194525Y-36182684D01*
X59242907Y-36208545D01*
X59295405Y-36224470D01*
X59350000Y-36229847D01*
X61050000Y-36229847D01*
X61104595Y-36224470D01*
X61157093Y-36208545D01*
X61205475Y-36182684D01*
X61247882Y-36147882D01*
X61282684Y-36105475D01*
X61308545Y-36057093D01*
X61324470Y-36004595D01*
X61329847Y-35950000D01*
X61329847Y-35100000D01*
X61606040Y-35100000D01*
X61627829Y-35321225D01*
X61692358Y-35533948D01*
X61797147Y-35729994D01*
X61938169Y-35901831D01*
X62110006Y-36042853D01*
X62306052Y-36147642D01*
X62518775Y-36212171D01*
X62684564Y-36228500D01*
X62795436Y-36228500D01*
X62961225Y-36212171D01*
X63173948Y-36147642D01*
X63369994Y-36042853D01*
X63541831Y-35901831D01*
X63682853Y-35729994D01*
X63787642Y-35533948D01*
X63852171Y-35321225D01*
X63873960Y-35100000D01*
X63852171Y-34878775D01*
X63787642Y-34666052D01*
X63682853Y-34470006D01*
X63541831Y-34298169D01*
X63369994Y-34157147D01*
X63173948Y-34052358D01*
X62961225Y-33987829D01*
X62795436Y-33971500D01*
X62684564Y-33971500D01*
X62518775Y-33987829D01*
X62306052Y-34052358D01*
X62110006Y-34157147D01*
X61938169Y-34298169D01*
X61797147Y-34470006D01*
X61692358Y-34666052D01*
X61627829Y-34878775D01*
X61606040Y-35100000D01*
X61329847Y-35100000D01*
X61329847Y-34250000D01*
X61324470Y-34195405D01*
X61308545Y-34142907D01*
X61282684Y-34094525D01*
X61247882Y-34052118D01*
X61205475Y-34017316D01*
X61157093Y-33991455D01*
X61104595Y-33975530D01*
X61050000Y-33970153D01*
X59350000Y-33970153D01*
X59295405Y-33975530D01*
X59242907Y-33991455D01*
X59194525Y-34017316D01*
X59152118Y-34052118D01*
X59117316Y-34094525D01*
X59091455Y-34142907D01*
X59075530Y-34195405D01*
X59070153Y-34250000D01*
X58260500Y-34250000D01*
X58260500Y-33512741D01*
X58266287Y-33453721D01*
X58279725Y-33409212D01*
X58301554Y-33368155D01*
X58330946Y-33332119D01*
X58366771Y-33302482D01*
X58407675Y-33280365D01*
X58452093Y-33266615D01*
X58510276Y-33260500D01*
X64969416Y-33260500D01*
X85931958Y-38251581D01*
M02*
