G04 #@! TF.GenerationSoftware,KiCad,Pcbnew,5.0.1*
G04 #@! TF.CreationDate,2019-11-02T01:16:45+01:00*
G04 #@! TF.ProjectId,JlinkBreakout,4A6C696E6B427265616B6F75742E6B69,rev?*
G04 #@! TF.SameCoordinates,Original*
G04 #@! TF.FileFunction,Copper,L2,Bot,Signal*
G04 #@! TF.FilePolarity,Positive*
%FSLAX46Y46*%
G04 Gerber Fmt 4.6, Leading zero omitted, Abs format (unit mm)*
G04 Created by KiCad (PCBNEW 5.0.1) date Sat 02 Nov 2019 01:16:45 AM CET*
%MOMM*%
%LPD*%
G01*
G04 APERTURE LIST*
G04 #@! TA.AperFunction,NonConductor*
%ADD10C,0.050000*%
G04 #@! TD*
G04 #@! TA.AperFunction,Conductor*
%ADD11C,0.100000*%
G04 #@! TD*
G04 #@! TA.AperFunction,ComponentPad*
%ADD12C,1.700000*%
G04 #@! TD*
G04 #@! TA.AperFunction,ComponentPad*
%ADD13O,1.950000X1.700000*%
G04 #@! TD*
G04 #@! TA.AperFunction,SMDPad,CuDef*
%ADD14C,0.975000*%
G04 #@! TD*
G04 #@! TA.AperFunction,SMDPad,CuDef*
%ADD15R,1.060000X0.650000*%
G04 #@! TD*
G04 #@! TA.AperFunction,SMDPad,CuDef*
%ADD16C,0.875000*%
G04 #@! TD*
G04 #@! TA.AperFunction,ComponentPad*
%ADD17C,1.524000*%
G04 #@! TD*
G04 #@! TA.AperFunction,ComponentPad*
%ADD18R,1.727200X1.727200*%
G04 #@! TD*
G04 #@! TA.AperFunction,ComponentPad*
%ADD19O,1.727200X1.727200*%
G04 #@! TD*
G04 #@! TA.AperFunction,SMDPad,CuDef*
%ADD20C,1.524000*%
G04 #@! TD*
G04 #@! TA.AperFunction,ViaPad*
%ADD21C,0.800000*%
G04 #@! TD*
G04 #@! TA.AperFunction,Conductor*
%ADD22C,0.200000*%
G04 #@! TD*
G04 #@! TA.AperFunction,Conductor*
%ADD23C,0.300000*%
G04 #@! TD*
G04 #@! TA.AperFunction,Conductor*
%ADD24C,0.157000*%
G04 #@! TD*
G04 APERTURE END LIST*
D10*
X58500000Y-60000000D02*
G75*
G02X58000000Y-59500000I0J500000D01*
G01*
X58000000Y-33500000D02*
G75*
G02X58500000Y-33000000I500000J0D01*
G01*
X96000000Y-38000000D02*
G75*
G02X96500000Y-38500000I0J-500000D01*
G01*
X96500000Y-54500000D02*
G75*
G02X96000000Y-55000000I-500000J0D01*
G01*
X86000000Y-38000000D02*
X65000000Y-33000000D01*
X96000000Y-38000000D02*
X86000000Y-38000000D01*
X96500000Y-54500000D02*
X96500000Y-38500000D01*
X86000000Y-55000000D02*
X96000000Y-55000000D01*
X65000000Y-60000000D02*
X86000000Y-55000000D01*
X65000000Y-33000000D02*
X58500000Y-33000000D01*
X58500000Y-60000000D02*
X65000000Y-60000000D01*
X58000000Y-33500000D02*
X58000000Y-59500000D01*
D11*
G04 #@! TO.N,REF*
G04 #@! TO.C,J3*
G36*
X92849504Y-50701204D02*
X92873773Y-50704804D01*
X92897571Y-50710765D01*
X92920671Y-50719030D01*
X92942849Y-50729520D01*
X92963893Y-50742133D01*
X92983598Y-50756747D01*
X93001777Y-50773223D01*
X93018253Y-50791402D01*
X93032867Y-50811107D01*
X93045480Y-50832151D01*
X93055970Y-50854329D01*
X93064235Y-50877429D01*
X93070196Y-50901227D01*
X93073796Y-50925496D01*
X93075000Y-50950000D01*
X93075000Y-52150000D01*
X93073796Y-52174504D01*
X93070196Y-52198773D01*
X93064235Y-52222571D01*
X93055970Y-52245671D01*
X93045480Y-52267849D01*
X93032867Y-52288893D01*
X93018253Y-52308598D01*
X93001777Y-52326777D01*
X92983598Y-52343253D01*
X92963893Y-52357867D01*
X92942849Y-52370480D01*
X92920671Y-52380970D01*
X92897571Y-52389235D01*
X92873773Y-52395196D01*
X92849504Y-52398796D01*
X92825000Y-52400000D01*
X91375000Y-52400000D01*
X91350496Y-52398796D01*
X91326227Y-52395196D01*
X91302429Y-52389235D01*
X91279329Y-52380970D01*
X91257151Y-52370480D01*
X91236107Y-52357867D01*
X91216402Y-52343253D01*
X91198223Y-52326777D01*
X91181747Y-52308598D01*
X91167133Y-52288893D01*
X91154520Y-52267849D01*
X91144030Y-52245671D01*
X91135765Y-52222571D01*
X91129804Y-52198773D01*
X91126204Y-52174504D01*
X91125000Y-52150000D01*
X91125000Y-50950000D01*
X91126204Y-50925496D01*
X91129804Y-50901227D01*
X91135765Y-50877429D01*
X91144030Y-50854329D01*
X91154520Y-50832151D01*
X91167133Y-50811107D01*
X91181747Y-50791402D01*
X91198223Y-50773223D01*
X91216402Y-50756747D01*
X91236107Y-50742133D01*
X91257151Y-50729520D01*
X91279329Y-50719030D01*
X91302429Y-50710765D01*
X91326227Y-50704804D01*
X91350496Y-50701204D01*
X91375000Y-50700000D01*
X92825000Y-50700000D01*
X92849504Y-50701204D01*
X92849504Y-50701204D01*
G37*
D12*
G04 #@! TD*
G04 #@! TO.P,J3,1*
G04 #@! TO.N,REF*
X92100000Y-51550000D03*
D13*
G04 #@! TO.P,J3,2*
G04 #@! TO.N,RST*
X92100000Y-49050000D03*
G04 #@! TO.P,J3,3*
G04 #@! TO.N,CLK*
X92100000Y-46550000D03*
G04 #@! TO.P,J3,4*
G04 #@! TO.N,DIO*
X92100000Y-44050000D03*
G04 #@! TO.P,J3,5*
G04 #@! TO.N,GND*
X92100000Y-41550000D03*
G04 #@! TD*
D11*
G04 #@! TO.N,GND*
G04 #@! TO.C,C2*
G36*
X70280142Y-52576174D02*
X70303803Y-52579684D01*
X70327007Y-52585496D01*
X70349529Y-52593554D01*
X70371153Y-52603782D01*
X70391670Y-52616079D01*
X70410883Y-52630329D01*
X70428607Y-52646393D01*
X70444671Y-52664117D01*
X70458921Y-52683330D01*
X70471218Y-52703847D01*
X70481446Y-52725471D01*
X70489504Y-52747993D01*
X70495316Y-52771197D01*
X70498826Y-52794858D01*
X70500000Y-52818750D01*
X70500000Y-53306250D01*
X70498826Y-53330142D01*
X70495316Y-53353803D01*
X70489504Y-53377007D01*
X70481446Y-53399529D01*
X70471218Y-53421153D01*
X70458921Y-53441670D01*
X70444671Y-53460883D01*
X70428607Y-53478607D01*
X70410883Y-53494671D01*
X70391670Y-53508921D01*
X70371153Y-53521218D01*
X70349529Y-53531446D01*
X70327007Y-53539504D01*
X70303803Y-53545316D01*
X70280142Y-53548826D01*
X70256250Y-53550000D01*
X69343750Y-53550000D01*
X69319858Y-53548826D01*
X69296197Y-53545316D01*
X69272993Y-53539504D01*
X69250471Y-53531446D01*
X69228847Y-53521218D01*
X69208330Y-53508921D01*
X69189117Y-53494671D01*
X69171393Y-53478607D01*
X69155329Y-53460883D01*
X69141079Y-53441670D01*
X69128782Y-53421153D01*
X69118554Y-53399529D01*
X69110496Y-53377007D01*
X69104684Y-53353803D01*
X69101174Y-53330142D01*
X69100000Y-53306250D01*
X69100000Y-52818750D01*
X69101174Y-52794858D01*
X69104684Y-52771197D01*
X69110496Y-52747993D01*
X69118554Y-52725471D01*
X69128782Y-52703847D01*
X69141079Y-52683330D01*
X69155329Y-52664117D01*
X69171393Y-52646393D01*
X69189117Y-52630329D01*
X69208330Y-52616079D01*
X69228847Y-52603782D01*
X69250471Y-52593554D01*
X69272993Y-52585496D01*
X69296197Y-52579684D01*
X69319858Y-52576174D01*
X69343750Y-52575000D01*
X70256250Y-52575000D01*
X70280142Y-52576174D01*
X70280142Y-52576174D01*
G37*
D14*
G04 #@! TD*
G04 #@! TO.P,C2,2*
G04 #@! TO.N,GND*
X69800000Y-53062500D03*
D11*
G04 #@! TO.N,LDOOUT*
G04 #@! TO.C,C2*
G36*
X70280142Y-54451174D02*
X70303803Y-54454684D01*
X70327007Y-54460496D01*
X70349529Y-54468554D01*
X70371153Y-54478782D01*
X70391670Y-54491079D01*
X70410883Y-54505329D01*
X70428607Y-54521393D01*
X70444671Y-54539117D01*
X70458921Y-54558330D01*
X70471218Y-54578847D01*
X70481446Y-54600471D01*
X70489504Y-54622993D01*
X70495316Y-54646197D01*
X70498826Y-54669858D01*
X70500000Y-54693750D01*
X70500000Y-55181250D01*
X70498826Y-55205142D01*
X70495316Y-55228803D01*
X70489504Y-55252007D01*
X70481446Y-55274529D01*
X70471218Y-55296153D01*
X70458921Y-55316670D01*
X70444671Y-55335883D01*
X70428607Y-55353607D01*
X70410883Y-55369671D01*
X70391670Y-55383921D01*
X70371153Y-55396218D01*
X70349529Y-55406446D01*
X70327007Y-55414504D01*
X70303803Y-55420316D01*
X70280142Y-55423826D01*
X70256250Y-55425000D01*
X69343750Y-55425000D01*
X69319858Y-55423826D01*
X69296197Y-55420316D01*
X69272993Y-55414504D01*
X69250471Y-55406446D01*
X69228847Y-55396218D01*
X69208330Y-55383921D01*
X69189117Y-55369671D01*
X69171393Y-55353607D01*
X69155329Y-55335883D01*
X69141079Y-55316670D01*
X69128782Y-55296153D01*
X69118554Y-55274529D01*
X69110496Y-55252007D01*
X69104684Y-55228803D01*
X69101174Y-55205142D01*
X69100000Y-55181250D01*
X69100000Y-54693750D01*
X69101174Y-54669858D01*
X69104684Y-54646197D01*
X69110496Y-54622993D01*
X69118554Y-54600471D01*
X69128782Y-54578847D01*
X69141079Y-54558330D01*
X69155329Y-54539117D01*
X69171393Y-54521393D01*
X69189117Y-54505329D01*
X69208330Y-54491079D01*
X69228847Y-54478782D01*
X69250471Y-54468554D01*
X69272993Y-54460496D01*
X69296197Y-54454684D01*
X69319858Y-54451174D01*
X69343750Y-54450000D01*
X70256250Y-54450000D01*
X70280142Y-54451174D01*
X70280142Y-54451174D01*
G37*
D14*
G04 #@! TD*
G04 #@! TO.P,C2,1*
G04 #@! TO.N,LDOOUT*
X69800000Y-54937500D03*
D11*
G04 #@! TO.N,+5V*
G04 #@! TO.C,C1*
G36*
X64680142Y-54451174D02*
X64703803Y-54454684D01*
X64727007Y-54460496D01*
X64749529Y-54468554D01*
X64771153Y-54478782D01*
X64791670Y-54491079D01*
X64810883Y-54505329D01*
X64828607Y-54521393D01*
X64844671Y-54539117D01*
X64858921Y-54558330D01*
X64871218Y-54578847D01*
X64881446Y-54600471D01*
X64889504Y-54622993D01*
X64895316Y-54646197D01*
X64898826Y-54669858D01*
X64900000Y-54693750D01*
X64900000Y-55181250D01*
X64898826Y-55205142D01*
X64895316Y-55228803D01*
X64889504Y-55252007D01*
X64881446Y-55274529D01*
X64871218Y-55296153D01*
X64858921Y-55316670D01*
X64844671Y-55335883D01*
X64828607Y-55353607D01*
X64810883Y-55369671D01*
X64791670Y-55383921D01*
X64771153Y-55396218D01*
X64749529Y-55406446D01*
X64727007Y-55414504D01*
X64703803Y-55420316D01*
X64680142Y-55423826D01*
X64656250Y-55425000D01*
X63743750Y-55425000D01*
X63719858Y-55423826D01*
X63696197Y-55420316D01*
X63672993Y-55414504D01*
X63650471Y-55406446D01*
X63628847Y-55396218D01*
X63608330Y-55383921D01*
X63589117Y-55369671D01*
X63571393Y-55353607D01*
X63555329Y-55335883D01*
X63541079Y-55316670D01*
X63528782Y-55296153D01*
X63518554Y-55274529D01*
X63510496Y-55252007D01*
X63504684Y-55228803D01*
X63501174Y-55205142D01*
X63500000Y-55181250D01*
X63500000Y-54693750D01*
X63501174Y-54669858D01*
X63504684Y-54646197D01*
X63510496Y-54622993D01*
X63518554Y-54600471D01*
X63528782Y-54578847D01*
X63541079Y-54558330D01*
X63555329Y-54539117D01*
X63571393Y-54521393D01*
X63589117Y-54505329D01*
X63608330Y-54491079D01*
X63628847Y-54478782D01*
X63650471Y-54468554D01*
X63672993Y-54460496D01*
X63696197Y-54454684D01*
X63719858Y-54451174D01*
X63743750Y-54450000D01*
X64656250Y-54450000D01*
X64680142Y-54451174D01*
X64680142Y-54451174D01*
G37*
D14*
G04 #@! TD*
G04 #@! TO.P,C1,1*
G04 #@! TO.N,+5V*
X64200000Y-54937500D03*
D11*
G04 #@! TO.N,GND*
G04 #@! TO.C,C1*
G36*
X64680142Y-52576174D02*
X64703803Y-52579684D01*
X64727007Y-52585496D01*
X64749529Y-52593554D01*
X64771153Y-52603782D01*
X64791670Y-52616079D01*
X64810883Y-52630329D01*
X64828607Y-52646393D01*
X64844671Y-52664117D01*
X64858921Y-52683330D01*
X64871218Y-52703847D01*
X64881446Y-52725471D01*
X64889504Y-52747993D01*
X64895316Y-52771197D01*
X64898826Y-52794858D01*
X64900000Y-52818750D01*
X64900000Y-53306250D01*
X64898826Y-53330142D01*
X64895316Y-53353803D01*
X64889504Y-53377007D01*
X64881446Y-53399529D01*
X64871218Y-53421153D01*
X64858921Y-53441670D01*
X64844671Y-53460883D01*
X64828607Y-53478607D01*
X64810883Y-53494671D01*
X64791670Y-53508921D01*
X64771153Y-53521218D01*
X64749529Y-53531446D01*
X64727007Y-53539504D01*
X64703803Y-53545316D01*
X64680142Y-53548826D01*
X64656250Y-53550000D01*
X63743750Y-53550000D01*
X63719858Y-53548826D01*
X63696197Y-53545316D01*
X63672993Y-53539504D01*
X63650471Y-53531446D01*
X63628847Y-53521218D01*
X63608330Y-53508921D01*
X63589117Y-53494671D01*
X63571393Y-53478607D01*
X63555329Y-53460883D01*
X63541079Y-53441670D01*
X63528782Y-53421153D01*
X63518554Y-53399529D01*
X63510496Y-53377007D01*
X63504684Y-53353803D01*
X63501174Y-53330142D01*
X63500000Y-53306250D01*
X63500000Y-52818750D01*
X63501174Y-52794858D01*
X63504684Y-52771197D01*
X63510496Y-52747993D01*
X63518554Y-52725471D01*
X63528782Y-52703847D01*
X63541079Y-52683330D01*
X63555329Y-52664117D01*
X63571393Y-52646393D01*
X63589117Y-52630329D01*
X63608330Y-52616079D01*
X63628847Y-52603782D01*
X63650471Y-52593554D01*
X63672993Y-52585496D01*
X63696197Y-52579684D01*
X63719858Y-52576174D01*
X63743750Y-52575000D01*
X64656250Y-52575000D01*
X64680142Y-52576174D01*
X64680142Y-52576174D01*
G37*
D14*
G04 #@! TD*
G04 #@! TO.P,C1,2*
G04 #@! TO.N,GND*
X64200000Y-53062500D03*
D15*
G04 #@! TO.P,U1,1*
G04 #@! TO.N,+5V*
X65900000Y-54950000D03*
G04 #@! TO.P,U1,2*
G04 #@! TO.N,GND*
X65900000Y-54000000D03*
G04 #@! TO.P,U1,3*
G04 #@! TO.N,+5V*
X65900000Y-53050000D03*
G04 #@! TO.P,U1,4*
G04 #@! TO.N,Net-(R1-Pad2)*
X68100000Y-53050000D03*
G04 #@! TO.P,U1,5*
G04 #@! TO.N,LDOOUT*
X68100000Y-54950000D03*
G04 #@! TD*
D11*
G04 #@! TO.N,Net-(R4-Pad2)*
G04 #@! TO.C,R4*
G36*
X73627691Y-39726053D02*
X73648926Y-39729203D01*
X73669750Y-39734419D01*
X73689962Y-39741651D01*
X73709368Y-39750830D01*
X73727781Y-39761866D01*
X73745024Y-39774654D01*
X73760930Y-39789070D01*
X73775346Y-39804976D01*
X73788134Y-39822219D01*
X73799170Y-39840632D01*
X73808349Y-39860038D01*
X73815581Y-39880250D01*
X73820797Y-39901074D01*
X73823947Y-39922309D01*
X73825000Y-39943750D01*
X73825000Y-40456250D01*
X73823947Y-40477691D01*
X73820797Y-40498926D01*
X73815581Y-40519750D01*
X73808349Y-40539962D01*
X73799170Y-40559368D01*
X73788134Y-40577781D01*
X73775346Y-40595024D01*
X73760930Y-40610930D01*
X73745024Y-40625346D01*
X73727781Y-40638134D01*
X73709368Y-40649170D01*
X73689962Y-40658349D01*
X73669750Y-40665581D01*
X73648926Y-40670797D01*
X73627691Y-40673947D01*
X73606250Y-40675000D01*
X73168750Y-40675000D01*
X73147309Y-40673947D01*
X73126074Y-40670797D01*
X73105250Y-40665581D01*
X73085038Y-40658349D01*
X73065632Y-40649170D01*
X73047219Y-40638134D01*
X73029976Y-40625346D01*
X73014070Y-40610930D01*
X72999654Y-40595024D01*
X72986866Y-40577781D01*
X72975830Y-40559368D01*
X72966651Y-40539962D01*
X72959419Y-40519750D01*
X72954203Y-40498926D01*
X72951053Y-40477691D01*
X72950000Y-40456250D01*
X72950000Y-39943750D01*
X72951053Y-39922309D01*
X72954203Y-39901074D01*
X72959419Y-39880250D01*
X72966651Y-39860038D01*
X72975830Y-39840632D01*
X72986866Y-39822219D01*
X72999654Y-39804976D01*
X73014070Y-39789070D01*
X73029976Y-39774654D01*
X73047219Y-39761866D01*
X73065632Y-39750830D01*
X73085038Y-39741651D01*
X73105250Y-39734419D01*
X73126074Y-39729203D01*
X73147309Y-39726053D01*
X73168750Y-39725000D01*
X73606250Y-39725000D01*
X73627691Y-39726053D01*
X73627691Y-39726053D01*
G37*
D16*
G04 #@! TD*
G04 #@! TO.P,R4,2*
G04 #@! TO.N,Net-(R4-Pad2)*
X73387500Y-40200000D03*
D11*
G04 #@! TO.N,GND*
G04 #@! TO.C,R4*
G36*
X72052691Y-39726053D02*
X72073926Y-39729203D01*
X72094750Y-39734419D01*
X72114962Y-39741651D01*
X72134368Y-39750830D01*
X72152781Y-39761866D01*
X72170024Y-39774654D01*
X72185930Y-39789070D01*
X72200346Y-39804976D01*
X72213134Y-39822219D01*
X72224170Y-39840632D01*
X72233349Y-39860038D01*
X72240581Y-39880250D01*
X72245797Y-39901074D01*
X72248947Y-39922309D01*
X72250000Y-39943750D01*
X72250000Y-40456250D01*
X72248947Y-40477691D01*
X72245797Y-40498926D01*
X72240581Y-40519750D01*
X72233349Y-40539962D01*
X72224170Y-40559368D01*
X72213134Y-40577781D01*
X72200346Y-40595024D01*
X72185930Y-40610930D01*
X72170024Y-40625346D01*
X72152781Y-40638134D01*
X72134368Y-40649170D01*
X72114962Y-40658349D01*
X72094750Y-40665581D01*
X72073926Y-40670797D01*
X72052691Y-40673947D01*
X72031250Y-40675000D01*
X71593750Y-40675000D01*
X71572309Y-40673947D01*
X71551074Y-40670797D01*
X71530250Y-40665581D01*
X71510038Y-40658349D01*
X71490632Y-40649170D01*
X71472219Y-40638134D01*
X71454976Y-40625346D01*
X71439070Y-40610930D01*
X71424654Y-40595024D01*
X71411866Y-40577781D01*
X71400830Y-40559368D01*
X71391651Y-40539962D01*
X71384419Y-40519750D01*
X71379203Y-40498926D01*
X71376053Y-40477691D01*
X71375000Y-40456250D01*
X71375000Y-39943750D01*
X71376053Y-39922309D01*
X71379203Y-39901074D01*
X71384419Y-39880250D01*
X71391651Y-39860038D01*
X71400830Y-39840632D01*
X71411866Y-39822219D01*
X71424654Y-39804976D01*
X71439070Y-39789070D01*
X71454976Y-39774654D01*
X71472219Y-39761866D01*
X71490632Y-39750830D01*
X71510038Y-39741651D01*
X71530250Y-39734419D01*
X71551074Y-39729203D01*
X71572309Y-39726053D01*
X71593750Y-39725000D01*
X72031250Y-39725000D01*
X72052691Y-39726053D01*
X72052691Y-39726053D01*
G37*
D16*
G04 #@! TD*
G04 #@! TO.P,R4,1*
G04 #@! TO.N,GND*
X71812500Y-40200000D03*
D11*
G04 #@! TO.N,GND*
G04 #@! TO.C,R3*
G36*
X72052691Y-42326053D02*
X72073926Y-42329203D01*
X72094750Y-42334419D01*
X72114962Y-42341651D01*
X72134368Y-42350830D01*
X72152781Y-42361866D01*
X72170024Y-42374654D01*
X72185930Y-42389070D01*
X72200346Y-42404976D01*
X72213134Y-42422219D01*
X72224170Y-42440632D01*
X72233349Y-42460038D01*
X72240581Y-42480250D01*
X72245797Y-42501074D01*
X72248947Y-42522309D01*
X72250000Y-42543750D01*
X72250000Y-43056250D01*
X72248947Y-43077691D01*
X72245797Y-43098926D01*
X72240581Y-43119750D01*
X72233349Y-43139962D01*
X72224170Y-43159368D01*
X72213134Y-43177781D01*
X72200346Y-43195024D01*
X72185930Y-43210930D01*
X72170024Y-43225346D01*
X72152781Y-43238134D01*
X72134368Y-43249170D01*
X72114962Y-43258349D01*
X72094750Y-43265581D01*
X72073926Y-43270797D01*
X72052691Y-43273947D01*
X72031250Y-43275000D01*
X71593750Y-43275000D01*
X71572309Y-43273947D01*
X71551074Y-43270797D01*
X71530250Y-43265581D01*
X71510038Y-43258349D01*
X71490632Y-43249170D01*
X71472219Y-43238134D01*
X71454976Y-43225346D01*
X71439070Y-43210930D01*
X71424654Y-43195024D01*
X71411866Y-43177781D01*
X71400830Y-43159368D01*
X71391651Y-43139962D01*
X71384419Y-43119750D01*
X71379203Y-43098926D01*
X71376053Y-43077691D01*
X71375000Y-43056250D01*
X71375000Y-42543750D01*
X71376053Y-42522309D01*
X71379203Y-42501074D01*
X71384419Y-42480250D01*
X71391651Y-42460038D01*
X71400830Y-42440632D01*
X71411866Y-42422219D01*
X71424654Y-42404976D01*
X71439070Y-42389070D01*
X71454976Y-42374654D01*
X71472219Y-42361866D01*
X71490632Y-42350830D01*
X71510038Y-42341651D01*
X71530250Y-42334419D01*
X71551074Y-42329203D01*
X71572309Y-42326053D01*
X71593750Y-42325000D01*
X72031250Y-42325000D01*
X72052691Y-42326053D01*
X72052691Y-42326053D01*
G37*
D16*
G04 #@! TD*
G04 #@! TO.P,R3,1*
G04 #@! TO.N,GND*
X71812500Y-42800000D03*
D11*
G04 #@! TO.N,Net-(R3-Pad2)*
G04 #@! TO.C,R3*
G36*
X73627691Y-42326053D02*
X73648926Y-42329203D01*
X73669750Y-42334419D01*
X73689962Y-42341651D01*
X73709368Y-42350830D01*
X73727781Y-42361866D01*
X73745024Y-42374654D01*
X73760930Y-42389070D01*
X73775346Y-42404976D01*
X73788134Y-42422219D01*
X73799170Y-42440632D01*
X73808349Y-42460038D01*
X73815581Y-42480250D01*
X73820797Y-42501074D01*
X73823947Y-42522309D01*
X73825000Y-42543750D01*
X73825000Y-43056250D01*
X73823947Y-43077691D01*
X73820797Y-43098926D01*
X73815581Y-43119750D01*
X73808349Y-43139962D01*
X73799170Y-43159368D01*
X73788134Y-43177781D01*
X73775346Y-43195024D01*
X73760930Y-43210930D01*
X73745024Y-43225346D01*
X73727781Y-43238134D01*
X73709368Y-43249170D01*
X73689962Y-43258349D01*
X73669750Y-43265581D01*
X73648926Y-43270797D01*
X73627691Y-43273947D01*
X73606250Y-43275000D01*
X73168750Y-43275000D01*
X73147309Y-43273947D01*
X73126074Y-43270797D01*
X73105250Y-43265581D01*
X73085038Y-43258349D01*
X73065632Y-43249170D01*
X73047219Y-43238134D01*
X73029976Y-43225346D01*
X73014070Y-43210930D01*
X72999654Y-43195024D01*
X72986866Y-43177781D01*
X72975830Y-43159368D01*
X72966651Y-43139962D01*
X72959419Y-43119750D01*
X72954203Y-43098926D01*
X72951053Y-43077691D01*
X72950000Y-43056250D01*
X72950000Y-42543750D01*
X72951053Y-42522309D01*
X72954203Y-42501074D01*
X72959419Y-42480250D01*
X72966651Y-42460038D01*
X72975830Y-42440632D01*
X72986866Y-42422219D01*
X72999654Y-42404976D01*
X73014070Y-42389070D01*
X73029976Y-42374654D01*
X73047219Y-42361866D01*
X73065632Y-42350830D01*
X73085038Y-42341651D01*
X73105250Y-42334419D01*
X73126074Y-42329203D01*
X73147309Y-42326053D01*
X73168750Y-42325000D01*
X73606250Y-42325000D01*
X73627691Y-42326053D01*
X73627691Y-42326053D01*
G37*
D16*
G04 #@! TD*
G04 #@! TO.P,R3,2*
G04 #@! TO.N,Net-(R3-Pad2)*
X73387500Y-42800000D03*
D11*
G04 #@! TO.N,Net-(R2-Pad2)*
G04 #@! TO.C,R2*
G36*
X73627691Y-52326053D02*
X73648926Y-52329203D01*
X73669750Y-52334419D01*
X73689962Y-52341651D01*
X73709368Y-52350830D01*
X73727781Y-52361866D01*
X73745024Y-52374654D01*
X73760930Y-52389070D01*
X73775346Y-52404976D01*
X73788134Y-52422219D01*
X73799170Y-52440632D01*
X73808349Y-52460038D01*
X73815581Y-52480250D01*
X73820797Y-52501074D01*
X73823947Y-52522309D01*
X73825000Y-52543750D01*
X73825000Y-53056250D01*
X73823947Y-53077691D01*
X73820797Y-53098926D01*
X73815581Y-53119750D01*
X73808349Y-53139962D01*
X73799170Y-53159368D01*
X73788134Y-53177781D01*
X73775346Y-53195024D01*
X73760930Y-53210930D01*
X73745024Y-53225346D01*
X73727781Y-53238134D01*
X73709368Y-53249170D01*
X73689962Y-53258349D01*
X73669750Y-53265581D01*
X73648926Y-53270797D01*
X73627691Y-53273947D01*
X73606250Y-53275000D01*
X73168750Y-53275000D01*
X73147309Y-53273947D01*
X73126074Y-53270797D01*
X73105250Y-53265581D01*
X73085038Y-53258349D01*
X73065632Y-53249170D01*
X73047219Y-53238134D01*
X73029976Y-53225346D01*
X73014070Y-53210930D01*
X72999654Y-53195024D01*
X72986866Y-53177781D01*
X72975830Y-53159368D01*
X72966651Y-53139962D01*
X72959419Y-53119750D01*
X72954203Y-53098926D01*
X72951053Y-53077691D01*
X72950000Y-53056250D01*
X72950000Y-52543750D01*
X72951053Y-52522309D01*
X72954203Y-52501074D01*
X72959419Y-52480250D01*
X72966651Y-52460038D01*
X72975830Y-52440632D01*
X72986866Y-52422219D01*
X72999654Y-52404976D01*
X73014070Y-52389070D01*
X73029976Y-52374654D01*
X73047219Y-52361866D01*
X73065632Y-52350830D01*
X73085038Y-52341651D01*
X73105250Y-52334419D01*
X73126074Y-52329203D01*
X73147309Y-52326053D01*
X73168750Y-52325000D01*
X73606250Y-52325000D01*
X73627691Y-52326053D01*
X73627691Y-52326053D01*
G37*
D16*
G04 #@! TD*
G04 #@! TO.P,R2,2*
G04 #@! TO.N,Net-(R2-Pad2)*
X73387500Y-52800000D03*
D11*
G04 #@! TO.N,GND*
G04 #@! TO.C,R2*
G36*
X72052691Y-52326053D02*
X72073926Y-52329203D01*
X72094750Y-52334419D01*
X72114962Y-52341651D01*
X72134368Y-52350830D01*
X72152781Y-52361866D01*
X72170024Y-52374654D01*
X72185930Y-52389070D01*
X72200346Y-52404976D01*
X72213134Y-52422219D01*
X72224170Y-52440632D01*
X72233349Y-52460038D01*
X72240581Y-52480250D01*
X72245797Y-52501074D01*
X72248947Y-52522309D01*
X72250000Y-52543750D01*
X72250000Y-53056250D01*
X72248947Y-53077691D01*
X72245797Y-53098926D01*
X72240581Y-53119750D01*
X72233349Y-53139962D01*
X72224170Y-53159368D01*
X72213134Y-53177781D01*
X72200346Y-53195024D01*
X72185930Y-53210930D01*
X72170024Y-53225346D01*
X72152781Y-53238134D01*
X72134368Y-53249170D01*
X72114962Y-53258349D01*
X72094750Y-53265581D01*
X72073926Y-53270797D01*
X72052691Y-53273947D01*
X72031250Y-53275000D01*
X71593750Y-53275000D01*
X71572309Y-53273947D01*
X71551074Y-53270797D01*
X71530250Y-53265581D01*
X71510038Y-53258349D01*
X71490632Y-53249170D01*
X71472219Y-53238134D01*
X71454976Y-53225346D01*
X71439070Y-53210930D01*
X71424654Y-53195024D01*
X71411866Y-53177781D01*
X71400830Y-53159368D01*
X71391651Y-53139962D01*
X71384419Y-53119750D01*
X71379203Y-53098926D01*
X71376053Y-53077691D01*
X71375000Y-53056250D01*
X71375000Y-52543750D01*
X71376053Y-52522309D01*
X71379203Y-52501074D01*
X71384419Y-52480250D01*
X71391651Y-52460038D01*
X71400830Y-52440632D01*
X71411866Y-52422219D01*
X71424654Y-52404976D01*
X71439070Y-52389070D01*
X71454976Y-52374654D01*
X71472219Y-52361866D01*
X71490632Y-52350830D01*
X71510038Y-52341651D01*
X71530250Y-52334419D01*
X71551074Y-52329203D01*
X71572309Y-52326053D01*
X71593750Y-52325000D01*
X72031250Y-52325000D01*
X72052691Y-52326053D01*
X72052691Y-52326053D01*
G37*
D16*
G04 #@! TD*
G04 #@! TO.P,R2,1*
G04 #@! TO.N,GND*
X71812500Y-52800000D03*
D11*
G04 #@! TO.N,LDOOUT*
G04 #@! TO.C,R1*
G36*
X77627691Y-44926053D02*
X77648926Y-44929203D01*
X77669750Y-44934419D01*
X77689962Y-44941651D01*
X77709368Y-44950830D01*
X77727781Y-44961866D01*
X77745024Y-44974654D01*
X77760930Y-44989070D01*
X77775346Y-45004976D01*
X77788134Y-45022219D01*
X77799170Y-45040632D01*
X77808349Y-45060038D01*
X77815581Y-45080250D01*
X77820797Y-45101074D01*
X77823947Y-45122309D01*
X77825000Y-45143750D01*
X77825000Y-45656250D01*
X77823947Y-45677691D01*
X77820797Y-45698926D01*
X77815581Y-45719750D01*
X77808349Y-45739962D01*
X77799170Y-45759368D01*
X77788134Y-45777781D01*
X77775346Y-45795024D01*
X77760930Y-45810930D01*
X77745024Y-45825346D01*
X77727781Y-45838134D01*
X77709368Y-45849170D01*
X77689962Y-45858349D01*
X77669750Y-45865581D01*
X77648926Y-45870797D01*
X77627691Y-45873947D01*
X77606250Y-45875000D01*
X77168750Y-45875000D01*
X77147309Y-45873947D01*
X77126074Y-45870797D01*
X77105250Y-45865581D01*
X77085038Y-45858349D01*
X77065632Y-45849170D01*
X77047219Y-45838134D01*
X77029976Y-45825346D01*
X77014070Y-45810930D01*
X76999654Y-45795024D01*
X76986866Y-45777781D01*
X76975830Y-45759368D01*
X76966651Y-45739962D01*
X76959419Y-45719750D01*
X76954203Y-45698926D01*
X76951053Y-45677691D01*
X76950000Y-45656250D01*
X76950000Y-45143750D01*
X76951053Y-45122309D01*
X76954203Y-45101074D01*
X76959419Y-45080250D01*
X76966651Y-45060038D01*
X76975830Y-45040632D01*
X76986866Y-45022219D01*
X76999654Y-45004976D01*
X77014070Y-44989070D01*
X77029976Y-44974654D01*
X77047219Y-44961866D01*
X77065632Y-44950830D01*
X77085038Y-44941651D01*
X77105250Y-44934419D01*
X77126074Y-44929203D01*
X77147309Y-44926053D01*
X77168750Y-44925000D01*
X77606250Y-44925000D01*
X77627691Y-44926053D01*
X77627691Y-44926053D01*
G37*
D16*
G04 #@! TD*
G04 #@! TO.P,R1,1*
G04 #@! TO.N,LDOOUT*
X77387500Y-45400000D03*
D11*
G04 #@! TO.N,Net-(R1-Pad2)*
G04 #@! TO.C,R1*
G36*
X76052691Y-44926053D02*
X76073926Y-44929203D01*
X76094750Y-44934419D01*
X76114962Y-44941651D01*
X76134368Y-44950830D01*
X76152781Y-44961866D01*
X76170024Y-44974654D01*
X76185930Y-44989070D01*
X76200346Y-45004976D01*
X76213134Y-45022219D01*
X76224170Y-45040632D01*
X76233349Y-45060038D01*
X76240581Y-45080250D01*
X76245797Y-45101074D01*
X76248947Y-45122309D01*
X76250000Y-45143750D01*
X76250000Y-45656250D01*
X76248947Y-45677691D01*
X76245797Y-45698926D01*
X76240581Y-45719750D01*
X76233349Y-45739962D01*
X76224170Y-45759368D01*
X76213134Y-45777781D01*
X76200346Y-45795024D01*
X76185930Y-45810930D01*
X76170024Y-45825346D01*
X76152781Y-45838134D01*
X76134368Y-45849170D01*
X76114962Y-45858349D01*
X76094750Y-45865581D01*
X76073926Y-45870797D01*
X76052691Y-45873947D01*
X76031250Y-45875000D01*
X75593750Y-45875000D01*
X75572309Y-45873947D01*
X75551074Y-45870797D01*
X75530250Y-45865581D01*
X75510038Y-45858349D01*
X75490632Y-45849170D01*
X75472219Y-45838134D01*
X75454976Y-45825346D01*
X75439070Y-45810930D01*
X75424654Y-45795024D01*
X75411866Y-45777781D01*
X75400830Y-45759368D01*
X75391651Y-45739962D01*
X75384419Y-45719750D01*
X75379203Y-45698926D01*
X75376053Y-45677691D01*
X75375000Y-45656250D01*
X75375000Y-45143750D01*
X75376053Y-45122309D01*
X75379203Y-45101074D01*
X75384419Y-45080250D01*
X75391651Y-45060038D01*
X75400830Y-45040632D01*
X75411866Y-45022219D01*
X75424654Y-45004976D01*
X75439070Y-44989070D01*
X75454976Y-44974654D01*
X75472219Y-44961866D01*
X75490632Y-44950830D01*
X75510038Y-44941651D01*
X75530250Y-44934419D01*
X75551074Y-44929203D01*
X75572309Y-44926053D01*
X75593750Y-44925000D01*
X76031250Y-44925000D01*
X76052691Y-44926053D01*
X76052691Y-44926053D01*
G37*
D16*
G04 #@! TD*
G04 #@! TO.P,R1,2*
G04 #@! TO.N,Net-(R1-Pad2)*
X75812500Y-45400000D03*
D17*
G04 #@! TO.P,U2,1*
G04 #@! TO.N,Net-(U2-Pad1)*
X77870000Y-52850000D03*
G04 #@! TO.P,U2,2*
G04 #@! TO.N,LDOOUT*
X77870000Y-50310000D03*
G04 #@! TO.P,U2,3*
G04 #@! TO.N,REF*
X77870000Y-47770000D03*
G04 #@! TO.P,U2,4*
G04 #@! TO.N,LDOOUT*
X77870000Y-42690000D03*
G04 #@! TO.P,U2,5*
X77870000Y-40150000D03*
G04 #@! TO.P,U2,6*
G04 #@! TO.N,Net-(R2-Pad2)*
X75330000Y-52850000D03*
G04 #@! TO.P,U2,7*
X75330000Y-50310000D03*
G04 #@! TO.P,U2,8*
G04 #@! TO.N,Net-(R1-Pad2)*
X75330000Y-47770000D03*
G04 #@! TO.P,U2,9*
G04 #@! TO.N,Net-(R3-Pad2)*
X75330000Y-42690000D03*
G04 #@! TO.P,U2,10*
G04 #@! TO.N,Net-(R4-Pad2)*
X75330000Y-40150000D03*
G04 #@! TD*
D18*
G04 #@! TO.P,J2,1*
G04 #@! TO.N,REF*
X69100000Y-46300000D03*
D19*
G04 #@! TO.P,J2,2*
G04 #@! TO.N,DIO*
X66560000Y-46300000D03*
G04 #@! TO.P,J2,3*
G04 #@! TO.N,RST*
X69100000Y-43760000D03*
G04 #@! TO.P,J2,4*
G04 #@! TO.N,CLK*
X66560000Y-43760000D03*
G04 #@! TO.P,J2,5*
G04 #@! TO.N,GND*
X69100000Y-41220000D03*
G04 #@! TO.P,J2,6*
G04 #@! TO.N,SWO*
X66560000Y-41220000D03*
G04 #@! TD*
D11*
G04 #@! TO.N,GND*
G04 #@! TO.C,J1*
G36*
X61356345Y-47009835D02*
X61393329Y-47015321D01*
X61429598Y-47024406D01*
X61464802Y-47037002D01*
X61498602Y-47052988D01*
X61530672Y-47072210D01*
X61560704Y-47094483D01*
X61588408Y-47119592D01*
X61613517Y-47147296D01*
X61635790Y-47177328D01*
X61655012Y-47209398D01*
X61670998Y-47243198D01*
X61683594Y-47278402D01*
X61692679Y-47314671D01*
X61698165Y-47351655D01*
X61700000Y-47389000D01*
X61700000Y-48151000D01*
X61698165Y-48188345D01*
X61692679Y-48225329D01*
X61683594Y-48261598D01*
X61670998Y-48296802D01*
X61655012Y-48330602D01*
X61635790Y-48362672D01*
X61613517Y-48392704D01*
X61588408Y-48420408D01*
X61560704Y-48445517D01*
X61530672Y-48467790D01*
X61498602Y-48487012D01*
X61464802Y-48502998D01*
X61429598Y-48515594D01*
X61393329Y-48524679D01*
X61356345Y-48530165D01*
X61319000Y-48532000D01*
X59081000Y-48532000D01*
X59043655Y-48530165D01*
X59006671Y-48524679D01*
X58970402Y-48515594D01*
X58935198Y-48502998D01*
X58901398Y-48487012D01*
X58869328Y-48467790D01*
X58839296Y-48445517D01*
X58811592Y-48420408D01*
X58786483Y-48392704D01*
X58764210Y-48362672D01*
X58744988Y-48330602D01*
X58729002Y-48296802D01*
X58716406Y-48261598D01*
X58707321Y-48225329D01*
X58701835Y-48188345D01*
X58700000Y-48151000D01*
X58700000Y-47389000D01*
X58701835Y-47351655D01*
X58707321Y-47314671D01*
X58716406Y-47278402D01*
X58729002Y-47243198D01*
X58744988Y-47209398D01*
X58764210Y-47177328D01*
X58786483Y-47147296D01*
X58811592Y-47119592D01*
X58839296Y-47094483D01*
X58869328Y-47072210D01*
X58901398Y-47052988D01*
X58935198Y-47037002D01*
X58970402Y-47024406D01*
X59006671Y-47015321D01*
X59043655Y-47009835D01*
X59081000Y-47008000D01*
X61319000Y-47008000D01*
X61356345Y-47009835D01*
X61356345Y-47009835D01*
G37*
D20*
G04 #@! TD*
G04 #@! TO.P,J1,11*
G04 #@! TO.N,GND*
X60200000Y-47770000D03*
D11*
G04 #@! TO.N,Net-(J1-Pad13)*
G04 #@! TO.C,J1*
G36*
X61356345Y-49549835D02*
X61393329Y-49555321D01*
X61429598Y-49564406D01*
X61464802Y-49577002D01*
X61498602Y-49592988D01*
X61530672Y-49612210D01*
X61560704Y-49634483D01*
X61588408Y-49659592D01*
X61613517Y-49687296D01*
X61635790Y-49717328D01*
X61655012Y-49749398D01*
X61670998Y-49783198D01*
X61683594Y-49818402D01*
X61692679Y-49854671D01*
X61698165Y-49891655D01*
X61700000Y-49929000D01*
X61700000Y-50691000D01*
X61698165Y-50728345D01*
X61692679Y-50765329D01*
X61683594Y-50801598D01*
X61670998Y-50836802D01*
X61655012Y-50870602D01*
X61635790Y-50902672D01*
X61613517Y-50932704D01*
X61588408Y-50960408D01*
X61560704Y-50985517D01*
X61530672Y-51007790D01*
X61498602Y-51027012D01*
X61464802Y-51042998D01*
X61429598Y-51055594D01*
X61393329Y-51064679D01*
X61356345Y-51070165D01*
X61319000Y-51072000D01*
X59081000Y-51072000D01*
X59043655Y-51070165D01*
X59006671Y-51064679D01*
X58970402Y-51055594D01*
X58935198Y-51042998D01*
X58901398Y-51027012D01*
X58869328Y-51007790D01*
X58839296Y-50985517D01*
X58811592Y-50960408D01*
X58786483Y-50932704D01*
X58764210Y-50902672D01*
X58744988Y-50870602D01*
X58729002Y-50836802D01*
X58716406Y-50801598D01*
X58707321Y-50765329D01*
X58701835Y-50728345D01*
X58700000Y-50691000D01*
X58700000Y-49929000D01*
X58701835Y-49891655D01*
X58707321Y-49854671D01*
X58716406Y-49818402D01*
X58729002Y-49783198D01*
X58744988Y-49749398D01*
X58764210Y-49717328D01*
X58786483Y-49687296D01*
X58811592Y-49659592D01*
X58839296Y-49634483D01*
X58869328Y-49612210D01*
X58901398Y-49592988D01*
X58935198Y-49577002D01*
X58970402Y-49564406D01*
X59006671Y-49555321D01*
X59043655Y-49549835D01*
X59081000Y-49548000D01*
X61319000Y-49548000D01*
X61356345Y-49549835D01*
X61356345Y-49549835D01*
G37*
D20*
G04 #@! TD*
G04 #@! TO.P,J1,13*
G04 #@! TO.N,Net-(J1-Pad13)*
X60200000Y-50310000D03*
D11*
G04 #@! TO.N,GND*
G04 #@! TO.C,J1*
G36*
X61356345Y-44469835D02*
X61393329Y-44475321D01*
X61429598Y-44484406D01*
X61464802Y-44497002D01*
X61498602Y-44512988D01*
X61530672Y-44532210D01*
X61560704Y-44554483D01*
X61588408Y-44579592D01*
X61613517Y-44607296D01*
X61635790Y-44637328D01*
X61655012Y-44669398D01*
X61670998Y-44703198D01*
X61683594Y-44738402D01*
X61692679Y-44774671D01*
X61698165Y-44811655D01*
X61700000Y-44849000D01*
X61700000Y-45611000D01*
X61698165Y-45648345D01*
X61692679Y-45685329D01*
X61683594Y-45721598D01*
X61670998Y-45756802D01*
X61655012Y-45790602D01*
X61635790Y-45822672D01*
X61613517Y-45852704D01*
X61588408Y-45880408D01*
X61560704Y-45905517D01*
X61530672Y-45927790D01*
X61498602Y-45947012D01*
X61464802Y-45962998D01*
X61429598Y-45975594D01*
X61393329Y-45984679D01*
X61356345Y-45990165D01*
X61319000Y-45992000D01*
X59081000Y-45992000D01*
X59043655Y-45990165D01*
X59006671Y-45984679D01*
X58970402Y-45975594D01*
X58935198Y-45962998D01*
X58901398Y-45947012D01*
X58869328Y-45927790D01*
X58839296Y-45905517D01*
X58811592Y-45880408D01*
X58786483Y-45852704D01*
X58764210Y-45822672D01*
X58744988Y-45790602D01*
X58729002Y-45756802D01*
X58716406Y-45721598D01*
X58707321Y-45685329D01*
X58701835Y-45648345D01*
X58700000Y-45611000D01*
X58700000Y-44849000D01*
X58701835Y-44811655D01*
X58707321Y-44774671D01*
X58716406Y-44738402D01*
X58729002Y-44703198D01*
X58744988Y-44669398D01*
X58764210Y-44637328D01*
X58786483Y-44607296D01*
X58811592Y-44579592D01*
X58839296Y-44554483D01*
X58869328Y-44532210D01*
X58901398Y-44512988D01*
X58935198Y-44497002D01*
X58970402Y-44484406D01*
X59006671Y-44475321D01*
X59043655Y-44469835D01*
X59081000Y-44468000D01*
X61319000Y-44468000D01*
X61356345Y-44469835D01*
X61356345Y-44469835D01*
G37*
D20*
G04 #@! TD*
G04 #@! TO.P,J1,9*
G04 #@! TO.N,GND*
X60200000Y-45230000D03*
D11*
G04 #@! TO.N,GND*
G04 #@! TO.C,J1*
G36*
X61356345Y-39389835D02*
X61393329Y-39395321D01*
X61429598Y-39404406D01*
X61464802Y-39417002D01*
X61498602Y-39432988D01*
X61530672Y-39452210D01*
X61560704Y-39474483D01*
X61588408Y-39499592D01*
X61613517Y-39527296D01*
X61635790Y-39557328D01*
X61655012Y-39589398D01*
X61670998Y-39623198D01*
X61683594Y-39658402D01*
X61692679Y-39694671D01*
X61698165Y-39731655D01*
X61700000Y-39769000D01*
X61700000Y-40531000D01*
X61698165Y-40568345D01*
X61692679Y-40605329D01*
X61683594Y-40641598D01*
X61670998Y-40676802D01*
X61655012Y-40710602D01*
X61635790Y-40742672D01*
X61613517Y-40772704D01*
X61588408Y-40800408D01*
X61560704Y-40825517D01*
X61530672Y-40847790D01*
X61498602Y-40867012D01*
X61464802Y-40882998D01*
X61429598Y-40895594D01*
X61393329Y-40904679D01*
X61356345Y-40910165D01*
X61319000Y-40912000D01*
X59081000Y-40912000D01*
X59043655Y-40910165D01*
X59006671Y-40904679D01*
X58970402Y-40895594D01*
X58935198Y-40882998D01*
X58901398Y-40867012D01*
X58869328Y-40847790D01*
X58839296Y-40825517D01*
X58811592Y-40800408D01*
X58786483Y-40772704D01*
X58764210Y-40742672D01*
X58744988Y-40710602D01*
X58729002Y-40676802D01*
X58716406Y-40641598D01*
X58707321Y-40605329D01*
X58701835Y-40568345D01*
X58700000Y-40531000D01*
X58700000Y-39769000D01*
X58701835Y-39731655D01*
X58707321Y-39694671D01*
X58716406Y-39658402D01*
X58729002Y-39623198D01*
X58744988Y-39589398D01*
X58764210Y-39557328D01*
X58786483Y-39527296D01*
X58811592Y-39499592D01*
X58839296Y-39474483D01*
X58869328Y-39452210D01*
X58901398Y-39432988D01*
X58935198Y-39417002D01*
X58970402Y-39404406D01*
X59006671Y-39395321D01*
X59043655Y-39389835D01*
X59081000Y-39388000D01*
X61319000Y-39388000D01*
X61356345Y-39389835D01*
X61356345Y-39389835D01*
G37*
D20*
G04 #@! TD*
G04 #@! TO.P,J1,5*
G04 #@! TO.N,GND*
X60200000Y-40150000D03*
D11*
G04 #@! TO.N,GND*
G04 #@! TO.C,J1*
G36*
X61356345Y-36849835D02*
X61393329Y-36855321D01*
X61429598Y-36864406D01*
X61464802Y-36877002D01*
X61498602Y-36892988D01*
X61530672Y-36912210D01*
X61560704Y-36934483D01*
X61588408Y-36959592D01*
X61613517Y-36987296D01*
X61635790Y-37017328D01*
X61655012Y-37049398D01*
X61670998Y-37083198D01*
X61683594Y-37118402D01*
X61692679Y-37154671D01*
X61698165Y-37191655D01*
X61700000Y-37229000D01*
X61700000Y-37991000D01*
X61698165Y-38028345D01*
X61692679Y-38065329D01*
X61683594Y-38101598D01*
X61670998Y-38136802D01*
X61655012Y-38170602D01*
X61635790Y-38202672D01*
X61613517Y-38232704D01*
X61588408Y-38260408D01*
X61560704Y-38285517D01*
X61530672Y-38307790D01*
X61498602Y-38327012D01*
X61464802Y-38342998D01*
X61429598Y-38355594D01*
X61393329Y-38364679D01*
X61356345Y-38370165D01*
X61319000Y-38372000D01*
X59081000Y-38372000D01*
X59043655Y-38370165D01*
X59006671Y-38364679D01*
X58970402Y-38355594D01*
X58935198Y-38342998D01*
X58901398Y-38327012D01*
X58869328Y-38307790D01*
X58839296Y-38285517D01*
X58811592Y-38260408D01*
X58786483Y-38232704D01*
X58764210Y-38202672D01*
X58744988Y-38170602D01*
X58729002Y-38136802D01*
X58716406Y-38101598D01*
X58707321Y-38065329D01*
X58701835Y-38028345D01*
X58700000Y-37991000D01*
X58700000Y-37229000D01*
X58701835Y-37191655D01*
X58707321Y-37154671D01*
X58716406Y-37118402D01*
X58729002Y-37083198D01*
X58744988Y-37049398D01*
X58764210Y-37017328D01*
X58786483Y-36987296D01*
X58811592Y-36959592D01*
X58839296Y-36934483D01*
X58869328Y-36912210D01*
X58901398Y-36892988D01*
X58935198Y-36877002D01*
X58970402Y-36864406D01*
X59006671Y-36855321D01*
X59043655Y-36849835D01*
X59081000Y-36848000D01*
X61319000Y-36848000D01*
X61356345Y-36849835D01*
X61356345Y-36849835D01*
G37*
D20*
G04 #@! TD*
G04 #@! TO.P,J1,3*
G04 #@! TO.N,GND*
X60200000Y-37610000D03*
D11*
G04 #@! TO.N,Net-(J1-Pad19)*
G04 #@! TO.C,J1*
G36*
X61356345Y-57169835D02*
X61393329Y-57175321D01*
X61429598Y-57184406D01*
X61464802Y-57197002D01*
X61498602Y-57212988D01*
X61530672Y-57232210D01*
X61560704Y-57254483D01*
X61588408Y-57279592D01*
X61613517Y-57307296D01*
X61635790Y-57337328D01*
X61655012Y-57369398D01*
X61670998Y-57403198D01*
X61683594Y-57438402D01*
X61692679Y-57474671D01*
X61698165Y-57511655D01*
X61700000Y-57549000D01*
X61700000Y-58311000D01*
X61698165Y-58348345D01*
X61692679Y-58385329D01*
X61683594Y-58421598D01*
X61670998Y-58456802D01*
X61655012Y-58490602D01*
X61635790Y-58522672D01*
X61613517Y-58552704D01*
X61588408Y-58580408D01*
X61560704Y-58605517D01*
X61530672Y-58627790D01*
X61498602Y-58647012D01*
X61464802Y-58662998D01*
X61429598Y-58675594D01*
X61393329Y-58684679D01*
X61356345Y-58690165D01*
X61319000Y-58692000D01*
X59081000Y-58692000D01*
X59043655Y-58690165D01*
X59006671Y-58684679D01*
X58970402Y-58675594D01*
X58935198Y-58662998D01*
X58901398Y-58647012D01*
X58869328Y-58627790D01*
X58839296Y-58605517D01*
X58811592Y-58580408D01*
X58786483Y-58552704D01*
X58764210Y-58522672D01*
X58744988Y-58490602D01*
X58729002Y-58456802D01*
X58716406Y-58421598D01*
X58707321Y-58385329D01*
X58701835Y-58348345D01*
X58700000Y-58311000D01*
X58700000Y-57549000D01*
X58701835Y-57511655D01*
X58707321Y-57474671D01*
X58716406Y-57438402D01*
X58729002Y-57403198D01*
X58744988Y-57369398D01*
X58764210Y-57337328D01*
X58786483Y-57307296D01*
X58811592Y-57279592D01*
X58839296Y-57254483D01*
X58869328Y-57232210D01*
X58901398Y-57212988D01*
X58935198Y-57197002D01*
X58970402Y-57184406D01*
X59006671Y-57175321D01*
X59043655Y-57169835D01*
X59081000Y-57168000D01*
X61319000Y-57168000D01*
X61356345Y-57169835D01*
X61356345Y-57169835D01*
G37*
D20*
G04 #@! TD*
G04 #@! TO.P,J1,19*
G04 #@! TO.N,Net-(J1-Pad19)*
X60200000Y-57930000D03*
D11*
G04 #@! TO.N,Net-(J1-Pad17)*
G04 #@! TO.C,J1*
G36*
X61356345Y-54629835D02*
X61393329Y-54635321D01*
X61429598Y-54644406D01*
X61464802Y-54657002D01*
X61498602Y-54672988D01*
X61530672Y-54692210D01*
X61560704Y-54714483D01*
X61588408Y-54739592D01*
X61613517Y-54767296D01*
X61635790Y-54797328D01*
X61655012Y-54829398D01*
X61670998Y-54863198D01*
X61683594Y-54898402D01*
X61692679Y-54934671D01*
X61698165Y-54971655D01*
X61700000Y-55009000D01*
X61700000Y-55771000D01*
X61698165Y-55808345D01*
X61692679Y-55845329D01*
X61683594Y-55881598D01*
X61670998Y-55916802D01*
X61655012Y-55950602D01*
X61635790Y-55982672D01*
X61613517Y-56012704D01*
X61588408Y-56040408D01*
X61560704Y-56065517D01*
X61530672Y-56087790D01*
X61498602Y-56107012D01*
X61464802Y-56122998D01*
X61429598Y-56135594D01*
X61393329Y-56144679D01*
X61356345Y-56150165D01*
X61319000Y-56152000D01*
X59081000Y-56152000D01*
X59043655Y-56150165D01*
X59006671Y-56144679D01*
X58970402Y-56135594D01*
X58935198Y-56122998D01*
X58901398Y-56107012D01*
X58869328Y-56087790D01*
X58839296Y-56065517D01*
X58811592Y-56040408D01*
X58786483Y-56012704D01*
X58764210Y-55982672D01*
X58744988Y-55950602D01*
X58729002Y-55916802D01*
X58716406Y-55881598D01*
X58707321Y-55845329D01*
X58701835Y-55808345D01*
X58700000Y-55771000D01*
X58700000Y-55009000D01*
X58701835Y-54971655D01*
X58707321Y-54934671D01*
X58716406Y-54898402D01*
X58729002Y-54863198D01*
X58744988Y-54829398D01*
X58764210Y-54797328D01*
X58786483Y-54767296D01*
X58811592Y-54739592D01*
X58839296Y-54714483D01*
X58869328Y-54692210D01*
X58901398Y-54672988D01*
X58935198Y-54657002D01*
X58970402Y-54644406D01*
X59006671Y-54635321D01*
X59043655Y-54629835D01*
X59081000Y-54628000D01*
X61319000Y-54628000D01*
X61356345Y-54629835D01*
X61356345Y-54629835D01*
G37*
D20*
G04 #@! TD*
G04 #@! TO.P,J1,17*
G04 #@! TO.N,Net-(J1-Pad17)*
X60200000Y-55390000D03*
D11*
G04 #@! TO.N,Net-(J1-Pad15)*
G04 #@! TO.C,J1*
G36*
X61356345Y-52089835D02*
X61393329Y-52095321D01*
X61429598Y-52104406D01*
X61464802Y-52117002D01*
X61498602Y-52132988D01*
X61530672Y-52152210D01*
X61560704Y-52174483D01*
X61588408Y-52199592D01*
X61613517Y-52227296D01*
X61635790Y-52257328D01*
X61655012Y-52289398D01*
X61670998Y-52323198D01*
X61683594Y-52358402D01*
X61692679Y-52394671D01*
X61698165Y-52431655D01*
X61700000Y-52469000D01*
X61700000Y-53231000D01*
X61698165Y-53268345D01*
X61692679Y-53305329D01*
X61683594Y-53341598D01*
X61670998Y-53376802D01*
X61655012Y-53410602D01*
X61635790Y-53442672D01*
X61613517Y-53472704D01*
X61588408Y-53500408D01*
X61560704Y-53525517D01*
X61530672Y-53547790D01*
X61498602Y-53567012D01*
X61464802Y-53582998D01*
X61429598Y-53595594D01*
X61393329Y-53604679D01*
X61356345Y-53610165D01*
X61319000Y-53612000D01*
X59081000Y-53612000D01*
X59043655Y-53610165D01*
X59006671Y-53604679D01*
X58970402Y-53595594D01*
X58935198Y-53582998D01*
X58901398Y-53567012D01*
X58869328Y-53547790D01*
X58839296Y-53525517D01*
X58811592Y-53500408D01*
X58786483Y-53472704D01*
X58764210Y-53442672D01*
X58744988Y-53410602D01*
X58729002Y-53376802D01*
X58716406Y-53341598D01*
X58707321Y-53305329D01*
X58701835Y-53268345D01*
X58700000Y-53231000D01*
X58700000Y-52469000D01*
X58701835Y-52431655D01*
X58707321Y-52394671D01*
X58716406Y-52358402D01*
X58729002Y-52323198D01*
X58744988Y-52289398D01*
X58764210Y-52257328D01*
X58786483Y-52227296D01*
X58811592Y-52199592D01*
X58839296Y-52174483D01*
X58869328Y-52152210D01*
X58901398Y-52132988D01*
X58935198Y-52117002D01*
X58970402Y-52104406D01*
X59006671Y-52095321D01*
X59043655Y-52089835D01*
X59081000Y-52088000D01*
X61319000Y-52088000D01*
X61356345Y-52089835D01*
X61356345Y-52089835D01*
G37*
D20*
G04 #@! TD*
G04 #@! TO.P,J1,15*
G04 #@! TO.N,Net-(J1-Pad15)*
X60200000Y-52850000D03*
D11*
G04 #@! TO.N,Net-(J1-Pad1)*
G04 #@! TO.C,J1*
G36*
X61356345Y-34309835D02*
X61393329Y-34315321D01*
X61429598Y-34324406D01*
X61464802Y-34337002D01*
X61498602Y-34352988D01*
X61530672Y-34372210D01*
X61560704Y-34394483D01*
X61588408Y-34419592D01*
X61613517Y-34447296D01*
X61635790Y-34477328D01*
X61655012Y-34509398D01*
X61670998Y-34543198D01*
X61683594Y-34578402D01*
X61692679Y-34614671D01*
X61698165Y-34651655D01*
X61700000Y-34689000D01*
X61700000Y-35451000D01*
X61698165Y-35488345D01*
X61692679Y-35525329D01*
X61683594Y-35561598D01*
X61670998Y-35596802D01*
X61655012Y-35630602D01*
X61635790Y-35662672D01*
X61613517Y-35692704D01*
X61588408Y-35720408D01*
X61560704Y-35745517D01*
X61530672Y-35767790D01*
X61498602Y-35787012D01*
X61464802Y-35802998D01*
X61429598Y-35815594D01*
X61393329Y-35824679D01*
X61356345Y-35830165D01*
X61319000Y-35832000D01*
X59081000Y-35832000D01*
X59043655Y-35830165D01*
X59006671Y-35824679D01*
X58970402Y-35815594D01*
X58935198Y-35802998D01*
X58901398Y-35787012D01*
X58869328Y-35767790D01*
X58839296Y-35745517D01*
X58811592Y-35720408D01*
X58786483Y-35692704D01*
X58764210Y-35662672D01*
X58744988Y-35630602D01*
X58729002Y-35596802D01*
X58716406Y-35561598D01*
X58707321Y-35525329D01*
X58701835Y-35488345D01*
X58700000Y-35451000D01*
X58700000Y-34689000D01*
X58701835Y-34651655D01*
X58707321Y-34614671D01*
X58716406Y-34578402D01*
X58729002Y-34543198D01*
X58744988Y-34509398D01*
X58764210Y-34477328D01*
X58786483Y-34447296D01*
X58811592Y-34419592D01*
X58839296Y-34394483D01*
X58869328Y-34372210D01*
X58901398Y-34352988D01*
X58935198Y-34337002D01*
X58970402Y-34324406D01*
X59006671Y-34315321D01*
X59043655Y-34309835D01*
X59081000Y-34308000D01*
X61319000Y-34308000D01*
X61356345Y-34309835D01*
X61356345Y-34309835D01*
G37*
D20*
G04 #@! TD*
G04 #@! TO.P,J1,1*
G04 #@! TO.N,Net-(J1-Pad1)*
X60200000Y-35070000D03*
D11*
G04 #@! TO.N,GND*
G04 #@! TO.C,J1*
G36*
X61356345Y-41929835D02*
X61393329Y-41935321D01*
X61429598Y-41944406D01*
X61464802Y-41957002D01*
X61498602Y-41972988D01*
X61530672Y-41992210D01*
X61560704Y-42014483D01*
X61588408Y-42039592D01*
X61613517Y-42067296D01*
X61635790Y-42097328D01*
X61655012Y-42129398D01*
X61670998Y-42163198D01*
X61683594Y-42198402D01*
X61692679Y-42234671D01*
X61698165Y-42271655D01*
X61700000Y-42309000D01*
X61700000Y-43071000D01*
X61698165Y-43108345D01*
X61692679Y-43145329D01*
X61683594Y-43181598D01*
X61670998Y-43216802D01*
X61655012Y-43250602D01*
X61635790Y-43282672D01*
X61613517Y-43312704D01*
X61588408Y-43340408D01*
X61560704Y-43365517D01*
X61530672Y-43387790D01*
X61498602Y-43407012D01*
X61464802Y-43422998D01*
X61429598Y-43435594D01*
X61393329Y-43444679D01*
X61356345Y-43450165D01*
X61319000Y-43452000D01*
X59081000Y-43452000D01*
X59043655Y-43450165D01*
X59006671Y-43444679D01*
X58970402Y-43435594D01*
X58935198Y-43422998D01*
X58901398Y-43407012D01*
X58869328Y-43387790D01*
X58839296Y-43365517D01*
X58811592Y-43340408D01*
X58786483Y-43312704D01*
X58764210Y-43282672D01*
X58744988Y-43250602D01*
X58729002Y-43216802D01*
X58716406Y-43181598D01*
X58707321Y-43145329D01*
X58701835Y-43108345D01*
X58700000Y-43071000D01*
X58700000Y-42309000D01*
X58701835Y-42271655D01*
X58707321Y-42234671D01*
X58716406Y-42198402D01*
X58729002Y-42163198D01*
X58744988Y-42129398D01*
X58764210Y-42097328D01*
X58786483Y-42067296D01*
X58811592Y-42039592D01*
X58839296Y-42014483D01*
X58869328Y-41992210D01*
X58901398Y-41972988D01*
X58935198Y-41957002D01*
X58970402Y-41944406D01*
X59006671Y-41935321D01*
X59043655Y-41929835D01*
X59081000Y-41928000D01*
X61319000Y-41928000D01*
X61356345Y-41929835D01*
X61356345Y-41929835D01*
G37*
D20*
G04 #@! TD*
G04 #@! TO.P,J1,7*
G04 #@! TO.N,GND*
X60200000Y-42690000D03*
D21*
G04 #@! TO.N,RST*
X74517306Y-45650010D03*
G04 #@! TO.N,SWO*
X63200000Y-46200000D03*
G04 #@! TO.N,GND*
X67000000Y-54250000D03*
X71500000Y-51000000D03*
X69700000Y-49450000D03*
X64200000Y-41850000D03*
X64600000Y-47050000D03*
X63950000Y-50050000D03*
X66150000Y-50650000D03*
X72300000Y-56750000D03*
X80550000Y-54850000D03*
X74200000Y-49000000D03*
X68450000Y-36500000D03*
X64000000Y-36700000D03*
X78950000Y-45250000D03*
X78800000Y-38149990D03*
X74965447Y-37799990D03*
X71750000Y-41500000D03*
X67350000Y-38850000D03*
X62600000Y-40150000D03*
X62600000Y-37650000D03*
X62400000Y-47650000D03*
X62400000Y-43950000D03*
G04 #@! TO.N,CLK*
X64400000Y-45200000D03*
G04 #@! TO.N,DIO*
X72050000Y-44950000D03*
G04 #@! TO.N,+5V*
X62399996Y-56600000D03*
G04 #@! TD*
D22*
G04 #@! TO.N,RST*
X72627296Y-43760000D02*
X74117307Y-45250011D01*
X74117307Y-45250011D02*
X74517306Y-45650010D01*
X69100000Y-43760000D02*
X72627296Y-43760000D01*
G04 #@! TO.N,SWO*
X63200000Y-44580000D02*
X66560000Y-41220000D01*
X63200000Y-46200000D02*
X63200000Y-44580000D01*
G04 #@! TO.N,CLK*
X65120000Y-45200000D02*
X66560000Y-43760000D01*
X64400000Y-45200000D02*
X65120000Y-45200000D01*
X86350000Y-46550000D02*
X92100000Y-46550000D01*
X67820000Y-42500000D02*
X67820000Y-39930000D01*
X66560000Y-43760000D02*
X67820000Y-42500000D01*
X67820000Y-39930000D02*
X68900000Y-38850000D01*
X68900000Y-38850000D02*
X78650000Y-38850000D01*
X78650000Y-38850000D02*
X86350000Y-46550000D01*
G04 #@! TO.N,DIO*
X72000000Y-45000000D02*
X72050000Y-44950000D01*
X66560000Y-46300000D02*
X67860000Y-45000000D01*
X67860000Y-45000000D02*
X72000000Y-45000000D01*
D23*
G04 #@! TO.N,+5V*
X64200000Y-54937500D02*
X62537500Y-56600000D01*
X62537500Y-56600000D02*
X62399996Y-56600000D01*
X65887500Y-54937500D02*
X65900000Y-54950000D01*
X64200000Y-54937500D02*
X65887500Y-54937500D01*
D22*
X65695000Y-53050000D02*
X65900000Y-53050000D01*
X64200000Y-54937500D02*
X63200000Y-53937500D01*
X63200000Y-53937500D02*
X63200000Y-52593506D01*
X63200000Y-52593506D02*
X63593506Y-52200000D01*
X64845000Y-52200000D02*
X65695000Y-53050000D01*
X63593506Y-52200000D02*
X64845000Y-52200000D01*
D23*
G04 #@! TO.N,LDOOUT*
X69787500Y-54950000D02*
X69800000Y-54937500D01*
X68100000Y-54950000D02*
X69787500Y-54950000D01*
X77870000Y-44917500D02*
X77387500Y-45400000D01*
X77870000Y-42690000D02*
X77870000Y-44917500D01*
X77870000Y-42690000D02*
X77870000Y-40150000D01*
X76925888Y-45861612D02*
X77387500Y-45400000D01*
X76600000Y-46187500D02*
X76925888Y-45861612D01*
X77870000Y-50310000D02*
X76600000Y-49040000D01*
X76600000Y-49040000D02*
X76600000Y-46187500D01*
X79200000Y-51640000D02*
X77870000Y-50310000D01*
X79200000Y-53650000D02*
X79200000Y-51640000D01*
X78550000Y-54300000D02*
X79200000Y-53650000D01*
X69800000Y-54937500D02*
X70437500Y-54300000D01*
X70437500Y-54300000D02*
X78550000Y-54300000D01*
D22*
G04 #@! TO.N,Net-(R2-Pad2)*
X75280000Y-52800000D02*
X75330000Y-52850000D01*
X73387500Y-52800000D02*
X75280000Y-52800000D01*
X75330000Y-51387630D02*
X75330000Y-52850000D01*
X75330000Y-50310000D02*
X75330000Y-51387630D01*
G04 #@! TO.N,Net-(R1-Pad2)*
X75330000Y-45882500D02*
X75812500Y-45400000D01*
X75330000Y-47770000D02*
X75330000Y-45882500D01*
X74252370Y-47770000D02*
X75330000Y-47770000D01*
X73585000Y-47770000D02*
X74252370Y-47770000D01*
X68305000Y-53050000D02*
X73585000Y-47770000D01*
X68100000Y-53050000D02*
X68305000Y-53050000D01*
G04 #@! TO.N,Net-(R3-Pad2)*
X73497500Y-42690000D02*
X73387500Y-42800000D01*
X75330000Y-42690000D02*
X73497500Y-42690000D01*
G04 #@! TO.N,Net-(R4-Pad2)*
X73437500Y-40150000D02*
X73387500Y-40200000D01*
X75330000Y-40150000D02*
X73437500Y-40150000D01*
G04 #@! TD*
D24*
G04 #@! TO.N,GND*
G36*
X85931958Y-38251581D02*
X85948933Y-38256730D01*
X85969638Y-38258769D01*
X85990214Y-38261576D01*
X86007900Y-38260500D01*
X95987259Y-38260500D01*
X96046279Y-38266287D01*
X96090788Y-38279725D01*
X96131845Y-38301554D01*
X96167881Y-38330946D01*
X96197518Y-38366771D01*
X96219635Y-38407675D01*
X96233385Y-38452093D01*
X96239501Y-38510285D01*
X96239500Y-54487258D01*
X96233713Y-54546279D01*
X96220275Y-54590787D01*
X96198443Y-54631847D01*
X96169054Y-54667881D01*
X96133231Y-54697517D01*
X96092325Y-54719635D01*
X96047907Y-54733385D01*
X95989725Y-54739500D01*
X86007900Y-54739500D01*
X85990214Y-54738424D01*
X85969638Y-54741231D01*
X85948933Y-54743270D01*
X85931958Y-54748419D01*
X64969416Y-59739500D01*
X58512742Y-59739500D01*
X58453721Y-59733713D01*
X58409213Y-59720275D01*
X58368153Y-59698443D01*
X58332119Y-59669054D01*
X58302483Y-59633231D01*
X58280365Y-59592325D01*
X58266615Y-59547907D01*
X58260500Y-59489725D01*
X58260500Y-57549000D01*
X58420153Y-57549000D01*
X58420153Y-58311000D01*
X58432851Y-58439925D01*
X58470457Y-58563895D01*
X58531526Y-58678147D01*
X58613711Y-58778289D01*
X58713853Y-58860474D01*
X58828105Y-58921543D01*
X58952075Y-58959149D01*
X59081000Y-58971847D01*
X61319000Y-58971847D01*
X61447925Y-58959149D01*
X61571895Y-58921543D01*
X61686147Y-58860474D01*
X61786289Y-58778289D01*
X61868474Y-58678147D01*
X61929543Y-58563895D01*
X61967149Y-58439925D01*
X61979847Y-58311000D01*
X61979847Y-57549000D01*
X61967149Y-57420075D01*
X61929543Y-57296105D01*
X61868474Y-57181853D01*
X61786289Y-57081711D01*
X61686147Y-56999526D01*
X61571895Y-56938457D01*
X61447925Y-56900851D01*
X61319000Y-56888153D01*
X59081000Y-56888153D01*
X58952075Y-56900851D01*
X58828105Y-56938457D01*
X58713853Y-56999526D01*
X58613711Y-57081711D01*
X58531526Y-57181853D01*
X58470457Y-57296105D01*
X58432851Y-57420075D01*
X58420153Y-57549000D01*
X58260500Y-57549000D01*
X58260500Y-56533174D01*
X61721496Y-56533174D01*
X61721496Y-56666826D01*
X61747570Y-56797911D01*
X61798717Y-56921390D01*
X61872971Y-57032519D01*
X61967477Y-57127025D01*
X62078606Y-57201279D01*
X62202085Y-57252426D01*
X62333170Y-57278500D01*
X62466822Y-57278500D01*
X62597907Y-57252426D01*
X62721386Y-57201279D01*
X62832515Y-57127025D01*
X62927021Y-57032519D01*
X63001275Y-56921390D01*
X63052422Y-56797911D01*
X63078496Y-56666826D01*
X63078496Y-56664994D01*
X64038644Y-55704847D01*
X64656250Y-55704847D01*
X64758399Y-55694786D01*
X64856622Y-55664991D01*
X64947145Y-55616605D01*
X65026489Y-55551489D01*
X65091605Y-55472145D01*
X65125597Y-55408551D01*
X65137316Y-55430475D01*
X65172118Y-55472882D01*
X65214525Y-55507684D01*
X65262907Y-55533545D01*
X65315405Y-55549470D01*
X65370000Y-55554847D01*
X66430000Y-55554847D01*
X66484595Y-55549470D01*
X66537093Y-55533545D01*
X66585475Y-55507684D01*
X66627882Y-55472882D01*
X66662684Y-55430475D01*
X66688545Y-55382093D01*
X66704470Y-55329595D01*
X66709847Y-55275000D01*
X66709847Y-54625000D01*
X66704470Y-54570405D01*
X66688545Y-54517907D01*
X66665216Y-54474262D01*
X66676804Y-54456919D01*
X66697797Y-54406235D01*
X66708500Y-54352430D01*
X66708500Y-54232125D01*
X66638875Y-54162500D01*
X66121500Y-54162500D01*
X66121500Y-54241500D01*
X65678500Y-54241500D01*
X65678500Y-54162500D01*
X65161125Y-54162500D01*
X65091500Y-54232125D01*
X65091500Y-54352430D01*
X65102203Y-54406235D01*
X65123196Y-54456919D01*
X65134784Y-54474262D01*
X65132279Y-54478949D01*
X65091605Y-54402855D01*
X65026489Y-54323511D01*
X64947145Y-54258395D01*
X64856622Y-54210009D01*
X64758399Y-54180214D01*
X64656250Y-54170153D01*
X63967933Y-54170153D01*
X63626279Y-53828500D01*
X63908875Y-53828500D01*
X63978500Y-53758875D01*
X63978500Y-53284000D01*
X63958500Y-53284000D01*
X63958500Y-52841000D01*
X63978500Y-52841000D01*
X63978500Y-52821000D01*
X64421500Y-52821000D01*
X64421500Y-52841000D01*
X64441500Y-52841000D01*
X64441500Y-53284000D01*
X64421500Y-53284000D01*
X64421500Y-53758875D01*
X64491125Y-53828500D01*
X64927430Y-53828500D01*
X64981235Y-53817797D01*
X65031919Y-53796804D01*
X65077533Y-53766325D01*
X65091500Y-53752358D01*
X65091500Y-53767875D01*
X65161125Y-53837500D01*
X65678500Y-53837500D01*
X65678500Y-53758500D01*
X66121500Y-53758500D01*
X66121500Y-53837500D01*
X66638875Y-53837500D01*
X66708500Y-53767875D01*
X66708500Y-53647570D01*
X66697797Y-53593765D01*
X66676804Y-53543081D01*
X66665216Y-53525738D01*
X66688545Y-53482093D01*
X66704470Y-53429595D01*
X66709847Y-53375000D01*
X66709847Y-52725000D01*
X66704470Y-52670405D01*
X66688545Y-52617907D01*
X66662684Y-52569525D01*
X66627882Y-52527118D01*
X66585475Y-52492316D01*
X66537093Y-52466455D01*
X66484595Y-52450530D01*
X66430000Y-52445153D01*
X65625433Y-52445153D01*
X65125793Y-51945514D01*
X65113935Y-51931065D01*
X65056301Y-51883766D01*
X64990546Y-51848620D01*
X64919199Y-51826977D01*
X64863590Y-51821500D01*
X64845000Y-51819669D01*
X64826410Y-51821500D01*
X63612096Y-51821500D01*
X63593506Y-51819669D01*
X63519307Y-51826977D01*
X63447959Y-51848620D01*
X63390723Y-51879213D01*
X63382205Y-51883766D01*
X63324571Y-51931065D01*
X63312717Y-51945509D01*
X62945509Y-52312718D01*
X62931066Y-52324571D01*
X62883767Y-52382205D01*
X62851229Y-52443081D01*
X62848621Y-52447960D01*
X62826977Y-52519308D01*
X62819669Y-52593506D01*
X62821501Y-52612106D01*
X62821500Y-53918910D01*
X62819669Y-53937500D01*
X62821500Y-53956089D01*
X62826977Y-54011698D01*
X62848620Y-54083045D01*
X62883766Y-54148800D01*
X62931065Y-54206435D01*
X62945514Y-54218293D01*
X63250837Y-54523616D01*
X63230214Y-54591601D01*
X63220153Y-54693750D01*
X63220153Y-55181250D01*
X63230214Y-55283399D01*
X63234379Y-55297130D01*
X62586254Y-55945256D01*
X62466822Y-55921500D01*
X62333170Y-55921500D01*
X62202085Y-55947574D01*
X62078606Y-55998721D01*
X61967477Y-56072975D01*
X61872971Y-56167481D01*
X61798717Y-56278610D01*
X61747570Y-56402089D01*
X61721496Y-56533174D01*
X58260500Y-56533174D01*
X58260500Y-55009000D01*
X58420153Y-55009000D01*
X58420153Y-55771000D01*
X58432851Y-55899925D01*
X58470457Y-56023895D01*
X58531526Y-56138147D01*
X58613711Y-56238289D01*
X58713853Y-56320474D01*
X58828105Y-56381543D01*
X58952075Y-56419149D01*
X59081000Y-56431847D01*
X61319000Y-56431847D01*
X61447925Y-56419149D01*
X61571895Y-56381543D01*
X61686147Y-56320474D01*
X61786289Y-56238289D01*
X61868474Y-56138147D01*
X61929543Y-56023895D01*
X61967149Y-55899925D01*
X61979847Y-55771000D01*
X61979847Y-55009000D01*
X61967149Y-54880075D01*
X61929543Y-54756105D01*
X61868474Y-54641853D01*
X61786289Y-54541711D01*
X61686147Y-54459526D01*
X61571895Y-54398457D01*
X61447925Y-54360851D01*
X61319000Y-54348153D01*
X59081000Y-54348153D01*
X58952075Y-54360851D01*
X58828105Y-54398457D01*
X58713853Y-54459526D01*
X58613711Y-54541711D01*
X58531526Y-54641853D01*
X58470457Y-54756105D01*
X58432851Y-54880075D01*
X58420153Y-55009000D01*
X58260500Y-55009000D01*
X58260500Y-52469000D01*
X58420153Y-52469000D01*
X58420153Y-53231000D01*
X58432851Y-53359925D01*
X58470457Y-53483895D01*
X58531526Y-53598147D01*
X58613711Y-53698289D01*
X58713853Y-53780474D01*
X58828105Y-53841543D01*
X58952075Y-53879149D01*
X59081000Y-53891847D01*
X61319000Y-53891847D01*
X61447925Y-53879149D01*
X61571895Y-53841543D01*
X61686147Y-53780474D01*
X61786289Y-53698289D01*
X61868474Y-53598147D01*
X61929543Y-53483895D01*
X61967149Y-53359925D01*
X61979847Y-53231000D01*
X61979847Y-52469000D01*
X61967149Y-52340075D01*
X61929543Y-52216105D01*
X61868474Y-52101853D01*
X61786289Y-52001711D01*
X61686147Y-51919526D01*
X61571895Y-51858457D01*
X61447925Y-51820851D01*
X61319000Y-51808153D01*
X59081000Y-51808153D01*
X58952075Y-51820851D01*
X58828105Y-51858457D01*
X58713853Y-51919526D01*
X58613711Y-52001711D01*
X58531526Y-52101853D01*
X58470457Y-52216105D01*
X58432851Y-52340075D01*
X58420153Y-52469000D01*
X58260500Y-52469000D01*
X58260500Y-49929000D01*
X58420153Y-49929000D01*
X58420153Y-50691000D01*
X58432851Y-50819925D01*
X58470457Y-50943895D01*
X58531526Y-51058147D01*
X58613711Y-51158289D01*
X58713853Y-51240474D01*
X58828105Y-51301543D01*
X58952075Y-51339149D01*
X59081000Y-51351847D01*
X61319000Y-51351847D01*
X61447925Y-51339149D01*
X61571895Y-51301543D01*
X61686147Y-51240474D01*
X61786289Y-51158289D01*
X61868474Y-51058147D01*
X61929543Y-50943895D01*
X61967149Y-50819925D01*
X61979847Y-50691000D01*
X61979847Y-49929000D01*
X61967149Y-49800075D01*
X61929543Y-49676105D01*
X61868474Y-49561853D01*
X61786289Y-49461711D01*
X61686147Y-49379526D01*
X61571895Y-49318457D01*
X61447925Y-49280851D01*
X61319000Y-49268153D01*
X59081000Y-49268153D01*
X58952075Y-49280851D01*
X58828105Y-49318457D01*
X58713853Y-49379526D01*
X58613711Y-49461711D01*
X58531526Y-49561853D01*
X58470457Y-49676105D01*
X58432851Y-49800075D01*
X58420153Y-49929000D01*
X58260500Y-49929000D01*
X58260500Y-48061125D01*
X58421500Y-48061125D01*
X58421500Y-48559430D01*
X58432203Y-48613235D01*
X58453196Y-48663919D01*
X58483675Y-48709533D01*
X58522466Y-48748325D01*
X58568081Y-48778803D01*
X58618764Y-48799797D01*
X58672570Y-48810500D01*
X59908875Y-48810500D01*
X59978500Y-48740875D01*
X59978500Y-47991500D01*
X60421500Y-47991500D01*
X60421500Y-48740875D01*
X60491125Y-48810500D01*
X61727430Y-48810500D01*
X61781236Y-48799797D01*
X61831919Y-48778803D01*
X61877534Y-48748325D01*
X61916325Y-48709533D01*
X61946804Y-48663919D01*
X61967797Y-48613235D01*
X61978500Y-48559430D01*
X61978500Y-48061125D01*
X61908875Y-47991500D01*
X60421500Y-47991500D01*
X59978500Y-47991500D01*
X58491125Y-47991500D01*
X58421500Y-48061125D01*
X58260500Y-48061125D01*
X58260500Y-46980570D01*
X58421500Y-46980570D01*
X58421500Y-47478875D01*
X58491125Y-47548500D01*
X59978500Y-47548500D01*
X59978500Y-46799125D01*
X60421500Y-46799125D01*
X60421500Y-47548500D01*
X61908875Y-47548500D01*
X61978500Y-47478875D01*
X61978500Y-46980570D01*
X61967797Y-46926765D01*
X61946804Y-46876081D01*
X61916325Y-46830467D01*
X61877534Y-46791675D01*
X61831919Y-46761197D01*
X61781236Y-46740203D01*
X61727430Y-46729500D01*
X60491125Y-46729500D01*
X60421500Y-46799125D01*
X59978500Y-46799125D01*
X59908875Y-46729500D01*
X58672570Y-46729500D01*
X58618764Y-46740203D01*
X58568081Y-46761197D01*
X58522466Y-46791675D01*
X58483675Y-46830467D01*
X58453196Y-46876081D01*
X58432203Y-46926765D01*
X58421500Y-46980570D01*
X58260500Y-46980570D01*
X58260500Y-45521125D01*
X58421500Y-45521125D01*
X58421500Y-46019430D01*
X58432203Y-46073235D01*
X58453196Y-46123919D01*
X58483675Y-46169533D01*
X58522466Y-46208325D01*
X58568081Y-46238803D01*
X58618764Y-46259797D01*
X58672570Y-46270500D01*
X59908875Y-46270500D01*
X59978500Y-46200875D01*
X59978500Y-45451500D01*
X60421500Y-45451500D01*
X60421500Y-46200875D01*
X60491125Y-46270500D01*
X61727430Y-46270500D01*
X61781236Y-46259797D01*
X61831919Y-46238803D01*
X61877534Y-46208325D01*
X61916325Y-46169533D01*
X61940619Y-46133174D01*
X62521500Y-46133174D01*
X62521500Y-46266826D01*
X62547574Y-46397911D01*
X62598721Y-46521390D01*
X62672975Y-46632519D01*
X62767481Y-46727025D01*
X62878610Y-46801279D01*
X63002089Y-46852426D01*
X63133174Y-46878500D01*
X63266826Y-46878500D01*
X63397911Y-46852426D01*
X63521390Y-46801279D01*
X63632519Y-46727025D01*
X63727025Y-46632519D01*
X63801279Y-46521390D01*
X63852426Y-46397911D01*
X63878500Y-46266826D01*
X63878500Y-46133174D01*
X63852426Y-46002089D01*
X63801279Y-45878610D01*
X63727025Y-45767481D01*
X63632519Y-45672975D01*
X63578500Y-45636881D01*
X63578500Y-44736779D01*
X66064902Y-42250378D01*
X66120823Y-42280268D01*
X66336109Y-42345575D01*
X66503893Y-42362100D01*
X66616107Y-42362100D01*
X66783891Y-42345575D01*
X66999177Y-42280268D01*
X67197587Y-42174216D01*
X67371494Y-42031494D01*
X67441500Y-41946191D01*
X67441500Y-42343221D01*
X67055098Y-42729623D01*
X66999177Y-42699732D01*
X66783891Y-42634425D01*
X66616107Y-42617900D01*
X66503893Y-42617900D01*
X66336109Y-42634425D01*
X66120823Y-42699732D01*
X65922413Y-42805784D01*
X65748506Y-42948506D01*
X65605784Y-43122413D01*
X65499732Y-43320823D01*
X65434425Y-43536109D01*
X65412374Y-43760000D01*
X65434425Y-43983891D01*
X65499732Y-44199177D01*
X65529622Y-44255098D01*
X64963221Y-44821500D01*
X64963119Y-44821500D01*
X64927025Y-44767481D01*
X64832519Y-44672975D01*
X64721390Y-44598721D01*
X64597911Y-44547574D01*
X64466826Y-44521500D01*
X64333174Y-44521500D01*
X64202089Y-44547574D01*
X64078610Y-44598721D01*
X63967481Y-44672975D01*
X63872975Y-44767481D01*
X63798721Y-44878610D01*
X63747574Y-45002089D01*
X63721500Y-45133174D01*
X63721500Y-45266826D01*
X63747574Y-45397911D01*
X63798721Y-45521390D01*
X63872975Y-45632519D01*
X63967481Y-45727025D01*
X64078610Y-45801279D01*
X64202089Y-45852426D01*
X64333174Y-45878500D01*
X64466826Y-45878500D01*
X64597911Y-45852426D01*
X64721390Y-45801279D01*
X64832519Y-45727025D01*
X64927025Y-45632519D01*
X64963119Y-45578500D01*
X65101410Y-45578500D01*
X65120000Y-45580331D01*
X65138590Y-45578500D01*
X65194199Y-45573023D01*
X65265546Y-45551380D01*
X65331301Y-45516234D01*
X65388935Y-45468935D01*
X65400793Y-45454486D01*
X66064902Y-44790378D01*
X66120823Y-44820268D01*
X66336109Y-44885575D01*
X66503893Y-44902100D01*
X66616107Y-44902100D01*
X66783891Y-44885575D01*
X66999177Y-44820268D01*
X67197587Y-44714216D01*
X67371494Y-44571494D01*
X67514216Y-44397587D01*
X67620268Y-44199177D01*
X67685575Y-43983891D01*
X67707626Y-43760000D01*
X67685575Y-43536109D01*
X67620268Y-43320823D01*
X67590377Y-43264902D01*
X68074487Y-42780792D01*
X68088935Y-42768935D01*
X68136234Y-42711301D01*
X68171380Y-42645546D01*
X68193023Y-42574199D01*
X68198500Y-42518590D01*
X68198500Y-42518589D01*
X68200331Y-42500001D01*
X68198500Y-42481411D01*
X68198500Y-42297570D01*
X71096500Y-42297570D01*
X71096500Y-42508875D01*
X71166125Y-42578500D01*
X71593750Y-42578500D01*
X71593750Y-42116125D01*
X72031250Y-42116125D01*
X72031250Y-42578500D01*
X72458875Y-42578500D01*
X72493625Y-42543750D01*
X72670153Y-42543750D01*
X72670153Y-43056250D01*
X72679733Y-43153521D01*
X72708106Y-43247055D01*
X72754182Y-43333256D01*
X72816189Y-43408811D01*
X72891744Y-43470818D01*
X72977945Y-43516894D01*
X73071479Y-43545267D01*
X73168750Y-43554847D01*
X73606250Y-43554847D01*
X73703521Y-43545267D01*
X73797055Y-43516894D01*
X73883256Y-43470818D01*
X73958811Y-43408811D01*
X74020818Y-43333256D01*
X74066894Y-43247055D01*
X74095267Y-43153521D01*
X74103641Y-43068500D01*
X74360550Y-43068500D01*
X74407920Y-43182862D01*
X74521791Y-43353280D01*
X74666720Y-43498209D01*
X74837138Y-43612080D01*
X75026497Y-43690515D01*
X75227520Y-43730500D01*
X75432480Y-43730500D01*
X75633503Y-43690515D01*
X75822862Y-43612080D01*
X75993280Y-43498209D01*
X76138209Y-43353280D01*
X76252080Y-43182862D01*
X76330515Y-42993503D01*
X76370500Y-42792480D01*
X76370500Y-42587520D01*
X76330515Y-42386497D01*
X76252080Y-42197138D01*
X76138209Y-42026720D01*
X75993280Y-41881791D01*
X75822862Y-41767920D01*
X75633503Y-41689485D01*
X75432480Y-41649500D01*
X75227520Y-41649500D01*
X75026497Y-41689485D01*
X74837138Y-41767920D01*
X74666720Y-41881791D01*
X74521791Y-42026720D01*
X74407920Y-42197138D01*
X74360550Y-42311500D01*
X74044741Y-42311500D01*
X74020818Y-42266744D01*
X73958811Y-42191189D01*
X73883256Y-42129182D01*
X73797055Y-42083106D01*
X73703521Y-42054733D01*
X73606250Y-42045153D01*
X73168750Y-42045153D01*
X73071479Y-42054733D01*
X72977945Y-42083106D01*
X72891744Y-42129182D01*
X72816189Y-42191189D01*
X72754182Y-42266744D01*
X72708106Y-42352945D01*
X72679733Y-42446479D01*
X72670153Y-42543750D01*
X72493625Y-42543750D01*
X72528500Y-42508875D01*
X72528500Y-42297570D01*
X72517797Y-42243765D01*
X72496804Y-42193081D01*
X72466325Y-42147467D01*
X72427534Y-42108675D01*
X72381919Y-42078197D01*
X72331236Y-42057203D01*
X72277430Y-42046500D01*
X72100875Y-42046500D01*
X72031250Y-42116125D01*
X71593750Y-42116125D01*
X71524125Y-42046500D01*
X71347570Y-42046500D01*
X71293764Y-42057203D01*
X71243081Y-42078197D01*
X71197466Y-42108675D01*
X71158675Y-42147467D01*
X71128196Y-42193081D01*
X71107203Y-42243765D01*
X71096500Y-42297570D01*
X68198500Y-42297570D01*
X68198500Y-41916761D01*
X68325719Y-42059587D01*
X68504392Y-42194509D01*
X68705954Y-42291981D01*
X68878500Y-42270801D01*
X68878500Y-41441500D01*
X69321500Y-41441500D01*
X69321500Y-42270801D01*
X69494046Y-42291981D01*
X69695608Y-42194509D01*
X69874281Y-42059587D01*
X70023199Y-41892400D01*
X70136639Y-41699373D01*
X70171971Y-41614044D01*
X70149352Y-41441500D01*
X69321500Y-41441500D01*
X68878500Y-41441500D01*
X68858500Y-41441500D01*
X68858500Y-40998500D01*
X68878500Y-40998500D01*
X68878500Y-40169199D01*
X69321500Y-40169199D01*
X69321500Y-40998500D01*
X70149352Y-40998500D01*
X70171971Y-40825956D01*
X70136639Y-40740627D01*
X70023199Y-40547600D01*
X69972896Y-40491125D01*
X71096500Y-40491125D01*
X71096500Y-40702430D01*
X71107203Y-40756235D01*
X71128196Y-40806919D01*
X71158675Y-40852533D01*
X71197466Y-40891325D01*
X71243081Y-40921803D01*
X71293764Y-40942797D01*
X71347570Y-40953500D01*
X71524125Y-40953500D01*
X71593750Y-40883875D01*
X71593750Y-40421500D01*
X72031250Y-40421500D01*
X72031250Y-40883875D01*
X72100875Y-40953500D01*
X72277430Y-40953500D01*
X72331236Y-40942797D01*
X72381919Y-40921803D01*
X72427534Y-40891325D01*
X72466325Y-40852533D01*
X72496804Y-40806919D01*
X72517797Y-40756235D01*
X72528500Y-40702430D01*
X72528500Y-40491125D01*
X72458875Y-40421500D01*
X72031250Y-40421500D01*
X71593750Y-40421500D01*
X71166125Y-40421500D01*
X71096500Y-40491125D01*
X69972896Y-40491125D01*
X69874281Y-40380413D01*
X69695608Y-40245491D01*
X69494046Y-40148019D01*
X69321500Y-40169199D01*
X68878500Y-40169199D01*
X68705954Y-40148019D01*
X68504392Y-40245491D01*
X68325719Y-40380413D01*
X68198500Y-40523239D01*
X68198500Y-40086779D01*
X68587709Y-39697570D01*
X71096500Y-39697570D01*
X71096500Y-39908875D01*
X71166125Y-39978500D01*
X71593750Y-39978500D01*
X71593750Y-39516125D01*
X72031250Y-39516125D01*
X72031250Y-39978500D01*
X72458875Y-39978500D01*
X72528500Y-39908875D01*
X72528500Y-39697570D01*
X72517797Y-39643765D01*
X72496804Y-39593081D01*
X72466325Y-39547467D01*
X72427534Y-39508675D01*
X72381919Y-39478197D01*
X72331236Y-39457203D01*
X72277430Y-39446500D01*
X72100875Y-39446500D01*
X72031250Y-39516125D01*
X71593750Y-39516125D01*
X71524125Y-39446500D01*
X71347570Y-39446500D01*
X71293764Y-39457203D01*
X71243081Y-39478197D01*
X71197466Y-39508675D01*
X71158675Y-39547467D01*
X71128196Y-39593081D01*
X71107203Y-39643765D01*
X71096500Y-39697570D01*
X68587709Y-39697570D01*
X69056780Y-39228500D01*
X74836270Y-39228500D01*
X74666720Y-39341791D01*
X74521791Y-39486720D01*
X74407920Y-39657138D01*
X74360550Y-39771500D01*
X74072523Y-39771500D01*
X74066894Y-39752945D01*
X74020818Y-39666744D01*
X73958811Y-39591189D01*
X73883256Y-39529182D01*
X73797055Y-39483106D01*
X73703521Y-39454733D01*
X73606250Y-39445153D01*
X73168750Y-39445153D01*
X73071479Y-39454733D01*
X72977945Y-39483106D01*
X72891744Y-39529182D01*
X72816189Y-39591189D01*
X72754182Y-39666744D01*
X72708106Y-39752945D01*
X72679733Y-39846479D01*
X72670153Y-39943750D01*
X72670153Y-40456250D01*
X72679733Y-40553521D01*
X72708106Y-40647055D01*
X72754182Y-40733256D01*
X72816189Y-40808811D01*
X72891744Y-40870818D01*
X72977945Y-40916894D01*
X73071479Y-40945267D01*
X73168750Y-40954847D01*
X73606250Y-40954847D01*
X73703521Y-40945267D01*
X73797055Y-40916894D01*
X73883256Y-40870818D01*
X73958811Y-40808811D01*
X74020818Y-40733256D01*
X74066894Y-40647055D01*
X74095267Y-40553521D01*
X74097731Y-40528500D01*
X74360550Y-40528500D01*
X74407920Y-40642862D01*
X74521791Y-40813280D01*
X74666720Y-40958209D01*
X74837138Y-41072080D01*
X75026497Y-41150515D01*
X75227520Y-41190500D01*
X75432480Y-41190500D01*
X75633503Y-41150515D01*
X75822862Y-41072080D01*
X75993280Y-40958209D01*
X76138209Y-40813280D01*
X76252080Y-40642862D01*
X76330515Y-40453503D01*
X76370500Y-40252480D01*
X76370500Y-40047520D01*
X76330515Y-39846497D01*
X76252080Y-39657138D01*
X76138209Y-39486720D01*
X75993280Y-39341791D01*
X75823730Y-39228500D01*
X77376270Y-39228500D01*
X77206720Y-39341791D01*
X77061791Y-39486720D01*
X76947920Y-39657138D01*
X76869485Y-39846497D01*
X76829500Y-40047520D01*
X76829500Y-40252480D01*
X76869485Y-40453503D01*
X76947920Y-40642862D01*
X77061791Y-40813280D01*
X77206720Y-40958209D01*
X77377138Y-41072080D01*
X77441501Y-41098740D01*
X77441500Y-41741260D01*
X77377138Y-41767920D01*
X77206720Y-41881791D01*
X77061791Y-42026720D01*
X76947920Y-42197138D01*
X76869485Y-42386497D01*
X76829500Y-42587520D01*
X76829500Y-42792480D01*
X76869485Y-42993503D01*
X76947920Y-43182862D01*
X77061791Y-43353280D01*
X77206720Y-43498209D01*
X77377138Y-43612080D01*
X77441500Y-43638740D01*
X77441501Y-44645153D01*
X77168750Y-44645153D01*
X77071479Y-44654733D01*
X76977945Y-44683106D01*
X76891744Y-44729182D01*
X76816189Y-44791189D01*
X76754182Y-44866744D01*
X76708106Y-44952945D01*
X76679733Y-45046479D01*
X76670153Y-45143750D01*
X76670153Y-45511357D01*
X76637780Y-45543730D01*
X76637775Y-45543734D01*
X76529847Y-45651662D01*
X76529847Y-45143750D01*
X76520267Y-45046479D01*
X76491894Y-44952945D01*
X76445818Y-44866744D01*
X76383811Y-44791189D01*
X76308256Y-44729182D01*
X76222055Y-44683106D01*
X76128521Y-44654733D01*
X76031250Y-44645153D01*
X75593750Y-44645153D01*
X75496479Y-44654733D01*
X75402945Y-44683106D01*
X75316744Y-44729182D01*
X75241189Y-44791189D01*
X75179182Y-44866744D01*
X75133106Y-44952945D01*
X75104733Y-45046479D01*
X75095153Y-45143750D01*
X75095153Y-45293552D01*
X75044331Y-45217491D01*
X74949825Y-45122985D01*
X74838696Y-45048731D01*
X74715217Y-44997584D01*
X74584132Y-44971510D01*
X74450480Y-44971510D01*
X74386760Y-44984184D01*
X72908089Y-43505514D01*
X72896231Y-43491065D01*
X72838597Y-43443766D01*
X72772842Y-43408620D01*
X72701495Y-43386977D01*
X72645886Y-43381500D01*
X72627296Y-43379669D01*
X72608706Y-43381500D01*
X72507332Y-43381500D01*
X72517797Y-43356235D01*
X72528500Y-43302430D01*
X72528500Y-43091125D01*
X72458875Y-43021500D01*
X72031250Y-43021500D01*
X72031250Y-43041500D01*
X71593750Y-43041500D01*
X71593750Y-43021500D01*
X71166125Y-43021500D01*
X71096500Y-43091125D01*
X71096500Y-43302430D01*
X71107203Y-43356235D01*
X71117668Y-43381500D01*
X70178674Y-43381500D01*
X70160268Y-43320823D01*
X70054216Y-43122413D01*
X69911494Y-42948506D01*
X69737587Y-42805784D01*
X69539177Y-42699732D01*
X69323891Y-42634425D01*
X69156107Y-42617900D01*
X69043893Y-42617900D01*
X68876109Y-42634425D01*
X68660823Y-42699732D01*
X68462413Y-42805784D01*
X68288506Y-42948506D01*
X68145784Y-43122413D01*
X68039732Y-43320823D01*
X67974425Y-43536109D01*
X67952374Y-43760000D01*
X67974425Y-43983891D01*
X68039732Y-44199177D01*
X68145784Y-44397587D01*
X68288506Y-44571494D01*
X68349438Y-44621500D01*
X67878590Y-44621500D01*
X67860000Y-44619669D01*
X67785801Y-44626977D01*
X67714453Y-44648620D01*
X67704018Y-44654198D01*
X67648699Y-44683766D01*
X67591065Y-44731065D01*
X67579214Y-44745506D01*
X67055098Y-45269622D01*
X66999177Y-45239732D01*
X66783891Y-45174425D01*
X66616107Y-45157900D01*
X66503893Y-45157900D01*
X66336109Y-45174425D01*
X66120823Y-45239732D01*
X65922413Y-45345784D01*
X65748506Y-45488506D01*
X65605784Y-45662413D01*
X65499732Y-45860823D01*
X65434425Y-46076109D01*
X65412374Y-46300000D01*
X65434425Y-46523891D01*
X65499732Y-46739177D01*
X65605784Y-46937587D01*
X65748506Y-47111494D01*
X65922413Y-47254216D01*
X66120823Y-47360268D01*
X66336109Y-47425575D01*
X66503893Y-47442100D01*
X66616107Y-47442100D01*
X66783891Y-47425575D01*
X66999177Y-47360268D01*
X67197587Y-47254216D01*
X67371494Y-47111494D01*
X67514216Y-46937587D01*
X67620268Y-46739177D01*
X67685575Y-46523891D01*
X67707626Y-46300000D01*
X67685575Y-46076109D01*
X67620268Y-45860823D01*
X67590378Y-45804902D01*
X67956553Y-45438727D01*
X67956553Y-47163600D01*
X67961930Y-47218195D01*
X67977855Y-47270693D01*
X68003716Y-47319075D01*
X68038518Y-47361482D01*
X68080925Y-47396284D01*
X68129307Y-47422145D01*
X68181805Y-47438070D01*
X68236400Y-47443447D01*
X69963600Y-47443447D01*
X70018195Y-47438070D01*
X70070693Y-47422145D01*
X70119075Y-47396284D01*
X70161482Y-47361482D01*
X70196284Y-47319075D01*
X70222145Y-47270693D01*
X70238070Y-47218195D01*
X70243447Y-47163600D01*
X70243447Y-45436400D01*
X70238070Y-45381805D01*
X70237067Y-45378500D01*
X71520290Y-45378500D01*
X71522975Y-45382519D01*
X71617481Y-45477025D01*
X71728610Y-45551279D01*
X71852089Y-45602426D01*
X71983174Y-45628500D01*
X72116826Y-45628500D01*
X72247911Y-45602426D01*
X72371390Y-45551279D01*
X72482519Y-45477025D01*
X72577025Y-45382519D01*
X72651279Y-45271390D01*
X72702426Y-45147911D01*
X72728500Y-45016826D01*
X72728500Y-44883174D01*
X72702426Y-44752089D01*
X72651279Y-44628610D01*
X72577025Y-44517481D01*
X72482519Y-44422975D01*
X72371390Y-44348721D01*
X72247911Y-44297574D01*
X72116826Y-44271500D01*
X71983174Y-44271500D01*
X71852089Y-44297574D01*
X71728610Y-44348721D01*
X71617481Y-44422975D01*
X71522975Y-44517481D01*
X71453472Y-44621500D01*
X69850562Y-44621500D01*
X69911494Y-44571494D01*
X70054216Y-44397587D01*
X70160268Y-44199177D01*
X70178674Y-44138500D01*
X72470517Y-44138500D01*
X73851480Y-45519464D01*
X73838806Y-45583184D01*
X73838806Y-45716836D01*
X73864880Y-45847921D01*
X73916027Y-45971400D01*
X73990281Y-46082529D01*
X74084787Y-46177035D01*
X74195916Y-46251289D01*
X74319395Y-46302436D01*
X74450480Y-46328510D01*
X74584132Y-46328510D01*
X74715217Y-46302436D01*
X74838696Y-46251289D01*
X74949825Y-46177035D01*
X74951501Y-46175359D01*
X74951501Y-46800550D01*
X74837138Y-46847920D01*
X74666720Y-46961791D01*
X74521791Y-47106720D01*
X74407920Y-47277138D01*
X74360550Y-47391500D01*
X73603590Y-47391500D01*
X73585000Y-47389669D01*
X73510801Y-47396977D01*
X73439453Y-47418620D01*
X73416549Y-47430862D01*
X73373699Y-47453766D01*
X73316065Y-47501065D01*
X73304212Y-47515508D01*
X68374568Y-52445153D01*
X67570000Y-52445153D01*
X67515405Y-52450530D01*
X67462907Y-52466455D01*
X67414525Y-52492316D01*
X67372118Y-52527118D01*
X67337316Y-52569525D01*
X67311455Y-52617907D01*
X67295530Y-52670405D01*
X67290153Y-52725000D01*
X67290153Y-53375000D01*
X67295530Y-53429595D01*
X67311455Y-53482093D01*
X67337316Y-53530475D01*
X67372118Y-53572882D01*
X67414525Y-53607684D01*
X67462907Y-53633545D01*
X67515405Y-53649470D01*
X67570000Y-53654847D01*
X68630000Y-53654847D01*
X68684595Y-53649470D01*
X68737093Y-53633545D01*
X68785475Y-53607684D01*
X68821618Y-53578023D01*
X68832203Y-53631236D01*
X68853197Y-53681919D01*
X68883675Y-53727534D01*
X68922467Y-53766325D01*
X68968081Y-53796804D01*
X69018765Y-53817797D01*
X69072570Y-53828500D01*
X69508875Y-53828500D01*
X69578500Y-53758875D01*
X69578500Y-53284000D01*
X70021500Y-53284000D01*
X70021500Y-53758875D01*
X70091125Y-53828500D01*
X70527430Y-53828500D01*
X70581235Y-53817797D01*
X70631919Y-53796804D01*
X70677533Y-53766325D01*
X70716325Y-53727534D01*
X70746803Y-53681919D01*
X70767797Y-53631236D01*
X70778500Y-53577430D01*
X70778500Y-53353625D01*
X70708875Y-53284000D01*
X70021500Y-53284000D01*
X69578500Y-53284000D01*
X69558500Y-53284000D01*
X69558500Y-53091125D01*
X71096500Y-53091125D01*
X71096500Y-53302430D01*
X71107203Y-53356235D01*
X71128196Y-53406919D01*
X71158675Y-53452533D01*
X71197466Y-53491325D01*
X71243081Y-53521803D01*
X71293764Y-53542797D01*
X71347570Y-53553500D01*
X71524125Y-53553500D01*
X71593750Y-53483875D01*
X71593750Y-53021500D01*
X72031250Y-53021500D01*
X72031250Y-53483875D01*
X72100875Y-53553500D01*
X72277430Y-53553500D01*
X72331236Y-53542797D01*
X72381919Y-53521803D01*
X72427534Y-53491325D01*
X72466325Y-53452533D01*
X72496804Y-53406919D01*
X72517797Y-53356235D01*
X72528500Y-53302430D01*
X72528500Y-53091125D01*
X72458875Y-53021500D01*
X72031250Y-53021500D01*
X71593750Y-53021500D01*
X71166125Y-53021500D01*
X71096500Y-53091125D01*
X69558500Y-53091125D01*
X69558500Y-52841000D01*
X69578500Y-52841000D01*
X69578500Y-52366125D01*
X70021500Y-52366125D01*
X70021500Y-52841000D01*
X70708875Y-52841000D01*
X70778500Y-52771375D01*
X70778500Y-52547570D01*
X70767797Y-52493764D01*
X70746803Y-52443081D01*
X70716325Y-52397466D01*
X70677533Y-52358675D01*
X70631919Y-52328196D01*
X70581235Y-52307203D01*
X70532809Y-52297570D01*
X71096500Y-52297570D01*
X71096500Y-52508875D01*
X71166125Y-52578500D01*
X71593750Y-52578500D01*
X71593750Y-52116125D01*
X72031250Y-52116125D01*
X72031250Y-52578500D01*
X72458875Y-52578500D01*
X72528500Y-52508875D01*
X72528500Y-52297570D01*
X72517797Y-52243765D01*
X72496804Y-52193081D01*
X72466325Y-52147467D01*
X72427534Y-52108675D01*
X72381919Y-52078197D01*
X72331236Y-52057203D01*
X72277430Y-52046500D01*
X72100875Y-52046500D01*
X72031250Y-52116125D01*
X71593750Y-52116125D01*
X71524125Y-52046500D01*
X71347570Y-52046500D01*
X71293764Y-52057203D01*
X71243081Y-52078197D01*
X71197466Y-52108675D01*
X71158675Y-52147467D01*
X71128196Y-52193081D01*
X71107203Y-52243765D01*
X71096500Y-52297570D01*
X70532809Y-52297570D01*
X70527430Y-52296500D01*
X70091125Y-52296500D01*
X70021500Y-52366125D01*
X69578500Y-52366125D01*
X69551327Y-52338952D01*
X73741780Y-48148500D01*
X74360550Y-48148500D01*
X74407920Y-48262862D01*
X74521791Y-48433280D01*
X74666720Y-48578209D01*
X74837138Y-48692080D01*
X75026497Y-48770515D01*
X75227520Y-48810500D01*
X75432480Y-48810500D01*
X75633503Y-48770515D01*
X75822862Y-48692080D01*
X75993280Y-48578209D01*
X76138209Y-48433280D01*
X76171500Y-48383457D01*
X76171500Y-49018962D01*
X76169428Y-49040000D01*
X76171500Y-49061038D01*
X76171500Y-49061047D01*
X76177700Y-49124000D01*
X76202202Y-49204772D01*
X76241992Y-49279213D01*
X76295539Y-49344461D01*
X76311890Y-49357880D01*
X76896145Y-49942135D01*
X76869485Y-50006497D01*
X76829500Y-50207520D01*
X76829500Y-50412480D01*
X76869485Y-50613503D01*
X76947920Y-50802862D01*
X77061791Y-50973280D01*
X77206720Y-51118209D01*
X77377138Y-51232080D01*
X77566497Y-51310515D01*
X77767520Y-51350500D01*
X77972480Y-51350500D01*
X78173503Y-51310515D01*
X78237865Y-51283855D01*
X78771501Y-51817492D01*
X78771501Y-52326339D01*
X78678209Y-52186720D01*
X78533280Y-52041791D01*
X78362862Y-51927920D01*
X78173503Y-51849485D01*
X77972480Y-51809500D01*
X77767520Y-51809500D01*
X77566497Y-51849485D01*
X77377138Y-51927920D01*
X77206720Y-52041791D01*
X77061791Y-52186720D01*
X76947920Y-52357138D01*
X76869485Y-52546497D01*
X76829500Y-52747520D01*
X76829500Y-52952480D01*
X76869485Y-53153503D01*
X76947920Y-53342862D01*
X77061791Y-53513280D01*
X77206720Y-53658209D01*
X77377138Y-53772080D01*
X77566497Y-53850515D01*
X77671998Y-53871500D01*
X75528002Y-53871500D01*
X75633503Y-53850515D01*
X75822862Y-53772080D01*
X75993280Y-53658209D01*
X76138209Y-53513280D01*
X76252080Y-53342862D01*
X76330515Y-53153503D01*
X76370500Y-52952480D01*
X76370500Y-52747520D01*
X76330515Y-52546497D01*
X76252080Y-52357138D01*
X76138209Y-52186720D01*
X75993280Y-52041791D01*
X75822862Y-51927920D01*
X75708500Y-51880550D01*
X75708500Y-51279450D01*
X75822862Y-51232080D01*
X75993280Y-51118209D01*
X76138209Y-50973280D01*
X76252080Y-50802862D01*
X76330515Y-50613503D01*
X76370500Y-50412480D01*
X76370500Y-50207520D01*
X76330515Y-50006497D01*
X76252080Y-49817138D01*
X76138209Y-49646720D01*
X75993280Y-49501791D01*
X75822862Y-49387920D01*
X75633503Y-49309485D01*
X75432480Y-49269500D01*
X75227520Y-49269500D01*
X75026497Y-49309485D01*
X74837138Y-49387920D01*
X74666720Y-49501791D01*
X74521791Y-49646720D01*
X74407920Y-49817138D01*
X74329485Y-50006497D01*
X74289500Y-50207520D01*
X74289500Y-50412480D01*
X74329485Y-50613503D01*
X74407920Y-50802862D01*
X74521791Y-50973280D01*
X74666720Y-51118209D01*
X74837138Y-51232080D01*
X74951501Y-51279451D01*
X74951501Y-51369031D01*
X74951500Y-51369041D01*
X74951500Y-51880550D01*
X74837138Y-51927920D01*
X74666720Y-52041791D01*
X74521791Y-52186720D01*
X74407920Y-52357138D01*
X74381260Y-52421500D01*
X74087690Y-52421500D01*
X74066894Y-52352945D01*
X74020818Y-52266744D01*
X73958811Y-52191189D01*
X73883256Y-52129182D01*
X73797055Y-52083106D01*
X73703521Y-52054733D01*
X73606250Y-52045153D01*
X73168750Y-52045153D01*
X73071479Y-52054733D01*
X72977945Y-52083106D01*
X72891744Y-52129182D01*
X72816189Y-52191189D01*
X72754182Y-52266744D01*
X72708106Y-52352945D01*
X72679733Y-52446479D01*
X72670153Y-52543750D01*
X72670153Y-53056250D01*
X72679733Y-53153521D01*
X72708106Y-53247055D01*
X72754182Y-53333256D01*
X72816189Y-53408811D01*
X72891744Y-53470818D01*
X72977945Y-53516894D01*
X73071479Y-53545267D01*
X73168750Y-53554847D01*
X73606250Y-53554847D01*
X73703521Y-53545267D01*
X73797055Y-53516894D01*
X73883256Y-53470818D01*
X73958811Y-53408811D01*
X74020818Y-53333256D01*
X74066894Y-53247055D01*
X74087690Y-53178500D01*
X74339839Y-53178500D01*
X74407920Y-53342862D01*
X74521791Y-53513280D01*
X74666720Y-53658209D01*
X74837138Y-53772080D01*
X75026497Y-53850515D01*
X75131998Y-53871500D01*
X70458537Y-53871500D01*
X70437499Y-53869428D01*
X70416461Y-53871500D01*
X70416452Y-53871500D01*
X70353499Y-53877700D01*
X70272727Y-53902202D01*
X70206690Y-53937500D01*
X70198286Y-53941992D01*
X70149387Y-53982122D01*
X70149384Y-53982125D01*
X70133039Y-53995539D01*
X70119625Y-54011884D01*
X69961356Y-54170153D01*
X69343750Y-54170153D01*
X69241601Y-54180214D01*
X69143378Y-54210009D01*
X69052855Y-54258395D01*
X68973511Y-54323511D01*
X68908395Y-54402855D01*
X68867721Y-54478949D01*
X68862684Y-54469525D01*
X68827882Y-54427118D01*
X68785475Y-54392316D01*
X68737093Y-54366455D01*
X68684595Y-54350530D01*
X68630000Y-54345153D01*
X67570000Y-54345153D01*
X67515405Y-54350530D01*
X67462907Y-54366455D01*
X67414525Y-54392316D01*
X67372118Y-54427118D01*
X67337316Y-54469525D01*
X67311455Y-54517907D01*
X67295530Y-54570405D01*
X67290153Y-54625000D01*
X67290153Y-55275000D01*
X67295530Y-55329595D01*
X67311455Y-55382093D01*
X67337316Y-55430475D01*
X67372118Y-55472882D01*
X67414525Y-55507684D01*
X67462907Y-55533545D01*
X67515405Y-55549470D01*
X67570000Y-55554847D01*
X68630000Y-55554847D01*
X68684595Y-55549470D01*
X68737093Y-55533545D01*
X68785475Y-55507684D01*
X68827882Y-55472882D01*
X68862684Y-55430475D01*
X68874403Y-55408551D01*
X68908395Y-55472145D01*
X68973511Y-55551489D01*
X69052855Y-55616605D01*
X69143378Y-55664991D01*
X69241601Y-55694786D01*
X69343750Y-55704847D01*
X70256250Y-55704847D01*
X70358399Y-55694786D01*
X70456622Y-55664991D01*
X70547145Y-55616605D01*
X70626489Y-55551489D01*
X70691605Y-55472145D01*
X70739991Y-55381622D01*
X70769786Y-55283399D01*
X70779847Y-55181250D01*
X70779847Y-54728500D01*
X78528962Y-54728500D01*
X78550000Y-54730572D01*
X78571038Y-54728500D01*
X78571048Y-54728500D01*
X78634001Y-54722300D01*
X78714773Y-54697798D01*
X78789214Y-54658008D01*
X78854461Y-54604461D01*
X78867880Y-54588110D01*
X79488111Y-53967879D01*
X79504461Y-53954461D01*
X79527616Y-53926247D01*
X79558009Y-53889214D01*
X79585650Y-53837500D01*
X79597798Y-53814773D01*
X79622300Y-53734001D01*
X79628500Y-53671048D01*
X79628500Y-53671046D01*
X79630573Y-53650000D01*
X79628500Y-53628954D01*
X79628500Y-51661037D01*
X79630572Y-51639999D01*
X79628500Y-51618961D01*
X79628500Y-51618952D01*
X79622300Y-51555999D01*
X79597798Y-51475227D01*
X79558008Y-51400786D01*
X79517878Y-51351887D01*
X79517875Y-51351884D01*
X79504461Y-51335539D01*
X79488116Y-51322125D01*
X79115991Y-50950000D01*
X90845153Y-50950000D01*
X90845153Y-52150000D01*
X90855334Y-52253368D01*
X90885485Y-52352764D01*
X90934448Y-52444367D01*
X91000342Y-52524658D01*
X91080633Y-52590552D01*
X91172236Y-52639515D01*
X91271632Y-52669666D01*
X91375000Y-52679847D01*
X92825000Y-52679847D01*
X92928368Y-52669666D01*
X93027764Y-52639515D01*
X93119367Y-52590552D01*
X93199658Y-52524658D01*
X93265552Y-52444367D01*
X93314515Y-52352764D01*
X93344666Y-52253368D01*
X93354847Y-52150000D01*
X93354847Y-50950000D01*
X93344666Y-50846632D01*
X93314515Y-50747236D01*
X93265552Y-50655633D01*
X93199658Y-50575342D01*
X93119367Y-50509448D01*
X93027764Y-50460485D01*
X92928368Y-50430334D01*
X92825000Y-50420153D01*
X91375000Y-50420153D01*
X91271632Y-50430334D01*
X91172236Y-50460485D01*
X91080633Y-50509448D01*
X91000342Y-50575342D01*
X90934448Y-50655633D01*
X90885485Y-50747236D01*
X90855334Y-50846632D01*
X90845153Y-50950000D01*
X79115991Y-50950000D01*
X78843855Y-50677865D01*
X78870515Y-50613503D01*
X78910500Y-50412480D01*
X78910500Y-50207520D01*
X78870515Y-50006497D01*
X78792080Y-49817138D01*
X78678209Y-49646720D01*
X78533280Y-49501791D01*
X78362862Y-49387920D01*
X78173503Y-49309485D01*
X77972480Y-49269500D01*
X77767520Y-49269500D01*
X77566497Y-49309485D01*
X77502135Y-49336145D01*
X77215990Y-49050000D01*
X90841040Y-49050000D01*
X90862829Y-49271225D01*
X90927358Y-49483948D01*
X91032147Y-49679994D01*
X91173169Y-49851831D01*
X91345006Y-49992853D01*
X91541052Y-50097642D01*
X91753775Y-50162171D01*
X91919564Y-50178500D01*
X92280436Y-50178500D01*
X92446225Y-50162171D01*
X92658948Y-50097642D01*
X92854994Y-49992853D01*
X93026831Y-49851831D01*
X93167853Y-49679994D01*
X93272642Y-49483948D01*
X93337171Y-49271225D01*
X93358960Y-49050000D01*
X93337171Y-48828775D01*
X93272642Y-48616052D01*
X93167853Y-48420006D01*
X93026831Y-48248169D01*
X92854994Y-48107147D01*
X92658948Y-48002358D01*
X92446225Y-47937829D01*
X92280436Y-47921500D01*
X91919564Y-47921500D01*
X91753775Y-47937829D01*
X91541052Y-48002358D01*
X91345006Y-48107147D01*
X91173169Y-48248169D01*
X91032147Y-48420006D01*
X90927358Y-48616052D01*
X90862829Y-48828775D01*
X90841040Y-49050000D01*
X77215990Y-49050000D01*
X77028500Y-48862510D01*
X77028500Y-48383457D01*
X77061791Y-48433280D01*
X77206720Y-48578209D01*
X77377138Y-48692080D01*
X77566497Y-48770515D01*
X77767520Y-48810500D01*
X77972480Y-48810500D01*
X78173503Y-48770515D01*
X78362862Y-48692080D01*
X78533280Y-48578209D01*
X78678209Y-48433280D01*
X78792080Y-48262862D01*
X78870515Y-48073503D01*
X78910500Y-47872480D01*
X78910500Y-47667520D01*
X78870515Y-47466497D01*
X78792080Y-47277138D01*
X78678209Y-47106720D01*
X78533280Y-46961791D01*
X78362862Y-46847920D01*
X78173503Y-46769485D01*
X77972480Y-46729500D01*
X77767520Y-46729500D01*
X77566497Y-46769485D01*
X77377138Y-46847920D01*
X77206720Y-46961791D01*
X77061791Y-47106720D01*
X77028500Y-47156543D01*
X77028500Y-46364990D01*
X77238644Y-46154847D01*
X77606250Y-46154847D01*
X77703521Y-46145267D01*
X77797055Y-46116894D01*
X77883256Y-46070818D01*
X77958811Y-46008811D01*
X78020818Y-45933256D01*
X78066894Y-45847055D01*
X78095267Y-45753521D01*
X78104847Y-45656250D01*
X78104847Y-45288644D01*
X78158115Y-45235375D01*
X78174461Y-45221961D01*
X78187875Y-45205616D01*
X78187878Y-45205613D01*
X78228008Y-45156714D01*
X78234937Y-45143750D01*
X78267798Y-45082273D01*
X78292300Y-45001501D01*
X78298500Y-44938548D01*
X78298500Y-44938539D01*
X78300572Y-44917501D01*
X78298500Y-44896463D01*
X78298500Y-43638740D01*
X78362862Y-43612080D01*
X78533280Y-43498209D01*
X78678209Y-43353280D01*
X78792080Y-43182862D01*
X78870515Y-42993503D01*
X78910500Y-42792480D01*
X78910500Y-42587520D01*
X78870515Y-42386497D01*
X78792080Y-42197138D01*
X78678209Y-42026720D01*
X78533280Y-41881791D01*
X78362862Y-41767920D01*
X78298500Y-41741260D01*
X78298500Y-41098740D01*
X78362862Y-41072080D01*
X78533280Y-40958209D01*
X78678209Y-40813280D01*
X78792080Y-40642862D01*
X78870515Y-40453503D01*
X78910500Y-40252480D01*
X78910500Y-40047520D01*
X78870515Y-39846497D01*
X78792080Y-39657138D01*
X78678209Y-39486720D01*
X78533280Y-39341791D01*
X78363730Y-39228500D01*
X78493221Y-39228500D01*
X86069212Y-46804492D01*
X86081065Y-46818935D01*
X86138699Y-46866234D01*
X86204454Y-46901380D01*
X86254157Y-46916457D01*
X86275800Y-46923023D01*
X86349999Y-46930331D01*
X86368589Y-46928500D01*
X90910538Y-46928500D01*
X90927358Y-46983948D01*
X91032147Y-47179994D01*
X91173169Y-47351831D01*
X91345006Y-47492853D01*
X91541052Y-47597642D01*
X91753775Y-47662171D01*
X91919564Y-47678500D01*
X92280436Y-47678500D01*
X92446225Y-47662171D01*
X92658948Y-47597642D01*
X92854994Y-47492853D01*
X93026831Y-47351831D01*
X93167853Y-47179994D01*
X93272642Y-46983948D01*
X93337171Y-46771225D01*
X93358960Y-46550000D01*
X93337171Y-46328775D01*
X93272642Y-46116052D01*
X93167853Y-45920006D01*
X93026831Y-45748169D01*
X92854994Y-45607147D01*
X92658948Y-45502358D01*
X92446225Y-45437829D01*
X92280436Y-45421500D01*
X91919564Y-45421500D01*
X91753775Y-45437829D01*
X91541052Y-45502358D01*
X91345006Y-45607147D01*
X91173169Y-45748169D01*
X91032147Y-45920006D01*
X90927358Y-46116052D01*
X90910538Y-46171500D01*
X86506780Y-46171500D01*
X84385280Y-44050000D01*
X90841040Y-44050000D01*
X90862829Y-44271225D01*
X90927358Y-44483948D01*
X91032147Y-44679994D01*
X91173169Y-44851831D01*
X91345006Y-44992853D01*
X91541052Y-45097642D01*
X91753775Y-45162171D01*
X91919564Y-45178500D01*
X92280436Y-45178500D01*
X92446225Y-45162171D01*
X92658948Y-45097642D01*
X92854994Y-44992853D01*
X93026831Y-44851831D01*
X93167853Y-44679994D01*
X93272642Y-44483948D01*
X93337171Y-44271225D01*
X93358960Y-44050000D01*
X93337171Y-43828775D01*
X93272642Y-43616052D01*
X93167853Y-43420006D01*
X93026831Y-43248169D01*
X92854994Y-43107147D01*
X92658948Y-43002358D01*
X92446225Y-42937829D01*
X92280436Y-42921500D01*
X91919564Y-42921500D01*
X91753775Y-42937829D01*
X91541052Y-43002358D01*
X91345006Y-43107147D01*
X91173169Y-43248169D01*
X91032147Y-43420006D01*
X90927358Y-43616052D01*
X90862829Y-43828775D01*
X90841040Y-44050000D01*
X84385280Y-44050000D01*
X82277155Y-41941875D01*
X90916725Y-41941875D01*
X91012994Y-42129658D01*
X91144564Y-42306198D01*
X91308048Y-42453678D01*
X91497162Y-42566430D01*
X91704639Y-42640121D01*
X91878500Y-42599369D01*
X91878500Y-41771500D01*
X92321500Y-41771500D01*
X92321500Y-42599369D01*
X92495361Y-42640121D01*
X92702838Y-42566430D01*
X92891952Y-42453678D01*
X93055436Y-42306198D01*
X93187006Y-42129658D01*
X93283275Y-41941875D01*
X93260449Y-41771500D01*
X92321500Y-41771500D01*
X91878500Y-41771500D01*
X90939551Y-41771500D01*
X90916725Y-41941875D01*
X82277155Y-41941875D01*
X81493405Y-41158125D01*
X90916725Y-41158125D01*
X90939551Y-41328500D01*
X91878500Y-41328500D01*
X91878500Y-40500631D01*
X92321500Y-40500631D01*
X92321500Y-41328500D01*
X93260449Y-41328500D01*
X93283275Y-41158125D01*
X93187006Y-40970342D01*
X93055436Y-40793802D01*
X92891952Y-40646322D01*
X92702838Y-40533570D01*
X92495361Y-40459879D01*
X92321500Y-40500631D01*
X91878500Y-40500631D01*
X91704639Y-40459879D01*
X91497162Y-40533570D01*
X91308048Y-40646322D01*
X91144564Y-40793802D01*
X91012994Y-40970342D01*
X90916725Y-41158125D01*
X81493405Y-41158125D01*
X78930793Y-38595514D01*
X78918935Y-38581065D01*
X78861301Y-38533766D01*
X78795546Y-38498620D01*
X78724199Y-38476977D01*
X78668590Y-38471500D01*
X78650000Y-38469669D01*
X78631410Y-38471500D01*
X68918590Y-38471500D01*
X68900000Y-38469669D01*
X68830715Y-38476493D01*
X68825801Y-38476977D01*
X68754454Y-38498620D01*
X68688699Y-38533766D01*
X68631065Y-38581065D01*
X68619212Y-38595508D01*
X67565509Y-39649212D01*
X67551066Y-39661065D01*
X67503767Y-39718699D01*
X67468621Y-39784454D01*
X67446977Y-39855802D01*
X67439669Y-39930000D01*
X67441501Y-39948600D01*
X67441501Y-40493809D01*
X67371494Y-40408506D01*
X67197587Y-40265784D01*
X66999177Y-40159732D01*
X66783891Y-40094425D01*
X66616107Y-40077900D01*
X66503893Y-40077900D01*
X66336109Y-40094425D01*
X66120823Y-40159732D01*
X65922413Y-40265784D01*
X65748506Y-40408506D01*
X65605784Y-40582413D01*
X65499732Y-40780823D01*
X65434425Y-40996109D01*
X65412374Y-41220000D01*
X65434425Y-41443891D01*
X65499732Y-41659177D01*
X65529622Y-41715098D01*
X62945509Y-44299212D01*
X62931066Y-44311065D01*
X62883767Y-44368699D01*
X62854757Y-44422975D01*
X62848621Y-44434454D01*
X62826977Y-44505802D01*
X62819669Y-44580000D01*
X62821501Y-44598600D01*
X62821500Y-45636880D01*
X62767481Y-45672975D01*
X62672975Y-45767481D01*
X62598721Y-45878610D01*
X62547574Y-46002089D01*
X62521500Y-46133174D01*
X61940619Y-46133174D01*
X61946804Y-46123919D01*
X61967797Y-46073235D01*
X61978500Y-46019430D01*
X61978500Y-45521125D01*
X61908875Y-45451500D01*
X60421500Y-45451500D01*
X59978500Y-45451500D01*
X58491125Y-45451500D01*
X58421500Y-45521125D01*
X58260500Y-45521125D01*
X58260500Y-44440570D01*
X58421500Y-44440570D01*
X58421500Y-44938875D01*
X58491125Y-45008500D01*
X59978500Y-45008500D01*
X59978500Y-44259125D01*
X60421500Y-44259125D01*
X60421500Y-45008500D01*
X61908875Y-45008500D01*
X61978500Y-44938875D01*
X61978500Y-44440570D01*
X61967797Y-44386765D01*
X61946804Y-44336081D01*
X61916325Y-44290467D01*
X61877534Y-44251675D01*
X61831919Y-44221197D01*
X61781236Y-44200203D01*
X61727430Y-44189500D01*
X60491125Y-44189500D01*
X60421500Y-44259125D01*
X59978500Y-44259125D01*
X59908875Y-44189500D01*
X58672570Y-44189500D01*
X58618764Y-44200203D01*
X58568081Y-44221197D01*
X58522466Y-44251675D01*
X58483675Y-44290467D01*
X58453196Y-44336081D01*
X58432203Y-44386765D01*
X58421500Y-44440570D01*
X58260500Y-44440570D01*
X58260500Y-42981125D01*
X58421500Y-42981125D01*
X58421500Y-43479430D01*
X58432203Y-43533235D01*
X58453196Y-43583919D01*
X58483675Y-43629533D01*
X58522466Y-43668325D01*
X58568081Y-43698803D01*
X58618764Y-43719797D01*
X58672570Y-43730500D01*
X59908875Y-43730500D01*
X59978500Y-43660875D01*
X59978500Y-42911500D01*
X60421500Y-42911500D01*
X60421500Y-43660875D01*
X60491125Y-43730500D01*
X61727430Y-43730500D01*
X61781236Y-43719797D01*
X61831919Y-43698803D01*
X61877534Y-43668325D01*
X61916325Y-43629533D01*
X61946804Y-43583919D01*
X61967797Y-43533235D01*
X61978500Y-43479430D01*
X61978500Y-42981125D01*
X61908875Y-42911500D01*
X60421500Y-42911500D01*
X59978500Y-42911500D01*
X58491125Y-42911500D01*
X58421500Y-42981125D01*
X58260500Y-42981125D01*
X58260500Y-41900570D01*
X58421500Y-41900570D01*
X58421500Y-42398875D01*
X58491125Y-42468500D01*
X59978500Y-42468500D01*
X59978500Y-41719125D01*
X60421500Y-41719125D01*
X60421500Y-42468500D01*
X61908875Y-42468500D01*
X61978500Y-42398875D01*
X61978500Y-41900570D01*
X61967797Y-41846765D01*
X61946804Y-41796081D01*
X61916325Y-41750467D01*
X61877534Y-41711675D01*
X61831919Y-41681197D01*
X61781236Y-41660203D01*
X61727430Y-41649500D01*
X60491125Y-41649500D01*
X60421500Y-41719125D01*
X59978500Y-41719125D01*
X59908875Y-41649500D01*
X58672570Y-41649500D01*
X58618764Y-41660203D01*
X58568081Y-41681197D01*
X58522466Y-41711675D01*
X58483675Y-41750467D01*
X58453196Y-41796081D01*
X58432203Y-41846765D01*
X58421500Y-41900570D01*
X58260500Y-41900570D01*
X58260500Y-40441125D01*
X58421500Y-40441125D01*
X58421500Y-40939430D01*
X58432203Y-40993235D01*
X58453196Y-41043919D01*
X58483675Y-41089533D01*
X58522466Y-41128325D01*
X58568081Y-41158803D01*
X58618764Y-41179797D01*
X58672570Y-41190500D01*
X59908875Y-41190500D01*
X59978500Y-41120875D01*
X59978500Y-40371500D01*
X60421500Y-40371500D01*
X60421500Y-41120875D01*
X60491125Y-41190500D01*
X61727430Y-41190500D01*
X61781236Y-41179797D01*
X61831919Y-41158803D01*
X61877534Y-41128325D01*
X61916325Y-41089533D01*
X61946804Y-41043919D01*
X61967797Y-40993235D01*
X61978500Y-40939430D01*
X61978500Y-40441125D01*
X61908875Y-40371500D01*
X60421500Y-40371500D01*
X59978500Y-40371500D01*
X58491125Y-40371500D01*
X58421500Y-40441125D01*
X58260500Y-40441125D01*
X58260500Y-39360570D01*
X58421500Y-39360570D01*
X58421500Y-39858875D01*
X58491125Y-39928500D01*
X59978500Y-39928500D01*
X59978500Y-39179125D01*
X60421500Y-39179125D01*
X60421500Y-39928500D01*
X61908875Y-39928500D01*
X61978500Y-39858875D01*
X61978500Y-39360570D01*
X61967797Y-39306765D01*
X61946804Y-39256081D01*
X61916325Y-39210467D01*
X61877534Y-39171675D01*
X61831919Y-39141197D01*
X61781236Y-39120203D01*
X61727430Y-39109500D01*
X60491125Y-39109500D01*
X60421500Y-39179125D01*
X59978500Y-39179125D01*
X59908875Y-39109500D01*
X58672570Y-39109500D01*
X58618764Y-39120203D01*
X58568081Y-39141197D01*
X58522466Y-39171675D01*
X58483675Y-39210467D01*
X58453196Y-39256081D01*
X58432203Y-39306765D01*
X58421500Y-39360570D01*
X58260500Y-39360570D01*
X58260500Y-37901125D01*
X58421500Y-37901125D01*
X58421500Y-38399430D01*
X58432203Y-38453235D01*
X58453196Y-38503919D01*
X58483675Y-38549533D01*
X58522466Y-38588325D01*
X58568081Y-38618803D01*
X58618764Y-38639797D01*
X58672570Y-38650500D01*
X59908875Y-38650500D01*
X59978500Y-38580875D01*
X59978500Y-37831500D01*
X60421500Y-37831500D01*
X60421500Y-38580875D01*
X60491125Y-38650500D01*
X61727430Y-38650500D01*
X61781236Y-38639797D01*
X61831919Y-38618803D01*
X61877534Y-38588325D01*
X61916325Y-38549533D01*
X61946804Y-38503919D01*
X61967797Y-38453235D01*
X61978500Y-38399430D01*
X61978500Y-37901125D01*
X61908875Y-37831500D01*
X60421500Y-37831500D01*
X59978500Y-37831500D01*
X58491125Y-37831500D01*
X58421500Y-37901125D01*
X58260500Y-37901125D01*
X58260500Y-36820570D01*
X58421500Y-36820570D01*
X58421500Y-37318875D01*
X58491125Y-37388500D01*
X59978500Y-37388500D01*
X59978500Y-36639125D01*
X60421500Y-36639125D01*
X60421500Y-37388500D01*
X61908875Y-37388500D01*
X61978500Y-37318875D01*
X61978500Y-36820570D01*
X61967797Y-36766765D01*
X61946804Y-36716081D01*
X61916325Y-36670467D01*
X61877534Y-36631675D01*
X61831919Y-36601197D01*
X61781236Y-36580203D01*
X61727430Y-36569500D01*
X60491125Y-36569500D01*
X60421500Y-36639125D01*
X59978500Y-36639125D01*
X59908875Y-36569500D01*
X58672570Y-36569500D01*
X58618764Y-36580203D01*
X58568081Y-36601197D01*
X58522466Y-36631675D01*
X58483675Y-36670467D01*
X58453196Y-36716081D01*
X58432203Y-36766765D01*
X58421500Y-36820570D01*
X58260500Y-36820570D01*
X58260500Y-34689000D01*
X58420153Y-34689000D01*
X58420153Y-35451000D01*
X58432851Y-35579925D01*
X58470457Y-35703895D01*
X58531526Y-35818147D01*
X58613711Y-35918289D01*
X58713853Y-36000474D01*
X58828105Y-36061543D01*
X58952075Y-36099149D01*
X59081000Y-36111847D01*
X61319000Y-36111847D01*
X61447925Y-36099149D01*
X61571895Y-36061543D01*
X61686147Y-36000474D01*
X61786289Y-35918289D01*
X61868474Y-35818147D01*
X61929543Y-35703895D01*
X61967149Y-35579925D01*
X61979847Y-35451000D01*
X61979847Y-34689000D01*
X61967149Y-34560075D01*
X61929543Y-34436105D01*
X61868474Y-34321853D01*
X61786289Y-34221711D01*
X61686147Y-34139526D01*
X61571895Y-34078457D01*
X61447925Y-34040851D01*
X61319000Y-34028153D01*
X59081000Y-34028153D01*
X58952075Y-34040851D01*
X58828105Y-34078457D01*
X58713853Y-34139526D01*
X58613711Y-34221711D01*
X58531526Y-34321853D01*
X58470457Y-34436105D01*
X58432851Y-34560075D01*
X58420153Y-34689000D01*
X58260500Y-34689000D01*
X58260500Y-33512741D01*
X58266287Y-33453721D01*
X58279725Y-33409212D01*
X58301554Y-33368155D01*
X58330946Y-33332119D01*
X58366771Y-33302482D01*
X58407675Y-33280365D01*
X58452093Y-33266615D01*
X58510276Y-33260500D01*
X64969416Y-33260500D01*
X85931958Y-38251581D01*
X85931958Y-38251581D01*
G37*
X85931958Y-38251581D02*
X85948933Y-38256730D01*
X85969638Y-38258769D01*
X85990214Y-38261576D01*
X86007900Y-38260500D01*
X95987259Y-38260500D01*
X96046279Y-38266287D01*
X96090788Y-38279725D01*
X96131845Y-38301554D01*
X96167881Y-38330946D01*
X96197518Y-38366771D01*
X96219635Y-38407675D01*
X96233385Y-38452093D01*
X96239501Y-38510285D01*
X96239500Y-54487258D01*
X96233713Y-54546279D01*
X96220275Y-54590787D01*
X96198443Y-54631847D01*
X96169054Y-54667881D01*
X96133231Y-54697517D01*
X96092325Y-54719635D01*
X96047907Y-54733385D01*
X95989725Y-54739500D01*
X86007900Y-54739500D01*
X85990214Y-54738424D01*
X85969638Y-54741231D01*
X85948933Y-54743270D01*
X85931958Y-54748419D01*
X64969416Y-59739500D01*
X58512742Y-59739500D01*
X58453721Y-59733713D01*
X58409213Y-59720275D01*
X58368153Y-59698443D01*
X58332119Y-59669054D01*
X58302483Y-59633231D01*
X58280365Y-59592325D01*
X58266615Y-59547907D01*
X58260500Y-59489725D01*
X58260500Y-57549000D01*
X58420153Y-57549000D01*
X58420153Y-58311000D01*
X58432851Y-58439925D01*
X58470457Y-58563895D01*
X58531526Y-58678147D01*
X58613711Y-58778289D01*
X58713853Y-58860474D01*
X58828105Y-58921543D01*
X58952075Y-58959149D01*
X59081000Y-58971847D01*
X61319000Y-58971847D01*
X61447925Y-58959149D01*
X61571895Y-58921543D01*
X61686147Y-58860474D01*
X61786289Y-58778289D01*
X61868474Y-58678147D01*
X61929543Y-58563895D01*
X61967149Y-58439925D01*
X61979847Y-58311000D01*
X61979847Y-57549000D01*
X61967149Y-57420075D01*
X61929543Y-57296105D01*
X61868474Y-57181853D01*
X61786289Y-57081711D01*
X61686147Y-56999526D01*
X61571895Y-56938457D01*
X61447925Y-56900851D01*
X61319000Y-56888153D01*
X59081000Y-56888153D01*
X58952075Y-56900851D01*
X58828105Y-56938457D01*
X58713853Y-56999526D01*
X58613711Y-57081711D01*
X58531526Y-57181853D01*
X58470457Y-57296105D01*
X58432851Y-57420075D01*
X58420153Y-57549000D01*
X58260500Y-57549000D01*
X58260500Y-56533174D01*
X61721496Y-56533174D01*
X61721496Y-56666826D01*
X61747570Y-56797911D01*
X61798717Y-56921390D01*
X61872971Y-57032519D01*
X61967477Y-57127025D01*
X62078606Y-57201279D01*
X62202085Y-57252426D01*
X62333170Y-57278500D01*
X62466822Y-57278500D01*
X62597907Y-57252426D01*
X62721386Y-57201279D01*
X62832515Y-57127025D01*
X62927021Y-57032519D01*
X63001275Y-56921390D01*
X63052422Y-56797911D01*
X63078496Y-56666826D01*
X63078496Y-56664994D01*
X64038644Y-55704847D01*
X64656250Y-55704847D01*
X64758399Y-55694786D01*
X64856622Y-55664991D01*
X64947145Y-55616605D01*
X65026489Y-55551489D01*
X65091605Y-55472145D01*
X65125597Y-55408551D01*
X65137316Y-55430475D01*
X65172118Y-55472882D01*
X65214525Y-55507684D01*
X65262907Y-55533545D01*
X65315405Y-55549470D01*
X65370000Y-55554847D01*
X66430000Y-55554847D01*
X66484595Y-55549470D01*
X66537093Y-55533545D01*
X66585475Y-55507684D01*
X66627882Y-55472882D01*
X66662684Y-55430475D01*
X66688545Y-55382093D01*
X66704470Y-55329595D01*
X66709847Y-55275000D01*
X66709847Y-54625000D01*
X66704470Y-54570405D01*
X66688545Y-54517907D01*
X66665216Y-54474262D01*
X66676804Y-54456919D01*
X66697797Y-54406235D01*
X66708500Y-54352430D01*
X66708500Y-54232125D01*
X66638875Y-54162500D01*
X66121500Y-54162500D01*
X66121500Y-54241500D01*
X65678500Y-54241500D01*
X65678500Y-54162500D01*
X65161125Y-54162500D01*
X65091500Y-54232125D01*
X65091500Y-54352430D01*
X65102203Y-54406235D01*
X65123196Y-54456919D01*
X65134784Y-54474262D01*
X65132279Y-54478949D01*
X65091605Y-54402855D01*
X65026489Y-54323511D01*
X64947145Y-54258395D01*
X64856622Y-54210009D01*
X64758399Y-54180214D01*
X64656250Y-54170153D01*
X63967933Y-54170153D01*
X63626279Y-53828500D01*
X63908875Y-53828500D01*
X63978500Y-53758875D01*
X63978500Y-53284000D01*
X63958500Y-53284000D01*
X63958500Y-52841000D01*
X63978500Y-52841000D01*
X63978500Y-52821000D01*
X64421500Y-52821000D01*
X64421500Y-52841000D01*
X64441500Y-52841000D01*
X64441500Y-53284000D01*
X64421500Y-53284000D01*
X64421500Y-53758875D01*
X64491125Y-53828500D01*
X64927430Y-53828500D01*
X64981235Y-53817797D01*
X65031919Y-53796804D01*
X65077533Y-53766325D01*
X65091500Y-53752358D01*
X65091500Y-53767875D01*
X65161125Y-53837500D01*
X65678500Y-53837500D01*
X65678500Y-53758500D01*
X66121500Y-53758500D01*
X66121500Y-53837500D01*
X66638875Y-53837500D01*
X66708500Y-53767875D01*
X66708500Y-53647570D01*
X66697797Y-53593765D01*
X66676804Y-53543081D01*
X66665216Y-53525738D01*
X66688545Y-53482093D01*
X66704470Y-53429595D01*
X66709847Y-53375000D01*
X66709847Y-52725000D01*
X66704470Y-52670405D01*
X66688545Y-52617907D01*
X66662684Y-52569525D01*
X66627882Y-52527118D01*
X66585475Y-52492316D01*
X66537093Y-52466455D01*
X66484595Y-52450530D01*
X66430000Y-52445153D01*
X65625433Y-52445153D01*
X65125793Y-51945514D01*
X65113935Y-51931065D01*
X65056301Y-51883766D01*
X64990546Y-51848620D01*
X64919199Y-51826977D01*
X64863590Y-51821500D01*
X64845000Y-51819669D01*
X64826410Y-51821500D01*
X63612096Y-51821500D01*
X63593506Y-51819669D01*
X63519307Y-51826977D01*
X63447959Y-51848620D01*
X63390723Y-51879213D01*
X63382205Y-51883766D01*
X63324571Y-51931065D01*
X63312717Y-51945509D01*
X62945509Y-52312718D01*
X62931066Y-52324571D01*
X62883767Y-52382205D01*
X62851229Y-52443081D01*
X62848621Y-52447960D01*
X62826977Y-52519308D01*
X62819669Y-52593506D01*
X62821501Y-52612106D01*
X62821500Y-53918910D01*
X62819669Y-53937500D01*
X62821500Y-53956089D01*
X62826977Y-54011698D01*
X62848620Y-54083045D01*
X62883766Y-54148800D01*
X62931065Y-54206435D01*
X62945514Y-54218293D01*
X63250837Y-54523616D01*
X63230214Y-54591601D01*
X63220153Y-54693750D01*
X63220153Y-55181250D01*
X63230214Y-55283399D01*
X63234379Y-55297130D01*
X62586254Y-55945256D01*
X62466822Y-55921500D01*
X62333170Y-55921500D01*
X62202085Y-55947574D01*
X62078606Y-55998721D01*
X61967477Y-56072975D01*
X61872971Y-56167481D01*
X61798717Y-56278610D01*
X61747570Y-56402089D01*
X61721496Y-56533174D01*
X58260500Y-56533174D01*
X58260500Y-55009000D01*
X58420153Y-55009000D01*
X58420153Y-55771000D01*
X58432851Y-55899925D01*
X58470457Y-56023895D01*
X58531526Y-56138147D01*
X58613711Y-56238289D01*
X58713853Y-56320474D01*
X58828105Y-56381543D01*
X58952075Y-56419149D01*
X59081000Y-56431847D01*
X61319000Y-56431847D01*
X61447925Y-56419149D01*
X61571895Y-56381543D01*
X61686147Y-56320474D01*
X61786289Y-56238289D01*
X61868474Y-56138147D01*
X61929543Y-56023895D01*
X61967149Y-55899925D01*
X61979847Y-55771000D01*
X61979847Y-55009000D01*
X61967149Y-54880075D01*
X61929543Y-54756105D01*
X61868474Y-54641853D01*
X61786289Y-54541711D01*
X61686147Y-54459526D01*
X61571895Y-54398457D01*
X61447925Y-54360851D01*
X61319000Y-54348153D01*
X59081000Y-54348153D01*
X58952075Y-54360851D01*
X58828105Y-54398457D01*
X58713853Y-54459526D01*
X58613711Y-54541711D01*
X58531526Y-54641853D01*
X58470457Y-54756105D01*
X58432851Y-54880075D01*
X58420153Y-55009000D01*
X58260500Y-55009000D01*
X58260500Y-52469000D01*
X58420153Y-52469000D01*
X58420153Y-53231000D01*
X58432851Y-53359925D01*
X58470457Y-53483895D01*
X58531526Y-53598147D01*
X58613711Y-53698289D01*
X58713853Y-53780474D01*
X58828105Y-53841543D01*
X58952075Y-53879149D01*
X59081000Y-53891847D01*
X61319000Y-53891847D01*
X61447925Y-53879149D01*
X61571895Y-53841543D01*
X61686147Y-53780474D01*
X61786289Y-53698289D01*
X61868474Y-53598147D01*
X61929543Y-53483895D01*
X61967149Y-53359925D01*
X61979847Y-53231000D01*
X61979847Y-52469000D01*
X61967149Y-52340075D01*
X61929543Y-52216105D01*
X61868474Y-52101853D01*
X61786289Y-52001711D01*
X61686147Y-51919526D01*
X61571895Y-51858457D01*
X61447925Y-51820851D01*
X61319000Y-51808153D01*
X59081000Y-51808153D01*
X58952075Y-51820851D01*
X58828105Y-51858457D01*
X58713853Y-51919526D01*
X58613711Y-52001711D01*
X58531526Y-52101853D01*
X58470457Y-52216105D01*
X58432851Y-52340075D01*
X58420153Y-52469000D01*
X58260500Y-52469000D01*
X58260500Y-49929000D01*
X58420153Y-49929000D01*
X58420153Y-50691000D01*
X58432851Y-50819925D01*
X58470457Y-50943895D01*
X58531526Y-51058147D01*
X58613711Y-51158289D01*
X58713853Y-51240474D01*
X58828105Y-51301543D01*
X58952075Y-51339149D01*
X59081000Y-51351847D01*
X61319000Y-51351847D01*
X61447925Y-51339149D01*
X61571895Y-51301543D01*
X61686147Y-51240474D01*
X61786289Y-51158289D01*
X61868474Y-51058147D01*
X61929543Y-50943895D01*
X61967149Y-50819925D01*
X61979847Y-50691000D01*
X61979847Y-49929000D01*
X61967149Y-49800075D01*
X61929543Y-49676105D01*
X61868474Y-49561853D01*
X61786289Y-49461711D01*
X61686147Y-49379526D01*
X61571895Y-49318457D01*
X61447925Y-49280851D01*
X61319000Y-49268153D01*
X59081000Y-49268153D01*
X58952075Y-49280851D01*
X58828105Y-49318457D01*
X58713853Y-49379526D01*
X58613711Y-49461711D01*
X58531526Y-49561853D01*
X58470457Y-49676105D01*
X58432851Y-49800075D01*
X58420153Y-49929000D01*
X58260500Y-49929000D01*
X58260500Y-48061125D01*
X58421500Y-48061125D01*
X58421500Y-48559430D01*
X58432203Y-48613235D01*
X58453196Y-48663919D01*
X58483675Y-48709533D01*
X58522466Y-48748325D01*
X58568081Y-48778803D01*
X58618764Y-48799797D01*
X58672570Y-48810500D01*
X59908875Y-48810500D01*
X59978500Y-48740875D01*
X59978500Y-47991500D01*
X60421500Y-47991500D01*
X60421500Y-48740875D01*
X60491125Y-48810500D01*
X61727430Y-48810500D01*
X61781236Y-48799797D01*
X61831919Y-48778803D01*
X61877534Y-48748325D01*
X61916325Y-48709533D01*
X61946804Y-48663919D01*
X61967797Y-48613235D01*
X61978500Y-48559430D01*
X61978500Y-48061125D01*
X61908875Y-47991500D01*
X60421500Y-47991500D01*
X59978500Y-47991500D01*
X58491125Y-47991500D01*
X58421500Y-48061125D01*
X58260500Y-48061125D01*
X58260500Y-46980570D01*
X58421500Y-46980570D01*
X58421500Y-47478875D01*
X58491125Y-47548500D01*
X59978500Y-47548500D01*
X59978500Y-46799125D01*
X60421500Y-46799125D01*
X60421500Y-47548500D01*
X61908875Y-47548500D01*
X61978500Y-47478875D01*
X61978500Y-46980570D01*
X61967797Y-46926765D01*
X61946804Y-46876081D01*
X61916325Y-46830467D01*
X61877534Y-46791675D01*
X61831919Y-46761197D01*
X61781236Y-46740203D01*
X61727430Y-46729500D01*
X60491125Y-46729500D01*
X60421500Y-46799125D01*
X59978500Y-46799125D01*
X59908875Y-46729500D01*
X58672570Y-46729500D01*
X58618764Y-46740203D01*
X58568081Y-46761197D01*
X58522466Y-46791675D01*
X58483675Y-46830467D01*
X58453196Y-46876081D01*
X58432203Y-46926765D01*
X58421500Y-46980570D01*
X58260500Y-46980570D01*
X58260500Y-45521125D01*
X58421500Y-45521125D01*
X58421500Y-46019430D01*
X58432203Y-46073235D01*
X58453196Y-46123919D01*
X58483675Y-46169533D01*
X58522466Y-46208325D01*
X58568081Y-46238803D01*
X58618764Y-46259797D01*
X58672570Y-46270500D01*
X59908875Y-46270500D01*
X59978500Y-46200875D01*
X59978500Y-45451500D01*
X60421500Y-45451500D01*
X60421500Y-46200875D01*
X60491125Y-46270500D01*
X61727430Y-46270500D01*
X61781236Y-46259797D01*
X61831919Y-46238803D01*
X61877534Y-46208325D01*
X61916325Y-46169533D01*
X61940619Y-46133174D01*
X62521500Y-46133174D01*
X62521500Y-46266826D01*
X62547574Y-46397911D01*
X62598721Y-46521390D01*
X62672975Y-46632519D01*
X62767481Y-46727025D01*
X62878610Y-46801279D01*
X63002089Y-46852426D01*
X63133174Y-46878500D01*
X63266826Y-46878500D01*
X63397911Y-46852426D01*
X63521390Y-46801279D01*
X63632519Y-46727025D01*
X63727025Y-46632519D01*
X63801279Y-46521390D01*
X63852426Y-46397911D01*
X63878500Y-46266826D01*
X63878500Y-46133174D01*
X63852426Y-46002089D01*
X63801279Y-45878610D01*
X63727025Y-45767481D01*
X63632519Y-45672975D01*
X63578500Y-45636881D01*
X63578500Y-44736779D01*
X66064902Y-42250378D01*
X66120823Y-42280268D01*
X66336109Y-42345575D01*
X66503893Y-42362100D01*
X66616107Y-42362100D01*
X66783891Y-42345575D01*
X66999177Y-42280268D01*
X67197587Y-42174216D01*
X67371494Y-42031494D01*
X67441500Y-41946191D01*
X67441500Y-42343221D01*
X67055098Y-42729623D01*
X66999177Y-42699732D01*
X66783891Y-42634425D01*
X66616107Y-42617900D01*
X66503893Y-42617900D01*
X66336109Y-42634425D01*
X66120823Y-42699732D01*
X65922413Y-42805784D01*
X65748506Y-42948506D01*
X65605784Y-43122413D01*
X65499732Y-43320823D01*
X65434425Y-43536109D01*
X65412374Y-43760000D01*
X65434425Y-43983891D01*
X65499732Y-44199177D01*
X65529622Y-44255098D01*
X64963221Y-44821500D01*
X64963119Y-44821500D01*
X64927025Y-44767481D01*
X64832519Y-44672975D01*
X64721390Y-44598721D01*
X64597911Y-44547574D01*
X64466826Y-44521500D01*
X64333174Y-44521500D01*
X64202089Y-44547574D01*
X64078610Y-44598721D01*
X63967481Y-44672975D01*
X63872975Y-44767481D01*
X63798721Y-44878610D01*
X63747574Y-45002089D01*
X63721500Y-45133174D01*
X63721500Y-45266826D01*
X63747574Y-45397911D01*
X63798721Y-45521390D01*
X63872975Y-45632519D01*
X63967481Y-45727025D01*
X64078610Y-45801279D01*
X64202089Y-45852426D01*
X64333174Y-45878500D01*
X64466826Y-45878500D01*
X64597911Y-45852426D01*
X64721390Y-45801279D01*
X64832519Y-45727025D01*
X64927025Y-45632519D01*
X64963119Y-45578500D01*
X65101410Y-45578500D01*
X65120000Y-45580331D01*
X65138590Y-45578500D01*
X65194199Y-45573023D01*
X65265546Y-45551380D01*
X65331301Y-45516234D01*
X65388935Y-45468935D01*
X65400793Y-45454486D01*
X66064902Y-44790378D01*
X66120823Y-44820268D01*
X66336109Y-44885575D01*
X66503893Y-44902100D01*
X66616107Y-44902100D01*
X66783891Y-44885575D01*
X66999177Y-44820268D01*
X67197587Y-44714216D01*
X67371494Y-44571494D01*
X67514216Y-44397587D01*
X67620268Y-44199177D01*
X67685575Y-43983891D01*
X67707626Y-43760000D01*
X67685575Y-43536109D01*
X67620268Y-43320823D01*
X67590377Y-43264902D01*
X68074487Y-42780792D01*
X68088935Y-42768935D01*
X68136234Y-42711301D01*
X68171380Y-42645546D01*
X68193023Y-42574199D01*
X68198500Y-42518590D01*
X68198500Y-42518589D01*
X68200331Y-42500001D01*
X68198500Y-42481411D01*
X68198500Y-42297570D01*
X71096500Y-42297570D01*
X71096500Y-42508875D01*
X71166125Y-42578500D01*
X71593750Y-42578500D01*
X71593750Y-42116125D01*
X72031250Y-42116125D01*
X72031250Y-42578500D01*
X72458875Y-42578500D01*
X72493625Y-42543750D01*
X72670153Y-42543750D01*
X72670153Y-43056250D01*
X72679733Y-43153521D01*
X72708106Y-43247055D01*
X72754182Y-43333256D01*
X72816189Y-43408811D01*
X72891744Y-43470818D01*
X72977945Y-43516894D01*
X73071479Y-43545267D01*
X73168750Y-43554847D01*
X73606250Y-43554847D01*
X73703521Y-43545267D01*
X73797055Y-43516894D01*
X73883256Y-43470818D01*
X73958811Y-43408811D01*
X74020818Y-43333256D01*
X74066894Y-43247055D01*
X74095267Y-43153521D01*
X74103641Y-43068500D01*
X74360550Y-43068500D01*
X74407920Y-43182862D01*
X74521791Y-43353280D01*
X74666720Y-43498209D01*
X74837138Y-43612080D01*
X75026497Y-43690515D01*
X75227520Y-43730500D01*
X75432480Y-43730500D01*
X75633503Y-43690515D01*
X75822862Y-43612080D01*
X75993280Y-43498209D01*
X76138209Y-43353280D01*
X76252080Y-43182862D01*
X76330515Y-42993503D01*
X76370500Y-42792480D01*
X76370500Y-42587520D01*
X76330515Y-42386497D01*
X76252080Y-42197138D01*
X76138209Y-42026720D01*
X75993280Y-41881791D01*
X75822862Y-41767920D01*
X75633503Y-41689485D01*
X75432480Y-41649500D01*
X75227520Y-41649500D01*
X75026497Y-41689485D01*
X74837138Y-41767920D01*
X74666720Y-41881791D01*
X74521791Y-42026720D01*
X74407920Y-42197138D01*
X74360550Y-42311500D01*
X74044741Y-42311500D01*
X74020818Y-42266744D01*
X73958811Y-42191189D01*
X73883256Y-42129182D01*
X73797055Y-42083106D01*
X73703521Y-42054733D01*
X73606250Y-42045153D01*
X73168750Y-42045153D01*
X73071479Y-42054733D01*
X72977945Y-42083106D01*
X72891744Y-42129182D01*
X72816189Y-42191189D01*
X72754182Y-42266744D01*
X72708106Y-42352945D01*
X72679733Y-42446479D01*
X72670153Y-42543750D01*
X72493625Y-42543750D01*
X72528500Y-42508875D01*
X72528500Y-42297570D01*
X72517797Y-42243765D01*
X72496804Y-42193081D01*
X72466325Y-42147467D01*
X72427534Y-42108675D01*
X72381919Y-42078197D01*
X72331236Y-42057203D01*
X72277430Y-42046500D01*
X72100875Y-42046500D01*
X72031250Y-42116125D01*
X71593750Y-42116125D01*
X71524125Y-42046500D01*
X71347570Y-42046500D01*
X71293764Y-42057203D01*
X71243081Y-42078197D01*
X71197466Y-42108675D01*
X71158675Y-42147467D01*
X71128196Y-42193081D01*
X71107203Y-42243765D01*
X71096500Y-42297570D01*
X68198500Y-42297570D01*
X68198500Y-41916761D01*
X68325719Y-42059587D01*
X68504392Y-42194509D01*
X68705954Y-42291981D01*
X68878500Y-42270801D01*
X68878500Y-41441500D01*
X69321500Y-41441500D01*
X69321500Y-42270801D01*
X69494046Y-42291981D01*
X69695608Y-42194509D01*
X69874281Y-42059587D01*
X70023199Y-41892400D01*
X70136639Y-41699373D01*
X70171971Y-41614044D01*
X70149352Y-41441500D01*
X69321500Y-41441500D01*
X68878500Y-41441500D01*
X68858500Y-41441500D01*
X68858500Y-40998500D01*
X68878500Y-40998500D01*
X68878500Y-40169199D01*
X69321500Y-40169199D01*
X69321500Y-40998500D01*
X70149352Y-40998500D01*
X70171971Y-40825956D01*
X70136639Y-40740627D01*
X70023199Y-40547600D01*
X69972896Y-40491125D01*
X71096500Y-40491125D01*
X71096500Y-40702430D01*
X71107203Y-40756235D01*
X71128196Y-40806919D01*
X71158675Y-40852533D01*
X71197466Y-40891325D01*
X71243081Y-40921803D01*
X71293764Y-40942797D01*
X71347570Y-40953500D01*
X71524125Y-40953500D01*
X71593750Y-40883875D01*
X71593750Y-40421500D01*
X72031250Y-40421500D01*
X72031250Y-40883875D01*
X72100875Y-40953500D01*
X72277430Y-40953500D01*
X72331236Y-40942797D01*
X72381919Y-40921803D01*
X72427534Y-40891325D01*
X72466325Y-40852533D01*
X72496804Y-40806919D01*
X72517797Y-40756235D01*
X72528500Y-40702430D01*
X72528500Y-40491125D01*
X72458875Y-40421500D01*
X72031250Y-40421500D01*
X71593750Y-40421500D01*
X71166125Y-40421500D01*
X71096500Y-40491125D01*
X69972896Y-40491125D01*
X69874281Y-40380413D01*
X69695608Y-40245491D01*
X69494046Y-40148019D01*
X69321500Y-40169199D01*
X68878500Y-40169199D01*
X68705954Y-40148019D01*
X68504392Y-40245491D01*
X68325719Y-40380413D01*
X68198500Y-40523239D01*
X68198500Y-40086779D01*
X68587709Y-39697570D01*
X71096500Y-39697570D01*
X71096500Y-39908875D01*
X71166125Y-39978500D01*
X71593750Y-39978500D01*
X71593750Y-39516125D01*
X72031250Y-39516125D01*
X72031250Y-39978500D01*
X72458875Y-39978500D01*
X72528500Y-39908875D01*
X72528500Y-39697570D01*
X72517797Y-39643765D01*
X72496804Y-39593081D01*
X72466325Y-39547467D01*
X72427534Y-39508675D01*
X72381919Y-39478197D01*
X72331236Y-39457203D01*
X72277430Y-39446500D01*
X72100875Y-39446500D01*
X72031250Y-39516125D01*
X71593750Y-39516125D01*
X71524125Y-39446500D01*
X71347570Y-39446500D01*
X71293764Y-39457203D01*
X71243081Y-39478197D01*
X71197466Y-39508675D01*
X71158675Y-39547467D01*
X71128196Y-39593081D01*
X71107203Y-39643765D01*
X71096500Y-39697570D01*
X68587709Y-39697570D01*
X69056780Y-39228500D01*
X74836270Y-39228500D01*
X74666720Y-39341791D01*
X74521791Y-39486720D01*
X74407920Y-39657138D01*
X74360550Y-39771500D01*
X74072523Y-39771500D01*
X74066894Y-39752945D01*
X74020818Y-39666744D01*
X73958811Y-39591189D01*
X73883256Y-39529182D01*
X73797055Y-39483106D01*
X73703521Y-39454733D01*
X73606250Y-39445153D01*
X73168750Y-39445153D01*
X73071479Y-39454733D01*
X72977945Y-39483106D01*
X72891744Y-39529182D01*
X72816189Y-39591189D01*
X72754182Y-39666744D01*
X72708106Y-39752945D01*
X72679733Y-39846479D01*
X72670153Y-39943750D01*
X72670153Y-40456250D01*
X72679733Y-40553521D01*
X72708106Y-40647055D01*
X72754182Y-40733256D01*
X72816189Y-40808811D01*
X72891744Y-40870818D01*
X72977945Y-40916894D01*
X73071479Y-40945267D01*
X73168750Y-40954847D01*
X73606250Y-40954847D01*
X73703521Y-40945267D01*
X73797055Y-40916894D01*
X73883256Y-40870818D01*
X73958811Y-40808811D01*
X74020818Y-40733256D01*
X74066894Y-40647055D01*
X74095267Y-40553521D01*
X74097731Y-40528500D01*
X74360550Y-40528500D01*
X74407920Y-40642862D01*
X74521791Y-40813280D01*
X74666720Y-40958209D01*
X74837138Y-41072080D01*
X75026497Y-41150515D01*
X75227520Y-41190500D01*
X75432480Y-41190500D01*
X75633503Y-41150515D01*
X75822862Y-41072080D01*
X75993280Y-40958209D01*
X76138209Y-40813280D01*
X76252080Y-40642862D01*
X76330515Y-40453503D01*
X76370500Y-40252480D01*
X76370500Y-40047520D01*
X76330515Y-39846497D01*
X76252080Y-39657138D01*
X76138209Y-39486720D01*
X75993280Y-39341791D01*
X75823730Y-39228500D01*
X77376270Y-39228500D01*
X77206720Y-39341791D01*
X77061791Y-39486720D01*
X76947920Y-39657138D01*
X76869485Y-39846497D01*
X76829500Y-40047520D01*
X76829500Y-40252480D01*
X76869485Y-40453503D01*
X76947920Y-40642862D01*
X77061791Y-40813280D01*
X77206720Y-40958209D01*
X77377138Y-41072080D01*
X77441501Y-41098740D01*
X77441500Y-41741260D01*
X77377138Y-41767920D01*
X77206720Y-41881791D01*
X77061791Y-42026720D01*
X76947920Y-42197138D01*
X76869485Y-42386497D01*
X76829500Y-42587520D01*
X76829500Y-42792480D01*
X76869485Y-42993503D01*
X76947920Y-43182862D01*
X77061791Y-43353280D01*
X77206720Y-43498209D01*
X77377138Y-43612080D01*
X77441500Y-43638740D01*
X77441501Y-44645153D01*
X77168750Y-44645153D01*
X77071479Y-44654733D01*
X76977945Y-44683106D01*
X76891744Y-44729182D01*
X76816189Y-44791189D01*
X76754182Y-44866744D01*
X76708106Y-44952945D01*
X76679733Y-45046479D01*
X76670153Y-45143750D01*
X76670153Y-45511357D01*
X76637780Y-45543730D01*
X76637775Y-45543734D01*
X76529847Y-45651662D01*
X76529847Y-45143750D01*
X76520267Y-45046479D01*
X76491894Y-44952945D01*
X76445818Y-44866744D01*
X76383811Y-44791189D01*
X76308256Y-44729182D01*
X76222055Y-44683106D01*
X76128521Y-44654733D01*
X76031250Y-44645153D01*
X75593750Y-44645153D01*
X75496479Y-44654733D01*
X75402945Y-44683106D01*
X75316744Y-44729182D01*
X75241189Y-44791189D01*
X75179182Y-44866744D01*
X75133106Y-44952945D01*
X75104733Y-45046479D01*
X75095153Y-45143750D01*
X75095153Y-45293552D01*
X75044331Y-45217491D01*
X74949825Y-45122985D01*
X74838696Y-45048731D01*
X74715217Y-44997584D01*
X74584132Y-44971510D01*
X74450480Y-44971510D01*
X74386760Y-44984184D01*
X72908089Y-43505514D01*
X72896231Y-43491065D01*
X72838597Y-43443766D01*
X72772842Y-43408620D01*
X72701495Y-43386977D01*
X72645886Y-43381500D01*
X72627296Y-43379669D01*
X72608706Y-43381500D01*
X72507332Y-43381500D01*
X72517797Y-43356235D01*
X72528500Y-43302430D01*
X72528500Y-43091125D01*
X72458875Y-43021500D01*
X72031250Y-43021500D01*
X72031250Y-43041500D01*
X71593750Y-43041500D01*
X71593750Y-43021500D01*
X71166125Y-43021500D01*
X71096500Y-43091125D01*
X71096500Y-43302430D01*
X71107203Y-43356235D01*
X71117668Y-43381500D01*
X70178674Y-43381500D01*
X70160268Y-43320823D01*
X70054216Y-43122413D01*
X69911494Y-42948506D01*
X69737587Y-42805784D01*
X69539177Y-42699732D01*
X69323891Y-42634425D01*
X69156107Y-42617900D01*
X69043893Y-42617900D01*
X68876109Y-42634425D01*
X68660823Y-42699732D01*
X68462413Y-42805784D01*
X68288506Y-42948506D01*
X68145784Y-43122413D01*
X68039732Y-43320823D01*
X67974425Y-43536109D01*
X67952374Y-43760000D01*
X67974425Y-43983891D01*
X68039732Y-44199177D01*
X68145784Y-44397587D01*
X68288506Y-44571494D01*
X68349438Y-44621500D01*
X67878590Y-44621500D01*
X67860000Y-44619669D01*
X67785801Y-44626977D01*
X67714453Y-44648620D01*
X67704018Y-44654198D01*
X67648699Y-44683766D01*
X67591065Y-44731065D01*
X67579214Y-44745506D01*
X67055098Y-45269622D01*
X66999177Y-45239732D01*
X66783891Y-45174425D01*
X66616107Y-45157900D01*
X66503893Y-45157900D01*
X66336109Y-45174425D01*
X66120823Y-45239732D01*
X65922413Y-45345784D01*
X65748506Y-45488506D01*
X65605784Y-45662413D01*
X65499732Y-45860823D01*
X65434425Y-46076109D01*
X65412374Y-46300000D01*
X65434425Y-46523891D01*
X65499732Y-46739177D01*
X65605784Y-46937587D01*
X65748506Y-47111494D01*
X65922413Y-47254216D01*
X66120823Y-47360268D01*
X66336109Y-47425575D01*
X66503893Y-47442100D01*
X66616107Y-47442100D01*
X66783891Y-47425575D01*
X66999177Y-47360268D01*
X67197587Y-47254216D01*
X67371494Y-47111494D01*
X67514216Y-46937587D01*
X67620268Y-46739177D01*
X67685575Y-46523891D01*
X67707626Y-46300000D01*
X67685575Y-46076109D01*
X67620268Y-45860823D01*
X67590378Y-45804902D01*
X67956553Y-45438727D01*
X67956553Y-47163600D01*
X67961930Y-47218195D01*
X67977855Y-47270693D01*
X68003716Y-47319075D01*
X68038518Y-47361482D01*
X68080925Y-47396284D01*
X68129307Y-47422145D01*
X68181805Y-47438070D01*
X68236400Y-47443447D01*
X69963600Y-47443447D01*
X70018195Y-47438070D01*
X70070693Y-47422145D01*
X70119075Y-47396284D01*
X70161482Y-47361482D01*
X70196284Y-47319075D01*
X70222145Y-47270693D01*
X70238070Y-47218195D01*
X70243447Y-47163600D01*
X70243447Y-45436400D01*
X70238070Y-45381805D01*
X70237067Y-45378500D01*
X71520290Y-45378500D01*
X71522975Y-45382519D01*
X71617481Y-45477025D01*
X71728610Y-45551279D01*
X71852089Y-45602426D01*
X71983174Y-45628500D01*
X72116826Y-45628500D01*
X72247911Y-45602426D01*
X72371390Y-45551279D01*
X72482519Y-45477025D01*
X72577025Y-45382519D01*
X72651279Y-45271390D01*
X72702426Y-45147911D01*
X72728500Y-45016826D01*
X72728500Y-44883174D01*
X72702426Y-44752089D01*
X72651279Y-44628610D01*
X72577025Y-44517481D01*
X72482519Y-44422975D01*
X72371390Y-44348721D01*
X72247911Y-44297574D01*
X72116826Y-44271500D01*
X71983174Y-44271500D01*
X71852089Y-44297574D01*
X71728610Y-44348721D01*
X71617481Y-44422975D01*
X71522975Y-44517481D01*
X71453472Y-44621500D01*
X69850562Y-44621500D01*
X69911494Y-44571494D01*
X70054216Y-44397587D01*
X70160268Y-44199177D01*
X70178674Y-44138500D01*
X72470517Y-44138500D01*
X73851480Y-45519464D01*
X73838806Y-45583184D01*
X73838806Y-45716836D01*
X73864880Y-45847921D01*
X73916027Y-45971400D01*
X73990281Y-46082529D01*
X74084787Y-46177035D01*
X74195916Y-46251289D01*
X74319395Y-46302436D01*
X74450480Y-46328510D01*
X74584132Y-46328510D01*
X74715217Y-46302436D01*
X74838696Y-46251289D01*
X74949825Y-46177035D01*
X74951501Y-46175359D01*
X74951501Y-46800550D01*
X74837138Y-46847920D01*
X74666720Y-46961791D01*
X74521791Y-47106720D01*
X74407920Y-47277138D01*
X74360550Y-47391500D01*
X73603590Y-47391500D01*
X73585000Y-47389669D01*
X73510801Y-47396977D01*
X73439453Y-47418620D01*
X73416549Y-47430862D01*
X73373699Y-47453766D01*
X73316065Y-47501065D01*
X73304212Y-47515508D01*
X68374568Y-52445153D01*
X67570000Y-52445153D01*
X67515405Y-52450530D01*
X67462907Y-52466455D01*
X67414525Y-52492316D01*
X67372118Y-52527118D01*
X67337316Y-52569525D01*
X67311455Y-52617907D01*
X67295530Y-52670405D01*
X67290153Y-52725000D01*
X67290153Y-53375000D01*
X67295530Y-53429595D01*
X67311455Y-53482093D01*
X67337316Y-53530475D01*
X67372118Y-53572882D01*
X67414525Y-53607684D01*
X67462907Y-53633545D01*
X67515405Y-53649470D01*
X67570000Y-53654847D01*
X68630000Y-53654847D01*
X68684595Y-53649470D01*
X68737093Y-53633545D01*
X68785475Y-53607684D01*
X68821618Y-53578023D01*
X68832203Y-53631236D01*
X68853197Y-53681919D01*
X68883675Y-53727534D01*
X68922467Y-53766325D01*
X68968081Y-53796804D01*
X69018765Y-53817797D01*
X69072570Y-53828500D01*
X69508875Y-53828500D01*
X69578500Y-53758875D01*
X69578500Y-53284000D01*
X70021500Y-53284000D01*
X70021500Y-53758875D01*
X70091125Y-53828500D01*
X70527430Y-53828500D01*
X70581235Y-53817797D01*
X70631919Y-53796804D01*
X70677533Y-53766325D01*
X70716325Y-53727534D01*
X70746803Y-53681919D01*
X70767797Y-53631236D01*
X70778500Y-53577430D01*
X70778500Y-53353625D01*
X70708875Y-53284000D01*
X70021500Y-53284000D01*
X69578500Y-53284000D01*
X69558500Y-53284000D01*
X69558500Y-53091125D01*
X71096500Y-53091125D01*
X71096500Y-53302430D01*
X71107203Y-53356235D01*
X71128196Y-53406919D01*
X71158675Y-53452533D01*
X71197466Y-53491325D01*
X71243081Y-53521803D01*
X71293764Y-53542797D01*
X71347570Y-53553500D01*
X71524125Y-53553500D01*
X71593750Y-53483875D01*
X71593750Y-53021500D01*
X72031250Y-53021500D01*
X72031250Y-53483875D01*
X72100875Y-53553500D01*
X72277430Y-53553500D01*
X72331236Y-53542797D01*
X72381919Y-53521803D01*
X72427534Y-53491325D01*
X72466325Y-53452533D01*
X72496804Y-53406919D01*
X72517797Y-53356235D01*
X72528500Y-53302430D01*
X72528500Y-53091125D01*
X72458875Y-53021500D01*
X72031250Y-53021500D01*
X71593750Y-53021500D01*
X71166125Y-53021500D01*
X71096500Y-53091125D01*
X69558500Y-53091125D01*
X69558500Y-52841000D01*
X69578500Y-52841000D01*
X69578500Y-52366125D01*
X70021500Y-52366125D01*
X70021500Y-52841000D01*
X70708875Y-52841000D01*
X70778500Y-52771375D01*
X70778500Y-52547570D01*
X70767797Y-52493764D01*
X70746803Y-52443081D01*
X70716325Y-52397466D01*
X70677533Y-52358675D01*
X70631919Y-52328196D01*
X70581235Y-52307203D01*
X70532809Y-52297570D01*
X71096500Y-52297570D01*
X71096500Y-52508875D01*
X71166125Y-52578500D01*
X71593750Y-52578500D01*
X71593750Y-52116125D01*
X72031250Y-52116125D01*
X72031250Y-52578500D01*
X72458875Y-52578500D01*
X72528500Y-52508875D01*
X72528500Y-52297570D01*
X72517797Y-52243765D01*
X72496804Y-52193081D01*
X72466325Y-52147467D01*
X72427534Y-52108675D01*
X72381919Y-52078197D01*
X72331236Y-52057203D01*
X72277430Y-52046500D01*
X72100875Y-52046500D01*
X72031250Y-52116125D01*
X71593750Y-52116125D01*
X71524125Y-52046500D01*
X71347570Y-52046500D01*
X71293764Y-52057203D01*
X71243081Y-52078197D01*
X71197466Y-52108675D01*
X71158675Y-52147467D01*
X71128196Y-52193081D01*
X71107203Y-52243765D01*
X71096500Y-52297570D01*
X70532809Y-52297570D01*
X70527430Y-52296500D01*
X70091125Y-52296500D01*
X70021500Y-52366125D01*
X69578500Y-52366125D01*
X69551327Y-52338952D01*
X73741780Y-48148500D01*
X74360550Y-48148500D01*
X74407920Y-48262862D01*
X74521791Y-48433280D01*
X74666720Y-48578209D01*
X74837138Y-48692080D01*
X75026497Y-48770515D01*
X75227520Y-48810500D01*
X75432480Y-48810500D01*
X75633503Y-48770515D01*
X75822862Y-48692080D01*
X75993280Y-48578209D01*
X76138209Y-48433280D01*
X76171500Y-48383457D01*
X76171500Y-49018962D01*
X76169428Y-49040000D01*
X76171500Y-49061038D01*
X76171500Y-49061047D01*
X76177700Y-49124000D01*
X76202202Y-49204772D01*
X76241992Y-49279213D01*
X76295539Y-49344461D01*
X76311890Y-49357880D01*
X76896145Y-49942135D01*
X76869485Y-50006497D01*
X76829500Y-50207520D01*
X76829500Y-50412480D01*
X76869485Y-50613503D01*
X76947920Y-50802862D01*
X77061791Y-50973280D01*
X77206720Y-51118209D01*
X77377138Y-51232080D01*
X77566497Y-51310515D01*
X77767520Y-51350500D01*
X77972480Y-51350500D01*
X78173503Y-51310515D01*
X78237865Y-51283855D01*
X78771501Y-51817492D01*
X78771501Y-52326339D01*
X78678209Y-52186720D01*
X78533280Y-52041791D01*
X78362862Y-51927920D01*
X78173503Y-51849485D01*
X77972480Y-51809500D01*
X77767520Y-51809500D01*
X77566497Y-51849485D01*
X77377138Y-51927920D01*
X77206720Y-52041791D01*
X77061791Y-52186720D01*
X76947920Y-52357138D01*
X76869485Y-52546497D01*
X76829500Y-52747520D01*
X76829500Y-52952480D01*
X76869485Y-53153503D01*
X76947920Y-53342862D01*
X77061791Y-53513280D01*
X77206720Y-53658209D01*
X77377138Y-53772080D01*
X77566497Y-53850515D01*
X77671998Y-53871500D01*
X75528002Y-53871500D01*
X75633503Y-53850515D01*
X75822862Y-53772080D01*
X75993280Y-53658209D01*
X76138209Y-53513280D01*
X76252080Y-53342862D01*
X76330515Y-53153503D01*
X76370500Y-52952480D01*
X76370500Y-52747520D01*
X76330515Y-52546497D01*
X76252080Y-52357138D01*
X76138209Y-52186720D01*
X75993280Y-52041791D01*
X75822862Y-51927920D01*
X75708500Y-51880550D01*
X75708500Y-51279450D01*
X75822862Y-51232080D01*
X75993280Y-51118209D01*
X76138209Y-50973280D01*
X76252080Y-50802862D01*
X76330515Y-50613503D01*
X76370500Y-50412480D01*
X76370500Y-50207520D01*
X76330515Y-50006497D01*
X76252080Y-49817138D01*
X76138209Y-49646720D01*
X75993280Y-49501791D01*
X75822862Y-49387920D01*
X75633503Y-49309485D01*
X75432480Y-49269500D01*
X75227520Y-49269500D01*
X75026497Y-49309485D01*
X74837138Y-49387920D01*
X74666720Y-49501791D01*
X74521791Y-49646720D01*
X74407920Y-49817138D01*
X74329485Y-50006497D01*
X74289500Y-50207520D01*
X74289500Y-50412480D01*
X74329485Y-50613503D01*
X74407920Y-50802862D01*
X74521791Y-50973280D01*
X74666720Y-51118209D01*
X74837138Y-51232080D01*
X74951501Y-51279451D01*
X74951501Y-51369031D01*
X74951500Y-51369041D01*
X74951500Y-51880550D01*
X74837138Y-51927920D01*
X74666720Y-52041791D01*
X74521791Y-52186720D01*
X74407920Y-52357138D01*
X74381260Y-52421500D01*
X74087690Y-52421500D01*
X74066894Y-52352945D01*
X74020818Y-52266744D01*
X73958811Y-52191189D01*
X73883256Y-52129182D01*
X73797055Y-52083106D01*
X73703521Y-52054733D01*
X73606250Y-52045153D01*
X73168750Y-52045153D01*
X73071479Y-52054733D01*
X72977945Y-52083106D01*
X72891744Y-52129182D01*
X72816189Y-52191189D01*
X72754182Y-52266744D01*
X72708106Y-52352945D01*
X72679733Y-52446479D01*
X72670153Y-52543750D01*
X72670153Y-53056250D01*
X72679733Y-53153521D01*
X72708106Y-53247055D01*
X72754182Y-53333256D01*
X72816189Y-53408811D01*
X72891744Y-53470818D01*
X72977945Y-53516894D01*
X73071479Y-53545267D01*
X73168750Y-53554847D01*
X73606250Y-53554847D01*
X73703521Y-53545267D01*
X73797055Y-53516894D01*
X73883256Y-53470818D01*
X73958811Y-53408811D01*
X74020818Y-53333256D01*
X74066894Y-53247055D01*
X74087690Y-53178500D01*
X74339839Y-53178500D01*
X74407920Y-53342862D01*
X74521791Y-53513280D01*
X74666720Y-53658209D01*
X74837138Y-53772080D01*
X75026497Y-53850515D01*
X75131998Y-53871500D01*
X70458537Y-53871500D01*
X70437499Y-53869428D01*
X70416461Y-53871500D01*
X70416452Y-53871500D01*
X70353499Y-53877700D01*
X70272727Y-53902202D01*
X70206690Y-53937500D01*
X70198286Y-53941992D01*
X70149387Y-53982122D01*
X70149384Y-53982125D01*
X70133039Y-53995539D01*
X70119625Y-54011884D01*
X69961356Y-54170153D01*
X69343750Y-54170153D01*
X69241601Y-54180214D01*
X69143378Y-54210009D01*
X69052855Y-54258395D01*
X68973511Y-54323511D01*
X68908395Y-54402855D01*
X68867721Y-54478949D01*
X68862684Y-54469525D01*
X68827882Y-54427118D01*
X68785475Y-54392316D01*
X68737093Y-54366455D01*
X68684595Y-54350530D01*
X68630000Y-54345153D01*
X67570000Y-54345153D01*
X67515405Y-54350530D01*
X67462907Y-54366455D01*
X67414525Y-54392316D01*
X67372118Y-54427118D01*
X67337316Y-54469525D01*
X67311455Y-54517907D01*
X67295530Y-54570405D01*
X67290153Y-54625000D01*
X67290153Y-55275000D01*
X67295530Y-55329595D01*
X67311455Y-55382093D01*
X67337316Y-55430475D01*
X67372118Y-55472882D01*
X67414525Y-55507684D01*
X67462907Y-55533545D01*
X67515405Y-55549470D01*
X67570000Y-55554847D01*
X68630000Y-55554847D01*
X68684595Y-55549470D01*
X68737093Y-55533545D01*
X68785475Y-55507684D01*
X68827882Y-55472882D01*
X68862684Y-55430475D01*
X68874403Y-55408551D01*
X68908395Y-55472145D01*
X68973511Y-55551489D01*
X69052855Y-55616605D01*
X69143378Y-55664991D01*
X69241601Y-55694786D01*
X69343750Y-55704847D01*
X70256250Y-55704847D01*
X70358399Y-55694786D01*
X70456622Y-55664991D01*
X70547145Y-55616605D01*
X70626489Y-55551489D01*
X70691605Y-55472145D01*
X70739991Y-55381622D01*
X70769786Y-55283399D01*
X70779847Y-55181250D01*
X70779847Y-54728500D01*
X78528962Y-54728500D01*
X78550000Y-54730572D01*
X78571038Y-54728500D01*
X78571048Y-54728500D01*
X78634001Y-54722300D01*
X78714773Y-54697798D01*
X78789214Y-54658008D01*
X78854461Y-54604461D01*
X78867880Y-54588110D01*
X79488111Y-53967879D01*
X79504461Y-53954461D01*
X79527616Y-53926247D01*
X79558009Y-53889214D01*
X79585650Y-53837500D01*
X79597798Y-53814773D01*
X79622300Y-53734001D01*
X79628500Y-53671048D01*
X79628500Y-53671046D01*
X79630573Y-53650000D01*
X79628500Y-53628954D01*
X79628500Y-51661037D01*
X79630572Y-51639999D01*
X79628500Y-51618961D01*
X79628500Y-51618952D01*
X79622300Y-51555999D01*
X79597798Y-51475227D01*
X79558008Y-51400786D01*
X79517878Y-51351887D01*
X79517875Y-51351884D01*
X79504461Y-51335539D01*
X79488116Y-51322125D01*
X79115991Y-50950000D01*
X90845153Y-50950000D01*
X90845153Y-52150000D01*
X90855334Y-52253368D01*
X90885485Y-52352764D01*
X90934448Y-52444367D01*
X91000342Y-52524658D01*
X91080633Y-52590552D01*
X91172236Y-52639515D01*
X91271632Y-52669666D01*
X91375000Y-52679847D01*
X92825000Y-52679847D01*
X92928368Y-52669666D01*
X93027764Y-52639515D01*
X93119367Y-52590552D01*
X93199658Y-52524658D01*
X93265552Y-52444367D01*
X93314515Y-52352764D01*
X93344666Y-52253368D01*
X93354847Y-52150000D01*
X93354847Y-50950000D01*
X93344666Y-50846632D01*
X93314515Y-50747236D01*
X93265552Y-50655633D01*
X93199658Y-50575342D01*
X93119367Y-50509448D01*
X93027764Y-50460485D01*
X92928368Y-50430334D01*
X92825000Y-50420153D01*
X91375000Y-50420153D01*
X91271632Y-50430334D01*
X91172236Y-50460485D01*
X91080633Y-50509448D01*
X91000342Y-50575342D01*
X90934448Y-50655633D01*
X90885485Y-50747236D01*
X90855334Y-50846632D01*
X90845153Y-50950000D01*
X79115991Y-50950000D01*
X78843855Y-50677865D01*
X78870515Y-50613503D01*
X78910500Y-50412480D01*
X78910500Y-50207520D01*
X78870515Y-50006497D01*
X78792080Y-49817138D01*
X78678209Y-49646720D01*
X78533280Y-49501791D01*
X78362862Y-49387920D01*
X78173503Y-49309485D01*
X77972480Y-49269500D01*
X77767520Y-49269500D01*
X77566497Y-49309485D01*
X77502135Y-49336145D01*
X77215990Y-49050000D01*
X90841040Y-49050000D01*
X90862829Y-49271225D01*
X90927358Y-49483948D01*
X91032147Y-49679994D01*
X91173169Y-49851831D01*
X91345006Y-49992853D01*
X91541052Y-50097642D01*
X91753775Y-50162171D01*
X91919564Y-50178500D01*
X92280436Y-50178500D01*
X92446225Y-50162171D01*
X92658948Y-50097642D01*
X92854994Y-49992853D01*
X93026831Y-49851831D01*
X93167853Y-49679994D01*
X93272642Y-49483948D01*
X93337171Y-49271225D01*
X93358960Y-49050000D01*
X93337171Y-48828775D01*
X93272642Y-48616052D01*
X93167853Y-48420006D01*
X93026831Y-48248169D01*
X92854994Y-48107147D01*
X92658948Y-48002358D01*
X92446225Y-47937829D01*
X92280436Y-47921500D01*
X91919564Y-47921500D01*
X91753775Y-47937829D01*
X91541052Y-48002358D01*
X91345006Y-48107147D01*
X91173169Y-48248169D01*
X91032147Y-48420006D01*
X90927358Y-48616052D01*
X90862829Y-48828775D01*
X90841040Y-49050000D01*
X77215990Y-49050000D01*
X77028500Y-48862510D01*
X77028500Y-48383457D01*
X77061791Y-48433280D01*
X77206720Y-48578209D01*
X77377138Y-48692080D01*
X77566497Y-48770515D01*
X77767520Y-48810500D01*
X77972480Y-48810500D01*
X78173503Y-48770515D01*
X78362862Y-48692080D01*
X78533280Y-48578209D01*
X78678209Y-48433280D01*
X78792080Y-48262862D01*
X78870515Y-48073503D01*
X78910500Y-47872480D01*
X78910500Y-47667520D01*
X78870515Y-47466497D01*
X78792080Y-47277138D01*
X78678209Y-47106720D01*
X78533280Y-46961791D01*
X78362862Y-46847920D01*
X78173503Y-46769485D01*
X77972480Y-46729500D01*
X77767520Y-46729500D01*
X77566497Y-46769485D01*
X77377138Y-46847920D01*
X77206720Y-46961791D01*
X77061791Y-47106720D01*
X77028500Y-47156543D01*
X77028500Y-46364990D01*
X77238644Y-46154847D01*
X77606250Y-46154847D01*
X77703521Y-46145267D01*
X77797055Y-46116894D01*
X77883256Y-46070818D01*
X77958811Y-46008811D01*
X78020818Y-45933256D01*
X78066894Y-45847055D01*
X78095267Y-45753521D01*
X78104847Y-45656250D01*
X78104847Y-45288644D01*
X78158115Y-45235375D01*
X78174461Y-45221961D01*
X78187875Y-45205616D01*
X78187878Y-45205613D01*
X78228008Y-45156714D01*
X78234937Y-45143750D01*
X78267798Y-45082273D01*
X78292300Y-45001501D01*
X78298500Y-44938548D01*
X78298500Y-44938539D01*
X78300572Y-44917501D01*
X78298500Y-44896463D01*
X78298500Y-43638740D01*
X78362862Y-43612080D01*
X78533280Y-43498209D01*
X78678209Y-43353280D01*
X78792080Y-43182862D01*
X78870515Y-42993503D01*
X78910500Y-42792480D01*
X78910500Y-42587520D01*
X78870515Y-42386497D01*
X78792080Y-42197138D01*
X78678209Y-42026720D01*
X78533280Y-41881791D01*
X78362862Y-41767920D01*
X78298500Y-41741260D01*
X78298500Y-41098740D01*
X78362862Y-41072080D01*
X78533280Y-40958209D01*
X78678209Y-40813280D01*
X78792080Y-40642862D01*
X78870515Y-40453503D01*
X78910500Y-40252480D01*
X78910500Y-40047520D01*
X78870515Y-39846497D01*
X78792080Y-39657138D01*
X78678209Y-39486720D01*
X78533280Y-39341791D01*
X78363730Y-39228500D01*
X78493221Y-39228500D01*
X86069212Y-46804492D01*
X86081065Y-46818935D01*
X86138699Y-46866234D01*
X86204454Y-46901380D01*
X86254157Y-46916457D01*
X86275800Y-46923023D01*
X86349999Y-46930331D01*
X86368589Y-46928500D01*
X90910538Y-46928500D01*
X90927358Y-46983948D01*
X91032147Y-47179994D01*
X91173169Y-47351831D01*
X91345006Y-47492853D01*
X91541052Y-47597642D01*
X91753775Y-47662171D01*
X91919564Y-47678500D01*
X92280436Y-47678500D01*
X92446225Y-47662171D01*
X92658948Y-47597642D01*
X92854994Y-47492853D01*
X93026831Y-47351831D01*
X93167853Y-47179994D01*
X93272642Y-46983948D01*
X93337171Y-46771225D01*
X93358960Y-46550000D01*
X93337171Y-46328775D01*
X93272642Y-46116052D01*
X93167853Y-45920006D01*
X93026831Y-45748169D01*
X92854994Y-45607147D01*
X92658948Y-45502358D01*
X92446225Y-45437829D01*
X92280436Y-45421500D01*
X91919564Y-45421500D01*
X91753775Y-45437829D01*
X91541052Y-45502358D01*
X91345006Y-45607147D01*
X91173169Y-45748169D01*
X91032147Y-45920006D01*
X90927358Y-46116052D01*
X90910538Y-46171500D01*
X86506780Y-46171500D01*
X84385280Y-44050000D01*
X90841040Y-44050000D01*
X90862829Y-44271225D01*
X90927358Y-44483948D01*
X91032147Y-44679994D01*
X91173169Y-44851831D01*
X91345006Y-44992853D01*
X91541052Y-45097642D01*
X91753775Y-45162171D01*
X91919564Y-45178500D01*
X92280436Y-45178500D01*
X92446225Y-45162171D01*
X92658948Y-45097642D01*
X92854994Y-44992853D01*
X93026831Y-44851831D01*
X93167853Y-44679994D01*
X93272642Y-44483948D01*
X93337171Y-44271225D01*
X93358960Y-44050000D01*
X93337171Y-43828775D01*
X93272642Y-43616052D01*
X93167853Y-43420006D01*
X93026831Y-43248169D01*
X92854994Y-43107147D01*
X92658948Y-43002358D01*
X92446225Y-42937829D01*
X92280436Y-42921500D01*
X91919564Y-42921500D01*
X91753775Y-42937829D01*
X91541052Y-43002358D01*
X91345006Y-43107147D01*
X91173169Y-43248169D01*
X91032147Y-43420006D01*
X90927358Y-43616052D01*
X90862829Y-43828775D01*
X90841040Y-44050000D01*
X84385280Y-44050000D01*
X82277155Y-41941875D01*
X90916725Y-41941875D01*
X91012994Y-42129658D01*
X91144564Y-42306198D01*
X91308048Y-42453678D01*
X91497162Y-42566430D01*
X91704639Y-42640121D01*
X91878500Y-42599369D01*
X91878500Y-41771500D01*
X92321500Y-41771500D01*
X92321500Y-42599369D01*
X92495361Y-42640121D01*
X92702838Y-42566430D01*
X92891952Y-42453678D01*
X93055436Y-42306198D01*
X93187006Y-42129658D01*
X93283275Y-41941875D01*
X93260449Y-41771500D01*
X92321500Y-41771500D01*
X91878500Y-41771500D01*
X90939551Y-41771500D01*
X90916725Y-41941875D01*
X82277155Y-41941875D01*
X81493405Y-41158125D01*
X90916725Y-41158125D01*
X90939551Y-41328500D01*
X91878500Y-41328500D01*
X91878500Y-40500631D01*
X92321500Y-40500631D01*
X92321500Y-41328500D01*
X93260449Y-41328500D01*
X93283275Y-41158125D01*
X93187006Y-40970342D01*
X93055436Y-40793802D01*
X92891952Y-40646322D01*
X92702838Y-40533570D01*
X92495361Y-40459879D01*
X92321500Y-40500631D01*
X91878500Y-40500631D01*
X91704639Y-40459879D01*
X91497162Y-40533570D01*
X91308048Y-40646322D01*
X91144564Y-40793802D01*
X91012994Y-40970342D01*
X90916725Y-41158125D01*
X81493405Y-41158125D01*
X78930793Y-38595514D01*
X78918935Y-38581065D01*
X78861301Y-38533766D01*
X78795546Y-38498620D01*
X78724199Y-38476977D01*
X78668590Y-38471500D01*
X78650000Y-38469669D01*
X78631410Y-38471500D01*
X68918590Y-38471500D01*
X68900000Y-38469669D01*
X68830715Y-38476493D01*
X68825801Y-38476977D01*
X68754454Y-38498620D01*
X68688699Y-38533766D01*
X68631065Y-38581065D01*
X68619212Y-38595508D01*
X67565509Y-39649212D01*
X67551066Y-39661065D01*
X67503767Y-39718699D01*
X67468621Y-39784454D01*
X67446977Y-39855802D01*
X67439669Y-39930000D01*
X67441501Y-39948600D01*
X67441501Y-40493809D01*
X67371494Y-40408506D01*
X67197587Y-40265784D01*
X66999177Y-40159732D01*
X66783891Y-40094425D01*
X66616107Y-40077900D01*
X66503893Y-40077900D01*
X66336109Y-40094425D01*
X66120823Y-40159732D01*
X65922413Y-40265784D01*
X65748506Y-40408506D01*
X65605784Y-40582413D01*
X65499732Y-40780823D01*
X65434425Y-40996109D01*
X65412374Y-41220000D01*
X65434425Y-41443891D01*
X65499732Y-41659177D01*
X65529622Y-41715098D01*
X62945509Y-44299212D01*
X62931066Y-44311065D01*
X62883767Y-44368699D01*
X62854757Y-44422975D01*
X62848621Y-44434454D01*
X62826977Y-44505802D01*
X62819669Y-44580000D01*
X62821501Y-44598600D01*
X62821500Y-45636880D01*
X62767481Y-45672975D01*
X62672975Y-45767481D01*
X62598721Y-45878610D01*
X62547574Y-46002089D01*
X62521500Y-46133174D01*
X61940619Y-46133174D01*
X61946804Y-46123919D01*
X61967797Y-46073235D01*
X61978500Y-46019430D01*
X61978500Y-45521125D01*
X61908875Y-45451500D01*
X60421500Y-45451500D01*
X59978500Y-45451500D01*
X58491125Y-45451500D01*
X58421500Y-45521125D01*
X58260500Y-45521125D01*
X58260500Y-44440570D01*
X58421500Y-44440570D01*
X58421500Y-44938875D01*
X58491125Y-45008500D01*
X59978500Y-45008500D01*
X59978500Y-44259125D01*
X60421500Y-44259125D01*
X60421500Y-45008500D01*
X61908875Y-45008500D01*
X61978500Y-44938875D01*
X61978500Y-44440570D01*
X61967797Y-44386765D01*
X61946804Y-44336081D01*
X61916325Y-44290467D01*
X61877534Y-44251675D01*
X61831919Y-44221197D01*
X61781236Y-44200203D01*
X61727430Y-44189500D01*
X60491125Y-44189500D01*
X60421500Y-44259125D01*
X59978500Y-44259125D01*
X59908875Y-44189500D01*
X58672570Y-44189500D01*
X58618764Y-44200203D01*
X58568081Y-44221197D01*
X58522466Y-44251675D01*
X58483675Y-44290467D01*
X58453196Y-44336081D01*
X58432203Y-44386765D01*
X58421500Y-44440570D01*
X58260500Y-44440570D01*
X58260500Y-42981125D01*
X58421500Y-42981125D01*
X58421500Y-43479430D01*
X58432203Y-43533235D01*
X58453196Y-43583919D01*
X58483675Y-43629533D01*
X58522466Y-43668325D01*
X58568081Y-43698803D01*
X58618764Y-43719797D01*
X58672570Y-43730500D01*
X59908875Y-43730500D01*
X59978500Y-43660875D01*
X59978500Y-42911500D01*
X60421500Y-42911500D01*
X60421500Y-43660875D01*
X60491125Y-43730500D01*
X61727430Y-43730500D01*
X61781236Y-43719797D01*
X61831919Y-43698803D01*
X61877534Y-43668325D01*
X61916325Y-43629533D01*
X61946804Y-43583919D01*
X61967797Y-43533235D01*
X61978500Y-43479430D01*
X61978500Y-42981125D01*
X61908875Y-42911500D01*
X60421500Y-42911500D01*
X59978500Y-42911500D01*
X58491125Y-42911500D01*
X58421500Y-42981125D01*
X58260500Y-42981125D01*
X58260500Y-41900570D01*
X58421500Y-41900570D01*
X58421500Y-42398875D01*
X58491125Y-42468500D01*
X59978500Y-42468500D01*
X59978500Y-41719125D01*
X60421500Y-41719125D01*
X60421500Y-42468500D01*
X61908875Y-42468500D01*
X61978500Y-42398875D01*
X61978500Y-41900570D01*
X61967797Y-41846765D01*
X61946804Y-41796081D01*
X61916325Y-41750467D01*
X61877534Y-41711675D01*
X61831919Y-41681197D01*
X61781236Y-41660203D01*
X61727430Y-41649500D01*
X60491125Y-41649500D01*
X60421500Y-41719125D01*
X59978500Y-41719125D01*
X59908875Y-41649500D01*
X58672570Y-41649500D01*
X58618764Y-41660203D01*
X58568081Y-41681197D01*
X58522466Y-41711675D01*
X58483675Y-41750467D01*
X58453196Y-41796081D01*
X58432203Y-41846765D01*
X58421500Y-41900570D01*
X58260500Y-41900570D01*
X58260500Y-40441125D01*
X58421500Y-40441125D01*
X58421500Y-40939430D01*
X58432203Y-40993235D01*
X58453196Y-41043919D01*
X58483675Y-41089533D01*
X58522466Y-41128325D01*
X58568081Y-41158803D01*
X58618764Y-41179797D01*
X58672570Y-41190500D01*
X59908875Y-41190500D01*
X59978500Y-41120875D01*
X59978500Y-40371500D01*
X60421500Y-40371500D01*
X60421500Y-41120875D01*
X60491125Y-41190500D01*
X61727430Y-41190500D01*
X61781236Y-41179797D01*
X61831919Y-41158803D01*
X61877534Y-41128325D01*
X61916325Y-41089533D01*
X61946804Y-41043919D01*
X61967797Y-40993235D01*
X61978500Y-40939430D01*
X61978500Y-40441125D01*
X61908875Y-40371500D01*
X60421500Y-40371500D01*
X59978500Y-40371500D01*
X58491125Y-40371500D01*
X58421500Y-40441125D01*
X58260500Y-40441125D01*
X58260500Y-39360570D01*
X58421500Y-39360570D01*
X58421500Y-39858875D01*
X58491125Y-39928500D01*
X59978500Y-39928500D01*
X59978500Y-39179125D01*
X60421500Y-39179125D01*
X60421500Y-39928500D01*
X61908875Y-39928500D01*
X61978500Y-39858875D01*
X61978500Y-39360570D01*
X61967797Y-39306765D01*
X61946804Y-39256081D01*
X61916325Y-39210467D01*
X61877534Y-39171675D01*
X61831919Y-39141197D01*
X61781236Y-39120203D01*
X61727430Y-39109500D01*
X60491125Y-39109500D01*
X60421500Y-39179125D01*
X59978500Y-39179125D01*
X59908875Y-39109500D01*
X58672570Y-39109500D01*
X58618764Y-39120203D01*
X58568081Y-39141197D01*
X58522466Y-39171675D01*
X58483675Y-39210467D01*
X58453196Y-39256081D01*
X58432203Y-39306765D01*
X58421500Y-39360570D01*
X58260500Y-39360570D01*
X58260500Y-37901125D01*
X58421500Y-37901125D01*
X58421500Y-38399430D01*
X58432203Y-38453235D01*
X58453196Y-38503919D01*
X58483675Y-38549533D01*
X58522466Y-38588325D01*
X58568081Y-38618803D01*
X58618764Y-38639797D01*
X58672570Y-38650500D01*
X59908875Y-38650500D01*
X59978500Y-38580875D01*
X59978500Y-37831500D01*
X60421500Y-37831500D01*
X60421500Y-38580875D01*
X60491125Y-38650500D01*
X61727430Y-38650500D01*
X61781236Y-38639797D01*
X61831919Y-38618803D01*
X61877534Y-38588325D01*
X61916325Y-38549533D01*
X61946804Y-38503919D01*
X61967797Y-38453235D01*
X61978500Y-38399430D01*
X61978500Y-37901125D01*
X61908875Y-37831500D01*
X60421500Y-37831500D01*
X59978500Y-37831500D01*
X58491125Y-37831500D01*
X58421500Y-37901125D01*
X58260500Y-37901125D01*
X58260500Y-36820570D01*
X58421500Y-36820570D01*
X58421500Y-37318875D01*
X58491125Y-37388500D01*
X59978500Y-37388500D01*
X59978500Y-36639125D01*
X60421500Y-36639125D01*
X60421500Y-37388500D01*
X61908875Y-37388500D01*
X61978500Y-37318875D01*
X61978500Y-36820570D01*
X61967797Y-36766765D01*
X61946804Y-36716081D01*
X61916325Y-36670467D01*
X61877534Y-36631675D01*
X61831919Y-36601197D01*
X61781236Y-36580203D01*
X61727430Y-36569500D01*
X60491125Y-36569500D01*
X60421500Y-36639125D01*
X59978500Y-36639125D01*
X59908875Y-36569500D01*
X58672570Y-36569500D01*
X58618764Y-36580203D01*
X58568081Y-36601197D01*
X58522466Y-36631675D01*
X58483675Y-36670467D01*
X58453196Y-36716081D01*
X58432203Y-36766765D01*
X58421500Y-36820570D01*
X58260500Y-36820570D01*
X58260500Y-34689000D01*
X58420153Y-34689000D01*
X58420153Y-35451000D01*
X58432851Y-35579925D01*
X58470457Y-35703895D01*
X58531526Y-35818147D01*
X58613711Y-35918289D01*
X58713853Y-36000474D01*
X58828105Y-36061543D01*
X58952075Y-36099149D01*
X59081000Y-36111847D01*
X61319000Y-36111847D01*
X61447925Y-36099149D01*
X61571895Y-36061543D01*
X61686147Y-36000474D01*
X61786289Y-35918289D01*
X61868474Y-35818147D01*
X61929543Y-35703895D01*
X61967149Y-35579925D01*
X61979847Y-35451000D01*
X61979847Y-34689000D01*
X61967149Y-34560075D01*
X61929543Y-34436105D01*
X61868474Y-34321853D01*
X61786289Y-34221711D01*
X61686147Y-34139526D01*
X61571895Y-34078457D01*
X61447925Y-34040851D01*
X61319000Y-34028153D01*
X59081000Y-34028153D01*
X58952075Y-34040851D01*
X58828105Y-34078457D01*
X58713853Y-34139526D01*
X58613711Y-34221711D01*
X58531526Y-34321853D01*
X58470457Y-34436105D01*
X58432851Y-34560075D01*
X58420153Y-34689000D01*
X58260500Y-34689000D01*
X58260500Y-33512741D01*
X58266287Y-33453721D01*
X58279725Y-33409212D01*
X58301554Y-33368155D01*
X58330946Y-33332119D01*
X58366771Y-33302482D01*
X58407675Y-33280365D01*
X58452093Y-33266615D01*
X58510276Y-33260500D01*
X64969416Y-33260500D01*
X85931958Y-38251581D01*
G04 #@! TD*
M02*
