M48
; DRILL file {KiCad 5.1.4+dfsg1-1} date Mo 02 Dez 2019 03:44:53 CET
; FORMAT={-:-/ absolute / inch / decimal}
; #@! TF.CreationDate,2019-12-02T03:44:53+01:00
; #@! TF.GenerationSoftware,Kicad,Pcbnew,5.1.4+dfsg1-1
; #@! TF.FileFunction,Plated,1,2,PTH
FMAT,2
INCH
T1C0.0157
T2C0.0300
T3C0.0374
T4C0.0400
%
G90
G05
T1
X2.4567Y-2.2283
X2.4567Y-1.7303
X2.4567Y-1.876
X2.4646Y-1.4823
X2.4646Y-1.5807
X2.4882Y-1.8189
X2.5177Y-1.9705
X2.5197Y-1.4449
X2.5276Y-1.6476
X2.5354Y-1.7795
X2.5433Y-1.8524
X2.6043Y-1.9941
X2.6378Y-2.1358
X2.6516Y-1.5295
X2.6949Y-1.437
X2.7441Y-1.9469
X2.8051Y-1.7992
X2.815Y-2.0079
X2.8189Y-1.5669
X2.8268Y-1.685
X2.8425Y-2.1535
X2.8465Y-2.2343
X2.9213Y-1.874
X2.9213Y-1.9803
X2.9337Y-1.7973
X2.9514Y-1.4882
X3.0157Y-1.5748
X3.1024Y-1.502
X3.1083Y-1.7815
X3.1713Y-2.1594
T2
X2.9657Y-1.6307
X2.9657Y-1.7307
X2.9657Y-1.9307
X2.9657Y-2.0307
X2.9657Y-2.1307
X3.0657Y-1.6307
X3.0657Y-1.7307
X3.0657Y-1.9307
X3.0657Y-2.0307
X3.0657Y-2.1307
T3
X3.626Y-1.6358
X3.626Y-1.7343
X3.626Y-1.8327
X3.626Y-1.9311
X3.626Y-2.0295
T4
X2.6205Y-1.6228
X2.6205Y-1.7228
X2.6205Y-1.8228
X2.7205Y-1.6228
X2.7205Y-1.7228
X2.7205Y-1.8228
T0
M30
