G04 #@! TF.GenerationSoftware,KiCad,Pcbnew,5.1.4+dfsg1-1*
G04 #@! TF.CreationDate,2019-12-02T03:44:51+01:00*
G04 #@! TF.ProjectId,JlinkBreakout,4a6c696e-6b42-4726-9561-6b6f75742e6b,rev?*
G04 #@! TF.SameCoordinates,Original*
G04 #@! TF.FileFunction,Paste,Bot*
G04 #@! TF.FilePolarity,Positive*
%FSLAX46Y46*%
G04 Gerber Fmt 4.6, Leading zero omitted, Abs format (unit mm)*
G04 Created by KiCad (PCBNEW 5.1.4+dfsg1-1) date 2019-12-02 03:44:51*
%MOMM*%
%LPD*%
G04 APERTURE LIST*
%ADD10C,0.050000*%
%ADD11C,0.100000*%
%ADD12C,0.975000*%
%ADD13R,1.060000X0.650000*%
%ADD14C,0.875000*%
G04 APERTURE END LIST*
D10*
X58500000Y-60000000D02*
G75*
G02X58000000Y-59500000I0J500000D01*
G01*
X58000000Y-33500000D02*
G75*
G02X58500000Y-33000000I500000J0D01*
G01*
X96000000Y-38000000D02*
G75*
G02X96500000Y-38500000I0J-500000D01*
G01*
X96500000Y-54500000D02*
G75*
G02X96000000Y-55000000I-500000J0D01*
G01*
X86000000Y-38000000D02*
X65000000Y-33000000D01*
X96000000Y-38000000D02*
X86000000Y-38000000D01*
X96500000Y-54500000D02*
X96500000Y-38500000D01*
X86000000Y-55000000D02*
X96000000Y-55000000D01*
X65000000Y-60000000D02*
X86000000Y-55000000D01*
X65000000Y-33000000D02*
X58500000Y-33000000D01*
X58500000Y-60000000D02*
X65000000Y-60000000D01*
X58000000Y-33500000D02*
X58000000Y-59500000D01*
D11*
G36*
X70280142Y-52576174D02*
G01*
X70303803Y-52579684D01*
X70327007Y-52585496D01*
X70349529Y-52593554D01*
X70371153Y-52603782D01*
X70391670Y-52616079D01*
X70410883Y-52630329D01*
X70428607Y-52646393D01*
X70444671Y-52664117D01*
X70458921Y-52683330D01*
X70471218Y-52703847D01*
X70481446Y-52725471D01*
X70489504Y-52747993D01*
X70495316Y-52771197D01*
X70498826Y-52794858D01*
X70500000Y-52818750D01*
X70500000Y-53306250D01*
X70498826Y-53330142D01*
X70495316Y-53353803D01*
X70489504Y-53377007D01*
X70481446Y-53399529D01*
X70471218Y-53421153D01*
X70458921Y-53441670D01*
X70444671Y-53460883D01*
X70428607Y-53478607D01*
X70410883Y-53494671D01*
X70391670Y-53508921D01*
X70371153Y-53521218D01*
X70349529Y-53531446D01*
X70327007Y-53539504D01*
X70303803Y-53545316D01*
X70280142Y-53548826D01*
X70256250Y-53550000D01*
X69343750Y-53550000D01*
X69319858Y-53548826D01*
X69296197Y-53545316D01*
X69272993Y-53539504D01*
X69250471Y-53531446D01*
X69228847Y-53521218D01*
X69208330Y-53508921D01*
X69189117Y-53494671D01*
X69171393Y-53478607D01*
X69155329Y-53460883D01*
X69141079Y-53441670D01*
X69128782Y-53421153D01*
X69118554Y-53399529D01*
X69110496Y-53377007D01*
X69104684Y-53353803D01*
X69101174Y-53330142D01*
X69100000Y-53306250D01*
X69100000Y-52818750D01*
X69101174Y-52794858D01*
X69104684Y-52771197D01*
X69110496Y-52747993D01*
X69118554Y-52725471D01*
X69128782Y-52703847D01*
X69141079Y-52683330D01*
X69155329Y-52664117D01*
X69171393Y-52646393D01*
X69189117Y-52630329D01*
X69208330Y-52616079D01*
X69228847Y-52603782D01*
X69250471Y-52593554D01*
X69272993Y-52585496D01*
X69296197Y-52579684D01*
X69319858Y-52576174D01*
X69343750Y-52575000D01*
X70256250Y-52575000D01*
X70280142Y-52576174D01*
X70280142Y-52576174D01*
G37*
D12*
X69800000Y-53062500D03*
D11*
G36*
X70280142Y-54451174D02*
G01*
X70303803Y-54454684D01*
X70327007Y-54460496D01*
X70349529Y-54468554D01*
X70371153Y-54478782D01*
X70391670Y-54491079D01*
X70410883Y-54505329D01*
X70428607Y-54521393D01*
X70444671Y-54539117D01*
X70458921Y-54558330D01*
X70471218Y-54578847D01*
X70481446Y-54600471D01*
X70489504Y-54622993D01*
X70495316Y-54646197D01*
X70498826Y-54669858D01*
X70500000Y-54693750D01*
X70500000Y-55181250D01*
X70498826Y-55205142D01*
X70495316Y-55228803D01*
X70489504Y-55252007D01*
X70481446Y-55274529D01*
X70471218Y-55296153D01*
X70458921Y-55316670D01*
X70444671Y-55335883D01*
X70428607Y-55353607D01*
X70410883Y-55369671D01*
X70391670Y-55383921D01*
X70371153Y-55396218D01*
X70349529Y-55406446D01*
X70327007Y-55414504D01*
X70303803Y-55420316D01*
X70280142Y-55423826D01*
X70256250Y-55425000D01*
X69343750Y-55425000D01*
X69319858Y-55423826D01*
X69296197Y-55420316D01*
X69272993Y-55414504D01*
X69250471Y-55406446D01*
X69228847Y-55396218D01*
X69208330Y-55383921D01*
X69189117Y-55369671D01*
X69171393Y-55353607D01*
X69155329Y-55335883D01*
X69141079Y-55316670D01*
X69128782Y-55296153D01*
X69118554Y-55274529D01*
X69110496Y-55252007D01*
X69104684Y-55228803D01*
X69101174Y-55205142D01*
X69100000Y-55181250D01*
X69100000Y-54693750D01*
X69101174Y-54669858D01*
X69104684Y-54646197D01*
X69110496Y-54622993D01*
X69118554Y-54600471D01*
X69128782Y-54578847D01*
X69141079Y-54558330D01*
X69155329Y-54539117D01*
X69171393Y-54521393D01*
X69189117Y-54505329D01*
X69208330Y-54491079D01*
X69228847Y-54478782D01*
X69250471Y-54468554D01*
X69272993Y-54460496D01*
X69296197Y-54454684D01*
X69319858Y-54451174D01*
X69343750Y-54450000D01*
X70256250Y-54450000D01*
X70280142Y-54451174D01*
X70280142Y-54451174D01*
G37*
D12*
X69800000Y-54937500D03*
D11*
G36*
X64680142Y-54451174D02*
G01*
X64703803Y-54454684D01*
X64727007Y-54460496D01*
X64749529Y-54468554D01*
X64771153Y-54478782D01*
X64791670Y-54491079D01*
X64810883Y-54505329D01*
X64828607Y-54521393D01*
X64844671Y-54539117D01*
X64858921Y-54558330D01*
X64871218Y-54578847D01*
X64881446Y-54600471D01*
X64889504Y-54622993D01*
X64895316Y-54646197D01*
X64898826Y-54669858D01*
X64900000Y-54693750D01*
X64900000Y-55181250D01*
X64898826Y-55205142D01*
X64895316Y-55228803D01*
X64889504Y-55252007D01*
X64881446Y-55274529D01*
X64871218Y-55296153D01*
X64858921Y-55316670D01*
X64844671Y-55335883D01*
X64828607Y-55353607D01*
X64810883Y-55369671D01*
X64791670Y-55383921D01*
X64771153Y-55396218D01*
X64749529Y-55406446D01*
X64727007Y-55414504D01*
X64703803Y-55420316D01*
X64680142Y-55423826D01*
X64656250Y-55425000D01*
X63743750Y-55425000D01*
X63719858Y-55423826D01*
X63696197Y-55420316D01*
X63672993Y-55414504D01*
X63650471Y-55406446D01*
X63628847Y-55396218D01*
X63608330Y-55383921D01*
X63589117Y-55369671D01*
X63571393Y-55353607D01*
X63555329Y-55335883D01*
X63541079Y-55316670D01*
X63528782Y-55296153D01*
X63518554Y-55274529D01*
X63510496Y-55252007D01*
X63504684Y-55228803D01*
X63501174Y-55205142D01*
X63500000Y-55181250D01*
X63500000Y-54693750D01*
X63501174Y-54669858D01*
X63504684Y-54646197D01*
X63510496Y-54622993D01*
X63518554Y-54600471D01*
X63528782Y-54578847D01*
X63541079Y-54558330D01*
X63555329Y-54539117D01*
X63571393Y-54521393D01*
X63589117Y-54505329D01*
X63608330Y-54491079D01*
X63628847Y-54478782D01*
X63650471Y-54468554D01*
X63672993Y-54460496D01*
X63696197Y-54454684D01*
X63719858Y-54451174D01*
X63743750Y-54450000D01*
X64656250Y-54450000D01*
X64680142Y-54451174D01*
X64680142Y-54451174D01*
G37*
D12*
X64200000Y-54937500D03*
D11*
G36*
X64680142Y-52576174D02*
G01*
X64703803Y-52579684D01*
X64727007Y-52585496D01*
X64749529Y-52593554D01*
X64771153Y-52603782D01*
X64791670Y-52616079D01*
X64810883Y-52630329D01*
X64828607Y-52646393D01*
X64844671Y-52664117D01*
X64858921Y-52683330D01*
X64871218Y-52703847D01*
X64881446Y-52725471D01*
X64889504Y-52747993D01*
X64895316Y-52771197D01*
X64898826Y-52794858D01*
X64900000Y-52818750D01*
X64900000Y-53306250D01*
X64898826Y-53330142D01*
X64895316Y-53353803D01*
X64889504Y-53377007D01*
X64881446Y-53399529D01*
X64871218Y-53421153D01*
X64858921Y-53441670D01*
X64844671Y-53460883D01*
X64828607Y-53478607D01*
X64810883Y-53494671D01*
X64791670Y-53508921D01*
X64771153Y-53521218D01*
X64749529Y-53531446D01*
X64727007Y-53539504D01*
X64703803Y-53545316D01*
X64680142Y-53548826D01*
X64656250Y-53550000D01*
X63743750Y-53550000D01*
X63719858Y-53548826D01*
X63696197Y-53545316D01*
X63672993Y-53539504D01*
X63650471Y-53531446D01*
X63628847Y-53521218D01*
X63608330Y-53508921D01*
X63589117Y-53494671D01*
X63571393Y-53478607D01*
X63555329Y-53460883D01*
X63541079Y-53441670D01*
X63528782Y-53421153D01*
X63518554Y-53399529D01*
X63510496Y-53377007D01*
X63504684Y-53353803D01*
X63501174Y-53330142D01*
X63500000Y-53306250D01*
X63500000Y-52818750D01*
X63501174Y-52794858D01*
X63504684Y-52771197D01*
X63510496Y-52747993D01*
X63518554Y-52725471D01*
X63528782Y-52703847D01*
X63541079Y-52683330D01*
X63555329Y-52664117D01*
X63571393Y-52646393D01*
X63589117Y-52630329D01*
X63608330Y-52616079D01*
X63628847Y-52603782D01*
X63650471Y-52593554D01*
X63672993Y-52585496D01*
X63696197Y-52579684D01*
X63719858Y-52576174D01*
X63743750Y-52575000D01*
X64656250Y-52575000D01*
X64680142Y-52576174D01*
X64680142Y-52576174D01*
G37*
D12*
X64200000Y-53062500D03*
D13*
X65900000Y-54950000D03*
X65900000Y-54000000D03*
X65900000Y-53050000D03*
X68100000Y-53050000D03*
X68100000Y-54950000D03*
D11*
G36*
X73627691Y-41026053D02*
G01*
X73648926Y-41029203D01*
X73669750Y-41034419D01*
X73689962Y-41041651D01*
X73709368Y-41050830D01*
X73727781Y-41061866D01*
X73745024Y-41074654D01*
X73760930Y-41089070D01*
X73775346Y-41104976D01*
X73788134Y-41122219D01*
X73799170Y-41140632D01*
X73808349Y-41160038D01*
X73815581Y-41180250D01*
X73820797Y-41201074D01*
X73823947Y-41222309D01*
X73825000Y-41243750D01*
X73825000Y-41756250D01*
X73823947Y-41777691D01*
X73820797Y-41798926D01*
X73815581Y-41819750D01*
X73808349Y-41839962D01*
X73799170Y-41859368D01*
X73788134Y-41877781D01*
X73775346Y-41895024D01*
X73760930Y-41910930D01*
X73745024Y-41925346D01*
X73727781Y-41938134D01*
X73709368Y-41949170D01*
X73689962Y-41958349D01*
X73669750Y-41965581D01*
X73648926Y-41970797D01*
X73627691Y-41973947D01*
X73606250Y-41975000D01*
X73168750Y-41975000D01*
X73147309Y-41973947D01*
X73126074Y-41970797D01*
X73105250Y-41965581D01*
X73085038Y-41958349D01*
X73065632Y-41949170D01*
X73047219Y-41938134D01*
X73029976Y-41925346D01*
X73014070Y-41910930D01*
X72999654Y-41895024D01*
X72986866Y-41877781D01*
X72975830Y-41859368D01*
X72966651Y-41839962D01*
X72959419Y-41819750D01*
X72954203Y-41798926D01*
X72951053Y-41777691D01*
X72950000Y-41756250D01*
X72950000Y-41243750D01*
X72951053Y-41222309D01*
X72954203Y-41201074D01*
X72959419Y-41180250D01*
X72966651Y-41160038D01*
X72975830Y-41140632D01*
X72986866Y-41122219D01*
X72999654Y-41104976D01*
X73014070Y-41089070D01*
X73029976Y-41074654D01*
X73047219Y-41061866D01*
X73065632Y-41050830D01*
X73085038Y-41041651D01*
X73105250Y-41034419D01*
X73126074Y-41029203D01*
X73147309Y-41026053D01*
X73168750Y-41025000D01*
X73606250Y-41025000D01*
X73627691Y-41026053D01*
X73627691Y-41026053D01*
G37*
D14*
X73387500Y-41500000D03*
D11*
G36*
X72052691Y-41026053D02*
G01*
X72073926Y-41029203D01*
X72094750Y-41034419D01*
X72114962Y-41041651D01*
X72134368Y-41050830D01*
X72152781Y-41061866D01*
X72170024Y-41074654D01*
X72185930Y-41089070D01*
X72200346Y-41104976D01*
X72213134Y-41122219D01*
X72224170Y-41140632D01*
X72233349Y-41160038D01*
X72240581Y-41180250D01*
X72245797Y-41201074D01*
X72248947Y-41222309D01*
X72250000Y-41243750D01*
X72250000Y-41756250D01*
X72248947Y-41777691D01*
X72245797Y-41798926D01*
X72240581Y-41819750D01*
X72233349Y-41839962D01*
X72224170Y-41859368D01*
X72213134Y-41877781D01*
X72200346Y-41895024D01*
X72185930Y-41910930D01*
X72170024Y-41925346D01*
X72152781Y-41938134D01*
X72134368Y-41949170D01*
X72114962Y-41958349D01*
X72094750Y-41965581D01*
X72073926Y-41970797D01*
X72052691Y-41973947D01*
X72031250Y-41975000D01*
X71593750Y-41975000D01*
X71572309Y-41973947D01*
X71551074Y-41970797D01*
X71530250Y-41965581D01*
X71510038Y-41958349D01*
X71490632Y-41949170D01*
X71472219Y-41938134D01*
X71454976Y-41925346D01*
X71439070Y-41910930D01*
X71424654Y-41895024D01*
X71411866Y-41877781D01*
X71400830Y-41859368D01*
X71391651Y-41839962D01*
X71384419Y-41819750D01*
X71379203Y-41798926D01*
X71376053Y-41777691D01*
X71375000Y-41756250D01*
X71375000Y-41243750D01*
X71376053Y-41222309D01*
X71379203Y-41201074D01*
X71384419Y-41180250D01*
X71391651Y-41160038D01*
X71400830Y-41140632D01*
X71411866Y-41122219D01*
X71424654Y-41104976D01*
X71439070Y-41089070D01*
X71454976Y-41074654D01*
X71472219Y-41061866D01*
X71490632Y-41050830D01*
X71510038Y-41041651D01*
X71530250Y-41034419D01*
X71551074Y-41029203D01*
X71572309Y-41026053D01*
X71593750Y-41025000D01*
X72031250Y-41025000D01*
X72052691Y-41026053D01*
X72052691Y-41026053D01*
G37*
D14*
X71812500Y-41500000D03*
D11*
G36*
X72052691Y-43626053D02*
G01*
X72073926Y-43629203D01*
X72094750Y-43634419D01*
X72114962Y-43641651D01*
X72134368Y-43650830D01*
X72152781Y-43661866D01*
X72170024Y-43674654D01*
X72185930Y-43689070D01*
X72200346Y-43704976D01*
X72213134Y-43722219D01*
X72224170Y-43740632D01*
X72233349Y-43760038D01*
X72240581Y-43780250D01*
X72245797Y-43801074D01*
X72248947Y-43822309D01*
X72250000Y-43843750D01*
X72250000Y-44356250D01*
X72248947Y-44377691D01*
X72245797Y-44398926D01*
X72240581Y-44419750D01*
X72233349Y-44439962D01*
X72224170Y-44459368D01*
X72213134Y-44477781D01*
X72200346Y-44495024D01*
X72185930Y-44510930D01*
X72170024Y-44525346D01*
X72152781Y-44538134D01*
X72134368Y-44549170D01*
X72114962Y-44558349D01*
X72094750Y-44565581D01*
X72073926Y-44570797D01*
X72052691Y-44573947D01*
X72031250Y-44575000D01*
X71593750Y-44575000D01*
X71572309Y-44573947D01*
X71551074Y-44570797D01*
X71530250Y-44565581D01*
X71510038Y-44558349D01*
X71490632Y-44549170D01*
X71472219Y-44538134D01*
X71454976Y-44525346D01*
X71439070Y-44510930D01*
X71424654Y-44495024D01*
X71411866Y-44477781D01*
X71400830Y-44459368D01*
X71391651Y-44439962D01*
X71384419Y-44419750D01*
X71379203Y-44398926D01*
X71376053Y-44377691D01*
X71375000Y-44356250D01*
X71375000Y-43843750D01*
X71376053Y-43822309D01*
X71379203Y-43801074D01*
X71384419Y-43780250D01*
X71391651Y-43760038D01*
X71400830Y-43740632D01*
X71411866Y-43722219D01*
X71424654Y-43704976D01*
X71439070Y-43689070D01*
X71454976Y-43674654D01*
X71472219Y-43661866D01*
X71490632Y-43650830D01*
X71510038Y-43641651D01*
X71530250Y-43634419D01*
X71551074Y-43629203D01*
X71572309Y-43626053D01*
X71593750Y-43625000D01*
X72031250Y-43625000D01*
X72052691Y-43626053D01*
X72052691Y-43626053D01*
G37*
D14*
X71812500Y-44100000D03*
D11*
G36*
X73627691Y-43626053D02*
G01*
X73648926Y-43629203D01*
X73669750Y-43634419D01*
X73689962Y-43641651D01*
X73709368Y-43650830D01*
X73727781Y-43661866D01*
X73745024Y-43674654D01*
X73760930Y-43689070D01*
X73775346Y-43704976D01*
X73788134Y-43722219D01*
X73799170Y-43740632D01*
X73808349Y-43760038D01*
X73815581Y-43780250D01*
X73820797Y-43801074D01*
X73823947Y-43822309D01*
X73825000Y-43843750D01*
X73825000Y-44356250D01*
X73823947Y-44377691D01*
X73820797Y-44398926D01*
X73815581Y-44419750D01*
X73808349Y-44439962D01*
X73799170Y-44459368D01*
X73788134Y-44477781D01*
X73775346Y-44495024D01*
X73760930Y-44510930D01*
X73745024Y-44525346D01*
X73727781Y-44538134D01*
X73709368Y-44549170D01*
X73689962Y-44558349D01*
X73669750Y-44565581D01*
X73648926Y-44570797D01*
X73627691Y-44573947D01*
X73606250Y-44575000D01*
X73168750Y-44575000D01*
X73147309Y-44573947D01*
X73126074Y-44570797D01*
X73105250Y-44565581D01*
X73085038Y-44558349D01*
X73065632Y-44549170D01*
X73047219Y-44538134D01*
X73029976Y-44525346D01*
X73014070Y-44510930D01*
X72999654Y-44495024D01*
X72986866Y-44477781D01*
X72975830Y-44459368D01*
X72966651Y-44439962D01*
X72959419Y-44419750D01*
X72954203Y-44398926D01*
X72951053Y-44377691D01*
X72950000Y-44356250D01*
X72950000Y-43843750D01*
X72951053Y-43822309D01*
X72954203Y-43801074D01*
X72959419Y-43780250D01*
X72966651Y-43760038D01*
X72975830Y-43740632D01*
X72986866Y-43722219D01*
X72999654Y-43704976D01*
X73014070Y-43689070D01*
X73029976Y-43674654D01*
X73047219Y-43661866D01*
X73065632Y-43650830D01*
X73085038Y-43641651D01*
X73105250Y-43634419D01*
X73126074Y-43629203D01*
X73147309Y-43626053D01*
X73168750Y-43625000D01*
X73606250Y-43625000D01*
X73627691Y-43626053D01*
X73627691Y-43626053D01*
G37*
D14*
X73387500Y-44100000D03*
D11*
G36*
X73627691Y-52326053D02*
G01*
X73648926Y-52329203D01*
X73669750Y-52334419D01*
X73689962Y-52341651D01*
X73709368Y-52350830D01*
X73727781Y-52361866D01*
X73745024Y-52374654D01*
X73760930Y-52389070D01*
X73775346Y-52404976D01*
X73788134Y-52422219D01*
X73799170Y-52440632D01*
X73808349Y-52460038D01*
X73815581Y-52480250D01*
X73820797Y-52501074D01*
X73823947Y-52522309D01*
X73825000Y-52543750D01*
X73825000Y-53056250D01*
X73823947Y-53077691D01*
X73820797Y-53098926D01*
X73815581Y-53119750D01*
X73808349Y-53139962D01*
X73799170Y-53159368D01*
X73788134Y-53177781D01*
X73775346Y-53195024D01*
X73760930Y-53210930D01*
X73745024Y-53225346D01*
X73727781Y-53238134D01*
X73709368Y-53249170D01*
X73689962Y-53258349D01*
X73669750Y-53265581D01*
X73648926Y-53270797D01*
X73627691Y-53273947D01*
X73606250Y-53275000D01*
X73168750Y-53275000D01*
X73147309Y-53273947D01*
X73126074Y-53270797D01*
X73105250Y-53265581D01*
X73085038Y-53258349D01*
X73065632Y-53249170D01*
X73047219Y-53238134D01*
X73029976Y-53225346D01*
X73014070Y-53210930D01*
X72999654Y-53195024D01*
X72986866Y-53177781D01*
X72975830Y-53159368D01*
X72966651Y-53139962D01*
X72959419Y-53119750D01*
X72954203Y-53098926D01*
X72951053Y-53077691D01*
X72950000Y-53056250D01*
X72950000Y-52543750D01*
X72951053Y-52522309D01*
X72954203Y-52501074D01*
X72959419Y-52480250D01*
X72966651Y-52460038D01*
X72975830Y-52440632D01*
X72986866Y-52422219D01*
X72999654Y-52404976D01*
X73014070Y-52389070D01*
X73029976Y-52374654D01*
X73047219Y-52361866D01*
X73065632Y-52350830D01*
X73085038Y-52341651D01*
X73105250Y-52334419D01*
X73126074Y-52329203D01*
X73147309Y-52326053D01*
X73168750Y-52325000D01*
X73606250Y-52325000D01*
X73627691Y-52326053D01*
X73627691Y-52326053D01*
G37*
D14*
X73387500Y-52800000D03*
D11*
G36*
X72052691Y-52326053D02*
G01*
X72073926Y-52329203D01*
X72094750Y-52334419D01*
X72114962Y-52341651D01*
X72134368Y-52350830D01*
X72152781Y-52361866D01*
X72170024Y-52374654D01*
X72185930Y-52389070D01*
X72200346Y-52404976D01*
X72213134Y-52422219D01*
X72224170Y-52440632D01*
X72233349Y-52460038D01*
X72240581Y-52480250D01*
X72245797Y-52501074D01*
X72248947Y-52522309D01*
X72250000Y-52543750D01*
X72250000Y-53056250D01*
X72248947Y-53077691D01*
X72245797Y-53098926D01*
X72240581Y-53119750D01*
X72233349Y-53139962D01*
X72224170Y-53159368D01*
X72213134Y-53177781D01*
X72200346Y-53195024D01*
X72185930Y-53210930D01*
X72170024Y-53225346D01*
X72152781Y-53238134D01*
X72134368Y-53249170D01*
X72114962Y-53258349D01*
X72094750Y-53265581D01*
X72073926Y-53270797D01*
X72052691Y-53273947D01*
X72031250Y-53275000D01*
X71593750Y-53275000D01*
X71572309Y-53273947D01*
X71551074Y-53270797D01*
X71530250Y-53265581D01*
X71510038Y-53258349D01*
X71490632Y-53249170D01*
X71472219Y-53238134D01*
X71454976Y-53225346D01*
X71439070Y-53210930D01*
X71424654Y-53195024D01*
X71411866Y-53177781D01*
X71400830Y-53159368D01*
X71391651Y-53139962D01*
X71384419Y-53119750D01*
X71379203Y-53098926D01*
X71376053Y-53077691D01*
X71375000Y-53056250D01*
X71375000Y-52543750D01*
X71376053Y-52522309D01*
X71379203Y-52501074D01*
X71384419Y-52480250D01*
X71391651Y-52460038D01*
X71400830Y-52440632D01*
X71411866Y-52422219D01*
X71424654Y-52404976D01*
X71439070Y-52389070D01*
X71454976Y-52374654D01*
X71472219Y-52361866D01*
X71490632Y-52350830D01*
X71510038Y-52341651D01*
X71530250Y-52334419D01*
X71551074Y-52329203D01*
X71572309Y-52326053D01*
X71593750Y-52325000D01*
X72031250Y-52325000D01*
X72052691Y-52326053D01*
X72052691Y-52326053D01*
G37*
D14*
X71812500Y-52800000D03*
D11*
G36*
X77627691Y-46226053D02*
G01*
X77648926Y-46229203D01*
X77669750Y-46234419D01*
X77689962Y-46241651D01*
X77709368Y-46250830D01*
X77727781Y-46261866D01*
X77745024Y-46274654D01*
X77760930Y-46289070D01*
X77775346Y-46304976D01*
X77788134Y-46322219D01*
X77799170Y-46340632D01*
X77808349Y-46360038D01*
X77815581Y-46380250D01*
X77820797Y-46401074D01*
X77823947Y-46422309D01*
X77825000Y-46443750D01*
X77825000Y-46956250D01*
X77823947Y-46977691D01*
X77820797Y-46998926D01*
X77815581Y-47019750D01*
X77808349Y-47039962D01*
X77799170Y-47059368D01*
X77788134Y-47077781D01*
X77775346Y-47095024D01*
X77760930Y-47110930D01*
X77745024Y-47125346D01*
X77727781Y-47138134D01*
X77709368Y-47149170D01*
X77689962Y-47158349D01*
X77669750Y-47165581D01*
X77648926Y-47170797D01*
X77627691Y-47173947D01*
X77606250Y-47175000D01*
X77168750Y-47175000D01*
X77147309Y-47173947D01*
X77126074Y-47170797D01*
X77105250Y-47165581D01*
X77085038Y-47158349D01*
X77065632Y-47149170D01*
X77047219Y-47138134D01*
X77029976Y-47125346D01*
X77014070Y-47110930D01*
X76999654Y-47095024D01*
X76986866Y-47077781D01*
X76975830Y-47059368D01*
X76966651Y-47039962D01*
X76959419Y-47019750D01*
X76954203Y-46998926D01*
X76951053Y-46977691D01*
X76950000Y-46956250D01*
X76950000Y-46443750D01*
X76951053Y-46422309D01*
X76954203Y-46401074D01*
X76959419Y-46380250D01*
X76966651Y-46360038D01*
X76975830Y-46340632D01*
X76986866Y-46322219D01*
X76999654Y-46304976D01*
X77014070Y-46289070D01*
X77029976Y-46274654D01*
X77047219Y-46261866D01*
X77065632Y-46250830D01*
X77085038Y-46241651D01*
X77105250Y-46234419D01*
X77126074Y-46229203D01*
X77147309Y-46226053D01*
X77168750Y-46225000D01*
X77606250Y-46225000D01*
X77627691Y-46226053D01*
X77627691Y-46226053D01*
G37*
D14*
X77387500Y-46700000D03*
D11*
G36*
X76052691Y-46226053D02*
G01*
X76073926Y-46229203D01*
X76094750Y-46234419D01*
X76114962Y-46241651D01*
X76134368Y-46250830D01*
X76152781Y-46261866D01*
X76170024Y-46274654D01*
X76185930Y-46289070D01*
X76200346Y-46304976D01*
X76213134Y-46322219D01*
X76224170Y-46340632D01*
X76233349Y-46360038D01*
X76240581Y-46380250D01*
X76245797Y-46401074D01*
X76248947Y-46422309D01*
X76250000Y-46443750D01*
X76250000Y-46956250D01*
X76248947Y-46977691D01*
X76245797Y-46998926D01*
X76240581Y-47019750D01*
X76233349Y-47039962D01*
X76224170Y-47059368D01*
X76213134Y-47077781D01*
X76200346Y-47095024D01*
X76185930Y-47110930D01*
X76170024Y-47125346D01*
X76152781Y-47138134D01*
X76134368Y-47149170D01*
X76114962Y-47158349D01*
X76094750Y-47165581D01*
X76073926Y-47170797D01*
X76052691Y-47173947D01*
X76031250Y-47175000D01*
X75593750Y-47175000D01*
X75572309Y-47173947D01*
X75551074Y-47170797D01*
X75530250Y-47165581D01*
X75510038Y-47158349D01*
X75490632Y-47149170D01*
X75472219Y-47138134D01*
X75454976Y-47125346D01*
X75439070Y-47110930D01*
X75424654Y-47095024D01*
X75411866Y-47077781D01*
X75400830Y-47059368D01*
X75391651Y-47039962D01*
X75384419Y-47019750D01*
X75379203Y-46998926D01*
X75376053Y-46977691D01*
X75375000Y-46956250D01*
X75375000Y-46443750D01*
X75376053Y-46422309D01*
X75379203Y-46401074D01*
X75384419Y-46380250D01*
X75391651Y-46360038D01*
X75400830Y-46340632D01*
X75411866Y-46322219D01*
X75424654Y-46304976D01*
X75439070Y-46289070D01*
X75454976Y-46274654D01*
X75472219Y-46261866D01*
X75490632Y-46250830D01*
X75510038Y-46241651D01*
X75530250Y-46234419D01*
X75551074Y-46229203D01*
X75572309Y-46226053D01*
X75593750Y-46225000D01*
X76031250Y-46225000D01*
X76052691Y-46226053D01*
X76052691Y-46226053D01*
G37*
D14*
X75812500Y-46700000D03*
M02*
