G04 #@! TF.GenerationSoftware,KiCad,Pcbnew,5.1.4+dfsg1-1*
G04 #@! TF.CreationDate,2019-12-02T03:44:51+01:00*
G04 #@! TF.ProjectId,JlinkBreakout,4a6c696e-6b42-4726-9561-6b6f75742e6b,rev?*
G04 #@! TF.SameCoordinates,Original*
G04 #@! TF.FileFunction,Soldermask,Top*
G04 #@! TF.FilePolarity,Negative*
%FSLAX46Y46*%
G04 Gerber Fmt 4.6, Leading zero omitted, Abs format (unit mm)*
G04 Created by KiCad (PCBNEW 5.1.4+dfsg1-1) date 2019-12-02 03:44:51*
%MOMM*%
%LPD*%
G04 APERTURE LIST*
%ADD10C,0.050000*%
%ADD11C,0.100000*%
G04 APERTURE END LIST*
D10*
X58500000Y-60000000D02*
G75*
G02X58000000Y-59500000I0J500000D01*
G01*
X58000000Y-33500000D02*
G75*
G02X58500000Y-33000000I500000J0D01*
G01*
X96000000Y-38000000D02*
G75*
G02X96500000Y-38500000I0J-500000D01*
G01*
X96500000Y-54500000D02*
G75*
G02X96000000Y-55000000I-500000J0D01*
G01*
X86000000Y-38000000D02*
X65000000Y-33000000D01*
X96000000Y-38000000D02*
X86000000Y-38000000D01*
X96500000Y-54500000D02*
X96500000Y-38500000D01*
X86000000Y-55000000D02*
X96000000Y-55000000D01*
X65000000Y-60000000D02*
X86000000Y-55000000D01*
X65000000Y-33000000D02*
X58500000Y-33000000D01*
X58500000Y-60000000D02*
X65000000Y-60000000D01*
X58000000Y-33500000D02*
X58000000Y-59500000D01*
D11*
G36*
X61473993Y-57124203D02*
G01*
X61538411Y-57143744D01*
X61597781Y-57175478D01*
X61649817Y-57218183D01*
X61692522Y-57270219D01*
X61724256Y-57329589D01*
X61743797Y-57394007D01*
X61751000Y-57467140D01*
X61751000Y-58392860D01*
X61743797Y-58465993D01*
X61724256Y-58530411D01*
X61692522Y-58589781D01*
X61649817Y-58641817D01*
X61597781Y-58684522D01*
X61538411Y-58716256D01*
X61473993Y-58735797D01*
X61400860Y-58743000D01*
X58999140Y-58743000D01*
X58926007Y-58735797D01*
X58861589Y-58716256D01*
X58802219Y-58684522D01*
X58750183Y-58641817D01*
X58707478Y-58589781D01*
X58675744Y-58530411D01*
X58656203Y-58465993D01*
X58649000Y-58392860D01*
X58649000Y-57467140D01*
X58656203Y-57394007D01*
X58675744Y-57329589D01*
X58707478Y-57270219D01*
X58750183Y-57218183D01*
X58802219Y-57175478D01*
X58861589Y-57143744D01*
X58926007Y-57124203D01*
X58999140Y-57117000D01*
X61400860Y-57117000D01*
X61473993Y-57124203D01*
X61473993Y-57124203D01*
G37*
G36*
X61473993Y-54584203D02*
G01*
X61538411Y-54603744D01*
X61597781Y-54635478D01*
X61649817Y-54678183D01*
X61692522Y-54730219D01*
X61724256Y-54789589D01*
X61743797Y-54854007D01*
X61751000Y-54927140D01*
X61751000Y-55852860D01*
X61743797Y-55925993D01*
X61724256Y-55990411D01*
X61692522Y-56049781D01*
X61649817Y-56101817D01*
X61597781Y-56144522D01*
X61538411Y-56176256D01*
X61473993Y-56195797D01*
X61400860Y-56203000D01*
X58999140Y-56203000D01*
X58926007Y-56195797D01*
X58861589Y-56176256D01*
X58802219Y-56144522D01*
X58750183Y-56101817D01*
X58707478Y-56049781D01*
X58675744Y-55990411D01*
X58656203Y-55925993D01*
X58649000Y-55852860D01*
X58649000Y-54927140D01*
X58656203Y-54854007D01*
X58675744Y-54789589D01*
X58707478Y-54730219D01*
X58750183Y-54678183D01*
X58802219Y-54635478D01*
X58861589Y-54603744D01*
X58926007Y-54584203D01*
X58999140Y-54577000D01*
X61400860Y-54577000D01*
X61473993Y-54584203D01*
X61473993Y-54584203D01*
G37*
G36*
X78107142Y-53338242D02*
G01*
X78255101Y-53399529D01*
X78388255Y-53488499D01*
X78501501Y-53601745D01*
X78590471Y-53734899D01*
X78651758Y-53882858D01*
X78683000Y-54039925D01*
X78683000Y-54200075D01*
X78651758Y-54357142D01*
X78590471Y-54505101D01*
X78501501Y-54638255D01*
X78388255Y-54751501D01*
X78255101Y-54840471D01*
X78107142Y-54901758D01*
X77950075Y-54933000D01*
X77789925Y-54933000D01*
X77632858Y-54901758D01*
X77484899Y-54840471D01*
X77351745Y-54751501D01*
X77238499Y-54638255D01*
X77149529Y-54505101D01*
X77088242Y-54357142D01*
X77057000Y-54200075D01*
X77057000Y-54039925D01*
X77088242Y-53882858D01*
X77149529Y-53734899D01*
X77238499Y-53601745D01*
X77351745Y-53488499D01*
X77484899Y-53399529D01*
X77632858Y-53338242D01*
X77789925Y-53307000D01*
X77950075Y-53307000D01*
X78107142Y-53338242D01*
X78107142Y-53338242D01*
G37*
G36*
X75567142Y-53338242D02*
G01*
X75715101Y-53399529D01*
X75848255Y-53488499D01*
X75961501Y-53601745D01*
X76050471Y-53734899D01*
X76111758Y-53882858D01*
X76143000Y-54039925D01*
X76143000Y-54200075D01*
X76111758Y-54357142D01*
X76050471Y-54505101D01*
X75961501Y-54638255D01*
X75848255Y-54751501D01*
X75715101Y-54840471D01*
X75567142Y-54901758D01*
X75410075Y-54933000D01*
X75249925Y-54933000D01*
X75092858Y-54901758D01*
X74944899Y-54840471D01*
X74811745Y-54751501D01*
X74698499Y-54638255D01*
X74609529Y-54505101D01*
X74548242Y-54357142D01*
X74517000Y-54200075D01*
X74517000Y-54039925D01*
X74548242Y-53882858D01*
X74609529Y-53734899D01*
X74698499Y-53601745D01*
X74811745Y-53488499D01*
X74944899Y-53399529D01*
X75092858Y-53338242D01*
X75249925Y-53307000D01*
X75410075Y-53307000D01*
X75567142Y-53338242D01*
X75567142Y-53338242D01*
G37*
G36*
X61473993Y-52044203D02*
G01*
X61538411Y-52063744D01*
X61597781Y-52095478D01*
X61649817Y-52138183D01*
X61692522Y-52190219D01*
X61724256Y-52249589D01*
X61743797Y-52314007D01*
X61751000Y-52387140D01*
X61751000Y-53312860D01*
X61743797Y-53385993D01*
X61724256Y-53450411D01*
X61692522Y-53509781D01*
X61649817Y-53561817D01*
X61597781Y-53604522D01*
X61538411Y-53636256D01*
X61473993Y-53655797D01*
X61400860Y-53663000D01*
X58999140Y-53663000D01*
X58926007Y-53655797D01*
X58861589Y-53636256D01*
X58802219Y-53604522D01*
X58750183Y-53561817D01*
X58707478Y-53509781D01*
X58675744Y-53450411D01*
X58656203Y-53385993D01*
X58649000Y-53312860D01*
X58649000Y-52387140D01*
X58656203Y-52314007D01*
X58675744Y-52249589D01*
X58707478Y-52190219D01*
X58750183Y-52138183D01*
X58802219Y-52095478D01*
X58861589Y-52063744D01*
X58926007Y-52044203D01*
X58999140Y-52037000D01*
X61400860Y-52037000D01*
X61473993Y-52044203D01*
X61473993Y-52044203D01*
G37*
G36*
X92983600Y-50652989D02*
G01*
X93016652Y-50663015D01*
X93047103Y-50679292D01*
X93073799Y-50701201D01*
X93095708Y-50727897D01*
X93111985Y-50758348D01*
X93122011Y-50791400D01*
X93126000Y-50831903D01*
X93126000Y-52268097D01*
X93122011Y-52308600D01*
X93111985Y-52341652D01*
X93095708Y-52372103D01*
X93073799Y-52398799D01*
X93047103Y-52420708D01*
X93016652Y-52436985D01*
X92983600Y-52447011D01*
X92943097Y-52451000D01*
X91256903Y-52451000D01*
X91216400Y-52447011D01*
X91183348Y-52436985D01*
X91152897Y-52420708D01*
X91126201Y-52398799D01*
X91104292Y-52372103D01*
X91088015Y-52341652D01*
X91077989Y-52308600D01*
X91074000Y-52268097D01*
X91074000Y-50831903D01*
X91077989Y-50791400D01*
X91088015Y-50758348D01*
X91104292Y-50727897D01*
X91126201Y-50701201D01*
X91152897Y-50679292D01*
X91183348Y-50663015D01*
X91216400Y-50652989D01*
X91256903Y-50649000D01*
X92943097Y-50649000D01*
X92983600Y-50652989D01*
X92983600Y-50652989D01*
G37*
G36*
X75567142Y-50798242D02*
G01*
X75715101Y-50859529D01*
X75848255Y-50948499D01*
X75961501Y-51061745D01*
X76050471Y-51194899D01*
X76111758Y-51342858D01*
X76143000Y-51499925D01*
X76143000Y-51660075D01*
X76111758Y-51817142D01*
X76050471Y-51965101D01*
X75961501Y-52098255D01*
X75848255Y-52211501D01*
X75715101Y-52300471D01*
X75567142Y-52361758D01*
X75410075Y-52393000D01*
X75249925Y-52393000D01*
X75092858Y-52361758D01*
X74944899Y-52300471D01*
X74811745Y-52211501D01*
X74698499Y-52098255D01*
X74609529Y-51965101D01*
X74548242Y-51817142D01*
X74517000Y-51660075D01*
X74517000Y-51499925D01*
X74548242Y-51342858D01*
X74609529Y-51194899D01*
X74698499Y-51061745D01*
X74811745Y-50948499D01*
X74944899Y-50859529D01*
X75092858Y-50798242D01*
X75249925Y-50767000D01*
X75410075Y-50767000D01*
X75567142Y-50798242D01*
X75567142Y-50798242D01*
G37*
G36*
X78107142Y-50798242D02*
G01*
X78255101Y-50859529D01*
X78388255Y-50948499D01*
X78501501Y-51061745D01*
X78590471Y-51194899D01*
X78651758Y-51342858D01*
X78683000Y-51499925D01*
X78683000Y-51660075D01*
X78651758Y-51817142D01*
X78590471Y-51965101D01*
X78501501Y-52098255D01*
X78388255Y-52211501D01*
X78255101Y-52300471D01*
X78107142Y-52361758D01*
X77950075Y-52393000D01*
X77789925Y-52393000D01*
X77632858Y-52361758D01*
X77484899Y-52300471D01*
X77351745Y-52211501D01*
X77238499Y-52098255D01*
X77149529Y-51965101D01*
X77088242Y-51817142D01*
X77057000Y-51660075D01*
X77057000Y-51499925D01*
X77088242Y-51342858D01*
X77149529Y-51194899D01*
X77238499Y-51061745D01*
X77351745Y-50948499D01*
X77484899Y-50859529D01*
X77632858Y-50798242D01*
X77789925Y-50767000D01*
X77950075Y-50767000D01*
X78107142Y-50798242D01*
X78107142Y-50798242D01*
G37*
G36*
X61473993Y-49504203D02*
G01*
X61538411Y-49523744D01*
X61597781Y-49555478D01*
X61649817Y-49598183D01*
X61692522Y-49650219D01*
X61724256Y-49709589D01*
X61743797Y-49774007D01*
X61751000Y-49847140D01*
X61751000Y-50772860D01*
X61743797Y-50845993D01*
X61724256Y-50910411D01*
X61692522Y-50969781D01*
X61649817Y-51021817D01*
X61597781Y-51064522D01*
X61538411Y-51096256D01*
X61473993Y-51115797D01*
X61400860Y-51123000D01*
X58999140Y-51123000D01*
X58926007Y-51115797D01*
X58861589Y-51096256D01*
X58802219Y-51064522D01*
X58750183Y-51021817D01*
X58707478Y-50969781D01*
X58675744Y-50910411D01*
X58656203Y-50845993D01*
X58649000Y-50772860D01*
X58649000Y-49847140D01*
X58656203Y-49774007D01*
X58675744Y-49709589D01*
X58707478Y-49650219D01*
X58750183Y-49598183D01*
X58802219Y-49555478D01*
X58861589Y-49523744D01*
X58926007Y-49504203D01*
X58999140Y-49497000D01*
X61400860Y-49497000D01*
X61473993Y-49504203D01*
X61473993Y-49504203D01*
G37*
G36*
X92335442Y-48155518D02*
G01*
X92401627Y-48162037D01*
X92571466Y-48213557D01*
X92727991Y-48297222D01*
X92738678Y-48305993D01*
X92865186Y-48409814D01*
X92924276Y-48481817D01*
X92977778Y-48547009D01*
X93061443Y-48703534D01*
X93112963Y-48873373D01*
X93130359Y-49050000D01*
X93112963Y-49226627D01*
X93061443Y-49396466D01*
X92977778Y-49552991D01*
X92973456Y-49558257D01*
X92865186Y-49690186D01*
X92779542Y-49760471D01*
X92727991Y-49802778D01*
X92571466Y-49886443D01*
X92401627Y-49937963D01*
X92335443Y-49944481D01*
X92269260Y-49951000D01*
X91930740Y-49951000D01*
X91864558Y-49944482D01*
X91798373Y-49937963D01*
X91628534Y-49886443D01*
X91472009Y-49802778D01*
X91420458Y-49760471D01*
X91334814Y-49690186D01*
X91226544Y-49558257D01*
X91222222Y-49552991D01*
X91138557Y-49396466D01*
X91087037Y-49226627D01*
X91069641Y-49050000D01*
X91087037Y-48873373D01*
X91138557Y-48703534D01*
X91222222Y-48547009D01*
X91275724Y-48481817D01*
X91334814Y-48409814D01*
X91461322Y-48305993D01*
X91472009Y-48297222D01*
X91628534Y-48213557D01*
X91798373Y-48162037D01*
X91864558Y-48155518D01*
X91930740Y-48149000D01*
X92269260Y-48149000D01*
X92335442Y-48155518D01*
X92335442Y-48155518D01*
G37*
G36*
X78107142Y-48258242D02*
G01*
X78255101Y-48319529D01*
X78388255Y-48408499D01*
X78501501Y-48521745D01*
X78590471Y-48654899D01*
X78651758Y-48802858D01*
X78683000Y-48959925D01*
X78683000Y-49120075D01*
X78651758Y-49277142D01*
X78590471Y-49425101D01*
X78501501Y-49558255D01*
X78388255Y-49671501D01*
X78255101Y-49760471D01*
X78107142Y-49821758D01*
X77950075Y-49853000D01*
X77789925Y-49853000D01*
X77632858Y-49821758D01*
X77484899Y-49760471D01*
X77351745Y-49671501D01*
X77238499Y-49558255D01*
X77149529Y-49425101D01*
X77088242Y-49277142D01*
X77057000Y-49120075D01*
X77057000Y-48959925D01*
X77088242Y-48802858D01*
X77149529Y-48654899D01*
X77238499Y-48521745D01*
X77351745Y-48408499D01*
X77484899Y-48319529D01*
X77632858Y-48258242D01*
X77789925Y-48227000D01*
X77950075Y-48227000D01*
X78107142Y-48258242D01*
X78107142Y-48258242D01*
G37*
G36*
X75567142Y-48258242D02*
G01*
X75715101Y-48319529D01*
X75848255Y-48408499D01*
X75961501Y-48521745D01*
X76050471Y-48654899D01*
X76111758Y-48802858D01*
X76143000Y-48959925D01*
X76143000Y-49120075D01*
X76111758Y-49277142D01*
X76050471Y-49425101D01*
X75961501Y-49558255D01*
X75848255Y-49671501D01*
X75715101Y-49760471D01*
X75567142Y-49821758D01*
X75410075Y-49853000D01*
X75249925Y-49853000D01*
X75092858Y-49821758D01*
X74944899Y-49760471D01*
X74811745Y-49671501D01*
X74698499Y-49558255D01*
X74609529Y-49425101D01*
X74548242Y-49277142D01*
X74517000Y-49120075D01*
X74517000Y-48959925D01*
X74548242Y-48802858D01*
X74609529Y-48654899D01*
X74698499Y-48521745D01*
X74811745Y-48408499D01*
X74944899Y-48319529D01*
X75092858Y-48258242D01*
X75249925Y-48227000D01*
X75410075Y-48227000D01*
X75567142Y-48258242D01*
X75567142Y-48258242D01*
G37*
G36*
X61473993Y-46964203D02*
G01*
X61538411Y-46983744D01*
X61597781Y-47015478D01*
X61649817Y-47058183D01*
X61692522Y-47110219D01*
X61724256Y-47169589D01*
X61743797Y-47234007D01*
X61751000Y-47307140D01*
X61751000Y-48232860D01*
X61743797Y-48305993D01*
X61724256Y-48370411D01*
X61692522Y-48429781D01*
X61649817Y-48481817D01*
X61597781Y-48524522D01*
X61538411Y-48556256D01*
X61473993Y-48575797D01*
X61400860Y-48583000D01*
X58999140Y-48583000D01*
X58926007Y-48575797D01*
X58861589Y-48556256D01*
X58802219Y-48524522D01*
X58750183Y-48481817D01*
X58707478Y-48429781D01*
X58675744Y-48370411D01*
X58656203Y-48305993D01*
X58649000Y-48232860D01*
X58649000Y-47307140D01*
X58656203Y-47234007D01*
X58675744Y-47169589D01*
X58707478Y-47110219D01*
X58750183Y-47058183D01*
X58802219Y-47015478D01*
X58861589Y-46983744D01*
X58926007Y-46964203D01*
X58999140Y-46957000D01*
X61400860Y-46957000D01*
X61473993Y-46964203D01*
X61473993Y-46964203D01*
G37*
G36*
X92335442Y-45655518D02*
G01*
X92401627Y-45662037D01*
X92571466Y-45713557D01*
X92727991Y-45797222D01*
X92763729Y-45826552D01*
X92865186Y-45909814D01*
X92926496Y-45984522D01*
X92977778Y-46047009D01*
X93061443Y-46203534D01*
X93112963Y-46373373D01*
X93130359Y-46550000D01*
X93112963Y-46726627D01*
X93061443Y-46896466D01*
X92977778Y-47052991D01*
X92958845Y-47076061D01*
X92865186Y-47190186D01*
X92763729Y-47273448D01*
X92727991Y-47302778D01*
X92571466Y-47386443D01*
X92401627Y-47437963D01*
X92335442Y-47444482D01*
X92269260Y-47451000D01*
X91930740Y-47451000D01*
X91864558Y-47444482D01*
X91798373Y-47437963D01*
X91628534Y-47386443D01*
X91472009Y-47302778D01*
X91436271Y-47273448D01*
X91334814Y-47190186D01*
X91241155Y-47076061D01*
X91222222Y-47052991D01*
X91138557Y-46896466D01*
X91087037Y-46726627D01*
X91069641Y-46550000D01*
X91087037Y-46373373D01*
X91138557Y-46203534D01*
X91222222Y-46047009D01*
X91273504Y-45984522D01*
X91334814Y-45909814D01*
X91436271Y-45826552D01*
X91472009Y-45797222D01*
X91628534Y-45713557D01*
X91798373Y-45662037D01*
X91864558Y-45655518D01*
X91930740Y-45649000D01*
X92269260Y-45649000D01*
X92335442Y-45655518D01*
X92335442Y-45655518D01*
G37*
G36*
X66739294Y-45398633D02*
G01*
X66911695Y-45450931D01*
X67070583Y-45535858D01*
X67209849Y-45650151D01*
X67324142Y-45789417D01*
X67409069Y-45948305D01*
X67461367Y-46120706D01*
X67479025Y-46300000D01*
X67461367Y-46479294D01*
X67409069Y-46651695D01*
X67324142Y-46810583D01*
X67209849Y-46949849D01*
X67070583Y-47064142D01*
X66911695Y-47149069D01*
X66739294Y-47201367D01*
X66604931Y-47214600D01*
X66515069Y-47214600D01*
X66380706Y-47201367D01*
X66208305Y-47149069D01*
X66049417Y-47064142D01*
X65910151Y-46949849D01*
X65795858Y-46810583D01*
X65710931Y-46651695D01*
X65658633Y-46479294D01*
X65640975Y-46300000D01*
X65658633Y-46120706D01*
X65710931Y-45948305D01*
X65795858Y-45789417D01*
X65910151Y-45650151D01*
X66049417Y-45535858D01*
X66208305Y-45450931D01*
X66380706Y-45398633D01*
X66515069Y-45385400D01*
X66604931Y-45385400D01*
X66739294Y-45398633D01*
X66739294Y-45398633D01*
G37*
G36*
X70014600Y-47214600D02*
G01*
X68185400Y-47214600D01*
X68185400Y-45385400D01*
X70014600Y-45385400D01*
X70014600Y-47214600D01*
X70014600Y-47214600D01*
G37*
G36*
X61473993Y-44424203D02*
G01*
X61538411Y-44443744D01*
X61597781Y-44475478D01*
X61649817Y-44518183D01*
X61692522Y-44570219D01*
X61724256Y-44629589D01*
X61743797Y-44694007D01*
X61751000Y-44767140D01*
X61751000Y-45692860D01*
X61743797Y-45765993D01*
X61724256Y-45830411D01*
X61692522Y-45889781D01*
X61649817Y-45941817D01*
X61597781Y-45984522D01*
X61538411Y-46016256D01*
X61473993Y-46035797D01*
X61400860Y-46043000D01*
X58999140Y-46043000D01*
X58926007Y-46035797D01*
X58861589Y-46016256D01*
X58802219Y-45984522D01*
X58750183Y-45941817D01*
X58707478Y-45889781D01*
X58675744Y-45830411D01*
X58656203Y-45765993D01*
X58649000Y-45692860D01*
X58649000Y-44767140D01*
X58656203Y-44694007D01*
X58675744Y-44629589D01*
X58707478Y-44570219D01*
X58750183Y-44518183D01*
X58802219Y-44475478D01*
X58861589Y-44443744D01*
X58926007Y-44424203D01*
X58999140Y-44417000D01*
X61400860Y-44417000D01*
X61473993Y-44424203D01*
X61473993Y-44424203D01*
G37*
G36*
X92335443Y-43155519D02*
G01*
X92401627Y-43162037D01*
X92571466Y-43213557D01*
X92727991Y-43297222D01*
X92758596Y-43322339D01*
X92865186Y-43409814D01*
X92948448Y-43511271D01*
X92977778Y-43547009D01*
X93061443Y-43703534D01*
X93112963Y-43873373D01*
X93130359Y-44050000D01*
X93112963Y-44226627D01*
X93061443Y-44396466D01*
X92977778Y-44552991D01*
X92963639Y-44570219D01*
X92865186Y-44690186D01*
X92771416Y-44767140D01*
X92727991Y-44802778D01*
X92571466Y-44886443D01*
X92401627Y-44937963D01*
X92335442Y-44944482D01*
X92269260Y-44951000D01*
X91930740Y-44951000D01*
X91864558Y-44944482D01*
X91798373Y-44937963D01*
X91628534Y-44886443D01*
X91472009Y-44802778D01*
X91428584Y-44767140D01*
X91334814Y-44690186D01*
X91236361Y-44570219D01*
X91222222Y-44552991D01*
X91138557Y-44396466D01*
X91087037Y-44226627D01*
X91069641Y-44050000D01*
X91087037Y-43873373D01*
X91138557Y-43703534D01*
X91222222Y-43547009D01*
X91251552Y-43511271D01*
X91334814Y-43409814D01*
X91441404Y-43322339D01*
X91472009Y-43297222D01*
X91628534Y-43213557D01*
X91798373Y-43162037D01*
X91864557Y-43155519D01*
X91930740Y-43149000D01*
X92269260Y-43149000D01*
X92335443Y-43155519D01*
X92335443Y-43155519D01*
G37*
G36*
X75567142Y-43178242D02*
G01*
X75715101Y-43239529D01*
X75848255Y-43328499D01*
X75961501Y-43441745D01*
X76050471Y-43574899D01*
X76111758Y-43722858D01*
X76143000Y-43879925D01*
X76143000Y-44040075D01*
X76111758Y-44197142D01*
X76050471Y-44345101D01*
X75961501Y-44478255D01*
X75848255Y-44591501D01*
X75715101Y-44680471D01*
X75567142Y-44741758D01*
X75410075Y-44773000D01*
X75249925Y-44773000D01*
X75092858Y-44741758D01*
X74944899Y-44680471D01*
X74811745Y-44591501D01*
X74698499Y-44478255D01*
X74609529Y-44345101D01*
X74548242Y-44197142D01*
X74517000Y-44040075D01*
X74517000Y-43879925D01*
X74548242Y-43722858D01*
X74609529Y-43574899D01*
X74698499Y-43441745D01*
X74811745Y-43328499D01*
X74944899Y-43239529D01*
X75092858Y-43178242D01*
X75249925Y-43147000D01*
X75410075Y-43147000D01*
X75567142Y-43178242D01*
X75567142Y-43178242D01*
G37*
G36*
X78107142Y-43178242D02*
G01*
X78255101Y-43239529D01*
X78388255Y-43328499D01*
X78501501Y-43441745D01*
X78590471Y-43574899D01*
X78651758Y-43722858D01*
X78683000Y-43879925D01*
X78683000Y-44040075D01*
X78651758Y-44197142D01*
X78590471Y-44345101D01*
X78501501Y-44478255D01*
X78388255Y-44591501D01*
X78255101Y-44680471D01*
X78107142Y-44741758D01*
X77950075Y-44773000D01*
X77789925Y-44773000D01*
X77632858Y-44741758D01*
X77484899Y-44680471D01*
X77351745Y-44591501D01*
X77238499Y-44478255D01*
X77149529Y-44345101D01*
X77088242Y-44197142D01*
X77057000Y-44040075D01*
X77057000Y-43879925D01*
X77088242Y-43722858D01*
X77149529Y-43574899D01*
X77238499Y-43441745D01*
X77351745Y-43328499D01*
X77484899Y-43239529D01*
X77632858Y-43178242D01*
X77789925Y-43147000D01*
X77950075Y-43147000D01*
X78107142Y-43178242D01*
X78107142Y-43178242D01*
G37*
G36*
X69279294Y-42858633D02*
G01*
X69451695Y-42910931D01*
X69610583Y-42995858D01*
X69749849Y-43110151D01*
X69864142Y-43249417D01*
X69949069Y-43408305D01*
X70001367Y-43580706D01*
X70019025Y-43760000D01*
X70001367Y-43939294D01*
X69949069Y-44111695D01*
X69864142Y-44270583D01*
X69749849Y-44409849D01*
X69610583Y-44524142D01*
X69451695Y-44609069D01*
X69279294Y-44661367D01*
X69144931Y-44674600D01*
X69055069Y-44674600D01*
X68920706Y-44661367D01*
X68748305Y-44609069D01*
X68589417Y-44524142D01*
X68450151Y-44409849D01*
X68335858Y-44270583D01*
X68250931Y-44111695D01*
X68198633Y-43939294D01*
X68180975Y-43760000D01*
X68198633Y-43580706D01*
X68250931Y-43408305D01*
X68335858Y-43249417D01*
X68450151Y-43110151D01*
X68589417Y-42995858D01*
X68748305Y-42910931D01*
X68920706Y-42858633D01*
X69055069Y-42845400D01*
X69144931Y-42845400D01*
X69279294Y-42858633D01*
X69279294Y-42858633D01*
G37*
G36*
X66739294Y-42858633D02*
G01*
X66911695Y-42910931D01*
X67070583Y-42995858D01*
X67209849Y-43110151D01*
X67324142Y-43249417D01*
X67409069Y-43408305D01*
X67461367Y-43580706D01*
X67479025Y-43760000D01*
X67461367Y-43939294D01*
X67409069Y-44111695D01*
X67324142Y-44270583D01*
X67209849Y-44409849D01*
X67070583Y-44524142D01*
X66911695Y-44609069D01*
X66739294Y-44661367D01*
X66604931Y-44674600D01*
X66515069Y-44674600D01*
X66380706Y-44661367D01*
X66208305Y-44609069D01*
X66049417Y-44524142D01*
X65910151Y-44409849D01*
X65795858Y-44270583D01*
X65710931Y-44111695D01*
X65658633Y-43939294D01*
X65640975Y-43760000D01*
X65658633Y-43580706D01*
X65710931Y-43408305D01*
X65795858Y-43249417D01*
X65910151Y-43110151D01*
X66049417Y-42995858D01*
X66208305Y-42910931D01*
X66380706Y-42858633D01*
X66515069Y-42845400D01*
X66604931Y-42845400D01*
X66739294Y-42858633D01*
X66739294Y-42858633D01*
G37*
G36*
X61473993Y-41884203D02*
G01*
X61538411Y-41903744D01*
X61597781Y-41935478D01*
X61649817Y-41978183D01*
X61692522Y-42030219D01*
X61724256Y-42089589D01*
X61743797Y-42154007D01*
X61751000Y-42227140D01*
X61751000Y-43152860D01*
X61743797Y-43225993D01*
X61724256Y-43290411D01*
X61692522Y-43349781D01*
X61649817Y-43401817D01*
X61597781Y-43444522D01*
X61538411Y-43476256D01*
X61473993Y-43495797D01*
X61400860Y-43503000D01*
X58999140Y-43503000D01*
X58926007Y-43495797D01*
X58861589Y-43476256D01*
X58802219Y-43444522D01*
X58750183Y-43401817D01*
X58707478Y-43349781D01*
X58675744Y-43290411D01*
X58656203Y-43225993D01*
X58649000Y-43152860D01*
X58649000Y-42227140D01*
X58656203Y-42154007D01*
X58675744Y-42089589D01*
X58707478Y-42030219D01*
X58750183Y-41978183D01*
X58802219Y-41935478D01*
X58861589Y-41903744D01*
X58926007Y-41884203D01*
X58999140Y-41877000D01*
X61400860Y-41877000D01*
X61473993Y-41884203D01*
X61473993Y-41884203D01*
G37*
G36*
X92335443Y-40655519D02*
G01*
X92401627Y-40662037D01*
X92571466Y-40713557D01*
X92727991Y-40797222D01*
X92743294Y-40809781D01*
X92865186Y-40909814D01*
X92948448Y-41011271D01*
X92977778Y-41047009D01*
X93061443Y-41203534D01*
X93112963Y-41373373D01*
X93130359Y-41550000D01*
X93112963Y-41726627D01*
X93089158Y-41805101D01*
X93061442Y-41896468D01*
X93039106Y-41938255D01*
X92977778Y-42052991D01*
X92973945Y-42057661D01*
X92865186Y-42190186D01*
X92763729Y-42273448D01*
X92727991Y-42302778D01*
X92571466Y-42386443D01*
X92401627Y-42437963D01*
X92335442Y-42444482D01*
X92269260Y-42451000D01*
X91930740Y-42451000D01*
X91864558Y-42444482D01*
X91798373Y-42437963D01*
X91628534Y-42386443D01*
X91472009Y-42302778D01*
X91436271Y-42273448D01*
X91334814Y-42190186D01*
X91226055Y-42057661D01*
X91222222Y-42052991D01*
X91160894Y-41938255D01*
X91138558Y-41896468D01*
X91110842Y-41805101D01*
X91087037Y-41726627D01*
X91069641Y-41550000D01*
X91087037Y-41373373D01*
X91138557Y-41203534D01*
X91222222Y-41047009D01*
X91251552Y-41011271D01*
X91334814Y-40909814D01*
X91456706Y-40809781D01*
X91472009Y-40797222D01*
X91628534Y-40713557D01*
X91798373Y-40662037D01*
X91864557Y-40655519D01*
X91930740Y-40649000D01*
X92269260Y-40649000D01*
X92335443Y-40655519D01*
X92335443Y-40655519D01*
G37*
G36*
X75567142Y-40638242D02*
G01*
X75715101Y-40699529D01*
X75848255Y-40788499D01*
X75961501Y-40901745D01*
X76050471Y-41034899D01*
X76111758Y-41182858D01*
X76143000Y-41339925D01*
X76143000Y-41500075D01*
X76111758Y-41657142D01*
X76050471Y-41805101D01*
X75961501Y-41938255D01*
X75848255Y-42051501D01*
X75715101Y-42140471D01*
X75567142Y-42201758D01*
X75410075Y-42233000D01*
X75249925Y-42233000D01*
X75092858Y-42201758D01*
X74944899Y-42140471D01*
X74811745Y-42051501D01*
X74698499Y-41938255D01*
X74609529Y-41805101D01*
X74548242Y-41657142D01*
X74517000Y-41500075D01*
X74517000Y-41339925D01*
X74548242Y-41182858D01*
X74609529Y-41034899D01*
X74698499Y-40901745D01*
X74811745Y-40788499D01*
X74944899Y-40699529D01*
X75092858Y-40638242D01*
X75249925Y-40607000D01*
X75410075Y-40607000D01*
X75567142Y-40638242D01*
X75567142Y-40638242D01*
G37*
G36*
X78107142Y-40638242D02*
G01*
X78255101Y-40699529D01*
X78388255Y-40788499D01*
X78501501Y-40901745D01*
X78590471Y-41034899D01*
X78651758Y-41182858D01*
X78683000Y-41339925D01*
X78683000Y-41500075D01*
X78651758Y-41657142D01*
X78590471Y-41805101D01*
X78501501Y-41938255D01*
X78388255Y-42051501D01*
X78255101Y-42140471D01*
X78107142Y-42201758D01*
X77950075Y-42233000D01*
X77789925Y-42233000D01*
X77632858Y-42201758D01*
X77484899Y-42140471D01*
X77351745Y-42051501D01*
X77238499Y-41938255D01*
X77149529Y-41805101D01*
X77088242Y-41657142D01*
X77057000Y-41500075D01*
X77057000Y-41339925D01*
X77088242Y-41182858D01*
X77149529Y-41034899D01*
X77238499Y-40901745D01*
X77351745Y-40788499D01*
X77484899Y-40699529D01*
X77632858Y-40638242D01*
X77789925Y-40607000D01*
X77950075Y-40607000D01*
X78107142Y-40638242D01*
X78107142Y-40638242D01*
G37*
G36*
X69279294Y-40318633D02*
G01*
X69451695Y-40370931D01*
X69610583Y-40455858D01*
X69749849Y-40570151D01*
X69864142Y-40709417D01*
X69949069Y-40868305D01*
X70001367Y-41040706D01*
X70019025Y-41220000D01*
X70001367Y-41399294D01*
X69949069Y-41571695D01*
X69864142Y-41730583D01*
X69749849Y-41869849D01*
X69610583Y-41984142D01*
X69451695Y-42069069D01*
X69279294Y-42121367D01*
X69144931Y-42134600D01*
X69055069Y-42134600D01*
X68920706Y-42121367D01*
X68748305Y-42069069D01*
X68589417Y-41984142D01*
X68450151Y-41869849D01*
X68335858Y-41730583D01*
X68250931Y-41571695D01*
X68198633Y-41399294D01*
X68180975Y-41220000D01*
X68198633Y-41040706D01*
X68250931Y-40868305D01*
X68335858Y-40709417D01*
X68450151Y-40570151D01*
X68589417Y-40455858D01*
X68748305Y-40370931D01*
X68920706Y-40318633D01*
X69055069Y-40305400D01*
X69144931Y-40305400D01*
X69279294Y-40318633D01*
X69279294Y-40318633D01*
G37*
G36*
X66739294Y-40318633D02*
G01*
X66911695Y-40370931D01*
X67070583Y-40455858D01*
X67209849Y-40570151D01*
X67324142Y-40709417D01*
X67409069Y-40868305D01*
X67461367Y-41040706D01*
X67479025Y-41220000D01*
X67461367Y-41399294D01*
X67409069Y-41571695D01*
X67324142Y-41730583D01*
X67209849Y-41869849D01*
X67070583Y-41984142D01*
X66911695Y-42069069D01*
X66739294Y-42121367D01*
X66604931Y-42134600D01*
X66515069Y-42134600D01*
X66380706Y-42121367D01*
X66208305Y-42069069D01*
X66049417Y-41984142D01*
X65910151Y-41869849D01*
X65795858Y-41730583D01*
X65710931Y-41571695D01*
X65658633Y-41399294D01*
X65640975Y-41220000D01*
X65658633Y-41040706D01*
X65710931Y-40868305D01*
X65795858Y-40709417D01*
X65910151Y-40570151D01*
X66049417Y-40455858D01*
X66208305Y-40370931D01*
X66380706Y-40318633D01*
X66515069Y-40305400D01*
X66604931Y-40305400D01*
X66739294Y-40318633D01*
X66739294Y-40318633D01*
G37*
G36*
X61473993Y-39344203D02*
G01*
X61538411Y-39363744D01*
X61597781Y-39395478D01*
X61649817Y-39438183D01*
X61692522Y-39490219D01*
X61724256Y-39549589D01*
X61743797Y-39614007D01*
X61751000Y-39687140D01*
X61751000Y-40612860D01*
X61743797Y-40685993D01*
X61724256Y-40750411D01*
X61692522Y-40809781D01*
X61649817Y-40861817D01*
X61597781Y-40904522D01*
X61538411Y-40936256D01*
X61473993Y-40955797D01*
X61400860Y-40963000D01*
X58999140Y-40963000D01*
X58926007Y-40955797D01*
X58861589Y-40936256D01*
X58802219Y-40904522D01*
X58750183Y-40861817D01*
X58707478Y-40809781D01*
X58675744Y-40750411D01*
X58656203Y-40685993D01*
X58649000Y-40612860D01*
X58649000Y-39687140D01*
X58656203Y-39614007D01*
X58675744Y-39549589D01*
X58707478Y-39490219D01*
X58750183Y-39438183D01*
X58802219Y-39395478D01*
X58861589Y-39363744D01*
X58926007Y-39344203D01*
X58999140Y-39337000D01*
X61400860Y-39337000D01*
X61473993Y-39344203D01*
X61473993Y-39344203D01*
G37*
G36*
X61473993Y-36804203D02*
G01*
X61538411Y-36823744D01*
X61597781Y-36855478D01*
X61649817Y-36898183D01*
X61692522Y-36950219D01*
X61724256Y-37009589D01*
X61743797Y-37074007D01*
X61751000Y-37147140D01*
X61751000Y-38072860D01*
X61743797Y-38145993D01*
X61724256Y-38210411D01*
X61692522Y-38269781D01*
X61649817Y-38321817D01*
X61597781Y-38364522D01*
X61538411Y-38396256D01*
X61473993Y-38415797D01*
X61400860Y-38423000D01*
X58999140Y-38423000D01*
X58926007Y-38415797D01*
X58861589Y-38396256D01*
X58802219Y-38364522D01*
X58750183Y-38321817D01*
X58707478Y-38269781D01*
X58675744Y-38210411D01*
X58656203Y-38145993D01*
X58649000Y-38072860D01*
X58649000Y-37147140D01*
X58656203Y-37074007D01*
X58675744Y-37009589D01*
X58707478Y-36950219D01*
X58750183Y-36898183D01*
X58802219Y-36855478D01*
X58861589Y-36823744D01*
X58926007Y-36804203D01*
X58999140Y-36797000D01*
X61400860Y-36797000D01*
X61473993Y-36804203D01*
X61473993Y-36804203D01*
G37*
G36*
X61473993Y-34264203D02*
G01*
X61538411Y-34283744D01*
X61597781Y-34315478D01*
X61649817Y-34358183D01*
X61692522Y-34410219D01*
X61724256Y-34469589D01*
X61743797Y-34534007D01*
X61751000Y-34607140D01*
X61751000Y-35532860D01*
X61743797Y-35605993D01*
X61724256Y-35670411D01*
X61692522Y-35729781D01*
X61649817Y-35781817D01*
X61597781Y-35824522D01*
X61538411Y-35856256D01*
X61473993Y-35875797D01*
X61400860Y-35883000D01*
X58999140Y-35883000D01*
X58926007Y-35875797D01*
X58861589Y-35856256D01*
X58802219Y-35824522D01*
X58750183Y-35781817D01*
X58707478Y-35729781D01*
X58675744Y-35670411D01*
X58656203Y-35605993D01*
X58649000Y-35532860D01*
X58649000Y-34607140D01*
X58656203Y-34534007D01*
X58675744Y-34469589D01*
X58707478Y-34410219D01*
X58750183Y-34358183D01*
X58802219Y-34315478D01*
X58861589Y-34283744D01*
X58926007Y-34264203D01*
X58999140Y-34257000D01*
X61400860Y-34257000D01*
X61473993Y-34264203D01*
X61473993Y-34264203D01*
G37*
M02*
