G04 #@! TF.GenerationSoftware,KiCad,Pcbnew,5.0.1*
G04 #@! TF.CreationDate,2019-11-02T01:16:45+01:00*
G04 #@! TF.ProjectId,JlinkBreakout,4A6C696E6B427265616B6F75742E6B69,rev?*
G04 #@! TF.SameCoordinates,Original*
G04 #@! TF.FileFunction,Soldermask,Bot*
G04 #@! TF.FilePolarity,Negative*
%FSLAX46Y46*%
G04 Gerber Fmt 4.6, Leading zero omitted, Abs format (unit mm)*
G04 Created by KiCad (PCBNEW 5.0.1) date Sat 02 Nov 2019 01:16:45 AM CET*
%MOMM*%
%LPD*%
G01*
G04 APERTURE LIST*
%ADD10C,0.050000*%
%ADD11C,0.100000*%
G04 APERTURE END LIST*
D10*
X58500000Y-60000000D02*
G75*
G02X58000000Y-59500000I0J500000D01*
G01*
X58000000Y-33500000D02*
G75*
G02X58500000Y-33000000I500000J0D01*
G01*
X96000000Y-38000000D02*
G75*
G02X96500000Y-38500000I0J-500000D01*
G01*
X96500000Y-54500000D02*
G75*
G02X96000000Y-55000000I-500000J0D01*
G01*
X86000000Y-38000000D02*
X65000000Y-33000000D01*
X96000000Y-38000000D02*
X86000000Y-38000000D01*
X96500000Y-54500000D02*
X96500000Y-38500000D01*
X86000000Y-55000000D02*
X96000000Y-55000000D01*
X65000000Y-60000000D02*
X86000000Y-55000000D01*
X65000000Y-33000000D02*
X58500000Y-33000000D01*
X58500000Y-60000000D02*
X65000000Y-60000000D01*
X58000000Y-33500000D02*
X58000000Y-59500000D01*
D11*
G36*
X61473993Y-57124203D02*
X61538414Y-57143744D01*
X61597776Y-57175475D01*
X61649817Y-57218183D01*
X61692525Y-57270224D01*
X61724256Y-57329586D01*
X61743797Y-57394007D01*
X61751000Y-57467141D01*
X61751000Y-58392859D01*
X61743797Y-58465993D01*
X61724256Y-58530414D01*
X61692525Y-58589776D01*
X61649817Y-58641817D01*
X61597776Y-58684525D01*
X61538414Y-58716256D01*
X61473993Y-58735797D01*
X61400859Y-58743000D01*
X58999141Y-58743000D01*
X58926007Y-58735797D01*
X58861586Y-58716256D01*
X58802224Y-58684525D01*
X58750183Y-58641817D01*
X58707475Y-58589776D01*
X58675744Y-58530414D01*
X58656203Y-58465993D01*
X58649000Y-58392859D01*
X58649000Y-57467141D01*
X58656203Y-57394007D01*
X58675744Y-57329586D01*
X58707475Y-57270224D01*
X58750183Y-57218183D01*
X58802224Y-57175475D01*
X58861586Y-57143744D01*
X58926007Y-57124203D01*
X58999141Y-57117000D01*
X61400859Y-57117000D01*
X61473993Y-57124203D01*
X61473993Y-57124203D01*
G37*
G36*
X61473993Y-54584203D02*
X61538414Y-54603744D01*
X61597776Y-54635475D01*
X61649817Y-54678183D01*
X61692525Y-54730224D01*
X61724256Y-54789586D01*
X61743797Y-54854007D01*
X61751000Y-54927141D01*
X61751000Y-55852859D01*
X61743797Y-55925993D01*
X61724256Y-55990414D01*
X61692525Y-56049776D01*
X61649817Y-56101817D01*
X61597776Y-56144525D01*
X61538414Y-56176256D01*
X61473993Y-56195797D01*
X61400859Y-56203000D01*
X58999141Y-56203000D01*
X58926007Y-56195797D01*
X58861586Y-56176256D01*
X58802224Y-56144525D01*
X58750183Y-56101817D01*
X58707475Y-56049776D01*
X58675744Y-55990414D01*
X58656203Y-55925993D01*
X58649000Y-55852859D01*
X58649000Y-54927141D01*
X58656203Y-54854007D01*
X58675744Y-54789586D01*
X58707475Y-54730224D01*
X58750183Y-54678183D01*
X58802224Y-54635475D01*
X58861586Y-54603744D01*
X58926007Y-54584203D01*
X58999141Y-54577000D01*
X61400859Y-54577000D01*
X61473993Y-54584203D01*
X61473993Y-54584203D01*
G37*
G36*
X64784466Y-54403565D02*
X64823137Y-54415296D01*
X64858779Y-54434348D01*
X64890017Y-54459983D01*
X64915652Y-54491221D01*
X64934704Y-54526863D01*
X64946435Y-54565534D01*
X64951000Y-54611888D01*
X64951000Y-55263112D01*
X64946435Y-55309466D01*
X64934704Y-55348137D01*
X64915652Y-55383779D01*
X64890017Y-55415017D01*
X64858779Y-55440652D01*
X64823137Y-55459704D01*
X64784466Y-55471435D01*
X64738112Y-55476000D01*
X63661888Y-55476000D01*
X63615534Y-55471435D01*
X63576863Y-55459704D01*
X63541221Y-55440652D01*
X63509983Y-55415017D01*
X63484348Y-55383779D01*
X63465296Y-55348137D01*
X63453565Y-55309466D01*
X63449000Y-55263112D01*
X63449000Y-54611888D01*
X63453565Y-54565534D01*
X63465296Y-54526863D01*
X63484348Y-54491221D01*
X63509983Y-54459983D01*
X63541221Y-54434348D01*
X63576863Y-54415296D01*
X63615534Y-54403565D01*
X63661888Y-54399000D01*
X64738112Y-54399000D01*
X64784466Y-54403565D01*
X64784466Y-54403565D01*
G37*
G36*
X70384466Y-54403565D02*
X70423137Y-54415296D01*
X70458779Y-54434348D01*
X70490017Y-54459983D01*
X70515652Y-54491221D01*
X70534704Y-54526863D01*
X70546435Y-54565534D01*
X70551000Y-54611888D01*
X70551000Y-55263112D01*
X70546435Y-55309466D01*
X70534704Y-55348137D01*
X70515652Y-55383779D01*
X70490017Y-55415017D01*
X70458779Y-55440652D01*
X70423137Y-55459704D01*
X70384466Y-55471435D01*
X70338112Y-55476000D01*
X69261888Y-55476000D01*
X69215534Y-55471435D01*
X69176863Y-55459704D01*
X69141221Y-55440652D01*
X69109983Y-55415017D01*
X69084348Y-55383779D01*
X69065296Y-55348137D01*
X69053565Y-55309466D01*
X69049000Y-55263112D01*
X69049000Y-54611888D01*
X69053565Y-54565534D01*
X69065296Y-54526863D01*
X69084348Y-54491221D01*
X69109983Y-54459983D01*
X69141221Y-54434348D01*
X69176863Y-54415296D01*
X69215534Y-54403565D01*
X69261888Y-54399000D01*
X70338112Y-54399000D01*
X70384466Y-54403565D01*
X70384466Y-54403565D01*
G37*
G36*
X66481000Y-55326000D02*
X65319000Y-55326000D01*
X65319000Y-52674000D01*
X66481000Y-52674000D01*
X66481000Y-55326000D01*
X66481000Y-55326000D01*
G37*
G36*
X68681000Y-55326000D02*
X67519000Y-55326000D01*
X67519000Y-54574000D01*
X68681000Y-54574000D01*
X68681000Y-55326000D01*
X68681000Y-55326000D01*
G37*
G36*
X78107142Y-52068242D02*
X78255102Y-52129530D01*
X78268052Y-52138183D01*
X78387000Y-52217661D01*
X78388258Y-52218502D01*
X78501498Y-52331742D01*
X78581184Y-52451000D01*
X78590471Y-52464900D01*
X78604354Y-52498417D01*
X78651758Y-52612858D01*
X78683000Y-52769925D01*
X78683000Y-52930075D01*
X78651758Y-53087142D01*
X78590470Y-53235102D01*
X78576172Y-53256500D01*
X78501499Y-53368257D01*
X78388257Y-53481499D01*
X78347429Y-53508779D01*
X78255102Y-53570470D01*
X78107142Y-53631758D01*
X77950075Y-53663000D01*
X77789925Y-53663000D01*
X77632858Y-53631758D01*
X77484898Y-53570470D01*
X77392571Y-53508779D01*
X77351743Y-53481499D01*
X77238501Y-53368257D01*
X77163828Y-53256500D01*
X77149530Y-53235102D01*
X77088242Y-53087142D01*
X77057000Y-52930075D01*
X77057000Y-52769925D01*
X77088242Y-52612858D01*
X77135646Y-52498417D01*
X77149529Y-52464900D01*
X77158817Y-52451000D01*
X77238502Y-52331742D01*
X77351742Y-52218502D01*
X77353001Y-52217661D01*
X77471948Y-52138183D01*
X77484898Y-52129530D01*
X77632858Y-52068242D01*
X77789925Y-52037000D01*
X77950075Y-52037000D01*
X78107142Y-52068242D01*
X78107142Y-52068242D01*
G37*
G36*
X61473993Y-52044203D02*
X61538414Y-52063744D01*
X61597776Y-52095475D01*
X61649817Y-52138183D01*
X61692525Y-52190224D01*
X61724256Y-52249586D01*
X61743797Y-52314007D01*
X61751000Y-52387141D01*
X61751000Y-53312859D01*
X61743797Y-53385993D01*
X61724256Y-53450414D01*
X61692525Y-53509776D01*
X61649817Y-53561817D01*
X61597776Y-53604525D01*
X61538414Y-53636256D01*
X61473993Y-53655797D01*
X61400859Y-53663000D01*
X58999141Y-53663000D01*
X58926007Y-53655797D01*
X58861586Y-53636256D01*
X58802224Y-53604525D01*
X58750183Y-53561817D01*
X58707475Y-53509776D01*
X58675744Y-53450414D01*
X58656203Y-53385993D01*
X58649000Y-53312859D01*
X58649000Y-52387141D01*
X58656203Y-52314007D01*
X58675744Y-52249586D01*
X58707475Y-52190224D01*
X58750183Y-52138183D01*
X58802224Y-52095475D01*
X58861586Y-52063744D01*
X58926007Y-52044203D01*
X58999141Y-52037000D01*
X61400859Y-52037000D01*
X61473993Y-52044203D01*
X61473993Y-52044203D01*
G37*
G36*
X75567142Y-52068242D02*
X75715102Y-52129530D01*
X75728052Y-52138183D01*
X75847000Y-52217661D01*
X75848258Y-52218502D01*
X75961498Y-52331742D01*
X76041184Y-52451000D01*
X76050471Y-52464900D01*
X76064354Y-52498417D01*
X76111758Y-52612858D01*
X76143000Y-52769925D01*
X76143000Y-52930075D01*
X76111758Y-53087142D01*
X76050470Y-53235102D01*
X76036172Y-53256500D01*
X75961499Y-53368257D01*
X75848257Y-53481499D01*
X75807429Y-53508779D01*
X75715102Y-53570470D01*
X75567142Y-53631758D01*
X75410075Y-53663000D01*
X75249925Y-53663000D01*
X75092858Y-53631758D01*
X74944898Y-53570470D01*
X74852571Y-53508779D01*
X74811743Y-53481499D01*
X74698501Y-53368257D01*
X74623828Y-53256500D01*
X74609530Y-53235102D01*
X74548242Y-53087142D01*
X74517000Y-52930075D01*
X74517000Y-52769925D01*
X74548242Y-52612858D01*
X74595646Y-52498417D01*
X74609529Y-52464900D01*
X74618817Y-52451000D01*
X74698502Y-52331742D01*
X74811742Y-52218502D01*
X74813001Y-52217661D01*
X74931948Y-52138183D01*
X74944898Y-52129530D01*
X75092858Y-52068242D01*
X75249925Y-52037000D01*
X75410075Y-52037000D01*
X75567142Y-52068242D01*
X75567142Y-52068242D01*
G37*
G36*
X70384466Y-52528565D02*
X70423137Y-52540296D01*
X70458779Y-52559348D01*
X70490017Y-52584983D01*
X70515652Y-52616221D01*
X70534704Y-52651863D01*
X70546435Y-52690534D01*
X70551000Y-52736888D01*
X70551000Y-53388112D01*
X70546435Y-53434466D01*
X70534704Y-53473137D01*
X70515652Y-53508779D01*
X70490017Y-53540017D01*
X70458779Y-53565652D01*
X70423137Y-53584704D01*
X70384466Y-53596435D01*
X70338112Y-53601000D01*
X69261888Y-53601000D01*
X69215534Y-53596435D01*
X69176863Y-53584704D01*
X69141221Y-53565652D01*
X69109983Y-53540017D01*
X69084348Y-53508779D01*
X69065296Y-53473137D01*
X69053565Y-53434466D01*
X69049000Y-53388112D01*
X69049000Y-52736888D01*
X69053565Y-52690534D01*
X69065296Y-52651863D01*
X69084348Y-52616221D01*
X69109983Y-52584983D01*
X69141221Y-52559348D01*
X69176863Y-52540296D01*
X69215534Y-52528565D01*
X69261888Y-52524000D01*
X70338112Y-52524000D01*
X70384466Y-52528565D01*
X70384466Y-52528565D01*
G37*
G36*
X64784466Y-52528565D02*
X64823137Y-52540296D01*
X64858779Y-52559348D01*
X64890017Y-52584983D01*
X64915652Y-52616221D01*
X64934704Y-52651863D01*
X64946435Y-52690534D01*
X64951000Y-52736888D01*
X64951000Y-53388112D01*
X64946435Y-53434466D01*
X64934704Y-53473137D01*
X64915652Y-53508779D01*
X64890017Y-53540017D01*
X64858779Y-53565652D01*
X64823137Y-53584704D01*
X64784466Y-53596435D01*
X64738112Y-53601000D01*
X63661888Y-53601000D01*
X63615534Y-53596435D01*
X63576863Y-53584704D01*
X63541221Y-53565652D01*
X63509983Y-53540017D01*
X63484348Y-53508779D01*
X63465296Y-53473137D01*
X63453565Y-53434466D01*
X63449000Y-53388112D01*
X63449000Y-52736888D01*
X63453565Y-52690534D01*
X63465296Y-52651863D01*
X63484348Y-52616221D01*
X63509983Y-52584983D01*
X63541221Y-52559348D01*
X63576863Y-52540296D01*
X63615534Y-52528565D01*
X63661888Y-52524000D01*
X64738112Y-52524000D01*
X64784466Y-52528565D01*
X64784466Y-52528565D01*
G37*
G36*
X68681000Y-53426000D02*
X67519000Y-53426000D01*
X67519000Y-52674000D01*
X68681000Y-52674000D01*
X68681000Y-53426000D01*
X68681000Y-53426000D01*
G37*
G36*
X73729591Y-52278085D02*
X73763569Y-52288393D01*
X73794887Y-52305133D01*
X73822339Y-52327661D01*
X73844867Y-52355113D01*
X73861607Y-52386431D01*
X73871915Y-52420409D01*
X73876000Y-52461890D01*
X73876000Y-53138110D01*
X73871915Y-53179591D01*
X73861607Y-53213569D01*
X73844867Y-53244887D01*
X73822339Y-53272339D01*
X73794887Y-53294867D01*
X73763569Y-53311607D01*
X73729591Y-53321915D01*
X73688110Y-53326000D01*
X73086890Y-53326000D01*
X73045409Y-53321915D01*
X73011431Y-53311607D01*
X72980113Y-53294867D01*
X72952661Y-53272339D01*
X72930133Y-53244887D01*
X72913393Y-53213569D01*
X72903085Y-53179591D01*
X72899000Y-53138110D01*
X72899000Y-52461890D01*
X72903085Y-52420409D01*
X72913393Y-52386431D01*
X72930133Y-52355113D01*
X72952661Y-52327661D01*
X72980113Y-52305133D01*
X73011431Y-52288393D01*
X73045409Y-52278085D01*
X73086890Y-52274000D01*
X73688110Y-52274000D01*
X73729591Y-52278085D01*
X73729591Y-52278085D01*
G37*
G36*
X72154591Y-52278085D02*
X72188569Y-52288393D01*
X72219887Y-52305133D01*
X72247339Y-52327661D01*
X72269867Y-52355113D01*
X72286607Y-52386431D01*
X72296915Y-52420409D01*
X72301000Y-52461890D01*
X72301000Y-53138110D01*
X72296915Y-53179591D01*
X72286607Y-53213569D01*
X72269867Y-53244887D01*
X72247339Y-53272339D01*
X72219887Y-53294867D01*
X72188569Y-53311607D01*
X72154591Y-53321915D01*
X72113110Y-53326000D01*
X71511890Y-53326000D01*
X71470409Y-53321915D01*
X71436431Y-53311607D01*
X71405113Y-53294867D01*
X71377661Y-53272339D01*
X71355133Y-53244887D01*
X71338393Y-53213569D01*
X71328085Y-53179591D01*
X71324000Y-53138110D01*
X71324000Y-52461890D01*
X71328085Y-52420409D01*
X71338393Y-52386431D01*
X71355133Y-52355113D01*
X71377661Y-52327661D01*
X71405113Y-52305133D01*
X71436431Y-52288393D01*
X71470409Y-52278085D01*
X71511890Y-52274000D01*
X72113110Y-52274000D01*
X72154591Y-52278085D01*
X72154591Y-52278085D01*
G37*
G36*
X92983600Y-50652989D02*
X93016649Y-50663014D01*
X93047106Y-50679294D01*
X93073799Y-50701201D01*
X93095706Y-50727894D01*
X93111986Y-50758351D01*
X93122011Y-50791400D01*
X93126000Y-50831904D01*
X93126000Y-52268096D01*
X93122011Y-52308600D01*
X93111986Y-52341649D01*
X93095706Y-52372106D01*
X93073799Y-52398799D01*
X93047106Y-52420706D01*
X93016649Y-52436986D01*
X92983600Y-52447011D01*
X92943096Y-52451000D01*
X91256904Y-52451000D01*
X91216400Y-52447011D01*
X91183351Y-52436986D01*
X91152894Y-52420706D01*
X91126201Y-52398799D01*
X91104294Y-52372106D01*
X91088014Y-52341649D01*
X91077989Y-52308600D01*
X91074000Y-52268096D01*
X91074000Y-50831904D01*
X91077989Y-50791400D01*
X91088014Y-50758351D01*
X91104294Y-50727894D01*
X91126201Y-50701201D01*
X91152894Y-50679294D01*
X91183351Y-50663014D01*
X91216400Y-50652989D01*
X91256904Y-50649000D01*
X92943096Y-50649000D01*
X92983600Y-50652989D01*
X92983600Y-50652989D01*
G37*
G36*
X78107142Y-49528242D02*
X78255102Y-49589530D01*
X78268052Y-49598183D01*
X78387000Y-49677661D01*
X78388258Y-49678502D01*
X78501498Y-49791742D01*
X78590470Y-49924898D01*
X78651758Y-50072858D01*
X78683000Y-50229925D01*
X78683000Y-50390075D01*
X78651758Y-50547142D01*
X78609566Y-50649000D01*
X78603762Y-50663014D01*
X78590470Y-50695102D01*
X78576172Y-50716500D01*
X78501499Y-50828257D01*
X78388257Y-50941499D01*
X78345937Y-50969776D01*
X78255102Y-51030470D01*
X78107142Y-51091758D01*
X77950075Y-51123000D01*
X77789925Y-51123000D01*
X77632858Y-51091758D01*
X77484898Y-51030470D01*
X77394063Y-50969776D01*
X77351743Y-50941499D01*
X77238501Y-50828257D01*
X77163828Y-50716500D01*
X77149530Y-50695102D01*
X77136239Y-50663014D01*
X77130434Y-50649000D01*
X77088242Y-50547142D01*
X77057000Y-50390075D01*
X77057000Y-50229925D01*
X77088242Y-50072858D01*
X77149530Y-49924898D01*
X77238502Y-49791742D01*
X77351742Y-49678502D01*
X77353001Y-49677661D01*
X77471948Y-49598183D01*
X77484898Y-49589530D01*
X77632858Y-49528242D01*
X77789925Y-49497000D01*
X77950075Y-49497000D01*
X78107142Y-49528242D01*
X78107142Y-49528242D01*
G37*
G36*
X75567142Y-49528242D02*
X75715102Y-49589530D01*
X75728052Y-49598183D01*
X75847000Y-49677661D01*
X75848258Y-49678502D01*
X75961498Y-49791742D01*
X76050470Y-49924898D01*
X76111758Y-50072858D01*
X76143000Y-50229925D01*
X76143000Y-50390075D01*
X76111758Y-50547142D01*
X76069566Y-50649000D01*
X76063762Y-50663014D01*
X76050470Y-50695102D01*
X76036172Y-50716500D01*
X75961499Y-50828257D01*
X75848257Y-50941499D01*
X75805937Y-50969776D01*
X75715102Y-51030470D01*
X75567142Y-51091758D01*
X75410075Y-51123000D01*
X75249925Y-51123000D01*
X75092858Y-51091758D01*
X74944898Y-51030470D01*
X74854063Y-50969776D01*
X74811743Y-50941499D01*
X74698501Y-50828257D01*
X74623828Y-50716500D01*
X74609530Y-50695102D01*
X74596239Y-50663014D01*
X74590434Y-50649000D01*
X74548242Y-50547142D01*
X74517000Y-50390075D01*
X74517000Y-50229925D01*
X74548242Y-50072858D01*
X74609530Y-49924898D01*
X74698502Y-49791742D01*
X74811742Y-49678502D01*
X74813001Y-49677661D01*
X74931948Y-49598183D01*
X74944898Y-49589530D01*
X75092858Y-49528242D01*
X75249925Y-49497000D01*
X75410075Y-49497000D01*
X75567142Y-49528242D01*
X75567142Y-49528242D01*
G37*
G36*
X61473993Y-49504203D02*
X61538414Y-49523744D01*
X61597776Y-49555475D01*
X61649817Y-49598183D01*
X61692525Y-49650224D01*
X61724256Y-49709586D01*
X61743797Y-49774007D01*
X61751000Y-49847141D01*
X61751000Y-50772859D01*
X61743797Y-50845993D01*
X61724256Y-50910414D01*
X61692525Y-50969776D01*
X61649817Y-51021817D01*
X61597776Y-51064525D01*
X61538414Y-51096256D01*
X61473993Y-51115797D01*
X61400859Y-51123000D01*
X58999141Y-51123000D01*
X58926007Y-51115797D01*
X58861586Y-51096256D01*
X58802224Y-51064525D01*
X58750183Y-51021817D01*
X58707475Y-50969776D01*
X58675744Y-50910414D01*
X58656203Y-50845993D01*
X58649000Y-50772859D01*
X58649000Y-49847141D01*
X58656203Y-49774007D01*
X58675744Y-49709586D01*
X58707475Y-49650224D01*
X58750183Y-49598183D01*
X58802224Y-49555475D01*
X58861586Y-49523744D01*
X58926007Y-49504203D01*
X58999141Y-49497000D01*
X61400859Y-49497000D01*
X61473993Y-49504203D01*
X61473993Y-49504203D01*
G37*
G36*
X92331193Y-48155100D02*
X92401627Y-48162037D01*
X92514853Y-48196384D01*
X92571467Y-48213557D01*
X92650504Y-48255804D01*
X92727991Y-48297222D01*
X92738678Y-48305993D01*
X92865186Y-48409814D01*
X92948448Y-48511271D01*
X92977778Y-48547009D01*
X92977779Y-48547011D01*
X93061443Y-48703533D01*
X93061443Y-48703534D01*
X93112963Y-48873373D01*
X93130359Y-49050000D01*
X93112963Y-49226627D01*
X93078616Y-49339853D01*
X93061443Y-49396467D01*
X93007706Y-49497000D01*
X92977778Y-49552991D01*
X92975739Y-49555475D01*
X92865186Y-49690186D01*
X92763729Y-49773448D01*
X92727991Y-49802778D01*
X92727989Y-49802779D01*
X92571467Y-49886443D01*
X92515237Y-49903500D01*
X92401627Y-49937963D01*
X92335443Y-49944481D01*
X92269260Y-49951000D01*
X91930740Y-49951000D01*
X91864558Y-49944482D01*
X91798373Y-49937963D01*
X91684763Y-49903500D01*
X91628533Y-49886443D01*
X91472011Y-49802779D01*
X91472009Y-49802778D01*
X91436271Y-49773448D01*
X91334814Y-49690186D01*
X91224261Y-49555475D01*
X91222222Y-49552991D01*
X91192294Y-49497000D01*
X91138557Y-49396467D01*
X91121384Y-49339853D01*
X91087037Y-49226627D01*
X91069641Y-49050000D01*
X91087037Y-48873373D01*
X91138557Y-48703534D01*
X91138557Y-48703533D01*
X91222221Y-48547011D01*
X91222222Y-48547009D01*
X91251552Y-48511271D01*
X91334814Y-48409814D01*
X91461322Y-48305993D01*
X91472009Y-48297222D01*
X91549496Y-48255804D01*
X91628533Y-48213557D01*
X91685147Y-48196384D01*
X91798373Y-48162037D01*
X91868807Y-48155100D01*
X91930740Y-48149000D01*
X92269260Y-48149000D01*
X92331193Y-48155100D01*
X92331193Y-48155100D01*
G37*
G36*
X75567142Y-46988242D02*
X75715102Y-47049530D01*
X75728052Y-47058183D01*
X75847000Y-47137661D01*
X75848258Y-47138502D01*
X75961498Y-47251742D01*
X76050470Y-47384898D01*
X76111758Y-47532858D01*
X76143000Y-47689925D01*
X76143000Y-47850075D01*
X76111758Y-48007142D01*
X76064354Y-48121583D01*
X76050471Y-48155100D01*
X75961499Y-48288257D01*
X75848257Y-48401499D01*
X75835811Y-48409815D01*
X75715102Y-48490470D01*
X75567142Y-48551758D01*
X75410075Y-48583000D01*
X75249925Y-48583000D01*
X75092858Y-48551758D01*
X74944898Y-48490470D01*
X74824189Y-48409815D01*
X74811743Y-48401499D01*
X74698501Y-48288257D01*
X74609529Y-48155100D01*
X74595646Y-48121583D01*
X74548242Y-48007142D01*
X74517000Y-47850075D01*
X74517000Y-47689925D01*
X74548242Y-47532858D01*
X74609530Y-47384898D01*
X74698502Y-47251742D01*
X74811742Y-47138502D01*
X74813001Y-47137661D01*
X74931948Y-47058183D01*
X74944898Y-47049530D01*
X75092858Y-46988242D01*
X75249925Y-46957000D01*
X75410075Y-46957000D01*
X75567142Y-46988242D01*
X75567142Y-46988242D01*
G37*
G36*
X78107142Y-46988242D02*
X78255102Y-47049530D01*
X78268052Y-47058183D01*
X78387000Y-47137661D01*
X78388258Y-47138502D01*
X78501498Y-47251742D01*
X78590470Y-47384898D01*
X78651758Y-47532858D01*
X78683000Y-47689925D01*
X78683000Y-47850075D01*
X78651758Y-48007142D01*
X78604354Y-48121583D01*
X78590471Y-48155100D01*
X78501499Y-48288257D01*
X78388257Y-48401499D01*
X78375811Y-48409815D01*
X78255102Y-48490470D01*
X78107142Y-48551758D01*
X77950075Y-48583000D01*
X77789925Y-48583000D01*
X77632858Y-48551758D01*
X77484898Y-48490470D01*
X77364189Y-48409815D01*
X77351743Y-48401499D01*
X77238501Y-48288257D01*
X77149529Y-48155100D01*
X77135646Y-48121583D01*
X77088242Y-48007142D01*
X77057000Y-47850075D01*
X77057000Y-47689925D01*
X77088242Y-47532858D01*
X77149530Y-47384898D01*
X77238502Y-47251742D01*
X77351742Y-47138502D01*
X77353001Y-47137661D01*
X77471948Y-47058183D01*
X77484898Y-47049530D01*
X77632858Y-46988242D01*
X77789925Y-46957000D01*
X77950075Y-46957000D01*
X78107142Y-46988242D01*
X78107142Y-46988242D01*
G37*
G36*
X61473993Y-46964203D02*
X61538414Y-46983744D01*
X61597776Y-47015475D01*
X61649817Y-47058183D01*
X61692525Y-47110224D01*
X61724256Y-47169586D01*
X61743797Y-47234007D01*
X61751000Y-47307141D01*
X61751000Y-48232859D01*
X61743797Y-48305993D01*
X61724256Y-48370414D01*
X61692525Y-48429776D01*
X61649817Y-48481817D01*
X61597776Y-48524525D01*
X61538414Y-48556256D01*
X61473993Y-48575797D01*
X61400859Y-48583000D01*
X58999141Y-48583000D01*
X58926007Y-48575797D01*
X58861586Y-48556256D01*
X58802224Y-48524525D01*
X58750183Y-48481817D01*
X58707475Y-48429776D01*
X58675744Y-48370414D01*
X58656203Y-48305993D01*
X58649000Y-48232859D01*
X58649000Y-47307141D01*
X58656203Y-47234007D01*
X58675744Y-47169586D01*
X58707475Y-47110224D01*
X58750183Y-47058183D01*
X58802224Y-47015475D01*
X58861586Y-46983744D01*
X58926007Y-46964203D01*
X58999141Y-46957000D01*
X61400859Y-46957000D01*
X61473993Y-46964203D01*
X61473993Y-46964203D01*
G37*
G36*
X92335442Y-45655518D02*
X92401627Y-45662037D01*
X92503234Y-45692859D01*
X92571467Y-45713557D01*
X92695006Y-45779591D01*
X92727991Y-45797222D01*
X92752636Y-45817448D01*
X92865186Y-45909814D01*
X92948448Y-46011271D01*
X92977778Y-46047009D01*
X92977779Y-46047011D01*
X93061443Y-46203533D01*
X93061443Y-46203534D01*
X93112963Y-46373373D01*
X93130359Y-46550000D01*
X93112963Y-46726627D01*
X93087495Y-46810583D01*
X93061443Y-46896467D01*
X93012387Y-46988243D01*
X92977778Y-47052991D01*
X92968628Y-47064140D01*
X92865186Y-47190186D01*
X92790177Y-47251743D01*
X92727991Y-47302778D01*
X92727989Y-47302779D01*
X92571467Y-47386443D01*
X92514853Y-47403616D01*
X92401627Y-47437963D01*
X92335442Y-47444482D01*
X92269260Y-47451000D01*
X91930740Y-47451000D01*
X91864558Y-47444482D01*
X91798373Y-47437963D01*
X91685147Y-47403616D01*
X91628533Y-47386443D01*
X91472011Y-47302779D01*
X91472009Y-47302778D01*
X91409823Y-47251743D01*
X91334814Y-47190186D01*
X91231372Y-47064140D01*
X91222222Y-47052991D01*
X91187613Y-46988243D01*
X91138557Y-46896467D01*
X91112505Y-46810583D01*
X91087037Y-46726627D01*
X91069641Y-46550000D01*
X91087037Y-46373373D01*
X91138557Y-46203534D01*
X91138557Y-46203533D01*
X91222221Y-46047011D01*
X91222222Y-46047009D01*
X91251552Y-46011271D01*
X91334814Y-45909814D01*
X91447364Y-45817448D01*
X91472009Y-45797222D01*
X91504994Y-45779591D01*
X91628533Y-45713557D01*
X91696766Y-45692859D01*
X91798373Y-45662037D01*
X91864558Y-45655518D01*
X91930740Y-45649000D01*
X92269260Y-45649000D01*
X92335442Y-45655518D01*
X92335442Y-45655518D01*
G37*
G36*
X70014600Y-47214600D02*
X68185400Y-47214600D01*
X68185400Y-45385400D01*
X70014600Y-45385400D01*
X70014600Y-47214600D01*
X70014600Y-47214600D01*
G37*
G36*
X66739294Y-45398633D02*
X66911694Y-45450931D01*
X66911696Y-45450932D01*
X67070583Y-45535859D01*
X67209849Y-45650151D01*
X67324141Y-45789417D01*
X67397146Y-45926000D01*
X67409069Y-45948306D01*
X67461367Y-46120706D01*
X67479025Y-46300000D01*
X67461367Y-46479294D01*
X67409069Y-46651694D01*
X67409068Y-46651696D01*
X67324141Y-46810583D01*
X67209849Y-46949849D01*
X67070583Y-47064141D01*
X66911696Y-47149068D01*
X66911694Y-47149069D01*
X66739294Y-47201367D01*
X66604931Y-47214600D01*
X66515069Y-47214600D01*
X66380706Y-47201367D01*
X66208306Y-47149069D01*
X66208304Y-47149068D01*
X66049417Y-47064141D01*
X65910151Y-46949849D01*
X65795859Y-46810583D01*
X65710932Y-46651696D01*
X65710931Y-46651694D01*
X65658633Y-46479294D01*
X65640975Y-46300000D01*
X65658633Y-46120706D01*
X65710931Y-45948306D01*
X65722854Y-45926000D01*
X65795859Y-45789417D01*
X65910151Y-45650151D01*
X66049417Y-45535859D01*
X66208304Y-45450932D01*
X66208306Y-45450931D01*
X66380706Y-45398633D01*
X66515069Y-45385400D01*
X66604931Y-45385400D01*
X66739294Y-45398633D01*
X66739294Y-45398633D01*
G37*
G36*
X61473993Y-44424203D02*
X61538414Y-44443744D01*
X61597776Y-44475475D01*
X61649817Y-44518183D01*
X61692525Y-44570224D01*
X61724256Y-44629586D01*
X61743797Y-44694007D01*
X61751000Y-44767141D01*
X61751000Y-45692859D01*
X61743797Y-45765993D01*
X61724256Y-45830414D01*
X61692525Y-45889776D01*
X61649817Y-45941817D01*
X61597776Y-45984525D01*
X61538414Y-46016256D01*
X61473993Y-46035797D01*
X61400859Y-46043000D01*
X58999141Y-46043000D01*
X58926007Y-46035797D01*
X58861586Y-46016256D01*
X58802224Y-45984525D01*
X58750183Y-45941817D01*
X58707475Y-45889776D01*
X58675744Y-45830414D01*
X58656203Y-45765993D01*
X58649000Y-45692859D01*
X58649000Y-44767141D01*
X58656203Y-44694007D01*
X58675744Y-44629586D01*
X58707475Y-44570224D01*
X58750183Y-44518183D01*
X58802224Y-44475475D01*
X58861586Y-44443744D01*
X58926007Y-44424203D01*
X58999141Y-44417000D01*
X61400859Y-44417000D01*
X61473993Y-44424203D01*
X61473993Y-44424203D01*
G37*
G36*
X76154591Y-44878085D02*
X76188569Y-44888393D01*
X76219887Y-44905133D01*
X76247339Y-44927661D01*
X76269867Y-44955113D01*
X76286607Y-44986431D01*
X76296915Y-45020409D01*
X76301000Y-45061890D01*
X76301000Y-45738110D01*
X76296915Y-45779591D01*
X76286607Y-45813569D01*
X76269867Y-45844887D01*
X76247339Y-45872339D01*
X76219887Y-45894867D01*
X76188569Y-45911607D01*
X76154591Y-45921915D01*
X76113110Y-45926000D01*
X75511890Y-45926000D01*
X75470409Y-45921915D01*
X75436431Y-45911607D01*
X75405113Y-45894867D01*
X75377661Y-45872339D01*
X75355133Y-45844887D01*
X75338393Y-45813569D01*
X75328085Y-45779591D01*
X75324000Y-45738110D01*
X75324000Y-45061890D01*
X75328085Y-45020409D01*
X75338393Y-44986431D01*
X75355133Y-44955113D01*
X75377661Y-44927661D01*
X75405113Y-44905133D01*
X75436431Y-44888393D01*
X75470409Y-44878085D01*
X75511890Y-44874000D01*
X76113110Y-44874000D01*
X76154591Y-44878085D01*
X76154591Y-44878085D01*
G37*
G36*
X77729591Y-44878085D02*
X77763569Y-44888393D01*
X77794887Y-44905133D01*
X77822339Y-44927661D01*
X77844867Y-44955113D01*
X77861607Y-44986431D01*
X77871915Y-45020409D01*
X77876000Y-45061890D01*
X77876000Y-45738110D01*
X77871915Y-45779591D01*
X77861607Y-45813569D01*
X77844867Y-45844887D01*
X77822339Y-45872339D01*
X77794887Y-45894867D01*
X77763569Y-45911607D01*
X77729591Y-45921915D01*
X77688110Y-45926000D01*
X77086890Y-45926000D01*
X77045409Y-45921915D01*
X77011431Y-45911607D01*
X76980113Y-45894867D01*
X76952661Y-45872339D01*
X76930133Y-45844887D01*
X76913393Y-45813569D01*
X76903085Y-45779591D01*
X76899000Y-45738110D01*
X76899000Y-45061890D01*
X76903085Y-45020409D01*
X76913393Y-44986431D01*
X76930133Y-44955113D01*
X76952661Y-44927661D01*
X76980113Y-44905133D01*
X77011431Y-44888393D01*
X77045409Y-44878085D01*
X77086890Y-44874000D01*
X77688110Y-44874000D01*
X77729591Y-44878085D01*
X77729591Y-44878085D01*
G37*
G36*
X92335443Y-43155519D02*
X92401627Y-43162037D01*
X92514853Y-43196384D01*
X92571467Y-43213557D01*
X92681439Y-43272339D01*
X92727991Y-43297222D01*
X92745519Y-43311607D01*
X92865186Y-43409814D01*
X92948448Y-43511271D01*
X92977778Y-43547009D01*
X92977779Y-43547011D01*
X93061443Y-43703533D01*
X93061443Y-43703534D01*
X93112963Y-43873373D01*
X93130359Y-44050000D01*
X93112963Y-44226627D01*
X93078616Y-44339853D01*
X93061443Y-44396467D01*
X93013849Y-44485508D01*
X92977778Y-44552991D01*
X92963635Y-44570224D01*
X92865186Y-44690186D01*
X92771415Y-44767141D01*
X92727991Y-44802778D01*
X92727989Y-44802779D01*
X92571467Y-44886443D01*
X92514853Y-44903616D01*
X92401627Y-44937963D01*
X92335442Y-44944482D01*
X92269260Y-44951000D01*
X91930740Y-44951000D01*
X91864558Y-44944482D01*
X91798373Y-44937963D01*
X91685147Y-44903616D01*
X91628533Y-44886443D01*
X91472011Y-44802779D01*
X91472009Y-44802778D01*
X91428585Y-44767141D01*
X91334814Y-44690186D01*
X91236365Y-44570224D01*
X91222222Y-44552991D01*
X91186151Y-44485508D01*
X91138557Y-44396467D01*
X91121384Y-44339853D01*
X91087037Y-44226627D01*
X91069641Y-44050000D01*
X91087037Y-43873373D01*
X91138557Y-43703534D01*
X91138557Y-43703533D01*
X91222221Y-43547011D01*
X91222222Y-43547009D01*
X91251552Y-43511271D01*
X91334814Y-43409814D01*
X91454481Y-43311607D01*
X91472009Y-43297222D01*
X91518561Y-43272339D01*
X91628533Y-43213557D01*
X91685147Y-43196384D01*
X91798373Y-43162037D01*
X91864557Y-43155519D01*
X91930740Y-43149000D01*
X92269260Y-43149000D01*
X92335443Y-43155519D01*
X92335443Y-43155519D01*
G37*
G36*
X66739294Y-42858633D02*
X66911694Y-42910931D01*
X66911696Y-42910932D01*
X67070583Y-42995859D01*
X67209849Y-43110151D01*
X67324141Y-43249417D01*
X67405601Y-43401817D01*
X67409069Y-43408306D01*
X67461367Y-43580706D01*
X67479025Y-43760000D01*
X67461367Y-43939294D01*
X67409069Y-44111694D01*
X67409068Y-44111696D01*
X67324141Y-44270583D01*
X67209849Y-44409849D01*
X67070583Y-44524141D01*
X66933037Y-44597661D01*
X66911694Y-44609069D01*
X66739294Y-44661367D01*
X66604931Y-44674600D01*
X66515069Y-44674600D01*
X66380706Y-44661367D01*
X66208306Y-44609069D01*
X66186963Y-44597661D01*
X66049417Y-44524141D01*
X65910151Y-44409849D01*
X65795859Y-44270583D01*
X65710932Y-44111696D01*
X65710931Y-44111694D01*
X65658633Y-43939294D01*
X65640975Y-43760000D01*
X65658633Y-43580706D01*
X65710931Y-43408306D01*
X65714399Y-43401817D01*
X65795859Y-43249417D01*
X65910151Y-43110151D01*
X66049417Y-42995859D01*
X66208304Y-42910932D01*
X66208306Y-42910931D01*
X66380706Y-42858633D01*
X66515069Y-42845400D01*
X66604931Y-42845400D01*
X66739294Y-42858633D01*
X66739294Y-42858633D01*
G37*
G36*
X69279294Y-42858633D02*
X69451694Y-42910931D01*
X69451696Y-42910932D01*
X69610583Y-42995859D01*
X69749849Y-43110151D01*
X69864141Y-43249417D01*
X69945601Y-43401817D01*
X69949069Y-43408306D01*
X70001367Y-43580706D01*
X70019025Y-43760000D01*
X70001367Y-43939294D01*
X69949069Y-44111694D01*
X69949068Y-44111696D01*
X69864141Y-44270583D01*
X69749849Y-44409849D01*
X69610583Y-44524141D01*
X69473037Y-44597661D01*
X69451694Y-44609069D01*
X69279294Y-44661367D01*
X69144931Y-44674600D01*
X69055069Y-44674600D01*
X68920706Y-44661367D01*
X68748306Y-44609069D01*
X68726963Y-44597661D01*
X68589417Y-44524141D01*
X68450151Y-44409849D01*
X68335859Y-44270583D01*
X68250932Y-44111696D01*
X68250931Y-44111694D01*
X68198633Y-43939294D01*
X68180975Y-43760000D01*
X68198633Y-43580706D01*
X68250931Y-43408306D01*
X68254399Y-43401817D01*
X68335859Y-43249417D01*
X68450151Y-43110151D01*
X68589417Y-42995859D01*
X68748304Y-42910932D01*
X68748306Y-42910931D01*
X68920706Y-42858633D01*
X69055069Y-42845400D01*
X69144931Y-42845400D01*
X69279294Y-42858633D01*
X69279294Y-42858633D01*
G37*
G36*
X75567142Y-41908242D02*
X75715102Y-41969530D01*
X75728052Y-41978183D01*
X75847000Y-42057661D01*
X75848258Y-42058502D01*
X75961498Y-42171742D01*
X76039442Y-42288393D01*
X76050471Y-42304900D01*
X76059899Y-42327661D01*
X76111758Y-42452858D01*
X76143000Y-42609925D01*
X76143000Y-42770075D01*
X76111758Y-42927142D01*
X76064354Y-43041583D01*
X76050471Y-43075100D01*
X75961499Y-43208257D01*
X75848257Y-43321499D01*
X75805937Y-43349776D01*
X75715102Y-43410470D01*
X75567142Y-43471758D01*
X75410075Y-43503000D01*
X75249925Y-43503000D01*
X75092858Y-43471758D01*
X74944898Y-43410470D01*
X74854063Y-43349776D01*
X74811743Y-43321499D01*
X74698501Y-43208257D01*
X74609529Y-43075100D01*
X74595646Y-43041583D01*
X74548242Y-42927142D01*
X74517000Y-42770075D01*
X74517000Y-42609925D01*
X74548242Y-42452858D01*
X74600101Y-42327661D01*
X74609529Y-42304900D01*
X74620559Y-42288393D01*
X74698502Y-42171742D01*
X74811742Y-42058502D01*
X74813001Y-42057661D01*
X74931948Y-41978183D01*
X74944898Y-41969530D01*
X75092858Y-41908242D01*
X75249925Y-41877000D01*
X75410075Y-41877000D01*
X75567142Y-41908242D01*
X75567142Y-41908242D01*
G37*
G36*
X61473993Y-41884203D02*
X61538414Y-41903744D01*
X61597776Y-41935475D01*
X61649817Y-41978183D01*
X61692525Y-42030224D01*
X61724256Y-42089586D01*
X61743797Y-42154007D01*
X61751000Y-42227141D01*
X61751000Y-43152859D01*
X61743797Y-43225993D01*
X61724256Y-43290414D01*
X61692525Y-43349776D01*
X61649817Y-43401817D01*
X61597776Y-43444525D01*
X61538414Y-43476256D01*
X61473993Y-43495797D01*
X61400859Y-43503000D01*
X58999141Y-43503000D01*
X58926007Y-43495797D01*
X58861586Y-43476256D01*
X58802224Y-43444525D01*
X58750183Y-43401817D01*
X58707475Y-43349776D01*
X58675744Y-43290414D01*
X58656203Y-43225993D01*
X58649000Y-43152859D01*
X58649000Y-42227141D01*
X58656203Y-42154007D01*
X58675744Y-42089586D01*
X58707475Y-42030224D01*
X58750183Y-41978183D01*
X58802224Y-41935475D01*
X58861586Y-41903744D01*
X58926007Y-41884203D01*
X58999141Y-41877000D01*
X61400859Y-41877000D01*
X61473993Y-41884203D01*
X61473993Y-41884203D01*
G37*
G36*
X78107142Y-41908242D02*
X78255102Y-41969530D01*
X78268052Y-41978183D01*
X78387000Y-42057661D01*
X78388258Y-42058502D01*
X78501498Y-42171742D01*
X78579442Y-42288393D01*
X78590471Y-42304900D01*
X78599899Y-42327661D01*
X78651758Y-42452858D01*
X78683000Y-42609925D01*
X78683000Y-42770075D01*
X78651758Y-42927142D01*
X78604354Y-43041583D01*
X78590471Y-43075100D01*
X78501499Y-43208257D01*
X78388257Y-43321499D01*
X78345937Y-43349776D01*
X78255102Y-43410470D01*
X78107142Y-43471758D01*
X77950075Y-43503000D01*
X77789925Y-43503000D01*
X77632858Y-43471758D01*
X77484898Y-43410470D01*
X77394063Y-43349776D01*
X77351743Y-43321499D01*
X77238501Y-43208257D01*
X77149529Y-43075100D01*
X77135646Y-43041583D01*
X77088242Y-42927142D01*
X77057000Y-42770075D01*
X77057000Y-42609925D01*
X77088242Y-42452858D01*
X77140101Y-42327661D01*
X77149529Y-42304900D01*
X77160559Y-42288393D01*
X77238502Y-42171742D01*
X77351742Y-42058502D01*
X77353001Y-42057661D01*
X77471948Y-41978183D01*
X77484898Y-41969530D01*
X77632858Y-41908242D01*
X77789925Y-41877000D01*
X77950075Y-41877000D01*
X78107142Y-41908242D01*
X78107142Y-41908242D01*
G37*
G36*
X73729591Y-42278085D02*
X73763569Y-42288393D01*
X73794887Y-42305133D01*
X73822339Y-42327661D01*
X73844867Y-42355113D01*
X73861607Y-42386431D01*
X73871915Y-42420409D01*
X73876000Y-42461890D01*
X73876000Y-43138110D01*
X73871915Y-43179591D01*
X73861607Y-43213569D01*
X73844867Y-43244887D01*
X73822339Y-43272339D01*
X73794887Y-43294867D01*
X73763569Y-43311607D01*
X73729591Y-43321915D01*
X73688110Y-43326000D01*
X73086890Y-43326000D01*
X73045409Y-43321915D01*
X73011431Y-43311607D01*
X72980113Y-43294867D01*
X72952661Y-43272339D01*
X72930133Y-43244887D01*
X72913393Y-43213569D01*
X72903085Y-43179591D01*
X72899000Y-43138110D01*
X72899000Y-42461890D01*
X72903085Y-42420409D01*
X72913393Y-42386431D01*
X72930133Y-42355113D01*
X72952661Y-42327661D01*
X72980113Y-42305133D01*
X73011431Y-42288393D01*
X73045409Y-42278085D01*
X73086890Y-42274000D01*
X73688110Y-42274000D01*
X73729591Y-42278085D01*
X73729591Y-42278085D01*
G37*
G36*
X72154591Y-42278085D02*
X72188569Y-42288393D01*
X72219887Y-42305133D01*
X72247339Y-42327661D01*
X72269867Y-42355113D01*
X72286607Y-42386431D01*
X72296915Y-42420409D01*
X72301000Y-42461890D01*
X72301000Y-43138110D01*
X72296915Y-43179591D01*
X72286607Y-43213569D01*
X72269867Y-43244887D01*
X72247339Y-43272339D01*
X72219887Y-43294867D01*
X72188569Y-43311607D01*
X72154591Y-43321915D01*
X72113110Y-43326000D01*
X71511890Y-43326000D01*
X71470409Y-43321915D01*
X71436431Y-43311607D01*
X71405113Y-43294867D01*
X71377661Y-43272339D01*
X71355133Y-43244887D01*
X71338393Y-43213569D01*
X71328085Y-43179591D01*
X71324000Y-43138110D01*
X71324000Y-42461890D01*
X71328085Y-42420409D01*
X71338393Y-42386431D01*
X71355133Y-42355113D01*
X71377661Y-42327661D01*
X71405113Y-42305133D01*
X71436431Y-42288393D01*
X71470409Y-42278085D01*
X71511890Y-42274000D01*
X72113110Y-42274000D01*
X72154591Y-42278085D01*
X72154591Y-42278085D01*
G37*
G36*
X92335443Y-40655519D02*
X92401627Y-40662037D01*
X92476785Y-40684836D01*
X92571467Y-40713557D01*
X92698574Y-40781498D01*
X92727991Y-40797222D01*
X92743288Y-40809776D01*
X92865186Y-40909814D01*
X92948448Y-41011271D01*
X92977778Y-41047009D01*
X92977779Y-41047011D01*
X93061443Y-41203533D01*
X93061443Y-41203534D01*
X93112963Y-41373373D01*
X93130359Y-41550000D01*
X93112963Y-41726627D01*
X93078616Y-41839853D01*
X93061443Y-41896467D01*
X93008208Y-41996061D01*
X92977778Y-42052991D01*
X92973255Y-42058502D01*
X92865186Y-42190186D01*
X92763729Y-42273448D01*
X92727991Y-42302778D01*
X92727989Y-42302779D01*
X92571467Y-42386443D01*
X92514853Y-42403616D01*
X92401627Y-42437963D01*
X92335442Y-42444482D01*
X92269260Y-42451000D01*
X91930740Y-42451000D01*
X91864558Y-42444482D01*
X91798373Y-42437963D01*
X91685147Y-42403616D01*
X91628533Y-42386443D01*
X91472011Y-42302779D01*
X91472009Y-42302778D01*
X91436271Y-42273448D01*
X91334814Y-42190186D01*
X91226745Y-42058502D01*
X91222222Y-42052991D01*
X91191792Y-41996061D01*
X91138557Y-41896467D01*
X91121384Y-41839853D01*
X91087037Y-41726627D01*
X91069641Y-41550000D01*
X91087037Y-41373373D01*
X91138557Y-41203534D01*
X91138557Y-41203533D01*
X91222221Y-41047011D01*
X91222222Y-41047009D01*
X91251552Y-41011271D01*
X91334814Y-40909814D01*
X91456712Y-40809776D01*
X91472009Y-40797222D01*
X91501426Y-40781498D01*
X91628533Y-40713557D01*
X91723215Y-40684836D01*
X91798373Y-40662037D01*
X91864557Y-40655519D01*
X91930740Y-40649000D01*
X92269260Y-40649000D01*
X92335443Y-40655519D01*
X92335443Y-40655519D01*
G37*
G36*
X69279294Y-40318633D02*
X69451694Y-40370931D01*
X69451696Y-40370932D01*
X69610583Y-40455859D01*
X69749849Y-40570151D01*
X69864141Y-40709417D01*
X69945601Y-40861817D01*
X69949069Y-40868306D01*
X70001367Y-41040706D01*
X70019025Y-41220000D01*
X70001367Y-41399294D01*
X69949069Y-41571694D01*
X69949068Y-41571696D01*
X69864141Y-41730583D01*
X69749849Y-41869849D01*
X69610583Y-41984141D01*
X69451696Y-42069068D01*
X69451694Y-42069069D01*
X69279294Y-42121367D01*
X69144931Y-42134600D01*
X69055069Y-42134600D01*
X68920706Y-42121367D01*
X68748306Y-42069069D01*
X68748304Y-42069068D01*
X68589417Y-41984141D01*
X68450151Y-41869849D01*
X68335859Y-41730583D01*
X68250932Y-41571696D01*
X68250931Y-41571694D01*
X68198633Y-41399294D01*
X68180975Y-41220000D01*
X68198633Y-41040706D01*
X68250931Y-40868306D01*
X68254399Y-40861817D01*
X68335859Y-40709417D01*
X68450151Y-40570151D01*
X68589417Y-40455859D01*
X68748304Y-40370932D01*
X68748306Y-40370931D01*
X68920706Y-40318633D01*
X69055069Y-40305400D01*
X69144931Y-40305400D01*
X69279294Y-40318633D01*
X69279294Y-40318633D01*
G37*
G36*
X66739294Y-40318633D02*
X66911694Y-40370931D01*
X66911696Y-40370932D01*
X67070583Y-40455859D01*
X67209849Y-40570151D01*
X67324141Y-40709417D01*
X67405601Y-40861817D01*
X67409069Y-40868306D01*
X67461367Y-41040706D01*
X67479025Y-41220000D01*
X67461367Y-41399294D01*
X67409069Y-41571694D01*
X67409068Y-41571696D01*
X67324141Y-41730583D01*
X67209849Y-41869849D01*
X67070583Y-41984141D01*
X66911696Y-42069068D01*
X66911694Y-42069069D01*
X66739294Y-42121367D01*
X66604931Y-42134600D01*
X66515069Y-42134600D01*
X66380706Y-42121367D01*
X66208306Y-42069069D01*
X66208304Y-42069068D01*
X66049417Y-41984141D01*
X65910151Y-41869849D01*
X65795859Y-41730583D01*
X65710932Y-41571696D01*
X65710931Y-41571694D01*
X65658633Y-41399294D01*
X65640975Y-41220000D01*
X65658633Y-41040706D01*
X65710931Y-40868306D01*
X65714399Y-40861817D01*
X65795859Y-40709417D01*
X65910151Y-40570151D01*
X66049417Y-40455859D01*
X66208304Y-40370932D01*
X66208306Y-40370931D01*
X66380706Y-40318633D01*
X66515069Y-40305400D01*
X66604931Y-40305400D01*
X66739294Y-40318633D01*
X66739294Y-40318633D01*
G37*
G36*
X75567142Y-39368242D02*
X75715102Y-39429530D01*
X75728052Y-39438183D01*
X75848257Y-39518501D01*
X75961499Y-39631743D01*
X75992870Y-39678693D01*
X76050470Y-39764898D01*
X76111758Y-39912858D01*
X76143000Y-40069925D01*
X76143000Y-40230075D01*
X76111758Y-40387142D01*
X76072569Y-40481750D01*
X76050471Y-40535100D01*
X75961499Y-40668257D01*
X75848257Y-40781499D01*
X75805937Y-40809776D01*
X75715102Y-40870470D01*
X75567142Y-40931758D01*
X75410075Y-40963000D01*
X75249925Y-40963000D01*
X75092858Y-40931758D01*
X74944898Y-40870470D01*
X74854063Y-40809776D01*
X74811743Y-40781499D01*
X74698501Y-40668257D01*
X74609529Y-40535100D01*
X74587431Y-40481750D01*
X74548242Y-40387142D01*
X74517000Y-40230075D01*
X74517000Y-40069925D01*
X74548242Y-39912858D01*
X74609530Y-39764898D01*
X74667130Y-39678693D01*
X74698501Y-39631743D01*
X74811743Y-39518501D01*
X74931948Y-39438183D01*
X74944898Y-39429530D01*
X75092858Y-39368242D01*
X75249925Y-39337000D01*
X75410075Y-39337000D01*
X75567142Y-39368242D01*
X75567142Y-39368242D01*
G37*
G36*
X78107142Y-39368242D02*
X78255102Y-39429530D01*
X78268052Y-39438183D01*
X78388257Y-39518501D01*
X78501499Y-39631743D01*
X78532870Y-39678693D01*
X78590470Y-39764898D01*
X78651758Y-39912858D01*
X78683000Y-40069925D01*
X78683000Y-40230075D01*
X78651758Y-40387142D01*
X78612569Y-40481750D01*
X78590471Y-40535100D01*
X78501499Y-40668257D01*
X78388257Y-40781499D01*
X78345937Y-40809776D01*
X78255102Y-40870470D01*
X78107142Y-40931758D01*
X77950075Y-40963000D01*
X77789925Y-40963000D01*
X77632858Y-40931758D01*
X77484898Y-40870470D01*
X77394063Y-40809776D01*
X77351743Y-40781499D01*
X77238501Y-40668257D01*
X77149529Y-40535100D01*
X77127431Y-40481750D01*
X77088242Y-40387142D01*
X77057000Y-40230075D01*
X77057000Y-40069925D01*
X77088242Y-39912858D01*
X77149530Y-39764898D01*
X77207130Y-39678693D01*
X77238501Y-39631743D01*
X77351743Y-39518501D01*
X77471948Y-39438183D01*
X77484898Y-39429530D01*
X77632858Y-39368242D01*
X77789925Y-39337000D01*
X77950075Y-39337000D01*
X78107142Y-39368242D01*
X78107142Y-39368242D01*
G37*
G36*
X61473993Y-39344203D02*
X61538414Y-39363744D01*
X61597776Y-39395475D01*
X61649817Y-39438183D01*
X61692525Y-39490224D01*
X61724256Y-39549586D01*
X61743797Y-39614007D01*
X61751000Y-39687141D01*
X61751000Y-40612859D01*
X61743797Y-40685993D01*
X61724256Y-40750414D01*
X61692525Y-40809776D01*
X61649817Y-40861817D01*
X61597776Y-40904525D01*
X61538414Y-40936256D01*
X61473993Y-40955797D01*
X61400859Y-40963000D01*
X58999141Y-40963000D01*
X58926007Y-40955797D01*
X58861586Y-40936256D01*
X58802224Y-40904525D01*
X58750183Y-40861817D01*
X58707475Y-40809776D01*
X58675744Y-40750414D01*
X58656203Y-40685993D01*
X58649000Y-40612859D01*
X58649000Y-39687141D01*
X58656203Y-39614007D01*
X58675744Y-39549586D01*
X58707475Y-39490224D01*
X58750183Y-39438183D01*
X58802224Y-39395475D01*
X58861586Y-39363744D01*
X58926007Y-39344203D01*
X58999141Y-39337000D01*
X61400859Y-39337000D01*
X61473993Y-39344203D01*
X61473993Y-39344203D01*
G37*
G36*
X73729591Y-39678085D02*
X73763569Y-39688393D01*
X73794887Y-39705133D01*
X73822339Y-39727661D01*
X73844867Y-39755113D01*
X73861607Y-39786431D01*
X73871915Y-39820409D01*
X73876000Y-39861890D01*
X73876000Y-40538110D01*
X73871915Y-40579591D01*
X73861607Y-40613569D01*
X73844867Y-40644887D01*
X73822339Y-40672339D01*
X73794887Y-40694867D01*
X73763569Y-40711607D01*
X73729591Y-40721915D01*
X73688110Y-40726000D01*
X73086890Y-40726000D01*
X73045409Y-40721915D01*
X73011431Y-40711607D01*
X72980113Y-40694867D01*
X72952661Y-40672339D01*
X72930133Y-40644887D01*
X72913393Y-40613569D01*
X72903085Y-40579591D01*
X72899000Y-40538110D01*
X72899000Y-39861890D01*
X72903085Y-39820409D01*
X72913393Y-39786431D01*
X72930133Y-39755113D01*
X72952661Y-39727661D01*
X72980113Y-39705133D01*
X73011431Y-39688393D01*
X73045409Y-39678085D01*
X73086890Y-39674000D01*
X73688110Y-39674000D01*
X73729591Y-39678085D01*
X73729591Y-39678085D01*
G37*
G36*
X72154591Y-39678085D02*
X72188569Y-39688393D01*
X72219887Y-39705133D01*
X72247339Y-39727661D01*
X72269867Y-39755113D01*
X72286607Y-39786431D01*
X72296915Y-39820409D01*
X72301000Y-39861890D01*
X72301000Y-40538110D01*
X72296915Y-40579591D01*
X72286607Y-40613569D01*
X72269867Y-40644887D01*
X72247339Y-40672339D01*
X72219887Y-40694867D01*
X72188569Y-40711607D01*
X72154591Y-40721915D01*
X72113110Y-40726000D01*
X71511890Y-40726000D01*
X71470409Y-40721915D01*
X71436431Y-40711607D01*
X71405113Y-40694867D01*
X71377661Y-40672339D01*
X71355133Y-40644887D01*
X71338393Y-40613569D01*
X71328085Y-40579591D01*
X71324000Y-40538110D01*
X71324000Y-39861890D01*
X71328085Y-39820409D01*
X71338393Y-39786431D01*
X71355133Y-39755113D01*
X71377661Y-39727661D01*
X71405113Y-39705133D01*
X71436431Y-39688393D01*
X71470409Y-39678085D01*
X71511890Y-39674000D01*
X72113110Y-39674000D01*
X72154591Y-39678085D01*
X72154591Y-39678085D01*
G37*
G36*
X61473993Y-36804203D02*
X61538414Y-36823744D01*
X61597776Y-36855475D01*
X61649817Y-36898183D01*
X61692525Y-36950224D01*
X61724256Y-37009586D01*
X61743797Y-37074007D01*
X61751000Y-37147141D01*
X61751000Y-38072859D01*
X61743797Y-38145993D01*
X61724256Y-38210414D01*
X61692525Y-38269776D01*
X61649817Y-38321817D01*
X61597776Y-38364525D01*
X61538414Y-38396256D01*
X61473993Y-38415797D01*
X61400859Y-38423000D01*
X58999141Y-38423000D01*
X58926007Y-38415797D01*
X58861586Y-38396256D01*
X58802224Y-38364525D01*
X58750183Y-38321817D01*
X58707475Y-38269776D01*
X58675744Y-38210414D01*
X58656203Y-38145993D01*
X58649000Y-38072859D01*
X58649000Y-37147141D01*
X58656203Y-37074007D01*
X58675744Y-37009586D01*
X58707475Y-36950224D01*
X58750183Y-36898183D01*
X58802224Y-36855475D01*
X58861586Y-36823744D01*
X58926007Y-36804203D01*
X58999141Y-36797000D01*
X61400859Y-36797000D01*
X61473993Y-36804203D01*
X61473993Y-36804203D01*
G37*
G36*
X61473993Y-34264203D02*
X61538414Y-34283744D01*
X61597776Y-34315475D01*
X61649817Y-34358183D01*
X61692525Y-34410224D01*
X61724256Y-34469586D01*
X61743797Y-34534007D01*
X61751000Y-34607141D01*
X61751000Y-35532859D01*
X61743797Y-35605993D01*
X61724256Y-35670414D01*
X61692525Y-35729776D01*
X61649817Y-35781817D01*
X61597776Y-35824525D01*
X61538414Y-35856256D01*
X61473993Y-35875797D01*
X61400859Y-35883000D01*
X58999141Y-35883000D01*
X58926007Y-35875797D01*
X58861586Y-35856256D01*
X58802224Y-35824525D01*
X58750183Y-35781817D01*
X58707475Y-35729776D01*
X58675744Y-35670414D01*
X58656203Y-35605993D01*
X58649000Y-35532859D01*
X58649000Y-34607141D01*
X58656203Y-34534007D01*
X58675744Y-34469586D01*
X58707475Y-34410224D01*
X58750183Y-34358183D01*
X58802224Y-34315475D01*
X58861586Y-34283744D01*
X58926007Y-34264203D01*
X58999141Y-34257000D01*
X61400859Y-34257000D01*
X61473993Y-34264203D01*
X61473993Y-34264203D01*
G37*
M02*
