G04 #@! TF.GenerationSoftware,KiCad,Pcbnew,5.0.1*
G04 #@! TF.CreationDate,2019-11-02T01:16:45+01:00*
G04 #@! TF.ProjectId,JlinkBreakout,4A6C696E6B427265616B6F75742E6B69,rev?*
G04 #@! TF.SameCoordinates,Original*
G04 #@! TF.FileFunction,Paste,Bot*
G04 #@! TF.FilePolarity,Positive*
%FSLAX46Y46*%
G04 Gerber Fmt 4.6, Leading zero omitted, Abs format (unit mm)*
G04 Created by KiCad (PCBNEW 5.0.1) date Sat 02 Nov 2019 01:16:45 AM CET*
%MOMM*%
%LPD*%
G01*
G04 APERTURE LIST*
%ADD10C,0.050000*%
%ADD11C,0.100000*%
%ADD12C,0.975000*%
%ADD13R,1.060000X0.650000*%
%ADD14C,0.875000*%
G04 APERTURE END LIST*
D10*
X58500000Y-60000000D02*
G75*
G02X58000000Y-59500000I0J500000D01*
G01*
X58000000Y-33500000D02*
G75*
G02X58500000Y-33000000I500000J0D01*
G01*
X96000000Y-38000000D02*
G75*
G02X96500000Y-38500000I0J-500000D01*
G01*
X96500000Y-54500000D02*
G75*
G02X96000000Y-55000000I-500000J0D01*
G01*
X86000000Y-38000000D02*
X65000000Y-33000000D01*
X96000000Y-38000000D02*
X86000000Y-38000000D01*
X96500000Y-54500000D02*
X96500000Y-38500000D01*
X86000000Y-55000000D02*
X96000000Y-55000000D01*
X65000000Y-60000000D02*
X86000000Y-55000000D01*
X65000000Y-33000000D02*
X58500000Y-33000000D01*
X58500000Y-60000000D02*
X65000000Y-60000000D01*
X58000000Y-33500000D02*
X58000000Y-59500000D01*
D11*
G04 #@! TO.C,C2*
G36*
X70280142Y-52576174D02*
X70303803Y-52579684D01*
X70327007Y-52585496D01*
X70349529Y-52593554D01*
X70371153Y-52603782D01*
X70391670Y-52616079D01*
X70410883Y-52630329D01*
X70428607Y-52646393D01*
X70444671Y-52664117D01*
X70458921Y-52683330D01*
X70471218Y-52703847D01*
X70481446Y-52725471D01*
X70489504Y-52747993D01*
X70495316Y-52771197D01*
X70498826Y-52794858D01*
X70500000Y-52818750D01*
X70500000Y-53306250D01*
X70498826Y-53330142D01*
X70495316Y-53353803D01*
X70489504Y-53377007D01*
X70481446Y-53399529D01*
X70471218Y-53421153D01*
X70458921Y-53441670D01*
X70444671Y-53460883D01*
X70428607Y-53478607D01*
X70410883Y-53494671D01*
X70391670Y-53508921D01*
X70371153Y-53521218D01*
X70349529Y-53531446D01*
X70327007Y-53539504D01*
X70303803Y-53545316D01*
X70280142Y-53548826D01*
X70256250Y-53550000D01*
X69343750Y-53550000D01*
X69319858Y-53548826D01*
X69296197Y-53545316D01*
X69272993Y-53539504D01*
X69250471Y-53531446D01*
X69228847Y-53521218D01*
X69208330Y-53508921D01*
X69189117Y-53494671D01*
X69171393Y-53478607D01*
X69155329Y-53460883D01*
X69141079Y-53441670D01*
X69128782Y-53421153D01*
X69118554Y-53399529D01*
X69110496Y-53377007D01*
X69104684Y-53353803D01*
X69101174Y-53330142D01*
X69100000Y-53306250D01*
X69100000Y-52818750D01*
X69101174Y-52794858D01*
X69104684Y-52771197D01*
X69110496Y-52747993D01*
X69118554Y-52725471D01*
X69128782Y-52703847D01*
X69141079Y-52683330D01*
X69155329Y-52664117D01*
X69171393Y-52646393D01*
X69189117Y-52630329D01*
X69208330Y-52616079D01*
X69228847Y-52603782D01*
X69250471Y-52593554D01*
X69272993Y-52585496D01*
X69296197Y-52579684D01*
X69319858Y-52576174D01*
X69343750Y-52575000D01*
X70256250Y-52575000D01*
X70280142Y-52576174D01*
X70280142Y-52576174D01*
G37*
D12*
X69800000Y-53062500D03*
D11*
G36*
X70280142Y-54451174D02*
X70303803Y-54454684D01*
X70327007Y-54460496D01*
X70349529Y-54468554D01*
X70371153Y-54478782D01*
X70391670Y-54491079D01*
X70410883Y-54505329D01*
X70428607Y-54521393D01*
X70444671Y-54539117D01*
X70458921Y-54558330D01*
X70471218Y-54578847D01*
X70481446Y-54600471D01*
X70489504Y-54622993D01*
X70495316Y-54646197D01*
X70498826Y-54669858D01*
X70500000Y-54693750D01*
X70500000Y-55181250D01*
X70498826Y-55205142D01*
X70495316Y-55228803D01*
X70489504Y-55252007D01*
X70481446Y-55274529D01*
X70471218Y-55296153D01*
X70458921Y-55316670D01*
X70444671Y-55335883D01*
X70428607Y-55353607D01*
X70410883Y-55369671D01*
X70391670Y-55383921D01*
X70371153Y-55396218D01*
X70349529Y-55406446D01*
X70327007Y-55414504D01*
X70303803Y-55420316D01*
X70280142Y-55423826D01*
X70256250Y-55425000D01*
X69343750Y-55425000D01*
X69319858Y-55423826D01*
X69296197Y-55420316D01*
X69272993Y-55414504D01*
X69250471Y-55406446D01*
X69228847Y-55396218D01*
X69208330Y-55383921D01*
X69189117Y-55369671D01*
X69171393Y-55353607D01*
X69155329Y-55335883D01*
X69141079Y-55316670D01*
X69128782Y-55296153D01*
X69118554Y-55274529D01*
X69110496Y-55252007D01*
X69104684Y-55228803D01*
X69101174Y-55205142D01*
X69100000Y-55181250D01*
X69100000Y-54693750D01*
X69101174Y-54669858D01*
X69104684Y-54646197D01*
X69110496Y-54622993D01*
X69118554Y-54600471D01*
X69128782Y-54578847D01*
X69141079Y-54558330D01*
X69155329Y-54539117D01*
X69171393Y-54521393D01*
X69189117Y-54505329D01*
X69208330Y-54491079D01*
X69228847Y-54478782D01*
X69250471Y-54468554D01*
X69272993Y-54460496D01*
X69296197Y-54454684D01*
X69319858Y-54451174D01*
X69343750Y-54450000D01*
X70256250Y-54450000D01*
X70280142Y-54451174D01*
X70280142Y-54451174D01*
G37*
D12*
X69800000Y-54937500D03*
G04 #@! TD*
D11*
G04 #@! TO.C,C1*
G36*
X64680142Y-54451174D02*
X64703803Y-54454684D01*
X64727007Y-54460496D01*
X64749529Y-54468554D01*
X64771153Y-54478782D01*
X64791670Y-54491079D01*
X64810883Y-54505329D01*
X64828607Y-54521393D01*
X64844671Y-54539117D01*
X64858921Y-54558330D01*
X64871218Y-54578847D01*
X64881446Y-54600471D01*
X64889504Y-54622993D01*
X64895316Y-54646197D01*
X64898826Y-54669858D01*
X64900000Y-54693750D01*
X64900000Y-55181250D01*
X64898826Y-55205142D01*
X64895316Y-55228803D01*
X64889504Y-55252007D01*
X64881446Y-55274529D01*
X64871218Y-55296153D01*
X64858921Y-55316670D01*
X64844671Y-55335883D01*
X64828607Y-55353607D01*
X64810883Y-55369671D01*
X64791670Y-55383921D01*
X64771153Y-55396218D01*
X64749529Y-55406446D01*
X64727007Y-55414504D01*
X64703803Y-55420316D01*
X64680142Y-55423826D01*
X64656250Y-55425000D01*
X63743750Y-55425000D01*
X63719858Y-55423826D01*
X63696197Y-55420316D01*
X63672993Y-55414504D01*
X63650471Y-55406446D01*
X63628847Y-55396218D01*
X63608330Y-55383921D01*
X63589117Y-55369671D01*
X63571393Y-55353607D01*
X63555329Y-55335883D01*
X63541079Y-55316670D01*
X63528782Y-55296153D01*
X63518554Y-55274529D01*
X63510496Y-55252007D01*
X63504684Y-55228803D01*
X63501174Y-55205142D01*
X63500000Y-55181250D01*
X63500000Y-54693750D01*
X63501174Y-54669858D01*
X63504684Y-54646197D01*
X63510496Y-54622993D01*
X63518554Y-54600471D01*
X63528782Y-54578847D01*
X63541079Y-54558330D01*
X63555329Y-54539117D01*
X63571393Y-54521393D01*
X63589117Y-54505329D01*
X63608330Y-54491079D01*
X63628847Y-54478782D01*
X63650471Y-54468554D01*
X63672993Y-54460496D01*
X63696197Y-54454684D01*
X63719858Y-54451174D01*
X63743750Y-54450000D01*
X64656250Y-54450000D01*
X64680142Y-54451174D01*
X64680142Y-54451174D01*
G37*
D12*
X64200000Y-54937500D03*
D11*
G36*
X64680142Y-52576174D02*
X64703803Y-52579684D01*
X64727007Y-52585496D01*
X64749529Y-52593554D01*
X64771153Y-52603782D01*
X64791670Y-52616079D01*
X64810883Y-52630329D01*
X64828607Y-52646393D01*
X64844671Y-52664117D01*
X64858921Y-52683330D01*
X64871218Y-52703847D01*
X64881446Y-52725471D01*
X64889504Y-52747993D01*
X64895316Y-52771197D01*
X64898826Y-52794858D01*
X64900000Y-52818750D01*
X64900000Y-53306250D01*
X64898826Y-53330142D01*
X64895316Y-53353803D01*
X64889504Y-53377007D01*
X64881446Y-53399529D01*
X64871218Y-53421153D01*
X64858921Y-53441670D01*
X64844671Y-53460883D01*
X64828607Y-53478607D01*
X64810883Y-53494671D01*
X64791670Y-53508921D01*
X64771153Y-53521218D01*
X64749529Y-53531446D01*
X64727007Y-53539504D01*
X64703803Y-53545316D01*
X64680142Y-53548826D01*
X64656250Y-53550000D01*
X63743750Y-53550000D01*
X63719858Y-53548826D01*
X63696197Y-53545316D01*
X63672993Y-53539504D01*
X63650471Y-53531446D01*
X63628847Y-53521218D01*
X63608330Y-53508921D01*
X63589117Y-53494671D01*
X63571393Y-53478607D01*
X63555329Y-53460883D01*
X63541079Y-53441670D01*
X63528782Y-53421153D01*
X63518554Y-53399529D01*
X63510496Y-53377007D01*
X63504684Y-53353803D01*
X63501174Y-53330142D01*
X63500000Y-53306250D01*
X63500000Y-52818750D01*
X63501174Y-52794858D01*
X63504684Y-52771197D01*
X63510496Y-52747993D01*
X63518554Y-52725471D01*
X63528782Y-52703847D01*
X63541079Y-52683330D01*
X63555329Y-52664117D01*
X63571393Y-52646393D01*
X63589117Y-52630329D01*
X63608330Y-52616079D01*
X63628847Y-52603782D01*
X63650471Y-52593554D01*
X63672993Y-52585496D01*
X63696197Y-52579684D01*
X63719858Y-52576174D01*
X63743750Y-52575000D01*
X64656250Y-52575000D01*
X64680142Y-52576174D01*
X64680142Y-52576174D01*
G37*
D12*
X64200000Y-53062500D03*
G04 #@! TD*
D13*
G04 #@! TO.C,U1*
X65900000Y-54950000D03*
X65900000Y-54000000D03*
X65900000Y-53050000D03*
X68100000Y-53050000D03*
X68100000Y-54950000D03*
G04 #@! TD*
D11*
G04 #@! TO.C,R4*
G36*
X73627691Y-39726053D02*
X73648926Y-39729203D01*
X73669750Y-39734419D01*
X73689962Y-39741651D01*
X73709368Y-39750830D01*
X73727781Y-39761866D01*
X73745024Y-39774654D01*
X73760930Y-39789070D01*
X73775346Y-39804976D01*
X73788134Y-39822219D01*
X73799170Y-39840632D01*
X73808349Y-39860038D01*
X73815581Y-39880250D01*
X73820797Y-39901074D01*
X73823947Y-39922309D01*
X73825000Y-39943750D01*
X73825000Y-40456250D01*
X73823947Y-40477691D01*
X73820797Y-40498926D01*
X73815581Y-40519750D01*
X73808349Y-40539962D01*
X73799170Y-40559368D01*
X73788134Y-40577781D01*
X73775346Y-40595024D01*
X73760930Y-40610930D01*
X73745024Y-40625346D01*
X73727781Y-40638134D01*
X73709368Y-40649170D01*
X73689962Y-40658349D01*
X73669750Y-40665581D01*
X73648926Y-40670797D01*
X73627691Y-40673947D01*
X73606250Y-40675000D01*
X73168750Y-40675000D01*
X73147309Y-40673947D01*
X73126074Y-40670797D01*
X73105250Y-40665581D01*
X73085038Y-40658349D01*
X73065632Y-40649170D01*
X73047219Y-40638134D01*
X73029976Y-40625346D01*
X73014070Y-40610930D01*
X72999654Y-40595024D01*
X72986866Y-40577781D01*
X72975830Y-40559368D01*
X72966651Y-40539962D01*
X72959419Y-40519750D01*
X72954203Y-40498926D01*
X72951053Y-40477691D01*
X72950000Y-40456250D01*
X72950000Y-39943750D01*
X72951053Y-39922309D01*
X72954203Y-39901074D01*
X72959419Y-39880250D01*
X72966651Y-39860038D01*
X72975830Y-39840632D01*
X72986866Y-39822219D01*
X72999654Y-39804976D01*
X73014070Y-39789070D01*
X73029976Y-39774654D01*
X73047219Y-39761866D01*
X73065632Y-39750830D01*
X73085038Y-39741651D01*
X73105250Y-39734419D01*
X73126074Y-39729203D01*
X73147309Y-39726053D01*
X73168750Y-39725000D01*
X73606250Y-39725000D01*
X73627691Y-39726053D01*
X73627691Y-39726053D01*
G37*
D14*
X73387500Y-40200000D03*
D11*
G36*
X72052691Y-39726053D02*
X72073926Y-39729203D01*
X72094750Y-39734419D01*
X72114962Y-39741651D01*
X72134368Y-39750830D01*
X72152781Y-39761866D01*
X72170024Y-39774654D01*
X72185930Y-39789070D01*
X72200346Y-39804976D01*
X72213134Y-39822219D01*
X72224170Y-39840632D01*
X72233349Y-39860038D01*
X72240581Y-39880250D01*
X72245797Y-39901074D01*
X72248947Y-39922309D01*
X72250000Y-39943750D01*
X72250000Y-40456250D01*
X72248947Y-40477691D01*
X72245797Y-40498926D01*
X72240581Y-40519750D01*
X72233349Y-40539962D01*
X72224170Y-40559368D01*
X72213134Y-40577781D01*
X72200346Y-40595024D01*
X72185930Y-40610930D01*
X72170024Y-40625346D01*
X72152781Y-40638134D01*
X72134368Y-40649170D01*
X72114962Y-40658349D01*
X72094750Y-40665581D01*
X72073926Y-40670797D01*
X72052691Y-40673947D01*
X72031250Y-40675000D01*
X71593750Y-40675000D01*
X71572309Y-40673947D01*
X71551074Y-40670797D01*
X71530250Y-40665581D01*
X71510038Y-40658349D01*
X71490632Y-40649170D01*
X71472219Y-40638134D01*
X71454976Y-40625346D01*
X71439070Y-40610930D01*
X71424654Y-40595024D01*
X71411866Y-40577781D01*
X71400830Y-40559368D01*
X71391651Y-40539962D01*
X71384419Y-40519750D01*
X71379203Y-40498926D01*
X71376053Y-40477691D01*
X71375000Y-40456250D01*
X71375000Y-39943750D01*
X71376053Y-39922309D01*
X71379203Y-39901074D01*
X71384419Y-39880250D01*
X71391651Y-39860038D01*
X71400830Y-39840632D01*
X71411866Y-39822219D01*
X71424654Y-39804976D01*
X71439070Y-39789070D01*
X71454976Y-39774654D01*
X71472219Y-39761866D01*
X71490632Y-39750830D01*
X71510038Y-39741651D01*
X71530250Y-39734419D01*
X71551074Y-39729203D01*
X71572309Y-39726053D01*
X71593750Y-39725000D01*
X72031250Y-39725000D01*
X72052691Y-39726053D01*
X72052691Y-39726053D01*
G37*
D14*
X71812500Y-40200000D03*
G04 #@! TD*
D11*
G04 #@! TO.C,R3*
G36*
X72052691Y-42326053D02*
X72073926Y-42329203D01*
X72094750Y-42334419D01*
X72114962Y-42341651D01*
X72134368Y-42350830D01*
X72152781Y-42361866D01*
X72170024Y-42374654D01*
X72185930Y-42389070D01*
X72200346Y-42404976D01*
X72213134Y-42422219D01*
X72224170Y-42440632D01*
X72233349Y-42460038D01*
X72240581Y-42480250D01*
X72245797Y-42501074D01*
X72248947Y-42522309D01*
X72250000Y-42543750D01*
X72250000Y-43056250D01*
X72248947Y-43077691D01*
X72245797Y-43098926D01*
X72240581Y-43119750D01*
X72233349Y-43139962D01*
X72224170Y-43159368D01*
X72213134Y-43177781D01*
X72200346Y-43195024D01*
X72185930Y-43210930D01*
X72170024Y-43225346D01*
X72152781Y-43238134D01*
X72134368Y-43249170D01*
X72114962Y-43258349D01*
X72094750Y-43265581D01*
X72073926Y-43270797D01*
X72052691Y-43273947D01*
X72031250Y-43275000D01*
X71593750Y-43275000D01*
X71572309Y-43273947D01*
X71551074Y-43270797D01*
X71530250Y-43265581D01*
X71510038Y-43258349D01*
X71490632Y-43249170D01*
X71472219Y-43238134D01*
X71454976Y-43225346D01*
X71439070Y-43210930D01*
X71424654Y-43195024D01*
X71411866Y-43177781D01*
X71400830Y-43159368D01*
X71391651Y-43139962D01*
X71384419Y-43119750D01*
X71379203Y-43098926D01*
X71376053Y-43077691D01*
X71375000Y-43056250D01*
X71375000Y-42543750D01*
X71376053Y-42522309D01*
X71379203Y-42501074D01*
X71384419Y-42480250D01*
X71391651Y-42460038D01*
X71400830Y-42440632D01*
X71411866Y-42422219D01*
X71424654Y-42404976D01*
X71439070Y-42389070D01*
X71454976Y-42374654D01*
X71472219Y-42361866D01*
X71490632Y-42350830D01*
X71510038Y-42341651D01*
X71530250Y-42334419D01*
X71551074Y-42329203D01*
X71572309Y-42326053D01*
X71593750Y-42325000D01*
X72031250Y-42325000D01*
X72052691Y-42326053D01*
X72052691Y-42326053D01*
G37*
D14*
X71812500Y-42800000D03*
D11*
G36*
X73627691Y-42326053D02*
X73648926Y-42329203D01*
X73669750Y-42334419D01*
X73689962Y-42341651D01*
X73709368Y-42350830D01*
X73727781Y-42361866D01*
X73745024Y-42374654D01*
X73760930Y-42389070D01*
X73775346Y-42404976D01*
X73788134Y-42422219D01*
X73799170Y-42440632D01*
X73808349Y-42460038D01*
X73815581Y-42480250D01*
X73820797Y-42501074D01*
X73823947Y-42522309D01*
X73825000Y-42543750D01*
X73825000Y-43056250D01*
X73823947Y-43077691D01*
X73820797Y-43098926D01*
X73815581Y-43119750D01*
X73808349Y-43139962D01*
X73799170Y-43159368D01*
X73788134Y-43177781D01*
X73775346Y-43195024D01*
X73760930Y-43210930D01*
X73745024Y-43225346D01*
X73727781Y-43238134D01*
X73709368Y-43249170D01*
X73689962Y-43258349D01*
X73669750Y-43265581D01*
X73648926Y-43270797D01*
X73627691Y-43273947D01*
X73606250Y-43275000D01*
X73168750Y-43275000D01*
X73147309Y-43273947D01*
X73126074Y-43270797D01*
X73105250Y-43265581D01*
X73085038Y-43258349D01*
X73065632Y-43249170D01*
X73047219Y-43238134D01*
X73029976Y-43225346D01*
X73014070Y-43210930D01*
X72999654Y-43195024D01*
X72986866Y-43177781D01*
X72975830Y-43159368D01*
X72966651Y-43139962D01*
X72959419Y-43119750D01*
X72954203Y-43098926D01*
X72951053Y-43077691D01*
X72950000Y-43056250D01*
X72950000Y-42543750D01*
X72951053Y-42522309D01*
X72954203Y-42501074D01*
X72959419Y-42480250D01*
X72966651Y-42460038D01*
X72975830Y-42440632D01*
X72986866Y-42422219D01*
X72999654Y-42404976D01*
X73014070Y-42389070D01*
X73029976Y-42374654D01*
X73047219Y-42361866D01*
X73065632Y-42350830D01*
X73085038Y-42341651D01*
X73105250Y-42334419D01*
X73126074Y-42329203D01*
X73147309Y-42326053D01*
X73168750Y-42325000D01*
X73606250Y-42325000D01*
X73627691Y-42326053D01*
X73627691Y-42326053D01*
G37*
D14*
X73387500Y-42800000D03*
G04 #@! TD*
D11*
G04 #@! TO.C,R2*
G36*
X73627691Y-52326053D02*
X73648926Y-52329203D01*
X73669750Y-52334419D01*
X73689962Y-52341651D01*
X73709368Y-52350830D01*
X73727781Y-52361866D01*
X73745024Y-52374654D01*
X73760930Y-52389070D01*
X73775346Y-52404976D01*
X73788134Y-52422219D01*
X73799170Y-52440632D01*
X73808349Y-52460038D01*
X73815581Y-52480250D01*
X73820797Y-52501074D01*
X73823947Y-52522309D01*
X73825000Y-52543750D01*
X73825000Y-53056250D01*
X73823947Y-53077691D01*
X73820797Y-53098926D01*
X73815581Y-53119750D01*
X73808349Y-53139962D01*
X73799170Y-53159368D01*
X73788134Y-53177781D01*
X73775346Y-53195024D01*
X73760930Y-53210930D01*
X73745024Y-53225346D01*
X73727781Y-53238134D01*
X73709368Y-53249170D01*
X73689962Y-53258349D01*
X73669750Y-53265581D01*
X73648926Y-53270797D01*
X73627691Y-53273947D01*
X73606250Y-53275000D01*
X73168750Y-53275000D01*
X73147309Y-53273947D01*
X73126074Y-53270797D01*
X73105250Y-53265581D01*
X73085038Y-53258349D01*
X73065632Y-53249170D01*
X73047219Y-53238134D01*
X73029976Y-53225346D01*
X73014070Y-53210930D01*
X72999654Y-53195024D01*
X72986866Y-53177781D01*
X72975830Y-53159368D01*
X72966651Y-53139962D01*
X72959419Y-53119750D01*
X72954203Y-53098926D01*
X72951053Y-53077691D01*
X72950000Y-53056250D01*
X72950000Y-52543750D01*
X72951053Y-52522309D01*
X72954203Y-52501074D01*
X72959419Y-52480250D01*
X72966651Y-52460038D01*
X72975830Y-52440632D01*
X72986866Y-52422219D01*
X72999654Y-52404976D01*
X73014070Y-52389070D01*
X73029976Y-52374654D01*
X73047219Y-52361866D01*
X73065632Y-52350830D01*
X73085038Y-52341651D01*
X73105250Y-52334419D01*
X73126074Y-52329203D01*
X73147309Y-52326053D01*
X73168750Y-52325000D01*
X73606250Y-52325000D01*
X73627691Y-52326053D01*
X73627691Y-52326053D01*
G37*
D14*
X73387500Y-52800000D03*
D11*
G36*
X72052691Y-52326053D02*
X72073926Y-52329203D01*
X72094750Y-52334419D01*
X72114962Y-52341651D01*
X72134368Y-52350830D01*
X72152781Y-52361866D01*
X72170024Y-52374654D01*
X72185930Y-52389070D01*
X72200346Y-52404976D01*
X72213134Y-52422219D01*
X72224170Y-52440632D01*
X72233349Y-52460038D01*
X72240581Y-52480250D01*
X72245797Y-52501074D01*
X72248947Y-52522309D01*
X72250000Y-52543750D01*
X72250000Y-53056250D01*
X72248947Y-53077691D01*
X72245797Y-53098926D01*
X72240581Y-53119750D01*
X72233349Y-53139962D01*
X72224170Y-53159368D01*
X72213134Y-53177781D01*
X72200346Y-53195024D01*
X72185930Y-53210930D01*
X72170024Y-53225346D01*
X72152781Y-53238134D01*
X72134368Y-53249170D01*
X72114962Y-53258349D01*
X72094750Y-53265581D01*
X72073926Y-53270797D01*
X72052691Y-53273947D01*
X72031250Y-53275000D01*
X71593750Y-53275000D01*
X71572309Y-53273947D01*
X71551074Y-53270797D01*
X71530250Y-53265581D01*
X71510038Y-53258349D01*
X71490632Y-53249170D01*
X71472219Y-53238134D01*
X71454976Y-53225346D01*
X71439070Y-53210930D01*
X71424654Y-53195024D01*
X71411866Y-53177781D01*
X71400830Y-53159368D01*
X71391651Y-53139962D01*
X71384419Y-53119750D01*
X71379203Y-53098926D01*
X71376053Y-53077691D01*
X71375000Y-53056250D01*
X71375000Y-52543750D01*
X71376053Y-52522309D01*
X71379203Y-52501074D01*
X71384419Y-52480250D01*
X71391651Y-52460038D01*
X71400830Y-52440632D01*
X71411866Y-52422219D01*
X71424654Y-52404976D01*
X71439070Y-52389070D01*
X71454976Y-52374654D01*
X71472219Y-52361866D01*
X71490632Y-52350830D01*
X71510038Y-52341651D01*
X71530250Y-52334419D01*
X71551074Y-52329203D01*
X71572309Y-52326053D01*
X71593750Y-52325000D01*
X72031250Y-52325000D01*
X72052691Y-52326053D01*
X72052691Y-52326053D01*
G37*
D14*
X71812500Y-52800000D03*
G04 #@! TD*
D11*
G04 #@! TO.C,R1*
G36*
X77627691Y-44926053D02*
X77648926Y-44929203D01*
X77669750Y-44934419D01*
X77689962Y-44941651D01*
X77709368Y-44950830D01*
X77727781Y-44961866D01*
X77745024Y-44974654D01*
X77760930Y-44989070D01*
X77775346Y-45004976D01*
X77788134Y-45022219D01*
X77799170Y-45040632D01*
X77808349Y-45060038D01*
X77815581Y-45080250D01*
X77820797Y-45101074D01*
X77823947Y-45122309D01*
X77825000Y-45143750D01*
X77825000Y-45656250D01*
X77823947Y-45677691D01*
X77820797Y-45698926D01*
X77815581Y-45719750D01*
X77808349Y-45739962D01*
X77799170Y-45759368D01*
X77788134Y-45777781D01*
X77775346Y-45795024D01*
X77760930Y-45810930D01*
X77745024Y-45825346D01*
X77727781Y-45838134D01*
X77709368Y-45849170D01*
X77689962Y-45858349D01*
X77669750Y-45865581D01*
X77648926Y-45870797D01*
X77627691Y-45873947D01*
X77606250Y-45875000D01*
X77168750Y-45875000D01*
X77147309Y-45873947D01*
X77126074Y-45870797D01*
X77105250Y-45865581D01*
X77085038Y-45858349D01*
X77065632Y-45849170D01*
X77047219Y-45838134D01*
X77029976Y-45825346D01*
X77014070Y-45810930D01*
X76999654Y-45795024D01*
X76986866Y-45777781D01*
X76975830Y-45759368D01*
X76966651Y-45739962D01*
X76959419Y-45719750D01*
X76954203Y-45698926D01*
X76951053Y-45677691D01*
X76950000Y-45656250D01*
X76950000Y-45143750D01*
X76951053Y-45122309D01*
X76954203Y-45101074D01*
X76959419Y-45080250D01*
X76966651Y-45060038D01*
X76975830Y-45040632D01*
X76986866Y-45022219D01*
X76999654Y-45004976D01*
X77014070Y-44989070D01*
X77029976Y-44974654D01*
X77047219Y-44961866D01*
X77065632Y-44950830D01*
X77085038Y-44941651D01*
X77105250Y-44934419D01*
X77126074Y-44929203D01*
X77147309Y-44926053D01*
X77168750Y-44925000D01*
X77606250Y-44925000D01*
X77627691Y-44926053D01*
X77627691Y-44926053D01*
G37*
D14*
X77387500Y-45400000D03*
D11*
G36*
X76052691Y-44926053D02*
X76073926Y-44929203D01*
X76094750Y-44934419D01*
X76114962Y-44941651D01*
X76134368Y-44950830D01*
X76152781Y-44961866D01*
X76170024Y-44974654D01*
X76185930Y-44989070D01*
X76200346Y-45004976D01*
X76213134Y-45022219D01*
X76224170Y-45040632D01*
X76233349Y-45060038D01*
X76240581Y-45080250D01*
X76245797Y-45101074D01*
X76248947Y-45122309D01*
X76250000Y-45143750D01*
X76250000Y-45656250D01*
X76248947Y-45677691D01*
X76245797Y-45698926D01*
X76240581Y-45719750D01*
X76233349Y-45739962D01*
X76224170Y-45759368D01*
X76213134Y-45777781D01*
X76200346Y-45795024D01*
X76185930Y-45810930D01*
X76170024Y-45825346D01*
X76152781Y-45838134D01*
X76134368Y-45849170D01*
X76114962Y-45858349D01*
X76094750Y-45865581D01*
X76073926Y-45870797D01*
X76052691Y-45873947D01*
X76031250Y-45875000D01*
X75593750Y-45875000D01*
X75572309Y-45873947D01*
X75551074Y-45870797D01*
X75530250Y-45865581D01*
X75510038Y-45858349D01*
X75490632Y-45849170D01*
X75472219Y-45838134D01*
X75454976Y-45825346D01*
X75439070Y-45810930D01*
X75424654Y-45795024D01*
X75411866Y-45777781D01*
X75400830Y-45759368D01*
X75391651Y-45739962D01*
X75384419Y-45719750D01*
X75379203Y-45698926D01*
X75376053Y-45677691D01*
X75375000Y-45656250D01*
X75375000Y-45143750D01*
X75376053Y-45122309D01*
X75379203Y-45101074D01*
X75384419Y-45080250D01*
X75391651Y-45060038D01*
X75400830Y-45040632D01*
X75411866Y-45022219D01*
X75424654Y-45004976D01*
X75439070Y-44989070D01*
X75454976Y-44974654D01*
X75472219Y-44961866D01*
X75490632Y-44950830D01*
X75510038Y-44941651D01*
X75530250Y-44934419D01*
X75551074Y-44929203D01*
X75572309Y-44926053D01*
X75593750Y-44925000D01*
X76031250Y-44925000D01*
X76052691Y-44926053D01*
X76052691Y-44926053D01*
G37*
D14*
X75812500Y-45400000D03*
G04 #@! TD*
M02*
