G04 #@! TF.GenerationSoftware,KiCad,Pcbnew,5.0.1*
G04 #@! TF.CreationDate,2019-11-02T01:16:45+01:00*
G04 #@! TF.ProjectId,JlinkBreakout,4A6C696E6B427265616B6F75742E6B69,rev?*
G04 #@! TF.SameCoordinates,Original*
G04 #@! TF.FileFunction,Copper,L1,Top,Signal*
G04 #@! TF.FilePolarity,Positive*
%FSLAX46Y46*%
G04 Gerber Fmt 4.6, Leading zero omitted, Abs format (unit mm)*
G04 Created by KiCad (PCBNEW 5.0.1) date Sat 02 Nov 2019 01:16:45 AM CET*
%MOMM*%
%LPD*%
G01*
G04 APERTURE LIST*
G04 #@! TA.AperFunction,NonConductor*
%ADD10C,0.050000*%
G04 #@! TD*
G04 #@! TA.AperFunction,Conductor*
%ADD11C,0.100000*%
G04 #@! TD*
G04 #@! TA.AperFunction,ComponentPad*
%ADD12C,1.700000*%
G04 #@! TD*
G04 #@! TA.AperFunction,ComponentPad*
%ADD13O,1.950000X1.700000*%
G04 #@! TD*
G04 #@! TA.AperFunction,ComponentPad*
%ADD14C,1.524000*%
G04 #@! TD*
G04 #@! TA.AperFunction,ComponentPad*
%ADD15R,1.727200X1.727200*%
G04 #@! TD*
G04 #@! TA.AperFunction,ComponentPad*
%ADD16O,1.727200X1.727200*%
G04 #@! TD*
G04 #@! TA.AperFunction,SMDPad,CuDef*
%ADD17C,1.524000*%
G04 #@! TD*
G04 #@! TA.AperFunction,ViaPad*
%ADD18C,0.800000*%
G04 #@! TD*
G04 #@! TA.AperFunction,Conductor*
%ADD19C,0.200000*%
G04 #@! TD*
G04 #@! TA.AperFunction,Conductor*
%ADD20C,0.300000*%
G04 #@! TD*
G04 #@! TA.AperFunction,Conductor*
%ADD21C,0.157000*%
G04 #@! TD*
G04 APERTURE END LIST*
D10*
X58500000Y-60000000D02*
G75*
G02X58000000Y-59500000I0J500000D01*
G01*
X58000000Y-33500000D02*
G75*
G02X58500000Y-33000000I500000J0D01*
G01*
X96000000Y-38000000D02*
G75*
G02X96500000Y-38500000I0J-500000D01*
G01*
X96500000Y-54500000D02*
G75*
G02X96000000Y-55000000I-500000J0D01*
G01*
X86000000Y-38000000D02*
X65000000Y-33000000D01*
X96000000Y-38000000D02*
X86000000Y-38000000D01*
X96500000Y-54500000D02*
X96500000Y-38500000D01*
X86000000Y-55000000D02*
X96000000Y-55000000D01*
X65000000Y-60000000D02*
X86000000Y-55000000D01*
X65000000Y-33000000D02*
X58500000Y-33000000D01*
X58500000Y-60000000D02*
X65000000Y-60000000D01*
X58000000Y-33500000D02*
X58000000Y-59500000D01*
D11*
G04 #@! TO.N,REF*
G04 #@! TO.C,J3*
G36*
X92849504Y-50701204D02*
X92873773Y-50704804D01*
X92897571Y-50710765D01*
X92920671Y-50719030D01*
X92942849Y-50729520D01*
X92963893Y-50742133D01*
X92983598Y-50756747D01*
X93001777Y-50773223D01*
X93018253Y-50791402D01*
X93032867Y-50811107D01*
X93045480Y-50832151D01*
X93055970Y-50854329D01*
X93064235Y-50877429D01*
X93070196Y-50901227D01*
X93073796Y-50925496D01*
X93075000Y-50950000D01*
X93075000Y-52150000D01*
X93073796Y-52174504D01*
X93070196Y-52198773D01*
X93064235Y-52222571D01*
X93055970Y-52245671D01*
X93045480Y-52267849D01*
X93032867Y-52288893D01*
X93018253Y-52308598D01*
X93001777Y-52326777D01*
X92983598Y-52343253D01*
X92963893Y-52357867D01*
X92942849Y-52370480D01*
X92920671Y-52380970D01*
X92897571Y-52389235D01*
X92873773Y-52395196D01*
X92849504Y-52398796D01*
X92825000Y-52400000D01*
X91375000Y-52400000D01*
X91350496Y-52398796D01*
X91326227Y-52395196D01*
X91302429Y-52389235D01*
X91279329Y-52380970D01*
X91257151Y-52370480D01*
X91236107Y-52357867D01*
X91216402Y-52343253D01*
X91198223Y-52326777D01*
X91181747Y-52308598D01*
X91167133Y-52288893D01*
X91154520Y-52267849D01*
X91144030Y-52245671D01*
X91135765Y-52222571D01*
X91129804Y-52198773D01*
X91126204Y-52174504D01*
X91125000Y-52150000D01*
X91125000Y-50950000D01*
X91126204Y-50925496D01*
X91129804Y-50901227D01*
X91135765Y-50877429D01*
X91144030Y-50854329D01*
X91154520Y-50832151D01*
X91167133Y-50811107D01*
X91181747Y-50791402D01*
X91198223Y-50773223D01*
X91216402Y-50756747D01*
X91236107Y-50742133D01*
X91257151Y-50729520D01*
X91279329Y-50719030D01*
X91302429Y-50710765D01*
X91326227Y-50704804D01*
X91350496Y-50701204D01*
X91375000Y-50700000D01*
X92825000Y-50700000D01*
X92849504Y-50701204D01*
X92849504Y-50701204D01*
G37*
D12*
G04 #@! TD*
G04 #@! TO.P,J3,1*
G04 #@! TO.N,REF*
X92100000Y-51550000D03*
D13*
G04 #@! TO.P,J3,2*
G04 #@! TO.N,RST*
X92100000Y-49050000D03*
G04 #@! TO.P,J3,3*
G04 #@! TO.N,CLK*
X92100000Y-46550000D03*
G04 #@! TO.P,J3,4*
G04 #@! TO.N,DIO*
X92100000Y-44050000D03*
G04 #@! TO.P,J3,5*
G04 #@! TO.N,GND*
X92100000Y-41550000D03*
G04 #@! TD*
D14*
G04 #@! TO.P,U2,1*
G04 #@! TO.N,Net-(U2-Pad1)*
X77870000Y-52850000D03*
G04 #@! TO.P,U2,2*
G04 #@! TO.N,LDOOUT*
X77870000Y-50310000D03*
G04 #@! TO.P,U2,3*
G04 #@! TO.N,REF*
X77870000Y-47770000D03*
G04 #@! TO.P,U2,4*
G04 #@! TO.N,LDOOUT*
X77870000Y-42690000D03*
G04 #@! TO.P,U2,5*
X77870000Y-40150000D03*
G04 #@! TO.P,U2,6*
G04 #@! TO.N,Net-(R2-Pad2)*
X75330000Y-52850000D03*
G04 #@! TO.P,U2,7*
X75330000Y-50310000D03*
G04 #@! TO.P,U2,8*
G04 #@! TO.N,Net-(R1-Pad2)*
X75330000Y-47770000D03*
G04 #@! TO.P,U2,9*
G04 #@! TO.N,Net-(R3-Pad2)*
X75330000Y-42690000D03*
G04 #@! TO.P,U2,10*
G04 #@! TO.N,Net-(R4-Pad2)*
X75330000Y-40150000D03*
G04 #@! TD*
D15*
G04 #@! TO.P,J2,1*
G04 #@! TO.N,REF*
X69100000Y-46300000D03*
D16*
G04 #@! TO.P,J2,2*
G04 #@! TO.N,DIO*
X66560000Y-46300000D03*
G04 #@! TO.P,J2,3*
G04 #@! TO.N,RST*
X69100000Y-43760000D03*
G04 #@! TO.P,J2,4*
G04 #@! TO.N,CLK*
X66560000Y-43760000D03*
G04 #@! TO.P,J2,5*
G04 #@! TO.N,GND*
X69100000Y-41220000D03*
G04 #@! TO.P,J2,6*
G04 #@! TO.N,SWO*
X66560000Y-41220000D03*
G04 #@! TD*
D11*
G04 #@! TO.N,+5V*
G04 #@! TO.C,J1*
G36*
X61356345Y-57169835D02*
X61393329Y-57175321D01*
X61429598Y-57184406D01*
X61464802Y-57197002D01*
X61498602Y-57212988D01*
X61530672Y-57232210D01*
X61560704Y-57254483D01*
X61588408Y-57279592D01*
X61613517Y-57307296D01*
X61635790Y-57337328D01*
X61655012Y-57369398D01*
X61670998Y-57403198D01*
X61683594Y-57438402D01*
X61692679Y-57474671D01*
X61698165Y-57511655D01*
X61700000Y-57549000D01*
X61700000Y-58311000D01*
X61698165Y-58348345D01*
X61692679Y-58385329D01*
X61683594Y-58421598D01*
X61670998Y-58456802D01*
X61655012Y-58490602D01*
X61635790Y-58522672D01*
X61613517Y-58552704D01*
X61588408Y-58580408D01*
X61560704Y-58605517D01*
X61530672Y-58627790D01*
X61498602Y-58647012D01*
X61464802Y-58662998D01*
X61429598Y-58675594D01*
X61393329Y-58684679D01*
X61356345Y-58690165D01*
X61319000Y-58692000D01*
X59081000Y-58692000D01*
X59043655Y-58690165D01*
X59006671Y-58684679D01*
X58970402Y-58675594D01*
X58935198Y-58662998D01*
X58901398Y-58647012D01*
X58869328Y-58627790D01*
X58839296Y-58605517D01*
X58811592Y-58580408D01*
X58786483Y-58552704D01*
X58764210Y-58522672D01*
X58744988Y-58490602D01*
X58729002Y-58456802D01*
X58716406Y-58421598D01*
X58707321Y-58385329D01*
X58701835Y-58348345D01*
X58700000Y-58311000D01*
X58700000Y-57549000D01*
X58701835Y-57511655D01*
X58707321Y-57474671D01*
X58716406Y-57438402D01*
X58729002Y-57403198D01*
X58744988Y-57369398D01*
X58764210Y-57337328D01*
X58786483Y-57307296D01*
X58811592Y-57279592D01*
X58839296Y-57254483D01*
X58869328Y-57232210D01*
X58901398Y-57212988D01*
X58935198Y-57197002D01*
X58970402Y-57184406D01*
X59006671Y-57175321D01*
X59043655Y-57169835D01*
X59081000Y-57168000D01*
X61319000Y-57168000D01*
X61356345Y-57169835D01*
X61356345Y-57169835D01*
G37*
D17*
G04 #@! TD*
G04 #@! TO.P,J1,20*
G04 #@! TO.N,+5V*
X60200000Y-57930000D03*
D11*
G04 #@! TO.N,Net-(J1-Pad18)*
G04 #@! TO.C,J1*
G36*
X61356345Y-54629835D02*
X61393329Y-54635321D01*
X61429598Y-54644406D01*
X61464802Y-54657002D01*
X61498602Y-54672988D01*
X61530672Y-54692210D01*
X61560704Y-54714483D01*
X61588408Y-54739592D01*
X61613517Y-54767296D01*
X61635790Y-54797328D01*
X61655012Y-54829398D01*
X61670998Y-54863198D01*
X61683594Y-54898402D01*
X61692679Y-54934671D01*
X61698165Y-54971655D01*
X61700000Y-55009000D01*
X61700000Y-55771000D01*
X61698165Y-55808345D01*
X61692679Y-55845329D01*
X61683594Y-55881598D01*
X61670998Y-55916802D01*
X61655012Y-55950602D01*
X61635790Y-55982672D01*
X61613517Y-56012704D01*
X61588408Y-56040408D01*
X61560704Y-56065517D01*
X61530672Y-56087790D01*
X61498602Y-56107012D01*
X61464802Y-56122998D01*
X61429598Y-56135594D01*
X61393329Y-56144679D01*
X61356345Y-56150165D01*
X61319000Y-56152000D01*
X59081000Y-56152000D01*
X59043655Y-56150165D01*
X59006671Y-56144679D01*
X58970402Y-56135594D01*
X58935198Y-56122998D01*
X58901398Y-56107012D01*
X58869328Y-56087790D01*
X58839296Y-56065517D01*
X58811592Y-56040408D01*
X58786483Y-56012704D01*
X58764210Y-55982672D01*
X58744988Y-55950602D01*
X58729002Y-55916802D01*
X58716406Y-55881598D01*
X58707321Y-55845329D01*
X58701835Y-55808345D01*
X58700000Y-55771000D01*
X58700000Y-55009000D01*
X58701835Y-54971655D01*
X58707321Y-54934671D01*
X58716406Y-54898402D01*
X58729002Y-54863198D01*
X58744988Y-54829398D01*
X58764210Y-54797328D01*
X58786483Y-54767296D01*
X58811592Y-54739592D01*
X58839296Y-54714483D01*
X58869328Y-54692210D01*
X58901398Y-54672988D01*
X58935198Y-54657002D01*
X58970402Y-54644406D01*
X59006671Y-54635321D01*
X59043655Y-54629835D01*
X59081000Y-54628000D01*
X61319000Y-54628000D01*
X61356345Y-54629835D01*
X61356345Y-54629835D01*
G37*
D17*
G04 #@! TD*
G04 #@! TO.P,J1,18*
G04 #@! TO.N,Net-(J1-Pad18)*
X60200000Y-55390000D03*
D11*
G04 #@! TO.N,RST*
G04 #@! TO.C,J1*
G36*
X61356345Y-52089835D02*
X61393329Y-52095321D01*
X61429598Y-52104406D01*
X61464802Y-52117002D01*
X61498602Y-52132988D01*
X61530672Y-52152210D01*
X61560704Y-52174483D01*
X61588408Y-52199592D01*
X61613517Y-52227296D01*
X61635790Y-52257328D01*
X61655012Y-52289398D01*
X61670998Y-52323198D01*
X61683594Y-52358402D01*
X61692679Y-52394671D01*
X61698165Y-52431655D01*
X61700000Y-52469000D01*
X61700000Y-53231000D01*
X61698165Y-53268345D01*
X61692679Y-53305329D01*
X61683594Y-53341598D01*
X61670998Y-53376802D01*
X61655012Y-53410602D01*
X61635790Y-53442672D01*
X61613517Y-53472704D01*
X61588408Y-53500408D01*
X61560704Y-53525517D01*
X61530672Y-53547790D01*
X61498602Y-53567012D01*
X61464802Y-53582998D01*
X61429598Y-53595594D01*
X61393329Y-53604679D01*
X61356345Y-53610165D01*
X61319000Y-53612000D01*
X59081000Y-53612000D01*
X59043655Y-53610165D01*
X59006671Y-53604679D01*
X58970402Y-53595594D01*
X58935198Y-53582998D01*
X58901398Y-53567012D01*
X58869328Y-53547790D01*
X58839296Y-53525517D01*
X58811592Y-53500408D01*
X58786483Y-53472704D01*
X58764210Y-53442672D01*
X58744988Y-53410602D01*
X58729002Y-53376802D01*
X58716406Y-53341598D01*
X58707321Y-53305329D01*
X58701835Y-53268345D01*
X58700000Y-53231000D01*
X58700000Y-52469000D01*
X58701835Y-52431655D01*
X58707321Y-52394671D01*
X58716406Y-52358402D01*
X58729002Y-52323198D01*
X58744988Y-52289398D01*
X58764210Y-52257328D01*
X58786483Y-52227296D01*
X58811592Y-52199592D01*
X58839296Y-52174483D01*
X58869328Y-52152210D01*
X58901398Y-52132988D01*
X58935198Y-52117002D01*
X58970402Y-52104406D01*
X59006671Y-52095321D01*
X59043655Y-52089835D01*
X59081000Y-52088000D01*
X61319000Y-52088000D01*
X61356345Y-52089835D01*
X61356345Y-52089835D01*
G37*
D17*
G04 #@! TD*
G04 #@! TO.P,J1,16*
G04 #@! TO.N,RST*
X60200000Y-52850000D03*
D11*
G04 #@! TO.N,SWO*
G04 #@! TO.C,J1*
G36*
X61356345Y-49549835D02*
X61393329Y-49555321D01*
X61429598Y-49564406D01*
X61464802Y-49577002D01*
X61498602Y-49592988D01*
X61530672Y-49612210D01*
X61560704Y-49634483D01*
X61588408Y-49659592D01*
X61613517Y-49687296D01*
X61635790Y-49717328D01*
X61655012Y-49749398D01*
X61670998Y-49783198D01*
X61683594Y-49818402D01*
X61692679Y-49854671D01*
X61698165Y-49891655D01*
X61700000Y-49929000D01*
X61700000Y-50691000D01*
X61698165Y-50728345D01*
X61692679Y-50765329D01*
X61683594Y-50801598D01*
X61670998Y-50836802D01*
X61655012Y-50870602D01*
X61635790Y-50902672D01*
X61613517Y-50932704D01*
X61588408Y-50960408D01*
X61560704Y-50985517D01*
X61530672Y-51007790D01*
X61498602Y-51027012D01*
X61464802Y-51042998D01*
X61429598Y-51055594D01*
X61393329Y-51064679D01*
X61356345Y-51070165D01*
X61319000Y-51072000D01*
X59081000Y-51072000D01*
X59043655Y-51070165D01*
X59006671Y-51064679D01*
X58970402Y-51055594D01*
X58935198Y-51042998D01*
X58901398Y-51027012D01*
X58869328Y-51007790D01*
X58839296Y-50985517D01*
X58811592Y-50960408D01*
X58786483Y-50932704D01*
X58764210Y-50902672D01*
X58744988Y-50870602D01*
X58729002Y-50836802D01*
X58716406Y-50801598D01*
X58707321Y-50765329D01*
X58701835Y-50728345D01*
X58700000Y-50691000D01*
X58700000Y-49929000D01*
X58701835Y-49891655D01*
X58707321Y-49854671D01*
X58716406Y-49818402D01*
X58729002Y-49783198D01*
X58744988Y-49749398D01*
X58764210Y-49717328D01*
X58786483Y-49687296D01*
X58811592Y-49659592D01*
X58839296Y-49634483D01*
X58869328Y-49612210D01*
X58901398Y-49592988D01*
X58935198Y-49577002D01*
X58970402Y-49564406D01*
X59006671Y-49555321D01*
X59043655Y-49549835D01*
X59081000Y-49548000D01*
X61319000Y-49548000D01*
X61356345Y-49549835D01*
X61356345Y-49549835D01*
G37*
D17*
G04 #@! TD*
G04 #@! TO.P,J1,14*
G04 #@! TO.N,SWO*
X60200000Y-50310000D03*
D11*
G04 #@! TO.N,Net-(J1-Pad12)*
G04 #@! TO.C,J1*
G36*
X61356345Y-47009835D02*
X61393329Y-47015321D01*
X61429598Y-47024406D01*
X61464802Y-47037002D01*
X61498602Y-47052988D01*
X61530672Y-47072210D01*
X61560704Y-47094483D01*
X61588408Y-47119592D01*
X61613517Y-47147296D01*
X61635790Y-47177328D01*
X61655012Y-47209398D01*
X61670998Y-47243198D01*
X61683594Y-47278402D01*
X61692679Y-47314671D01*
X61698165Y-47351655D01*
X61700000Y-47389000D01*
X61700000Y-48151000D01*
X61698165Y-48188345D01*
X61692679Y-48225329D01*
X61683594Y-48261598D01*
X61670998Y-48296802D01*
X61655012Y-48330602D01*
X61635790Y-48362672D01*
X61613517Y-48392704D01*
X61588408Y-48420408D01*
X61560704Y-48445517D01*
X61530672Y-48467790D01*
X61498602Y-48487012D01*
X61464802Y-48502998D01*
X61429598Y-48515594D01*
X61393329Y-48524679D01*
X61356345Y-48530165D01*
X61319000Y-48532000D01*
X59081000Y-48532000D01*
X59043655Y-48530165D01*
X59006671Y-48524679D01*
X58970402Y-48515594D01*
X58935198Y-48502998D01*
X58901398Y-48487012D01*
X58869328Y-48467790D01*
X58839296Y-48445517D01*
X58811592Y-48420408D01*
X58786483Y-48392704D01*
X58764210Y-48362672D01*
X58744988Y-48330602D01*
X58729002Y-48296802D01*
X58716406Y-48261598D01*
X58707321Y-48225329D01*
X58701835Y-48188345D01*
X58700000Y-48151000D01*
X58700000Y-47389000D01*
X58701835Y-47351655D01*
X58707321Y-47314671D01*
X58716406Y-47278402D01*
X58729002Y-47243198D01*
X58744988Y-47209398D01*
X58764210Y-47177328D01*
X58786483Y-47147296D01*
X58811592Y-47119592D01*
X58839296Y-47094483D01*
X58869328Y-47072210D01*
X58901398Y-47052988D01*
X58935198Y-47037002D01*
X58970402Y-47024406D01*
X59006671Y-47015321D01*
X59043655Y-47009835D01*
X59081000Y-47008000D01*
X61319000Y-47008000D01*
X61356345Y-47009835D01*
X61356345Y-47009835D01*
G37*
D17*
G04 #@! TD*
G04 #@! TO.P,J1,12*
G04 #@! TO.N,Net-(J1-Pad12)*
X60200000Y-47770000D03*
D11*
G04 #@! TO.N,CLK*
G04 #@! TO.C,J1*
G36*
X61356345Y-44469835D02*
X61393329Y-44475321D01*
X61429598Y-44484406D01*
X61464802Y-44497002D01*
X61498602Y-44512988D01*
X61530672Y-44532210D01*
X61560704Y-44554483D01*
X61588408Y-44579592D01*
X61613517Y-44607296D01*
X61635790Y-44637328D01*
X61655012Y-44669398D01*
X61670998Y-44703198D01*
X61683594Y-44738402D01*
X61692679Y-44774671D01*
X61698165Y-44811655D01*
X61700000Y-44849000D01*
X61700000Y-45611000D01*
X61698165Y-45648345D01*
X61692679Y-45685329D01*
X61683594Y-45721598D01*
X61670998Y-45756802D01*
X61655012Y-45790602D01*
X61635790Y-45822672D01*
X61613517Y-45852704D01*
X61588408Y-45880408D01*
X61560704Y-45905517D01*
X61530672Y-45927790D01*
X61498602Y-45947012D01*
X61464802Y-45962998D01*
X61429598Y-45975594D01*
X61393329Y-45984679D01*
X61356345Y-45990165D01*
X61319000Y-45992000D01*
X59081000Y-45992000D01*
X59043655Y-45990165D01*
X59006671Y-45984679D01*
X58970402Y-45975594D01*
X58935198Y-45962998D01*
X58901398Y-45947012D01*
X58869328Y-45927790D01*
X58839296Y-45905517D01*
X58811592Y-45880408D01*
X58786483Y-45852704D01*
X58764210Y-45822672D01*
X58744988Y-45790602D01*
X58729002Y-45756802D01*
X58716406Y-45721598D01*
X58707321Y-45685329D01*
X58701835Y-45648345D01*
X58700000Y-45611000D01*
X58700000Y-44849000D01*
X58701835Y-44811655D01*
X58707321Y-44774671D01*
X58716406Y-44738402D01*
X58729002Y-44703198D01*
X58744988Y-44669398D01*
X58764210Y-44637328D01*
X58786483Y-44607296D01*
X58811592Y-44579592D01*
X58839296Y-44554483D01*
X58869328Y-44532210D01*
X58901398Y-44512988D01*
X58935198Y-44497002D01*
X58970402Y-44484406D01*
X59006671Y-44475321D01*
X59043655Y-44469835D01*
X59081000Y-44468000D01*
X61319000Y-44468000D01*
X61356345Y-44469835D01*
X61356345Y-44469835D01*
G37*
D17*
G04 #@! TD*
G04 #@! TO.P,J1,10*
G04 #@! TO.N,CLK*
X60200000Y-45230000D03*
D11*
G04 #@! TO.N,DIO*
G04 #@! TO.C,J1*
G36*
X61356345Y-41929835D02*
X61393329Y-41935321D01*
X61429598Y-41944406D01*
X61464802Y-41957002D01*
X61498602Y-41972988D01*
X61530672Y-41992210D01*
X61560704Y-42014483D01*
X61588408Y-42039592D01*
X61613517Y-42067296D01*
X61635790Y-42097328D01*
X61655012Y-42129398D01*
X61670998Y-42163198D01*
X61683594Y-42198402D01*
X61692679Y-42234671D01*
X61698165Y-42271655D01*
X61700000Y-42309000D01*
X61700000Y-43071000D01*
X61698165Y-43108345D01*
X61692679Y-43145329D01*
X61683594Y-43181598D01*
X61670998Y-43216802D01*
X61655012Y-43250602D01*
X61635790Y-43282672D01*
X61613517Y-43312704D01*
X61588408Y-43340408D01*
X61560704Y-43365517D01*
X61530672Y-43387790D01*
X61498602Y-43407012D01*
X61464802Y-43422998D01*
X61429598Y-43435594D01*
X61393329Y-43444679D01*
X61356345Y-43450165D01*
X61319000Y-43452000D01*
X59081000Y-43452000D01*
X59043655Y-43450165D01*
X59006671Y-43444679D01*
X58970402Y-43435594D01*
X58935198Y-43422998D01*
X58901398Y-43407012D01*
X58869328Y-43387790D01*
X58839296Y-43365517D01*
X58811592Y-43340408D01*
X58786483Y-43312704D01*
X58764210Y-43282672D01*
X58744988Y-43250602D01*
X58729002Y-43216802D01*
X58716406Y-43181598D01*
X58707321Y-43145329D01*
X58701835Y-43108345D01*
X58700000Y-43071000D01*
X58700000Y-42309000D01*
X58701835Y-42271655D01*
X58707321Y-42234671D01*
X58716406Y-42198402D01*
X58729002Y-42163198D01*
X58744988Y-42129398D01*
X58764210Y-42097328D01*
X58786483Y-42067296D01*
X58811592Y-42039592D01*
X58839296Y-42014483D01*
X58869328Y-41992210D01*
X58901398Y-41972988D01*
X58935198Y-41957002D01*
X58970402Y-41944406D01*
X59006671Y-41935321D01*
X59043655Y-41929835D01*
X59081000Y-41928000D01*
X61319000Y-41928000D01*
X61356345Y-41929835D01*
X61356345Y-41929835D01*
G37*
D17*
G04 #@! TD*
G04 #@! TO.P,J1,8*
G04 #@! TO.N,DIO*
X60200000Y-42690000D03*
D11*
G04 #@! TO.N,Net-(J1-Pad6)*
G04 #@! TO.C,J1*
G36*
X61356345Y-39389835D02*
X61393329Y-39395321D01*
X61429598Y-39404406D01*
X61464802Y-39417002D01*
X61498602Y-39432988D01*
X61530672Y-39452210D01*
X61560704Y-39474483D01*
X61588408Y-39499592D01*
X61613517Y-39527296D01*
X61635790Y-39557328D01*
X61655012Y-39589398D01*
X61670998Y-39623198D01*
X61683594Y-39658402D01*
X61692679Y-39694671D01*
X61698165Y-39731655D01*
X61700000Y-39769000D01*
X61700000Y-40531000D01*
X61698165Y-40568345D01*
X61692679Y-40605329D01*
X61683594Y-40641598D01*
X61670998Y-40676802D01*
X61655012Y-40710602D01*
X61635790Y-40742672D01*
X61613517Y-40772704D01*
X61588408Y-40800408D01*
X61560704Y-40825517D01*
X61530672Y-40847790D01*
X61498602Y-40867012D01*
X61464802Y-40882998D01*
X61429598Y-40895594D01*
X61393329Y-40904679D01*
X61356345Y-40910165D01*
X61319000Y-40912000D01*
X59081000Y-40912000D01*
X59043655Y-40910165D01*
X59006671Y-40904679D01*
X58970402Y-40895594D01*
X58935198Y-40882998D01*
X58901398Y-40867012D01*
X58869328Y-40847790D01*
X58839296Y-40825517D01*
X58811592Y-40800408D01*
X58786483Y-40772704D01*
X58764210Y-40742672D01*
X58744988Y-40710602D01*
X58729002Y-40676802D01*
X58716406Y-40641598D01*
X58707321Y-40605329D01*
X58701835Y-40568345D01*
X58700000Y-40531000D01*
X58700000Y-39769000D01*
X58701835Y-39731655D01*
X58707321Y-39694671D01*
X58716406Y-39658402D01*
X58729002Y-39623198D01*
X58744988Y-39589398D01*
X58764210Y-39557328D01*
X58786483Y-39527296D01*
X58811592Y-39499592D01*
X58839296Y-39474483D01*
X58869328Y-39452210D01*
X58901398Y-39432988D01*
X58935198Y-39417002D01*
X58970402Y-39404406D01*
X59006671Y-39395321D01*
X59043655Y-39389835D01*
X59081000Y-39388000D01*
X61319000Y-39388000D01*
X61356345Y-39389835D01*
X61356345Y-39389835D01*
G37*
D17*
G04 #@! TD*
G04 #@! TO.P,J1,6*
G04 #@! TO.N,Net-(J1-Pad6)*
X60200000Y-40150000D03*
D11*
G04 #@! TO.N,Net-(J1-Pad4)*
G04 #@! TO.C,J1*
G36*
X61356345Y-36849835D02*
X61393329Y-36855321D01*
X61429598Y-36864406D01*
X61464802Y-36877002D01*
X61498602Y-36892988D01*
X61530672Y-36912210D01*
X61560704Y-36934483D01*
X61588408Y-36959592D01*
X61613517Y-36987296D01*
X61635790Y-37017328D01*
X61655012Y-37049398D01*
X61670998Y-37083198D01*
X61683594Y-37118402D01*
X61692679Y-37154671D01*
X61698165Y-37191655D01*
X61700000Y-37229000D01*
X61700000Y-37991000D01*
X61698165Y-38028345D01*
X61692679Y-38065329D01*
X61683594Y-38101598D01*
X61670998Y-38136802D01*
X61655012Y-38170602D01*
X61635790Y-38202672D01*
X61613517Y-38232704D01*
X61588408Y-38260408D01*
X61560704Y-38285517D01*
X61530672Y-38307790D01*
X61498602Y-38327012D01*
X61464802Y-38342998D01*
X61429598Y-38355594D01*
X61393329Y-38364679D01*
X61356345Y-38370165D01*
X61319000Y-38372000D01*
X59081000Y-38372000D01*
X59043655Y-38370165D01*
X59006671Y-38364679D01*
X58970402Y-38355594D01*
X58935198Y-38342998D01*
X58901398Y-38327012D01*
X58869328Y-38307790D01*
X58839296Y-38285517D01*
X58811592Y-38260408D01*
X58786483Y-38232704D01*
X58764210Y-38202672D01*
X58744988Y-38170602D01*
X58729002Y-38136802D01*
X58716406Y-38101598D01*
X58707321Y-38065329D01*
X58701835Y-38028345D01*
X58700000Y-37991000D01*
X58700000Y-37229000D01*
X58701835Y-37191655D01*
X58707321Y-37154671D01*
X58716406Y-37118402D01*
X58729002Y-37083198D01*
X58744988Y-37049398D01*
X58764210Y-37017328D01*
X58786483Y-36987296D01*
X58811592Y-36959592D01*
X58839296Y-36934483D01*
X58869328Y-36912210D01*
X58901398Y-36892988D01*
X58935198Y-36877002D01*
X58970402Y-36864406D01*
X59006671Y-36855321D01*
X59043655Y-36849835D01*
X59081000Y-36848000D01*
X61319000Y-36848000D01*
X61356345Y-36849835D01*
X61356345Y-36849835D01*
G37*
D17*
G04 #@! TD*
G04 #@! TO.P,J1,4*
G04 #@! TO.N,Net-(J1-Pad4)*
X60200000Y-37610000D03*
D11*
G04 #@! TO.N,REF*
G04 #@! TO.C,J1*
G36*
X61356345Y-34309835D02*
X61393329Y-34315321D01*
X61429598Y-34324406D01*
X61464802Y-34337002D01*
X61498602Y-34352988D01*
X61530672Y-34372210D01*
X61560704Y-34394483D01*
X61588408Y-34419592D01*
X61613517Y-34447296D01*
X61635790Y-34477328D01*
X61655012Y-34509398D01*
X61670998Y-34543198D01*
X61683594Y-34578402D01*
X61692679Y-34614671D01*
X61698165Y-34651655D01*
X61700000Y-34689000D01*
X61700000Y-35451000D01*
X61698165Y-35488345D01*
X61692679Y-35525329D01*
X61683594Y-35561598D01*
X61670998Y-35596802D01*
X61655012Y-35630602D01*
X61635790Y-35662672D01*
X61613517Y-35692704D01*
X61588408Y-35720408D01*
X61560704Y-35745517D01*
X61530672Y-35767790D01*
X61498602Y-35787012D01*
X61464802Y-35802998D01*
X61429598Y-35815594D01*
X61393329Y-35824679D01*
X61356345Y-35830165D01*
X61319000Y-35832000D01*
X59081000Y-35832000D01*
X59043655Y-35830165D01*
X59006671Y-35824679D01*
X58970402Y-35815594D01*
X58935198Y-35802998D01*
X58901398Y-35787012D01*
X58869328Y-35767790D01*
X58839296Y-35745517D01*
X58811592Y-35720408D01*
X58786483Y-35692704D01*
X58764210Y-35662672D01*
X58744988Y-35630602D01*
X58729002Y-35596802D01*
X58716406Y-35561598D01*
X58707321Y-35525329D01*
X58701835Y-35488345D01*
X58700000Y-35451000D01*
X58700000Y-34689000D01*
X58701835Y-34651655D01*
X58707321Y-34614671D01*
X58716406Y-34578402D01*
X58729002Y-34543198D01*
X58744988Y-34509398D01*
X58764210Y-34477328D01*
X58786483Y-34447296D01*
X58811592Y-34419592D01*
X58839296Y-34394483D01*
X58869328Y-34372210D01*
X58901398Y-34352988D01*
X58935198Y-34337002D01*
X58970402Y-34324406D01*
X59006671Y-34315321D01*
X59043655Y-34309835D01*
X59081000Y-34308000D01*
X61319000Y-34308000D01*
X61356345Y-34309835D01*
X61356345Y-34309835D01*
G37*
D17*
G04 #@! TD*
G04 #@! TO.P,J1,2*
G04 #@! TO.N,REF*
X60200000Y-35070000D03*
D18*
G04 #@! TO.N,RST*
X74517306Y-45650010D03*
G04 #@! TO.N,SWO*
X63200000Y-46200000D03*
G04 #@! TO.N,GND*
X67000000Y-54250000D03*
X71500000Y-51000000D03*
X69700000Y-49450000D03*
X64200000Y-41850000D03*
X64600000Y-47050000D03*
X63950000Y-50050000D03*
X66150000Y-50650000D03*
X72300000Y-56750000D03*
X80550000Y-54850000D03*
X74200000Y-49000000D03*
X68450000Y-36500000D03*
X64000000Y-36700000D03*
X78950000Y-45250000D03*
X78800000Y-38149990D03*
X74965447Y-37799990D03*
X71750000Y-41500000D03*
X67350000Y-38850000D03*
X62600000Y-40150000D03*
X62600000Y-37650000D03*
X62400000Y-47650000D03*
X62400000Y-43950000D03*
G04 #@! TO.N,CLK*
X64400000Y-45200000D03*
G04 #@! TO.N,DIO*
X72050000Y-44950000D03*
G04 #@! TO.N,+5V*
X62399996Y-56600000D03*
G04 #@! TD*
D19*
G04 #@! TO.N,RST*
X60200000Y-52850000D02*
X62550000Y-52850000D01*
X62550000Y-52850000D02*
X67800000Y-47600000D01*
X67800000Y-45060000D02*
X69100000Y-43760000D01*
X67800000Y-47600000D02*
X67800000Y-45060000D01*
X92100000Y-49050000D02*
X80700000Y-49050000D01*
X77300010Y-45650010D02*
X75082991Y-45650010D01*
X75082991Y-45650010D02*
X74517306Y-45650010D01*
X80700000Y-49050000D02*
X77300010Y-45650010D01*
G04 #@! TO.N,SWO*
X63200000Y-48200000D02*
X63200000Y-46200000D01*
X60200000Y-50310000D02*
X61090000Y-50310000D01*
X61090000Y-50310000D02*
X63200000Y-48200000D01*
G04 #@! TO.N,CLK*
X60200000Y-45230000D02*
X64370000Y-45230000D01*
X64370000Y-45230000D02*
X64400000Y-45200000D01*
G04 #@! TO.N,DIO*
X62950000Y-42690000D02*
X60200000Y-42690000D01*
X66560000Y-46300000D02*
X62950000Y-42690000D01*
X72050000Y-44950000D02*
X72950000Y-44050000D01*
X72950000Y-44050000D02*
X92100000Y-44050000D01*
D20*
G04 #@! TO.N,REF*
X70263600Y-46300000D02*
X69100000Y-46300000D01*
X60200000Y-35070000D02*
X65420000Y-35070000D01*
X65420000Y-35070000D02*
X70500000Y-40150000D01*
X70500000Y-40150000D02*
X70500000Y-46063600D01*
X70500000Y-46063600D02*
X70263600Y-46300000D01*
X81650000Y-51550000D02*
X92100000Y-51550000D01*
X77870000Y-47770000D02*
X81650000Y-51550000D01*
X77108001Y-47008001D02*
X77870000Y-47770000D01*
X74057292Y-46300000D02*
X74157304Y-46400012D01*
X69100000Y-46300000D02*
X74057292Y-46300000D01*
X76500012Y-46400012D02*
X77108001Y-47008001D01*
X74157304Y-46400012D02*
X76500012Y-46400012D01*
G04 #@! TO.N,+5V*
X62399996Y-56600004D02*
X62399996Y-56600000D01*
X60200000Y-57930000D02*
X61070000Y-57930000D01*
X61070000Y-57930000D02*
X62399996Y-56600004D01*
G04 #@! TD*
D21*
G04 #@! TO.N,GND*
G36*
X85931958Y-38251581D02*
X85948933Y-38256730D01*
X85969638Y-38258769D01*
X85990214Y-38261576D01*
X86007900Y-38260500D01*
X95987259Y-38260500D01*
X96046279Y-38266287D01*
X96090788Y-38279725D01*
X96131845Y-38301554D01*
X96167881Y-38330946D01*
X96197518Y-38366771D01*
X96219635Y-38407675D01*
X96233385Y-38452093D01*
X96239501Y-38510285D01*
X96239500Y-54487258D01*
X96233713Y-54546279D01*
X96220275Y-54590787D01*
X96198443Y-54631847D01*
X96169054Y-54667881D01*
X96133231Y-54697517D01*
X96092325Y-54719635D01*
X96047907Y-54733385D01*
X95989725Y-54739500D01*
X86007900Y-54739500D01*
X85990214Y-54738424D01*
X85969638Y-54741231D01*
X85948933Y-54743270D01*
X85931958Y-54748419D01*
X64969416Y-59739500D01*
X58512742Y-59739500D01*
X58453721Y-59733713D01*
X58409213Y-59720275D01*
X58368153Y-59698443D01*
X58332119Y-59669054D01*
X58302483Y-59633231D01*
X58280365Y-59592325D01*
X58266615Y-59547907D01*
X58260500Y-59489725D01*
X58260500Y-57549000D01*
X58420153Y-57549000D01*
X58420153Y-58311000D01*
X58432851Y-58439925D01*
X58470457Y-58563895D01*
X58531526Y-58678147D01*
X58613711Y-58778289D01*
X58713853Y-58860474D01*
X58828105Y-58921543D01*
X58952075Y-58959149D01*
X59081000Y-58971847D01*
X61319000Y-58971847D01*
X61447925Y-58959149D01*
X61571895Y-58921543D01*
X61686147Y-58860474D01*
X61786289Y-58778289D01*
X61868474Y-58678147D01*
X61929543Y-58563895D01*
X61967149Y-58439925D01*
X61979847Y-58311000D01*
X61979847Y-57626143D01*
X62328433Y-57277558D01*
X62333170Y-57278500D01*
X62466822Y-57278500D01*
X62597907Y-57252426D01*
X62721386Y-57201279D01*
X62832515Y-57127025D01*
X62927021Y-57032519D01*
X63001275Y-56921390D01*
X63052422Y-56797911D01*
X63078496Y-56666826D01*
X63078496Y-56533174D01*
X63052422Y-56402089D01*
X63001275Y-56278610D01*
X62927021Y-56167481D01*
X62832515Y-56072975D01*
X62721386Y-55998721D01*
X62597907Y-55947574D01*
X62466822Y-55921500D01*
X62333170Y-55921500D01*
X62202085Y-55947574D01*
X62078606Y-55998721D01*
X61967477Y-56072975D01*
X61872971Y-56167481D01*
X61798717Y-56278610D01*
X61747570Y-56402089D01*
X61721496Y-56533174D01*
X61721496Y-56666826D01*
X61722440Y-56671570D01*
X61482631Y-56911379D01*
X61447925Y-56900851D01*
X61319000Y-56888153D01*
X59081000Y-56888153D01*
X58952075Y-56900851D01*
X58828105Y-56938457D01*
X58713853Y-56999526D01*
X58613711Y-57081711D01*
X58531526Y-57181853D01*
X58470457Y-57296105D01*
X58432851Y-57420075D01*
X58420153Y-57549000D01*
X58260500Y-57549000D01*
X58260500Y-55009000D01*
X58420153Y-55009000D01*
X58420153Y-55771000D01*
X58432851Y-55899925D01*
X58470457Y-56023895D01*
X58531526Y-56138147D01*
X58613711Y-56238289D01*
X58713853Y-56320474D01*
X58828105Y-56381543D01*
X58952075Y-56419149D01*
X59081000Y-56431847D01*
X61319000Y-56431847D01*
X61447925Y-56419149D01*
X61571895Y-56381543D01*
X61686147Y-56320474D01*
X61786289Y-56238289D01*
X61868474Y-56138147D01*
X61929543Y-56023895D01*
X61967149Y-55899925D01*
X61979847Y-55771000D01*
X61979847Y-55009000D01*
X61967149Y-54880075D01*
X61929543Y-54756105D01*
X61868474Y-54641853D01*
X61786289Y-54541711D01*
X61686147Y-54459526D01*
X61571895Y-54398457D01*
X61447925Y-54360851D01*
X61319000Y-54348153D01*
X59081000Y-54348153D01*
X58952075Y-54360851D01*
X58828105Y-54398457D01*
X58713853Y-54459526D01*
X58613711Y-54541711D01*
X58531526Y-54641853D01*
X58470457Y-54756105D01*
X58432851Y-54880075D01*
X58420153Y-55009000D01*
X58260500Y-55009000D01*
X58260500Y-47389000D01*
X58420153Y-47389000D01*
X58420153Y-48151000D01*
X58432851Y-48279925D01*
X58470457Y-48403895D01*
X58531526Y-48518147D01*
X58613711Y-48618289D01*
X58713853Y-48700474D01*
X58828105Y-48761543D01*
X58952075Y-48799149D01*
X59081000Y-48811847D01*
X61319000Y-48811847D01*
X61447925Y-48799149D01*
X61571895Y-48761543D01*
X61686147Y-48700474D01*
X61786289Y-48618289D01*
X61868474Y-48518147D01*
X61929543Y-48403895D01*
X61967149Y-48279925D01*
X61979847Y-48151000D01*
X61979847Y-47389000D01*
X61967149Y-47260075D01*
X61929543Y-47136105D01*
X61868474Y-47021853D01*
X61786289Y-46921711D01*
X61686147Y-46839526D01*
X61571895Y-46778457D01*
X61447925Y-46740851D01*
X61319000Y-46728153D01*
X59081000Y-46728153D01*
X58952075Y-46740851D01*
X58828105Y-46778457D01*
X58713853Y-46839526D01*
X58613711Y-46921711D01*
X58531526Y-47021853D01*
X58470457Y-47136105D01*
X58432851Y-47260075D01*
X58420153Y-47389000D01*
X58260500Y-47389000D01*
X58260500Y-41220000D01*
X65412374Y-41220000D01*
X65434425Y-41443891D01*
X65499732Y-41659177D01*
X65605784Y-41857587D01*
X65748506Y-42031494D01*
X65922413Y-42174216D01*
X66120823Y-42280268D01*
X66336109Y-42345575D01*
X66503893Y-42362100D01*
X66616107Y-42362100D01*
X66783891Y-42345575D01*
X66999177Y-42280268D01*
X67197587Y-42174216D01*
X67371494Y-42031494D01*
X67514216Y-41857587D01*
X67620268Y-41659177D01*
X67633959Y-41614044D01*
X68028029Y-41614044D01*
X68063361Y-41699373D01*
X68176801Y-41892400D01*
X68325719Y-42059587D01*
X68504392Y-42194509D01*
X68705954Y-42291981D01*
X68878500Y-42270801D01*
X68878500Y-41441500D01*
X68050648Y-41441500D01*
X68028029Y-41614044D01*
X67633959Y-41614044D01*
X67685575Y-41443891D01*
X67707626Y-41220000D01*
X67685575Y-40996109D01*
X67633960Y-40825956D01*
X68028029Y-40825956D01*
X68050648Y-40998500D01*
X68878500Y-40998500D01*
X68878500Y-40169199D01*
X68705954Y-40148019D01*
X68504392Y-40245491D01*
X68325719Y-40380413D01*
X68176801Y-40547600D01*
X68063361Y-40740627D01*
X68028029Y-40825956D01*
X67633960Y-40825956D01*
X67620268Y-40780823D01*
X67514216Y-40582413D01*
X67371494Y-40408506D01*
X67197587Y-40265784D01*
X66999177Y-40159732D01*
X66783891Y-40094425D01*
X66616107Y-40077900D01*
X66503893Y-40077900D01*
X66336109Y-40094425D01*
X66120823Y-40159732D01*
X65922413Y-40265784D01*
X65748506Y-40408506D01*
X65605784Y-40582413D01*
X65499732Y-40780823D01*
X65434425Y-40996109D01*
X65412374Y-41220000D01*
X58260500Y-41220000D01*
X58260500Y-39769000D01*
X58420153Y-39769000D01*
X58420153Y-40531000D01*
X58432851Y-40659925D01*
X58470457Y-40783895D01*
X58531526Y-40898147D01*
X58613711Y-40998289D01*
X58713853Y-41080474D01*
X58828105Y-41141543D01*
X58952075Y-41179149D01*
X59081000Y-41191847D01*
X61319000Y-41191847D01*
X61447925Y-41179149D01*
X61571895Y-41141543D01*
X61686147Y-41080474D01*
X61786289Y-40998289D01*
X61868474Y-40898147D01*
X61929543Y-40783895D01*
X61967149Y-40659925D01*
X61979847Y-40531000D01*
X61979847Y-39769000D01*
X61967149Y-39640075D01*
X61929543Y-39516105D01*
X61868474Y-39401853D01*
X61786289Y-39301711D01*
X61686147Y-39219526D01*
X61571895Y-39158457D01*
X61447925Y-39120851D01*
X61319000Y-39108153D01*
X59081000Y-39108153D01*
X58952075Y-39120851D01*
X58828105Y-39158457D01*
X58713853Y-39219526D01*
X58613711Y-39301711D01*
X58531526Y-39401853D01*
X58470457Y-39516105D01*
X58432851Y-39640075D01*
X58420153Y-39769000D01*
X58260500Y-39769000D01*
X58260500Y-37229000D01*
X58420153Y-37229000D01*
X58420153Y-37991000D01*
X58432851Y-38119925D01*
X58470457Y-38243895D01*
X58531526Y-38358147D01*
X58613711Y-38458289D01*
X58713853Y-38540474D01*
X58828105Y-38601543D01*
X58952075Y-38639149D01*
X59081000Y-38651847D01*
X61319000Y-38651847D01*
X61447925Y-38639149D01*
X61571895Y-38601543D01*
X61686147Y-38540474D01*
X61786289Y-38458289D01*
X61868474Y-38358147D01*
X61929543Y-38243895D01*
X61967149Y-38119925D01*
X61979847Y-37991000D01*
X61979847Y-37229000D01*
X61967149Y-37100075D01*
X61929543Y-36976105D01*
X61868474Y-36861853D01*
X61786289Y-36761711D01*
X61686147Y-36679526D01*
X61571895Y-36618457D01*
X61447925Y-36580851D01*
X61319000Y-36568153D01*
X59081000Y-36568153D01*
X58952075Y-36580851D01*
X58828105Y-36618457D01*
X58713853Y-36679526D01*
X58613711Y-36761711D01*
X58531526Y-36861853D01*
X58470457Y-36976105D01*
X58432851Y-37100075D01*
X58420153Y-37229000D01*
X58260500Y-37229000D01*
X58260500Y-34689000D01*
X58420153Y-34689000D01*
X58420153Y-35451000D01*
X58432851Y-35579925D01*
X58470457Y-35703895D01*
X58531526Y-35818147D01*
X58613711Y-35918289D01*
X58713853Y-36000474D01*
X58828105Y-36061543D01*
X58952075Y-36099149D01*
X59081000Y-36111847D01*
X61319000Y-36111847D01*
X61447925Y-36099149D01*
X61571895Y-36061543D01*
X61686147Y-36000474D01*
X61786289Y-35918289D01*
X61868474Y-35818147D01*
X61929543Y-35703895D01*
X61967149Y-35579925D01*
X61975169Y-35498500D01*
X65242510Y-35498500D01*
X70071500Y-40327490D01*
X70071500Y-40629788D01*
X70023199Y-40547600D01*
X69874281Y-40380413D01*
X69695608Y-40245491D01*
X69494046Y-40148019D01*
X69321500Y-40169199D01*
X69321500Y-40998500D01*
X69341500Y-40998500D01*
X69341500Y-41441500D01*
X69321500Y-41441500D01*
X69321500Y-42270801D01*
X69494046Y-42291981D01*
X69695608Y-42194509D01*
X69874281Y-42059587D01*
X70023199Y-41892400D01*
X70071500Y-41810212D01*
X70071501Y-43154750D01*
X70054216Y-43122413D01*
X69911494Y-42948506D01*
X69737587Y-42805784D01*
X69539177Y-42699732D01*
X69323891Y-42634425D01*
X69156107Y-42617900D01*
X69043893Y-42617900D01*
X68876109Y-42634425D01*
X68660823Y-42699732D01*
X68462413Y-42805784D01*
X68288506Y-42948506D01*
X68145784Y-43122413D01*
X68039732Y-43320823D01*
X67974425Y-43536109D01*
X67952374Y-43760000D01*
X67974425Y-43983891D01*
X68039732Y-44199177D01*
X68069622Y-44255098D01*
X67545509Y-44779212D01*
X67531066Y-44791065D01*
X67483767Y-44848699D01*
X67465340Y-44883174D01*
X67448621Y-44914454D01*
X67426977Y-44985802D01*
X67419669Y-45060000D01*
X67421501Y-45078600D01*
X67421501Y-45549439D01*
X67371494Y-45488506D01*
X67197587Y-45345784D01*
X66999177Y-45239732D01*
X66783891Y-45174425D01*
X66616107Y-45157900D01*
X66503893Y-45157900D01*
X66336109Y-45174425D01*
X66120823Y-45239732D01*
X66064902Y-45269622D01*
X64555280Y-43760000D01*
X65412374Y-43760000D01*
X65434425Y-43983891D01*
X65499732Y-44199177D01*
X65605784Y-44397587D01*
X65748506Y-44571494D01*
X65922413Y-44714216D01*
X66120823Y-44820268D01*
X66336109Y-44885575D01*
X66503893Y-44902100D01*
X66616107Y-44902100D01*
X66783891Y-44885575D01*
X66999177Y-44820268D01*
X67197587Y-44714216D01*
X67371494Y-44571494D01*
X67514216Y-44397587D01*
X67620268Y-44199177D01*
X67685575Y-43983891D01*
X67707626Y-43760000D01*
X67685575Y-43536109D01*
X67620268Y-43320823D01*
X67514216Y-43122413D01*
X67371494Y-42948506D01*
X67197587Y-42805784D01*
X66999177Y-42699732D01*
X66783891Y-42634425D01*
X66616107Y-42617900D01*
X66503893Y-42617900D01*
X66336109Y-42634425D01*
X66120823Y-42699732D01*
X65922413Y-42805784D01*
X65748506Y-42948506D01*
X65605784Y-43122413D01*
X65499732Y-43320823D01*
X65434425Y-43536109D01*
X65412374Y-43760000D01*
X64555280Y-43760000D01*
X63230793Y-42435514D01*
X63218935Y-42421065D01*
X63161301Y-42373766D01*
X63095546Y-42338620D01*
X63024199Y-42316977D01*
X62968590Y-42311500D01*
X62950000Y-42309669D01*
X62931410Y-42311500D01*
X61979847Y-42311500D01*
X61979847Y-42309000D01*
X61967149Y-42180075D01*
X61929543Y-42056105D01*
X61868474Y-41941853D01*
X61786289Y-41841711D01*
X61686147Y-41759526D01*
X61571895Y-41698457D01*
X61447925Y-41660851D01*
X61319000Y-41648153D01*
X59081000Y-41648153D01*
X58952075Y-41660851D01*
X58828105Y-41698457D01*
X58713853Y-41759526D01*
X58613711Y-41841711D01*
X58531526Y-41941853D01*
X58470457Y-42056105D01*
X58432851Y-42180075D01*
X58420153Y-42309000D01*
X58420153Y-43071000D01*
X58432851Y-43199925D01*
X58470457Y-43323895D01*
X58531526Y-43438147D01*
X58613711Y-43538289D01*
X58713853Y-43620474D01*
X58828105Y-43681543D01*
X58952075Y-43719149D01*
X59081000Y-43731847D01*
X61319000Y-43731847D01*
X61447925Y-43719149D01*
X61571895Y-43681543D01*
X61686147Y-43620474D01*
X61786289Y-43538289D01*
X61868474Y-43438147D01*
X61929543Y-43323895D01*
X61967149Y-43199925D01*
X61979847Y-43071000D01*
X61979847Y-43068500D01*
X62793221Y-43068500D01*
X64260647Y-44535926D01*
X64202089Y-44547574D01*
X64078610Y-44598721D01*
X63967481Y-44672975D01*
X63872975Y-44767481D01*
X63816835Y-44851500D01*
X61979847Y-44851500D01*
X61979847Y-44849000D01*
X61967149Y-44720075D01*
X61929543Y-44596105D01*
X61868474Y-44481853D01*
X61786289Y-44381711D01*
X61686147Y-44299526D01*
X61571895Y-44238457D01*
X61447925Y-44200851D01*
X61319000Y-44188153D01*
X59081000Y-44188153D01*
X58952075Y-44200851D01*
X58828105Y-44238457D01*
X58713853Y-44299526D01*
X58613711Y-44381711D01*
X58531526Y-44481853D01*
X58470457Y-44596105D01*
X58432851Y-44720075D01*
X58420153Y-44849000D01*
X58420153Y-45611000D01*
X58432851Y-45739925D01*
X58470457Y-45863895D01*
X58531526Y-45978147D01*
X58613711Y-46078289D01*
X58713853Y-46160474D01*
X58828105Y-46221543D01*
X58952075Y-46259149D01*
X59081000Y-46271847D01*
X61319000Y-46271847D01*
X61447925Y-46259149D01*
X61571895Y-46221543D01*
X61686147Y-46160474D01*
X61786289Y-46078289D01*
X61868474Y-45978147D01*
X61929543Y-45863895D01*
X61967149Y-45739925D01*
X61979847Y-45611000D01*
X61979847Y-45608500D01*
X62863975Y-45608500D01*
X62767481Y-45672975D01*
X62672975Y-45767481D01*
X62598721Y-45878610D01*
X62547574Y-46002089D01*
X62521500Y-46133174D01*
X62521500Y-46266826D01*
X62547574Y-46397911D01*
X62598721Y-46521390D01*
X62672975Y-46632519D01*
X62767481Y-46727025D01*
X62821501Y-46763120D01*
X62821500Y-48043220D01*
X61552229Y-49312491D01*
X61447925Y-49280851D01*
X61319000Y-49268153D01*
X59081000Y-49268153D01*
X58952075Y-49280851D01*
X58828105Y-49318457D01*
X58713853Y-49379526D01*
X58613711Y-49461711D01*
X58531526Y-49561853D01*
X58470457Y-49676105D01*
X58432851Y-49800075D01*
X58420153Y-49929000D01*
X58420153Y-50691000D01*
X58432851Y-50819925D01*
X58470457Y-50943895D01*
X58531526Y-51058147D01*
X58613711Y-51158289D01*
X58713853Y-51240474D01*
X58828105Y-51301543D01*
X58952075Y-51339149D01*
X59081000Y-51351847D01*
X61319000Y-51351847D01*
X61447925Y-51339149D01*
X61571895Y-51301543D01*
X61686147Y-51240474D01*
X61786289Y-51158289D01*
X61868474Y-51058147D01*
X61929543Y-50943895D01*
X61967149Y-50819925D01*
X61979847Y-50691000D01*
X61979847Y-49955432D01*
X63454493Y-48480787D01*
X63468935Y-48468935D01*
X63516234Y-48411301D01*
X63539138Y-48368451D01*
X63551380Y-48345547D01*
X63573023Y-48274199D01*
X63580331Y-48200000D01*
X63578500Y-48181410D01*
X63578500Y-46763119D01*
X63632519Y-46727025D01*
X63727025Y-46632519D01*
X63801279Y-46521390D01*
X63852426Y-46397911D01*
X63878500Y-46266826D01*
X63878500Y-46133174D01*
X63852426Y-46002089D01*
X63801279Y-45878610D01*
X63727025Y-45767481D01*
X63632519Y-45672975D01*
X63536025Y-45608500D01*
X63856926Y-45608500D01*
X63872975Y-45632519D01*
X63967481Y-45727025D01*
X64078610Y-45801279D01*
X64202089Y-45852426D01*
X64333174Y-45878500D01*
X64466826Y-45878500D01*
X64597911Y-45852426D01*
X64721390Y-45801279D01*
X64832519Y-45727025D01*
X64927025Y-45632519D01*
X65001279Y-45521390D01*
X65052426Y-45397911D01*
X65064074Y-45339353D01*
X65529622Y-45804902D01*
X65499732Y-45860823D01*
X65434425Y-46076109D01*
X65412374Y-46300000D01*
X65434425Y-46523891D01*
X65499732Y-46739177D01*
X65605784Y-46937587D01*
X65748506Y-47111494D01*
X65922413Y-47254216D01*
X66120823Y-47360268D01*
X66336109Y-47425575D01*
X66503893Y-47442100D01*
X66616107Y-47442100D01*
X66783891Y-47425575D01*
X66999177Y-47360268D01*
X67197587Y-47254216D01*
X67371494Y-47111494D01*
X67421500Y-47050561D01*
X67421500Y-47443221D01*
X62393221Y-52471500D01*
X61979847Y-52471500D01*
X61979847Y-52469000D01*
X61967149Y-52340075D01*
X61929543Y-52216105D01*
X61868474Y-52101853D01*
X61786289Y-52001711D01*
X61686147Y-51919526D01*
X61571895Y-51858457D01*
X61447925Y-51820851D01*
X61319000Y-51808153D01*
X59081000Y-51808153D01*
X58952075Y-51820851D01*
X58828105Y-51858457D01*
X58713853Y-51919526D01*
X58613711Y-52001711D01*
X58531526Y-52101853D01*
X58470457Y-52216105D01*
X58432851Y-52340075D01*
X58420153Y-52469000D01*
X58420153Y-53231000D01*
X58432851Y-53359925D01*
X58470457Y-53483895D01*
X58531526Y-53598147D01*
X58613711Y-53698289D01*
X58713853Y-53780474D01*
X58828105Y-53841543D01*
X58952075Y-53879149D01*
X59081000Y-53891847D01*
X61319000Y-53891847D01*
X61447925Y-53879149D01*
X61571895Y-53841543D01*
X61686147Y-53780474D01*
X61786289Y-53698289D01*
X61868474Y-53598147D01*
X61929543Y-53483895D01*
X61967149Y-53359925D01*
X61979847Y-53231000D01*
X61979847Y-53228500D01*
X62531410Y-53228500D01*
X62550000Y-53230331D01*
X62568590Y-53228500D01*
X62624199Y-53223023D01*
X62695546Y-53201380D01*
X62761301Y-53166234D01*
X62818935Y-53118935D01*
X62830793Y-53104486D01*
X63187759Y-52747520D01*
X74289500Y-52747520D01*
X74289500Y-52952480D01*
X74329485Y-53153503D01*
X74407920Y-53342862D01*
X74521791Y-53513280D01*
X74666720Y-53658209D01*
X74837138Y-53772080D01*
X75026497Y-53850515D01*
X75227520Y-53890500D01*
X75432480Y-53890500D01*
X75633503Y-53850515D01*
X75822862Y-53772080D01*
X75993280Y-53658209D01*
X76138209Y-53513280D01*
X76252080Y-53342862D01*
X76330515Y-53153503D01*
X76370500Y-52952480D01*
X76370500Y-52747520D01*
X76829500Y-52747520D01*
X76829500Y-52952480D01*
X76869485Y-53153503D01*
X76947920Y-53342862D01*
X77061791Y-53513280D01*
X77206720Y-53658209D01*
X77377138Y-53772080D01*
X77566497Y-53850515D01*
X77767520Y-53890500D01*
X77972480Y-53890500D01*
X78173503Y-53850515D01*
X78362862Y-53772080D01*
X78533280Y-53658209D01*
X78678209Y-53513280D01*
X78792080Y-53342862D01*
X78870515Y-53153503D01*
X78910500Y-52952480D01*
X78910500Y-52747520D01*
X78870515Y-52546497D01*
X78792080Y-52357138D01*
X78678209Y-52186720D01*
X78533280Y-52041791D01*
X78362862Y-51927920D01*
X78173503Y-51849485D01*
X77972480Y-51809500D01*
X77767520Y-51809500D01*
X77566497Y-51849485D01*
X77377138Y-51927920D01*
X77206720Y-52041791D01*
X77061791Y-52186720D01*
X76947920Y-52357138D01*
X76869485Y-52546497D01*
X76829500Y-52747520D01*
X76370500Y-52747520D01*
X76330515Y-52546497D01*
X76252080Y-52357138D01*
X76138209Y-52186720D01*
X75993280Y-52041791D01*
X75822862Y-51927920D01*
X75633503Y-51849485D01*
X75432480Y-51809500D01*
X75227520Y-51809500D01*
X75026497Y-51849485D01*
X74837138Y-51927920D01*
X74666720Y-52041791D01*
X74521791Y-52186720D01*
X74407920Y-52357138D01*
X74329485Y-52546497D01*
X74289500Y-52747520D01*
X63187759Y-52747520D01*
X65727759Y-50207520D01*
X74289500Y-50207520D01*
X74289500Y-50412480D01*
X74329485Y-50613503D01*
X74407920Y-50802862D01*
X74521791Y-50973280D01*
X74666720Y-51118209D01*
X74837138Y-51232080D01*
X75026497Y-51310515D01*
X75227520Y-51350500D01*
X75432480Y-51350500D01*
X75633503Y-51310515D01*
X75822862Y-51232080D01*
X75993280Y-51118209D01*
X76138209Y-50973280D01*
X76252080Y-50802862D01*
X76330515Y-50613503D01*
X76370500Y-50412480D01*
X76370500Y-50207520D01*
X76829500Y-50207520D01*
X76829500Y-50412480D01*
X76869485Y-50613503D01*
X76947920Y-50802862D01*
X77061791Y-50973280D01*
X77206720Y-51118209D01*
X77377138Y-51232080D01*
X77566497Y-51310515D01*
X77767520Y-51350500D01*
X77972480Y-51350500D01*
X78173503Y-51310515D01*
X78362862Y-51232080D01*
X78533280Y-51118209D01*
X78678209Y-50973280D01*
X78792080Y-50802862D01*
X78870515Y-50613503D01*
X78910500Y-50412480D01*
X78910500Y-50207520D01*
X78870515Y-50006497D01*
X78792080Y-49817138D01*
X78678209Y-49646720D01*
X78533280Y-49501791D01*
X78362862Y-49387920D01*
X78173503Y-49309485D01*
X77972480Y-49269500D01*
X77767520Y-49269500D01*
X77566497Y-49309485D01*
X77377138Y-49387920D01*
X77206720Y-49501791D01*
X77061791Y-49646720D01*
X76947920Y-49817138D01*
X76869485Y-50006497D01*
X76829500Y-50207520D01*
X76370500Y-50207520D01*
X76330515Y-50006497D01*
X76252080Y-49817138D01*
X76138209Y-49646720D01*
X75993280Y-49501791D01*
X75822862Y-49387920D01*
X75633503Y-49309485D01*
X75432480Y-49269500D01*
X75227520Y-49269500D01*
X75026497Y-49309485D01*
X74837138Y-49387920D01*
X74666720Y-49501791D01*
X74521791Y-49646720D01*
X74407920Y-49817138D01*
X74329485Y-50006497D01*
X74289500Y-50207520D01*
X65727759Y-50207520D01*
X68054487Y-47880792D01*
X68068935Y-47868935D01*
X68116234Y-47811301D01*
X68151380Y-47745546D01*
X68173023Y-47674199D01*
X68178500Y-47618590D01*
X68178500Y-47618589D01*
X68180331Y-47600001D01*
X68178500Y-47581411D01*
X68178500Y-47437067D01*
X68181805Y-47438070D01*
X68236400Y-47443447D01*
X69963600Y-47443447D01*
X70018195Y-47438070D01*
X70070693Y-47422145D01*
X70119075Y-47396284D01*
X70161482Y-47361482D01*
X70196284Y-47319075D01*
X70222145Y-47270693D01*
X70238070Y-47218195D01*
X70243447Y-47163600D01*
X70243447Y-46728587D01*
X70263600Y-46730572D01*
X70284638Y-46728500D01*
X73882120Y-46728500D01*
X73918090Y-46758020D01*
X73992531Y-46797810D01*
X74073303Y-46822312D01*
X74136256Y-46828512D01*
X74136265Y-46828512D01*
X74157303Y-46830584D01*
X74178341Y-46828512D01*
X74883993Y-46828512D01*
X74837138Y-46847920D01*
X74666720Y-46961791D01*
X74521791Y-47106720D01*
X74407920Y-47277138D01*
X74329485Y-47466497D01*
X74289500Y-47667520D01*
X74289500Y-47872480D01*
X74329485Y-48073503D01*
X74407920Y-48262862D01*
X74521791Y-48433280D01*
X74666720Y-48578209D01*
X74837138Y-48692080D01*
X75026497Y-48770515D01*
X75227520Y-48810500D01*
X75432480Y-48810500D01*
X75633503Y-48770515D01*
X75822862Y-48692080D01*
X75993280Y-48578209D01*
X76138209Y-48433280D01*
X76252080Y-48262862D01*
X76330515Y-48073503D01*
X76370500Y-47872480D01*
X76370500Y-47667520D01*
X76330515Y-47466497D01*
X76252080Y-47277138D01*
X76138209Y-47106720D01*
X75993280Y-46961791D01*
X75822862Y-46847920D01*
X75776007Y-46828512D01*
X76322522Y-46828512D01*
X76819888Y-47325879D01*
X76819893Y-47325883D01*
X76896145Y-47402135D01*
X76869485Y-47466497D01*
X76829500Y-47667520D01*
X76829500Y-47872480D01*
X76869485Y-48073503D01*
X76947920Y-48262862D01*
X77061791Y-48433280D01*
X77206720Y-48578209D01*
X77377138Y-48692080D01*
X77566497Y-48770515D01*
X77767520Y-48810500D01*
X77972480Y-48810500D01*
X78173503Y-48770515D01*
X78237865Y-48743855D01*
X81332125Y-51838116D01*
X81345539Y-51854461D01*
X81361884Y-51867875D01*
X81361887Y-51867878D01*
X81410786Y-51908008D01*
X81485227Y-51947798D01*
X81565999Y-51972300D01*
X81628952Y-51978500D01*
X81628961Y-51978500D01*
X81649999Y-51980572D01*
X81671037Y-51978500D01*
X90845153Y-51978500D01*
X90845153Y-52150000D01*
X90855334Y-52253368D01*
X90885485Y-52352764D01*
X90934448Y-52444367D01*
X91000342Y-52524658D01*
X91080633Y-52590552D01*
X91172236Y-52639515D01*
X91271632Y-52669666D01*
X91375000Y-52679847D01*
X92825000Y-52679847D01*
X92928368Y-52669666D01*
X93027764Y-52639515D01*
X93119367Y-52590552D01*
X93199658Y-52524658D01*
X93265552Y-52444367D01*
X93314515Y-52352764D01*
X93344666Y-52253368D01*
X93354847Y-52150000D01*
X93354847Y-50950000D01*
X93344666Y-50846632D01*
X93314515Y-50747236D01*
X93265552Y-50655633D01*
X93199658Y-50575342D01*
X93119367Y-50509448D01*
X93027764Y-50460485D01*
X92928368Y-50430334D01*
X92825000Y-50420153D01*
X91375000Y-50420153D01*
X91271632Y-50430334D01*
X91172236Y-50460485D01*
X91080633Y-50509448D01*
X91000342Y-50575342D01*
X90934448Y-50655633D01*
X90885485Y-50747236D01*
X90855334Y-50846632D01*
X90845153Y-50950000D01*
X90845153Y-51121500D01*
X81827491Y-51121500D01*
X78843855Y-48137865D01*
X78870515Y-48073503D01*
X78910500Y-47872480D01*
X78910500Y-47795780D01*
X80419212Y-49304492D01*
X80431065Y-49318935D01*
X80488699Y-49366234D01*
X80554454Y-49401380D01*
X80625801Y-49423023D01*
X80700000Y-49430331D01*
X80718590Y-49428500D01*
X90910538Y-49428500D01*
X90927358Y-49483948D01*
X91032147Y-49679994D01*
X91173169Y-49851831D01*
X91345006Y-49992853D01*
X91541052Y-50097642D01*
X91753775Y-50162171D01*
X91919564Y-50178500D01*
X92280436Y-50178500D01*
X92446225Y-50162171D01*
X92658948Y-50097642D01*
X92854994Y-49992853D01*
X93026831Y-49851831D01*
X93167853Y-49679994D01*
X93272642Y-49483948D01*
X93337171Y-49271225D01*
X93358960Y-49050000D01*
X93337171Y-48828775D01*
X93272642Y-48616052D01*
X93167853Y-48420006D01*
X93026831Y-48248169D01*
X92854994Y-48107147D01*
X92658948Y-48002358D01*
X92446225Y-47937829D01*
X92280436Y-47921500D01*
X91919564Y-47921500D01*
X91753775Y-47937829D01*
X91541052Y-48002358D01*
X91345006Y-48107147D01*
X91173169Y-48248169D01*
X91032147Y-48420006D01*
X90927358Y-48616052D01*
X90910538Y-48671500D01*
X80856780Y-48671500D01*
X78735280Y-46550000D01*
X90841040Y-46550000D01*
X90862829Y-46771225D01*
X90927358Y-46983948D01*
X91032147Y-47179994D01*
X91173169Y-47351831D01*
X91345006Y-47492853D01*
X91541052Y-47597642D01*
X91753775Y-47662171D01*
X91919564Y-47678500D01*
X92280436Y-47678500D01*
X92446225Y-47662171D01*
X92658948Y-47597642D01*
X92854994Y-47492853D01*
X93026831Y-47351831D01*
X93167853Y-47179994D01*
X93272642Y-46983948D01*
X93337171Y-46771225D01*
X93358960Y-46550000D01*
X93337171Y-46328775D01*
X93272642Y-46116052D01*
X93167853Y-45920006D01*
X93026831Y-45748169D01*
X92854994Y-45607147D01*
X92658948Y-45502358D01*
X92446225Y-45437829D01*
X92280436Y-45421500D01*
X91919564Y-45421500D01*
X91753775Y-45437829D01*
X91541052Y-45502358D01*
X91345006Y-45607147D01*
X91173169Y-45748169D01*
X91032147Y-45920006D01*
X90927358Y-46116052D01*
X90862829Y-46328775D01*
X90841040Y-46550000D01*
X78735280Y-46550000D01*
X77580803Y-45395524D01*
X77568945Y-45381075D01*
X77511311Y-45333776D01*
X77445556Y-45298630D01*
X77374209Y-45276987D01*
X77318600Y-45271510D01*
X77300010Y-45269679D01*
X77281420Y-45271510D01*
X75080425Y-45271510D01*
X75044331Y-45217491D01*
X74949825Y-45122985D01*
X74838696Y-45048731D01*
X74715217Y-44997584D01*
X74584132Y-44971510D01*
X74450480Y-44971510D01*
X74319395Y-44997584D01*
X74195916Y-45048731D01*
X74084787Y-45122985D01*
X73990281Y-45217491D01*
X73916027Y-45328620D01*
X73864880Y-45452099D01*
X73838806Y-45583184D01*
X73838806Y-45716836D01*
X73864880Y-45847921D01*
X73874647Y-45871500D01*
X70928500Y-45871500D01*
X70928500Y-44883174D01*
X71371500Y-44883174D01*
X71371500Y-45016826D01*
X71397574Y-45147911D01*
X71448721Y-45271390D01*
X71522975Y-45382519D01*
X71617481Y-45477025D01*
X71728610Y-45551279D01*
X71852089Y-45602426D01*
X71983174Y-45628500D01*
X72116826Y-45628500D01*
X72247911Y-45602426D01*
X72371390Y-45551279D01*
X72482519Y-45477025D01*
X72577025Y-45382519D01*
X72651279Y-45271390D01*
X72702426Y-45147911D01*
X72728500Y-45016826D01*
X72728500Y-44883174D01*
X72715825Y-44819454D01*
X73106779Y-44428500D01*
X90910538Y-44428500D01*
X90927358Y-44483948D01*
X91032147Y-44679994D01*
X91173169Y-44851831D01*
X91345006Y-44992853D01*
X91541052Y-45097642D01*
X91753775Y-45162171D01*
X91919564Y-45178500D01*
X92280436Y-45178500D01*
X92446225Y-45162171D01*
X92658948Y-45097642D01*
X92854994Y-44992853D01*
X93026831Y-44851831D01*
X93167853Y-44679994D01*
X93272642Y-44483948D01*
X93337171Y-44271225D01*
X93358960Y-44050000D01*
X93337171Y-43828775D01*
X93272642Y-43616052D01*
X93167853Y-43420006D01*
X93026831Y-43248169D01*
X92854994Y-43107147D01*
X92658948Y-43002358D01*
X92446225Y-42937829D01*
X92280436Y-42921500D01*
X91919564Y-42921500D01*
X91753775Y-42937829D01*
X91541052Y-43002358D01*
X91345006Y-43107147D01*
X91173169Y-43248169D01*
X91032147Y-43420006D01*
X90927358Y-43616052D01*
X90910538Y-43671500D01*
X78219409Y-43671500D01*
X78362862Y-43612080D01*
X78533280Y-43498209D01*
X78678209Y-43353280D01*
X78792080Y-43182862D01*
X78870515Y-42993503D01*
X78910500Y-42792480D01*
X78910500Y-42587520D01*
X78870515Y-42386497D01*
X78792080Y-42197138D01*
X78678209Y-42026720D01*
X78593364Y-41941875D01*
X90916725Y-41941875D01*
X91012994Y-42129658D01*
X91144564Y-42306198D01*
X91308048Y-42453678D01*
X91497162Y-42566430D01*
X91704639Y-42640121D01*
X91878500Y-42599369D01*
X91878500Y-41771500D01*
X92321500Y-41771500D01*
X92321500Y-42599369D01*
X92495361Y-42640121D01*
X92702838Y-42566430D01*
X92891952Y-42453678D01*
X93055436Y-42306198D01*
X93187006Y-42129658D01*
X93283275Y-41941875D01*
X93260449Y-41771500D01*
X92321500Y-41771500D01*
X91878500Y-41771500D01*
X90939551Y-41771500D01*
X90916725Y-41941875D01*
X78593364Y-41941875D01*
X78533280Y-41881791D01*
X78362862Y-41767920D01*
X78173503Y-41689485D01*
X77972480Y-41649500D01*
X77767520Y-41649500D01*
X77566497Y-41689485D01*
X77377138Y-41767920D01*
X77206720Y-41881791D01*
X77061791Y-42026720D01*
X76947920Y-42197138D01*
X76869485Y-42386497D01*
X76829500Y-42587520D01*
X76829500Y-42792480D01*
X76869485Y-42993503D01*
X76947920Y-43182862D01*
X77061791Y-43353280D01*
X77206720Y-43498209D01*
X77377138Y-43612080D01*
X77520591Y-43671500D01*
X75679409Y-43671500D01*
X75822862Y-43612080D01*
X75993280Y-43498209D01*
X76138209Y-43353280D01*
X76252080Y-43182862D01*
X76330515Y-42993503D01*
X76370500Y-42792480D01*
X76370500Y-42587520D01*
X76330515Y-42386497D01*
X76252080Y-42197138D01*
X76138209Y-42026720D01*
X75993280Y-41881791D01*
X75822862Y-41767920D01*
X75633503Y-41689485D01*
X75432480Y-41649500D01*
X75227520Y-41649500D01*
X75026497Y-41689485D01*
X74837138Y-41767920D01*
X74666720Y-41881791D01*
X74521791Y-42026720D01*
X74407920Y-42197138D01*
X74329485Y-42386497D01*
X74289500Y-42587520D01*
X74289500Y-42792480D01*
X74329485Y-42993503D01*
X74407920Y-43182862D01*
X74521791Y-43353280D01*
X74666720Y-43498209D01*
X74837138Y-43612080D01*
X74980591Y-43671500D01*
X72968589Y-43671500D01*
X72949999Y-43669669D01*
X72875801Y-43676977D01*
X72804454Y-43698620D01*
X72738699Y-43733766D01*
X72681065Y-43781065D01*
X72669207Y-43795514D01*
X72180546Y-44284175D01*
X72116826Y-44271500D01*
X71983174Y-44271500D01*
X71852089Y-44297574D01*
X71728610Y-44348721D01*
X71617481Y-44422975D01*
X71522975Y-44517481D01*
X71448721Y-44628610D01*
X71397574Y-44752089D01*
X71371500Y-44883174D01*
X70928500Y-44883174D01*
X70928500Y-40171038D01*
X70930572Y-40150000D01*
X70928500Y-40128962D01*
X70928500Y-40128952D01*
X70922300Y-40065999D01*
X70916695Y-40047520D01*
X74289500Y-40047520D01*
X74289500Y-40252480D01*
X74329485Y-40453503D01*
X74407920Y-40642862D01*
X74521791Y-40813280D01*
X74666720Y-40958209D01*
X74837138Y-41072080D01*
X75026497Y-41150515D01*
X75227520Y-41190500D01*
X75432480Y-41190500D01*
X75633503Y-41150515D01*
X75822862Y-41072080D01*
X75993280Y-40958209D01*
X76138209Y-40813280D01*
X76252080Y-40642862D01*
X76330515Y-40453503D01*
X76370500Y-40252480D01*
X76370500Y-40047520D01*
X76829500Y-40047520D01*
X76829500Y-40252480D01*
X76869485Y-40453503D01*
X76947920Y-40642862D01*
X77061791Y-40813280D01*
X77206720Y-40958209D01*
X77377138Y-41072080D01*
X77566497Y-41150515D01*
X77767520Y-41190500D01*
X77972480Y-41190500D01*
X78135244Y-41158125D01*
X90916725Y-41158125D01*
X90939551Y-41328500D01*
X91878500Y-41328500D01*
X91878500Y-40500631D01*
X92321500Y-40500631D01*
X92321500Y-41328500D01*
X93260449Y-41328500D01*
X93283275Y-41158125D01*
X93187006Y-40970342D01*
X93055436Y-40793802D01*
X92891952Y-40646322D01*
X92702838Y-40533570D01*
X92495361Y-40459879D01*
X92321500Y-40500631D01*
X91878500Y-40500631D01*
X91704639Y-40459879D01*
X91497162Y-40533570D01*
X91308048Y-40646322D01*
X91144564Y-40793802D01*
X91012994Y-40970342D01*
X90916725Y-41158125D01*
X78135244Y-41158125D01*
X78173503Y-41150515D01*
X78362862Y-41072080D01*
X78533280Y-40958209D01*
X78678209Y-40813280D01*
X78792080Y-40642862D01*
X78870515Y-40453503D01*
X78910500Y-40252480D01*
X78910500Y-40047520D01*
X78870515Y-39846497D01*
X78792080Y-39657138D01*
X78678209Y-39486720D01*
X78533280Y-39341791D01*
X78362862Y-39227920D01*
X78173503Y-39149485D01*
X77972480Y-39109500D01*
X77767520Y-39109500D01*
X77566497Y-39149485D01*
X77377138Y-39227920D01*
X77206720Y-39341791D01*
X77061791Y-39486720D01*
X76947920Y-39657138D01*
X76869485Y-39846497D01*
X76829500Y-40047520D01*
X76370500Y-40047520D01*
X76330515Y-39846497D01*
X76252080Y-39657138D01*
X76138209Y-39486720D01*
X75993280Y-39341791D01*
X75822862Y-39227920D01*
X75633503Y-39149485D01*
X75432480Y-39109500D01*
X75227520Y-39109500D01*
X75026497Y-39149485D01*
X74837138Y-39227920D01*
X74666720Y-39341791D01*
X74521791Y-39486720D01*
X74407920Y-39657138D01*
X74329485Y-39846497D01*
X74289500Y-40047520D01*
X70916695Y-40047520D01*
X70897798Y-39985227D01*
X70858008Y-39910786D01*
X70804461Y-39845539D01*
X70788111Y-39832121D01*
X65737880Y-34781890D01*
X65724461Y-34765539D01*
X65659214Y-34711992D01*
X65584773Y-34672202D01*
X65504001Y-34647700D01*
X65441048Y-34641500D01*
X65441038Y-34641500D01*
X65420000Y-34639428D01*
X65398962Y-34641500D01*
X61975169Y-34641500D01*
X61967149Y-34560075D01*
X61929543Y-34436105D01*
X61868474Y-34321853D01*
X61786289Y-34221711D01*
X61686147Y-34139526D01*
X61571895Y-34078457D01*
X61447925Y-34040851D01*
X61319000Y-34028153D01*
X59081000Y-34028153D01*
X58952075Y-34040851D01*
X58828105Y-34078457D01*
X58713853Y-34139526D01*
X58613711Y-34221711D01*
X58531526Y-34321853D01*
X58470457Y-34436105D01*
X58432851Y-34560075D01*
X58420153Y-34689000D01*
X58260500Y-34689000D01*
X58260500Y-33512741D01*
X58266287Y-33453721D01*
X58279725Y-33409212D01*
X58301554Y-33368155D01*
X58330946Y-33332119D01*
X58366771Y-33302482D01*
X58407675Y-33280365D01*
X58452093Y-33266615D01*
X58510276Y-33260500D01*
X64969416Y-33260500D01*
X85931958Y-38251581D01*
X85931958Y-38251581D01*
G37*
X85931958Y-38251581D02*
X85948933Y-38256730D01*
X85969638Y-38258769D01*
X85990214Y-38261576D01*
X86007900Y-38260500D01*
X95987259Y-38260500D01*
X96046279Y-38266287D01*
X96090788Y-38279725D01*
X96131845Y-38301554D01*
X96167881Y-38330946D01*
X96197518Y-38366771D01*
X96219635Y-38407675D01*
X96233385Y-38452093D01*
X96239501Y-38510285D01*
X96239500Y-54487258D01*
X96233713Y-54546279D01*
X96220275Y-54590787D01*
X96198443Y-54631847D01*
X96169054Y-54667881D01*
X96133231Y-54697517D01*
X96092325Y-54719635D01*
X96047907Y-54733385D01*
X95989725Y-54739500D01*
X86007900Y-54739500D01*
X85990214Y-54738424D01*
X85969638Y-54741231D01*
X85948933Y-54743270D01*
X85931958Y-54748419D01*
X64969416Y-59739500D01*
X58512742Y-59739500D01*
X58453721Y-59733713D01*
X58409213Y-59720275D01*
X58368153Y-59698443D01*
X58332119Y-59669054D01*
X58302483Y-59633231D01*
X58280365Y-59592325D01*
X58266615Y-59547907D01*
X58260500Y-59489725D01*
X58260500Y-57549000D01*
X58420153Y-57549000D01*
X58420153Y-58311000D01*
X58432851Y-58439925D01*
X58470457Y-58563895D01*
X58531526Y-58678147D01*
X58613711Y-58778289D01*
X58713853Y-58860474D01*
X58828105Y-58921543D01*
X58952075Y-58959149D01*
X59081000Y-58971847D01*
X61319000Y-58971847D01*
X61447925Y-58959149D01*
X61571895Y-58921543D01*
X61686147Y-58860474D01*
X61786289Y-58778289D01*
X61868474Y-58678147D01*
X61929543Y-58563895D01*
X61967149Y-58439925D01*
X61979847Y-58311000D01*
X61979847Y-57626143D01*
X62328433Y-57277558D01*
X62333170Y-57278500D01*
X62466822Y-57278500D01*
X62597907Y-57252426D01*
X62721386Y-57201279D01*
X62832515Y-57127025D01*
X62927021Y-57032519D01*
X63001275Y-56921390D01*
X63052422Y-56797911D01*
X63078496Y-56666826D01*
X63078496Y-56533174D01*
X63052422Y-56402089D01*
X63001275Y-56278610D01*
X62927021Y-56167481D01*
X62832515Y-56072975D01*
X62721386Y-55998721D01*
X62597907Y-55947574D01*
X62466822Y-55921500D01*
X62333170Y-55921500D01*
X62202085Y-55947574D01*
X62078606Y-55998721D01*
X61967477Y-56072975D01*
X61872971Y-56167481D01*
X61798717Y-56278610D01*
X61747570Y-56402089D01*
X61721496Y-56533174D01*
X61721496Y-56666826D01*
X61722440Y-56671570D01*
X61482631Y-56911379D01*
X61447925Y-56900851D01*
X61319000Y-56888153D01*
X59081000Y-56888153D01*
X58952075Y-56900851D01*
X58828105Y-56938457D01*
X58713853Y-56999526D01*
X58613711Y-57081711D01*
X58531526Y-57181853D01*
X58470457Y-57296105D01*
X58432851Y-57420075D01*
X58420153Y-57549000D01*
X58260500Y-57549000D01*
X58260500Y-55009000D01*
X58420153Y-55009000D01*
X58420153Y-55771000D01*
X58432851Y-55899925D01*
X58470457Y-56023895D01*
X58531526Y-56138147D01*
X58613711Y-56238289D01*
X58713853Y-56320474D01*
X58828105Y-56381543D01*
X58952075Y-56419149D01*
X59081000Y-56431847D01*
X61319000Y-56431847D01*
X61447925Y-56419149D01*
X61571895Y-56381543D01*
X61686147Y-56320474D01*
X61786289Y-56238289D01*
X61868474Y-56138147D01*
X61929543Y-56023895D01*
X61967149Y-55899925D01*
X61979847Y-55771000D01*
X61979847Y-55009000D01*
X61967149Y-54880075D01*
X61929543Y-54756105D01*
X61868474Y-54641853D01*
X61786289Y-54541711D01*
X61686147Y-54459526D01*
X61571895Y-54398457D01*
X61447925Y-54360851D01*
X61319000Y-54348153D01*
X59081000Y-54348153D01*
X58952075Y-54360851D01*
X58828105Y-54398457D01*
X58713853Y-54459526D01*
X58613711Y-54541711D01*
X58531526Y-54641853D01*
X58470457Y-54756105D01*
X58432851Y-54880075D01*
X58420153Y-55009000D01*
X58260500Y-55009000D01*
X58260500Y-47389000D01*
X58420153Y-47389000D01*
X58420153Y-48151000D01*
X58432851Y-48279925D01*
X58470457Y-48403895D01*
X58531526Y-48518147D01*
X58613711Y-48618289D01*
X58713853Y-48700474D01*
X58828105Y-48761543D01*
X58952075Y-48799149D01*
X59081000Y-48811847D01*
X61319000Y-48811847D01*
X61447925Y-48799149D01*
X61571895Y-48761543D01*
X61686147Y-48700474D01*
X61786289Y-48618289D01*
X61868474Y-48518147D01*
X61929543Y-48403895D01*
X61967149Y-48279925D01*
X61979847Y-48151000D01*
X61979847Y-47389000D01*
X61967149Y-47260075D01*
X61929543Y-47136105D01*
X61868474Y-47021853D01*
X61786289Y-46921711D01*
X61686147Y-46839526D01*
X61571895Y-46778457D01*
X61447925Y-46740851D01*
X61319000Y-46728153D01*
X59081000Y-46728153D01*
X58952075Y-46740851D01*
X58828105Y-46778457D01*
X58713853Y-46839526D01*
X58613711Y-46921711D01*
X58531526Y-47021853D01*
X58470457Y-47136105D01*
X58432851Y-47260075D01*
X58420153Y-47389000D01*
X58260500Y-47389000D01*
X58260500Y-41220000D01*
X65412374Y-41220000D01*
X65434425Y-41443891D01*
X65499732Y-41659177D01*
X65605784Y-41857587D01*
X65748506Y-42031494D01*
X65922413Y-42174216D01*
X66120823Y-42280268D01*
X66336109Y-42345575D01*
X66503893Y-42362100D01*
X66616107Y-42362100D01*
X66783891Y-42345575D01*
X66999177Y-42280268D01*
X67197587Y-42174216D01*
X67371494Y-42031494D01*
X67514216Y-41857587D01*
X67620268Y-41659177D01*
X67633959Y-41614044D01*
X68028029Y-41614044D01*
X68063361Y-41699373D01*
X68176801Y-41892400D01*
X68325719Y-42059587D01*
X68504392Y-42194509D01*
X68705954Y-42291981D01*
X68878500Y-42270801D01*
X68878500Y-41441500D01*
X68050648Y-41441500D01*
X68028029Y-41614044D01*
X67633959Y-41614044D01*
X67685575Y-41443891D01*
X67707626Y-41220000D01*
X67685575Y-40996109D01*
X67633960Y-40825956D01*
X68028029Y-40825956D01*
X68050648Y-40998500D01*
X68878500Y-40998500D01*
X68878500Y-40169199D01*
X68705954Y-40148019D01*
X68504392Y-40245491D01*
X68325719Y-40380413D01*
X68176801Y-40547600D01*
X68063361Y-40740627D01*
X68028029Y-40825956D01*
X67633960Y-40825956D01*
X67620268Y-40780823D01*
X67514216Y-40582413D01*
X67371494Y-40408506D01*
X67197587Y-40265784D01*
X66999177Y-40159732D01*
X66783891Y-40094425D01*
X66616107Y-40077900D01*
X66503893Y-40077900D01*
X66336109Y-40094425D01*
X66120823Y-40159732D01*
X65922413Y-40265784D01*
X65748506Y-40408506D01*
X65605784Y-40582413D01*
X65499732Y-40780823D01*
X65434425Y-40996109D01*
X65412374Y-41220000D01*
X58260500Y-41220000D01*
X58260500Y-39769000D01*
X58420153Y-39769000D01*
X58420153Y-40531000D01*
X58432851Y-40659925D01*
X58470457Y-40783895D01*
X58531526Y-40898147D01*
X58613711Y-40998289D01*
X58713853Y-41080474D01*
X58828105Y-41141543D01*
X58952075Y-41179149D01*
X59081000Y-41191847D01*
X61319000Y-41191847D01*
X61447925Y-41179149D01*
X61571895Y-41141543D01*
X61686147Y-41080474D01*
X61786289Y-40998289D01*
X61868474Y-40898147D01*
X61929543Y-40783895D01*
X61967149Y-40659925D01*
X61979847Y-40531000D01*
X61979847Y-39769000D01*
X61967149Y-39640075D01*
X61929543Y-39516105D01*
X61868474Y-39401853D01*
X61786289Y-39301711D01*
X61686147Y-39219526D01*
X61571895Y-39158457D01*
X61447925Y-39120851D01*
X61319000Y-39108153D01*
X59081000Y-39108153D01*
X58952075Y-39120851D01*
X58828105Y-39158457D01*
X58713853Y-39219526D01*
X58613711Y-39301711D01*
X58531526Y-39401853D01*
X58470457Y-39516105D01*
X58432851Y-39640075D01*
X58420153Y-39769000D01*
X58260500Y-39769000D01*
X58260500Y-37229000D01*
X58420153Y-37229000D01*
X58420153Y-37991000D01*
X58432851Y-38119925D01*
X58470457Y-38243895D01*
X58531526Y-38358147D01*
X58613711Y-38458289D01*
X58713853Y-38540474D01*
X58828105Y-38601543D01*
X58952075Y-38639149D01*
X59081000Y-38651847D01*
X61319000Y-38651847D01*
X61447925Y-38639149D01*
X61571895Y-38601543D01*
X61686147Y-38540474D01*
X61786289Y-38458289D01*
X61868474Y-38358147D01*
X61929543Y-38243895D01*
X61967149Y-38119925D01*
X61979847Y-37991000D01*
X61979847Y-37229000D01*
X61967149Y-37100075D01*
X61929543Y-36976105D01*
X61868474Y-36861853D01*
X61786289Y-36761711D01*
X61686147Y-36679526D01*
X61571895Y-36618457D01*
X61447925Y-36580851D01*
X61319000Y-36568153D01*
X59081000Y-36568153D01*
X58952075Y-36580851D01*
X58828105Y-36618457D01*
X58713853Y-36679526D01*
X58613711Y-36761711D01*
X58531526Y-36861853D01*
X58470457Y-36976105D01*
X58432851Y-37100075D01*
X58420153Y-37229000D01*
X58260500Y-37229000D01*
X58260500Y-34689000D01*
X58420153Y-34689000D01*
X58420153Y-35451000D01*
X58432851Y-35579925D01*
X58470457Y-35703895D01*
X58531526Y-35818147D01*
X58613711Y-35918289D01*
X58713853Y-36000474D01*
X58828105Y-36061543D01*
X58952075Y-36099149D01*
X59081000Y-36111847D01*
X61319000Y-36111847D01*
X61447925Y-36099149D01*
X61571895Y-36061543D01*
X61686147Y-36000474D01*
X61786289Y-35918289D01*
X61868474Y-35818147D01*
X61929543Y-35703895D01*
X61967149Y-35579925D01*
X61975169Y-35498500D01*
X65242510Y-35498500D01*
X70071500Y-40327490D01*
X70071500Y-40629788D01*
X70023199Y-40547600D01*
X69874281Y-40380413D01*
X69695608Y-40245491D01*
X69494046Y-40148019D01*
X69321500Y-40169199D01*
X69321500Y-40998500D01*
X69341500Y-40998500D01*
X69341500Y-41441500D01*
X69321500Y-41441500D01*
X69321500Y-42270801D01*
X69494046Y-42291981D01*
X69695608Y-42194509D01*
X69874281Y-42059587D01*
X70023199Y-41892400D01*
X70071500Y-41810212D01*
X70071501Y-43154750D01*
X70054216Y-43122413D01*
X69911494Y-42948506D01*
X69737587Y-42805784D01*
X69539177Y-42699732D01*
X69323891Y-42634425D01*
X69156107Y-42617900D01*
X69043893Y-42617900D01*
X68876109Y-42634425D01*
X68660823Y-42699732D01*
X68462413Y-42805784D01*
X68288506Y-42948506D01*
X68145784Y-43122413D01*
X68039732Y-43320823D01*
X67974425Y-43536109D01*
X67952374Y-43760000D01*
X67974425Y-43983891D01*
X68039732Y-44199177D01*
X68069622Y-44255098D01*
X67545509Y-44779212D01*
X67531066Y-44791065D01*
X67483767Y-44848699D01*
X67465340Y-44883174D01*
X67448621Y-44914454D01*
X67426977Y-44985802D01*
X67419669Y-45060000D01*
X67421501Y-45078600D01*
X67421501Y-45549439D01*
X67371494Y-45488506D01*
X67197587Y-45345784D01*
X66999177Y-45239732D01*
X66783891Y-45174425D01*
X66616107Y-45157900D01*
X66503893Y-45157900D01*
X66336109Y-45174425D01*
X66120823Y-45239732D01*
X66064902Y-45269622D01*
X64555280Y-43760000D01*
X65412374Y-43760000D01*
X65434425Y-43983891D01*
X65499732Y-44199177D01*
X65605784Y-44397587D01*
X65748506Y-44571494D01*
X65922413Y-44714216D01*
X66120823Y-44820268D01*
X66336109Y-44885575D01*
X66503893Y-44902100D01*
X66616107Y-44902100D01*
X66783891Y-44885575D01*
X66999177Y-44820268D01*
X67197587Y-44714216D01*
X67371494Y-44571494D01*
X67514216Y-44397587D01*
X67620268Y-44199177D01*
X67685575Y-43983891D01*
X67707626Y-43760000D01*
X67685575Y-43536109D01*
X67620268Y-43320823D01*
X67514216Y-43122413D01*
X67371494Y-42948506D01*
X67197587Y-42805784D01*
X66999177Y-42699732D01*
X66783891Y-42634425D01*
X66616107Y-42617900D01*
X66503893Y-42617900D01*
X66336109Y-42634425D01*
X66120823Y-42699732D01*
X65922413Y-42805784D01*
X65748506Y-42948506D01*
X65605784Y-43122413D01*
X65499732Y-43320823D01*
X65434425Y-43536109D01*
X65412374Y-43760000D01*
X64555280Y-43760000D01*
X63230793Y-42435514D01*
X63218935Y-42421065D01*
X63161301Y-42373766D01*
X63095546Y-42338620D01*
X63024199Y-42316977D01*
X62968590Y-42311500D01*
X62950000Y-42309669D01*
X62931410Y-42311500D01*
X61979847Y-42311500D01*
X61979847Y-42309000D01*
X61967149Y-42180075D01*
X61929543Y-42056105D01*
X61868474Y-41941853D01*
X61786289Y-41841711D01*
X61686147Y-41759526D01*
X61571895Y-41698457D01*
X61447925Y-41660851D01*
X61319000Y-41648153D01*
X59081000Y-41648153D01*
X58952075Y-41660851D01*
X58828105Y-41698457D01*
X58713853Y-41759526D01*
X58613711Y-41841711D01*
X58531526Y-41941853D01*
X58470457Y-42056105D01*
X58432851Y-42180075D01*
X58420153Y-42309000D01*
X58420153Y-43071000D01*
X58432851Y-43199925D01*
X58470457Y-43323895D01*
X58531526Y-43438147D01*
X58613711Y-43538289D01*
X58713853Y-43620474D01*
X58828105Y-43681543D01*
X58952075Y-43719149D01*
X59081000Y-43731847D01*
X61319000Y-43731847D01*
X61447925Y-43719149D01*
X61571895Y-43681543D01*
X61686147Y-43620474D01*
X61786289Y-43538289D01*
X61868474Y-43438147D01*
X61929543Y-43323895D01*
X61967149Y-43199925D01*
X61979847Y-43071000D01*
X61979847Y-43068500D01*
X62793221Y-43068500D01*
X64260647Y-44535926D01*
X64202089Y-44547574D01*
X64078610Y-44598721D01*
X63967481Y-44672975D01*
X63872975Y-44767481D01*
X63816835Y-44851500D01*
X61979847Y-44851500D01*
X61979847Y-44849000D01*
X61967149Y-44720075D01*
X61929543Y-44596105D01*
X61868474Y-44481853D01*
X61786289Y-44381711D01*
X61686147Y-44299526D01*
X61571895Y-44238457D01*
X61447925Y-44200851D01*
X61319000Y-44188153D01*
X59081000Y-44188153D01*
X58952075Y-44200851D01*
X58828105Y-44238457D01*
X58713853Y-44299526D01*
X58613711Y-44381711D01*
X58531526Y-44481853D01*
X58470457Y-44596105D01*
X58432851Y-44720075D01*
X58420153Y-44849000D01*
X58420153Y-45611000D01*
X58432851Y-45739925D01*
X58470457Y-45863895D01*
X58531526Y-45978147D01*
X58613711Y-46078289D01*
X58713853Y-46160474D01*
X58828105Y-46221543D01*
X58952075Y-46259149D01*
X59081000Y-46271847D01*
X61319000Y-46271847D01*
X61447925Y-46259149D01*
X61571895Y-46221543D01*
X61686147Y-46160474D01*
X61786289Y-46078289D01*
X61868474Y-45978147D01*
X61929543Y-45863895D01*
X61967149Y-45739925D01*
X61979847Y-45611000D01*
X61979847Y-45608500D01*
X62863975Y-45608500D01*
X62767481Y-45672975D01*
X62672975Y-45767481D01*
X62598721Y-45878610D01*
X62547574Y-46002089D01*
X62521500Y-46133174D01*
X62521500Y-46266826D01*
X62547574Y-46397911D01*
X62598721Y-46521390D01*
X62672975Y-46632519D01*
X62767481Y-46727025D01*
X62821501Y-46763120D01*
X62821500Y-48043220D01*
X61552229Y-49312491D01*
X61447925Y-49280851D01*
X61319000Y-49268153D01*
X59081000Y-49268153D01*
X58952075Y-49280851D01*
X58828105Y-49318457D01*
X58713853Y-49379526D01*
X58613711Y-49461711D01*
X58531526Y-49561853D01*
X58470457Y-49676105D01*
X58432851Y-49800075D01*
X58420153Y-49929000D01*
X58420153Y-50691000D01*
X58432851Y-50819925D01*
X58470457Y-50943895D01*
X58531526Y-51058147D01*
X58613711Y-51158289D01*
X58713853Y-51240474D01*
X58828105Y-51301543D01*
X58952075Y-51339149D01*
X59081000Y-51351847D01*
X61319000Y-51351847D01*
X61447925Y-51339149D01*
X61571895Y-51301543D01*
X61686147Y-51240474D01*
X61786289Y-51158289D01*
X61868474Y-51058147D01*
X61929543Y-50943895D01*
X61967149Y-50819925D01*
X61979847Y-50691000D01*
X61979847Y-49955432D01*
X63454493Y-48480787D01*
X63468935Y-48468935D01*
X63516234Y-48411301D01*
X63539138Y-48368451D01*
X63551380Y-48345547D01*
X63573023Y-48274199D01*
X63580331Y-48200000D01*
X63578500Y-48181410D01*
X63578500Y-46763119D01*
X63632519Y-46727025D01*
X63727025Y-46632519D01*
X63801279Y-46521390D01*
X63852426Y-46397911D01*
X63878500Y-46266826D01*
X63878500Y-46133174D01*
X63852426Y-46002089D01*
X63801279Y-45878610D01*
X63727025Y-45767481D01*
X63632519Y-45672975D01*
X63536025Y-45608500D01*
X63856926Y-45608500D01*
X63872975Y-45632519D01*
X63967481Y-45727025D01*
X64078610Y-45801279D01*
X64202089Y-45852426D01*
X64333174Y-45878500D01*
X64466826Y-45878500D01*
X64597911Y-45852426D01*
X64721390Y-45801279D01*
X64832519Y-45727025D01*
X64927025Y-45632519D01*
X65001279Y-45521390D01*
X65052426Y-45397911D01*
X65064074Y-45339353D01*
X65529622Y-45804902D01*
X65499732Y-45860823D01*
X65434425Y-46076109D01*
X65412374Y-46300000D01*
X65434425Y-46523891D01*
X65499732Y-46739177D01*
X65605784Y-46937587D01*
X65748506Y-47111494D01*
X65922413Y-47254216D01*
X66120823Y-47360268D01*
X66336109Y-47425575D01*
X66503893Y-47442100D01*
X66616107Y-47442100D01*
X66783891Y-47425575D01*
X66999177Y-47360268D01*
X67197587Y-47254216D01*
X67371494Y-47111494D01*
X67421500Y-47050561D01*
X67421500Y-47443221D01*
X62393221Y-52471500D01*
X61979847Y-52471500D01*
X61979847Y-52469000D01*
X61967149Y-52340075D01*
X61929543Y-52216105D01*
X61868474Y-52101853D01*
X61786289Y-52001711D01*
X61686147Y-51919526D01*
X61571895Y-51858457D01*
X61447925Y-51820851D01*
X61319000Y-51808153D01*
X59081000Y-51808153D01*
X58952075Y-51820851D01*
X58828105Y-51858457D01*
X58713853Y-51919526D01*
X58613711Y-52001711D01*
X58531526Y-52101853D01*
X58470457Y-52216105D01*
X58432851Y-52340075D01*
X58420153Y-52469000D01*
X58420153Y-53231000D01*
X58432851Y-53359925D01*
X58470457Y-53483895D01*
X58531526Y-53598147D01*
X58613711Y-53698289D01*
X58713853Y-53780474D01*
X58828105Y-53841543D01*
X58952075Y-53879149D01*
X59081000Y-53891847D01*
X61319000Y-53891847D01*
X61447925Y-53879149D01*
X61571895Y-53841543D01*
X61686147Y-53780474D01*
X61786289Y-53698289D01*
X61868474Y-53598147D01*
X61929543Y-53483895D01*
X61967149Y-53359925D01*
X61979847Y-53231000D01*
X61979847Y-53228500D01*
X62531410Y-53228500D01*
X62550000Y-53230331D01*
X62568590Y-53228500D01*
X62624199Y-53223023D01*
X62695546Y-53201380D01*
X62761301Y-53166234D01*
X62818935Y-53118935D01*
X62830793Y-53104486D01*
X63187759Y-52747520D01*
X74289500Y-52747520D01*
X74289500Y-52952480D01*
X74329485Y-53153503D01*
X74407920Y-53342862D01*
X74521791Y-53513280D01*
X74666720Y-53658209D01*
X74837138Y-53772080D01*
X75026497Y-53850515D01*
X75227520Y-53890500D01*
X75432480Y-53890500D01*
X75633503Y-53850515D01*
X75822862Y-53772080D01*
X75993280Y-53658209D01*
X76138209Y-53513280D01*
X76252080Y-53342862D01*
X76330515Y-53153503D01*
X76370500Y-52952480D01*
X76370500Y-52747520D01*
X76829500Y-52747520D01*
X76829500Y-52952480D01*
X76869485Y-53153503D01*
X76947920Y-53342862D01*
X77061791Y-53513280D01*
X77206720Y-53658209D01*
X77377138Y-53772080D01*
X77566497Y-53850515D01*
X77767520Y-53890500D01*
X77972480Y-53890500D01*
X78173503Y-53850515D01*
X78362862Y-53772080D01*
X78533280Y-53658209D01*
X78678209Y-53513280D01*
X78792080Y-53342862D01*
X78870515Y-53153503D01*
X78910500Y-52952480D01*
X78910500Y-52747520D01*
X78870515Y-52546497D01*
X78792080Y-52357138D01*
X78678209Y-52186720D01*
X78533280Y-52041791D01*
X78362862Y-51927920D01*
X78173503Y-51849485D01*
X77972480Y-51809500D01*
X77767520Y-51809500D01*
X77566497Y-51849485D01*
X77377138Y-51927920D01*
X77206720Y-52041791D01*
X77061791Y-52186720D01*
X76947920Y-52357138D01*
X76869485Y-52546497D01*
X76829500Y-52747520D01*
X76370500Y-52747520D01*
X76330515Y-52546497D01*
X76252080Y-52357138D01*
X76138209Y-52186720D01*
X75993280Y-52041791D01*
X75822862Y-51927920D01*
X75633503Y-51849485D01*
X75432480Y-51809500D01*
X75227520Y-51809500D01*
X75026497Y-51849485D01*
X74837138Y-51927920D01*
X74666720Y-52041791D01*
X74521791Y-52186720D01*
X74407920Y-52357138D01*
X74329485Y-52546497D01*
X74289500Y-52747520D01*
X63187759Y-52747520D01*
X65727759Y-50207520D01*
X74289500Y-50207520D01*
X74289500Y-50412480D01*
X74329485Y-50613503D01*
X74407920Y-50802862D01*
X74521791Y-50973280D01*
X74666720Y-51118209D01*
X74837138Y-51232080D01*
X75026497Y-51310515D01*
X75227520Y-51350500D01*
X75432480Y-51350500D01*
X75633503Y-51310515D01*
X75822862Y-51232080D01*
X75993280Y-51118209D01*
X76138209Y-50973280D01*
X76252080Y-50802862D01*
X76330515Y-50613503D01*
X76370500Y-50412480D01*
X76370500Y-50207520D01*
X76829500Y-50207520D01*
X76829500Y-50412480D01*
X76869485Y-50613503D01*
X76947920Y-50802862D01*
X77061791Y-50973280D01*
X77206720Y-51118209D01*
X77377138Y-51232080D01*
X77566497Y-51310515D01*
X77767520Y-51350500D01*
X77972480Y-51350500D01*
X78173503Y-51310515D01*
X78362862Y-51232080D01*
X78533280Y-51118209D01*
X78678209Y-50973280D01*
X78792080Y-50802862D01*
X78870515Y-50613503D01*
X78910500Y-50412480D01*
X78910500Y-50207520D01*
X78870515Y-50006497D01*
X78792080Y-49817138D01*
X78678209Y-49646720D01*
X78533280Y-49501791D01*
X78362862Y-49387920D01*
X78173503Y-49309485D01*
X77972480Y-49269500D01*
X77767520Y-49269500D01*
X77566497Y-49309485D01*
X77377138Y-49387920D01*
X77206720Y-49501791D01*
X77061791Y-49646720D01*
X76947920Y-49817138D01*
X76869485Y-50006497D01*
X76829500Y-50207520D01*
X76370500Y-50207520D01*
X76330515Y-50006497D01*
X76252080Y-49817138D01*
X76138209Y-49646720D01*
X75993280Y-49501791D01*
X75822862Y-49387920D01*
X75633503Y-49309485D01*
X75432480Y-49269500D01*
X75227520Y-49269500D01*
X75026497Y-49309485D01*
X74837138Y-49387920D01*
X74666720Y-49501791D01*
X74521791Y-49646720D01*
X74407920Y-49817138D01*
X74329485Y-50006497D01*
X74289500Y-50207520D01*
X65727759Y-50207520D01*
X68054487Y-47880792D01*
X68068935Y-47868935D01*
X68116234Y-47811301D01*
X68151380Y-47745546D01*
X68173023Y-47674199D01*
X68178500Y-47618590D01*
X68178500Y-47618589D01*
X68180331Y-47600001D01*
X68178500Y-47581411D01*
X68178500Y-47437067D01*
X68181805Y-47438070D01*
X68236400Y-47443447D01*
X69963600Y-47443447D01*
X70018195Y-47438070D01*
X70070693Y-47422145D01*
X70119075Y-47396284D01*
X70161482Y-47361482D01*
X70196284Y-47319075D01*
X70222145Y-47270693D01*
X70238070Y-47218195D01*
X70243447Y-47163600D01*
X70243447Y-46728587D01*
X70263600Y-46730572D01*
X70284638Y-46728500D01*
X73882120Y-46728500D01*
X73918090Y-46758020D01*
X73992531Y-46797810D01*
X74073303Y-46822312D01*
X74136256Y-46828512D01*
X74136265Y-46828512D01*
X74157303Y-46830584D01*
X74178341Y-46828512D01*
X74883993Y-46828512D01*
X74837138Y-46847920D01*
X74666720Y-46961791D01*
X74521791Y-47106720D01*
X74407920Y-47277138D01*
X74329485Y-47466497D01*
X74289500Y-47667520D01*
X74289500Y-47872480D01*
X74329485Y-48073503D01*
X74407920Y-48262862D01*
X74521791Y-48433280D01*
X74666720Y-48578209D01*
X74837138Y-48692080D01*
X75026497Y-48770515D01*
X75227520Y-48810500D01*
X75432480Y-48810500D01*
X75633503Y-48770515D01*
X75822862Y-48692080D01*
X75993280Y-48578209D01*
X76138209Y-48433280D01*
X76252080Y-48262862D01*
X76330515Y-48073503D01*
X76370500Y-47872480D01*
X76370500Y-47667520D01*
X76330515Y-47466497D01*
X76252080Y-47277138D01*
X76138209Y-47106720D01*
X75993280Y-46961791D01*
X75822862Y-46847920D01*
X75776007Y-46828512D01*
X76322522Y-46828512D01*
X76819888Y-47325879D01*
X76819893Y-47325883D01*
X76896145Y-47402135D01*
X76869485Y-47466497D01*
X76829500Y-47667520D01*
X76829500Y-47872480D01*
X76869485Y-48073503D01*
X76947920Y-48262862D01*
X77061791Y-48433280D01*
X77206720Y-48578209D01*
X77377138Y-48692080D01*
X77566497Y-48770515D01*
X77767520Y-48810500D01*
X77972480Y-48810500D01*
X78173503Y-48770515D01*
X78237865Y-48743855D01*
X81332125Y-51838116D01*
X81345539Y-51854461D01*
X81361884Y-51867875D01*
X81361887Y-51867878D01*
X81410786Y-51908008D01*
X81485227Y-51947798D01*
X81565999Y-51972300D01*
X81628952Y-51978500D01*
X81628961Y-51978500D01*
X81649999Y-51980572D01*
X81671037Y-51978500D01*
X90845153Y-51978500D01*
X90845153Y-52150000D01*
X90855334Y-52253368D01*
X90885485Y-52352764D01*
X90934448Y-52444367D01*
X91000342Y-52524658D01*
X91080633Y-52590552D01*
X91172236Y-52639515D01*
X91271632Y-52669666D01*
X91375000Y-52679847D01*
X92825000Y-52679847D01*
X92928368Y-52669666D01*
X93027764Y-52639515D01*
X93119367Y-52590552D01*
X93199658Y-52524658D01*
X93265552Y-52444367D01*
X93314515Y-52352764D01*
X93344666Y-52253368D01*
X93354847Y-52150000D01*
X93354847Y-50950000D01*
X93344666Y-50846632D01*
X93314515Y-50747236D01*
X93265552Y-50655633D01*
X93199658Y-50575342D01*
X93119367Y-50509448D01*
X93027764Y-50460485D01*
X92928368Y-50430334D01*
X92825000Y-50420153D01*
X91375000Y-50420153D01*
X91271632Y-50430334D01*
X91172236Y-50460485D01*
X91080633Y-50509448D01*
X91000342Y-50575342D01*
X90934448Y-50655633D01*
X90885485Y-50747236D01*
X90855334Y-50846632D01*
X90845153Y-50950000D01*
X90845153Y-51121500D01*
X81827491Y-51121500D01*
X78843855Y-48137865D01*
X78870515Y-48073503D01*
X78910500Y-47872480D01*
X78910500Y-47795780D01*
X80419212Y-49304492D01*
X80431065Y-49318935D01*
X80488699Y-49366234D01*
X80554454Y-49401380D01*
X80625801Y-49423023D01*
X80700000Y-49430331D01*
X80718590Y-49428500D01*
X90910538Y-49428500D01*
X90927358Y-49483948D01*
X91032147Y-49679994D01*
X91173169Y-49851831D01*
X91345006Y-49992853D01*
X91541052Y-50097642D01*
X91753775Y-50162171D01*
X91919564Y-50178500D01*
X92280436Y-50178500D01*
X92446225Y-50162171D01*
X92658948Y-50097642D01*
X92854994Y-49992853D01*
X93026831Y-49851831D01*
X93167853Y-49679994D01*
X93272642Y-49483948D01*
X93337171Y-49271225D01*
X93358960Y-49050000D01*
X93337171Y-48828775D01*
X93272642Y-48616052D01*
X93167853Y-48420006D01*
X93026831Y-48248169D01*
X92854994Y-48107147D01*
X92658948Y-48002358D01*
X92446225Y-47937829D01*
X92280436Y-47921500D01*
X91919564Y-47921500D01*
X91753775Y-47937829D01*
X91541052Y-48002358D01*
X91345006Y-48107147D01*
X91173169Y-48248169D01*
X91032147Y-48420006D01*
X90927358Y-48616052D01*
X90910538Y-48671500D01*
X80856780Y-48671500D01*
X78735280Y-46550000D01*
X90841040Y-46550000D01*
X90862829Y-46771225D01*
X90927358Y-46983948D01*
X91032147Y-47179994D01*
X91173169Y-47351831D01*
X91345006Y-47492853D01*
X91541052Y-47597642D01*
X91753775Y-47662171D01*
X91919564Y-47678500D01*
X92280436Y-47678500D01*
X92446225Y-47662171D01*
X92658948Y-47597642D01*
X92854994Y-47492853D01*
X93026831Y-47351831D01*
X93167853Y-47179994D01*
X93272642Y-46983948D01*
X93337171Y-46771225D01*
X93358960Y-46550000D01*
X93337171Y-46328775D01*
X93272642Y-46116052D01*
X93167853Y-45920006D01*
X93026831Y-45748169D01*
X92854994Y-45607147D01*
X92658948Y-45502358D01*
X92446225Y-45437829D01*
X92280436Y-45421500D01*
X91919564Y-45421500D01*
X91753775Y-45437829D01*
X91541052Y-45502358D01*
X91345006Y-45607147D01*
X91173169Y-45748169D01*
X91032147Y-45920006D01*
X90927358Y-46116052D01*
X90862829Y-46328775D01*
X90841040Y-46550000D01*
X78735280Y-46550000D01*
X77580803Y-45395524D01*
X77568945Y-45381075D01*
X77511311Y-45333776D01*
X77445556Y-45298630D01*
X77374209Y-45276987D01*
X77318600Y-45271510D01*
X77300010Y-45269679D01*
X77281420Y-45271510D01*
X75080425Y-45271510D01*
X75044331Y-45217491D01*
X74949825Y-45122985D01*
X74838696Y-45048731D01*
X74715217Y-44997584D01*
X74584132Y-44971510D01*
X74450480Y-44971510D01*
X74319395Y-44997584D01*
X74195916Y-45048731D01*
X74084787Y-45122985D01*
X73990281Y-45217491D01*
X73916027Y-45328620D01*
X73864880Y-45452099D01*
X73838806Y-45583184D01*
X73838806Y-45716836D01*
X73864880Y-45847921D01*
X73874647Y-45871500D01*
X70928500Y-45871500D01*
X70928500Y-44883174D01*
X71371500Y-44883174D01*
X71371500Y-45016826D01*
X71397574Y-45147911D01*
X71448721Y-45271390D01*
X71522975Y-45382519D01*
X71617481Y-45477025D01*
X71728610Y-45551279D01*
X71852089Y-45602426D01*
X71983174Y-45628500D01*
X72116826Y-45628500D01*
X72247911Y-45602426D01*
X72371390Y-45551279D01*
X72482519Y-45477025D01*
X72577025Y-45382519D01*
X72651279Y-45271390D01*
X72702426Y-45147911D01*
X72728500Y-45016826D01*
X72728500Y-44883174D01*
X72715825Y-44819454D01*
X73106779Y-44428500D01*
X90910538Y-44428500D01*
X90927358Y-44483948D01*
X91032147Y-44679994D01*
X91173169Y-44851831D01*
X91345006Y-44992853D01*
X91541052Y-45097642D01*
X91753775Y-45162171D01*
X91919564Y-45178500D01*
X92280436Y-45178500D01*
X92446225Y-45162171D01*
X92658948Y-45097642D01*
X92854994Y-44992853D01*
X93026831Y-44851831D01*
X93167853Y-44679994D01*
X93272642Y-44483948D01*
X93337171Y-44271225D01*
X93358960Y-44050000D01*
X93337171Y-43828775D01*
X93272642Y-43616052D01*
X93167853Y-43420006D01*
X93026831Y-43248169D01*
X92854994Y-43107147D01*
X92658948Y-43002358D01*
X92446225Y-42937829D01*
X92280436Y-42921500D01*
X91919564Y-42921500D01*
X91753775Y-42937829D01*
X91541052Y-43002358D01*
X91345006Y-43107147D01*
X91173169Y-43248169D01*
X91032147Y-43420006D01*
X90927358Y-43616052D01*
X90910538Y-43671500D01*
X78219409Y-43671500D01*
X78362862Y-43612080D01*
X78533280Y-43498209D01*
X78678209Y-43353280D01*
X78792080Y-43182862D01*
X78870515Y-42993503D01*
X78910500Y-42792480D01*
X78910500Y-42587520D01*
X78870515Y-42386497D01*
X78792080Y-42197138D01*
X78678209Y-42026720D01*
X78593364Y-41941875D01*
X90916725Y-41941875D01*
X91012994Y-42129658D01*
X91144564Y-42306198D01*
X91308048Y-42453678D01*
X91497162Y-42566430D01*
X91704639Y-42640121D01*
X91878500Y-42599369D01*
X91878500Y-41771500D01*
X92321500Y-41771500D01*
X92321500Y-42599369D01*
X92495361Y-42640121D01*
X92702838Y-42566430D01*
X92891952Y-42453678D01*
X93055436Y-42306198D01*
X93187006Y-42129658D01*
X93283275Y-41941875D01*
X93260449Y-41771500D01*
X92321500Y-41771500D01*
X91878500Y-41771500D01*
X90939551Y-41771500D01*
X90916725Y-41941875D01*
X78593364Y-41941875D01*
X78533280Y-41881791D01*
X78362862Y-41767920D01*
X78173503Y-41689485D01*
X77972480Y-41649500D01*
X77767520Y-41649500D01*
X77566497Y-41689485D01*
X77377138Y-41767920D01*
X77206720Y-41881791D01*
X77061791Y-42026720D01*
X76947920Y-42197138D01*
X76869485Y-42386497D01*
X76829500Y-42587520D01*
X76829500Y-42792480D01*
X76869485Y-42993503D01*
X76947920Y-43182862D01*
X77061791Y-43353280D01*
X77206720Y-43498209D01*
X77377138Y-43612080D01*
X77520591Y-43671500D01*
X75679409Y-43671500D01*
X75822862Y-43612080D01*
X75993280Y-43498209D01*
X76138209Y-43353280D01*
X76252080Y-43182862D01*
X76330515Y-42993503D01*
X76370500Y-42792480D01*
X76370500Y-42587520D01*
X76330515Y-42386497D01*
X76252080Y-42197138D01*
X76138209Y-42026720D01*
X75993280Y-41881791D01*
X75822862Y-41767920D01*
X75633503Y-41689485D01*
X75432480Y-41649500D01*
X75227520Y-41649500D01*
X75026497Y-41689485D01*
X74837138Y-41767920D01*
X74666720Y-41881791D01*
X74521791Y-42026720D01*
X74407920Y-42197138D01*
X74329485Y-42386497D01*
X74289500Y-42587520D01*
X74289500Y-42792480D01*
X74329485Y-42993503D01*
X74407920Y-43182862D01*
X74521791Y-43353280D01*
X74666720Y-43498209D01*
X74837138Y-43612080D01*
X74980591Y-43671500D01*
X72968589Y-43671500D01*
X72949999Y-43669669D01*
X72875801Y-43676977D01*
X72804454Y-43698620D01*
X72738699Y-43733766D01*
X72681065Y-43781065D01*
X72669207Y-43795514D01*
X72180546Y-44284175D01*
X72116826Y-44271500D01*
X71983174Y-44271500D01*
X71852089Y-44297574D01*
X71728610Y-44348721D01*
X71617481Y-44422975D01*
X71522975Y-44517481D01*
X71448721Y-44628610D01*
X71397574Y-44752089D01*
X71371500Y-44883174D01*
X70928500Y-44883174D01*
X70928500Y-40171038D01*
X70930572Y-40150000D01*
X70928500Y-40128962D01*
X70928500Y-40128952D01*
X70922300Y-40065999D01*
X70916695Y-40047520D01*
X74289500Y-40047520D01*
X74289500Y-40252480D01*
X74329485Y-40453503D01*
X74407920Y-40642862D01*
X74521791Y-40813280D01*
X74666720Y-40958209D01*
X74837138Y-41072080D01*
X75026497Y-41150515D01*
X75227520Y-41190500D01*
X75432480Y-41190500D01*
X75633503Y-41150515D01*
X75822862Y-41072080D01*
X75993280Y-40958209D01*
X76138209Y-40813280D01*
X76252080Y-40642862D01*
X76330515Y-40453503D01*
X76370500Y-40252480D01*
X76370500Y-40047520D01*
X76829500Y-40047520D01*
X76829500Y-40252480D01*
X76869485Y-40453503D01*
X76947920Y-40642862D01*
X77061791Y-40813280D01*
X77206720Y-40958209D01*
X77377138Y-41072080D01*
X77566497Y-41150515D01*
X77767520Y-41190500D01*
X77972480Y-41190500D01*
X78135244Y-41158125D01*
X90916725Y-41158125D01*
X90939551Y-41328500D01*
X91878500Y-41328500D01*
X91878500Y-40500631D01*
X92321500Y-40500631D01*
X92321500Y-41328500D01*
X93260449Y-41328500D01*
X93283275Y-41158125D01*
X93187006Y-40970342D01*
X93055436Y-40793802D01*
X92891952Y-40646322D01*
X92702838Y-40533570D01*
X92495361Y-40459879D01*
X92321500Y-40500631D01*
X91878500Y-40500631D01*
X91704639Y-40459879D01*
X91497162Y-40533570D01*
X91308048Y-40646322D01*
X91144564Y-40793802D01*
X91012994Y-40970342D01*
X90916725Y-41158125D01*
X78135244Y-41158125D01*
X78173503Y-41150515D01*
X78362862Y-41072080D01*
X78533280Y-40958209D01*
X78678209Y-40813280D01*
X78792080Y-40642862D01*
X78870515Y-40453503D01*
X78910500Y-40252480D01*
X78910500Y-40047520D01*
X78870515Y-39846497D01*
X78792080Y-39657138D01*
X78678209Y-39486720D01*
X78533280Y-39341791D01*
X78362862Y-39227920D01*
X78173503Y-39149485D01*
X77972480Y-39109500D01*
X77767520Y-39109500D01*
X77566497Y-39149485D01*
X77377138Y-39227920D01*
X77206720Y-39341791D01*
X77061791Y-39486720D01*
X76947920Y-39657138D01*
X76869485Y-39846497D01*
X76829500Y-40047520D01*
X76370500Y-40047520D01*
X76330515Y-39846497D01*
X76252080Y-39657138D01*
X76138209Y-39486720D01*
X75993280Y-39341791D01*
X75822862Y-39227920D01*
X75633503Y-39149485D01*
X75432480Y-39109500D01*
X75227520Y-39109500D01*
X75026497Y-39149485D01*
X74837138Y-39227920D01*
X74666720Y-39341791D01*
X74521791Y-39486720D01*
X74407920Y-39657138D01*
X74329485Y-39846497D01*
X74289500Y-40047520D01*
X70916695Y-40047520D01*
X70897798Y-39985227D01*
X70858008Y-39910786D01*
X70804461Y-39845539D01*
X70788111Y-39832121D01*
X65737880Y-34781890D01*
X65724461Y-34765539D01*
X65659214Y-34711992D01*
X65584773Y-34672202D01*
X65504001Y-34647700D01*
X65441048Y-34641500D01*
X65441038Y-34641500D01*
X65420000Y-34639428D01*
X65398962Y-34641500D01*
X61975169Y-34641500D01*
X61967149Y-34560075D01*
X61929543Y-34436105D01*
X61868474Y-34321853D01*
X61786289Y-34221711D01*
X61686147Y-34139526D01*
X61571895Y-34078457D01*
X61447925Y-34040851D01*
X61319000Y-34028153D01*
X59081000Y-34028153D01*
X58952075Y-34040851D01*
X58828105Y-34078457D01*
X58713853Y-34139526D01*
X58613711Y-34221711D01*
X58531526Y-34321853D01*
X58470457Y-34436105D01*
X58432851Y-34560075D01*
X58420153Y-34689000D01*
X58260500Y-34689000D01*
X58260500Y-33512741D01*
X58266287Y-33453721D01*
X58279725Y-33409212D01*
X58301554Y-33368155D01*
X58330946Y-33332119D01*
X58366771Y-33302482D01*
X58407675Y-33280365D01*
X58452093Y-33266615D01*
X58510276Y-33260500D01*
X64969416Y-33260500D01*
X85931958Y-38251581D01*
G04 #@! TD*
M02*
