G04 #@! TF.GenerationSoftware,KiCad,Pcbnew,5.1.0*
G04 #@! TF.CreationDate,2019-05-06T16:15:21+02:00*
G04 #@! TF.ProjectId,JlinkBreakout,4a6c696e-6b42-4726-9561-6b6f75742e6b,rev?*
G04 #@! TF.SameCoordinates,Original*
G04 #@! TF.FileFunction,Legend,Top*
G04 #@! TF.FilePolarity,Positive*
%FSLAX46Y46*%
G04 Gerber Fmt 4.6, Leading zero omitted, Abs format (unit mm)*
G04 Created by KiCad (PCBNEW 5.1.0) date 2019-05-06 16:15:21*
%MOMM*%
%LPD*%
G04 APERTURE LIST*
%ADD10C,0.200000*%
%ADD11C,0.300000*%
%ADD12C,0.050000*%
%ADD13C,0.120000*%
G04 APERTURE END LIST*
D10*
X78147619Y-52250000D02*
X78023809Y-52188095D01*
X77838095Y-52188095D01*
X77652380Y-52250000D01*
X77528571Y-52373809D01*
X77466666Y-52497619D01*
X77404761Y-52745238D01*
X77404761Y-52930952D01*
X77466666Y-53178571D01*
X77528571Y-53302380D01*
X77652380Y-53426190D01*
X77838095Y-53488095D01*
X77961904Y-53488095D01*
X78147619Y-53426190D01*
X78209523Y-53364285D01*
X78209523Y-52930952D01*
X77961904Y-52930952D01*
X78766666Y-53488095D02*
X78766666Y-52188095D01*
X79509523Y-53488095D01*
X79509523Y-52188095D01*
X80128571Y-53488095D02*
X80128571Y-52188095D01*
X80438095Y-52188095D01*
X80623809Y-52250000D01*
X80747619Y-52373809D01*
X80809523Y-52497619D01*
X80871428Y-52745238D01*
X80871428Y-52930952D01*
X80809523Y-53178571D01*
X80747619Y-53302380D01*
X80623809Y-53426190D01*
X80438095Y-53488095D01*
X80128571Y-53488095D01*
X82357142Y-52126190D02*
X81242857Y-53797619D01*
X83471428Y-52250000D02*
X83347619Y-52188095D01*
X83161904Y-52188095D01*
X82976190Y-52250000D01*
X82852380Y-52373809D01*
X82790476Y-52497619D01*
X82728571Y-52745238D01*
X82728571Y-52930952D01*
X82790476Y-53178571D01*
X82852380Y-53302380D01*
X82976190Y-53426190D01*
X83161904Y-53488095D01*
X83285714Y-53488095D01*
X83471428Y-53426190D01*
X83533333Y-53364285D01*
X83533333Y-52930952D01*
X83285714Y-52930952D01*
X84090476Y-53488095D02*
X84090476Y-52188095D01*
X84833333Y-53488095D01*
X84833333Y-52188095D01*
X85452380Y-53488095D02*
X85452380Y-52188095D01*
X85761904Y-52188095D01*
X85947619Y-52250000D01*
X86071428Y-52373809D01*
X86133333Y-52497619D01*
X86195238Y-52745238D01*
X86195238Y-52930952D01*
X86133333Y-53178571D01*
X86071428Y-53302380D01*
X85947619Y-53426190D01*
X85761904Y-53488095D01*
X85452380Y-53488095D01*
X78023809Y-50888095D02*
X78023809Y-49588095D01*
X78333333Y-49588095D01*
X78519047Y-49650000D01*
X78642857Y-49773809D01*
X78704761Y-49897619D01*
X78766666Y-50145238D01*
X78766666Y-50330952D01*
X78704761Y-50578571D01*
X78642857Y-50702380D01*
X78519047Y-50826190D01*
X78333333Y-50888095D01*
X78023809Y-50888095D01*
X79323809Y-50888095D02*
X79323809Y-49588095D01*
X80190476Y-49588095D02*
X80438095Y-49588095D01*
X80561904Y-49650000D01*
X80685714Y-49773809D01*
X80747619Y-50021428D01*
X80747619Y-50454761D01*
X80685714Y-50702380D01*
X80561904Y-50826190D01*
X80438095Y-50888095D01*
X80190476Y-50888095D01*
X80066666Y-50826190D01*
X79942857Y-50702380D01*
X79880952Y-50454761D01*
X79880952Y-50021428D01*
X79942857Y-49773809D01*
X80066666Y-49650000D01*
X80190476Y-49588095D01*
X82233333Y-49526190D02*
X81119047Y-51197619D01*
X83409523Y-50764285D02*
X83347619Y-50826190D01*
X83161904Y-50888095D01*
X83038095Y-50888095D01*
X82852380Y-50826190D01*
X82728571Y-50702380D01*
X82666666Y-50578571D01*
X82604761Y-50330952D01*
X82604761Y-50145238D01*
X82666666Y-49897619D01*
X82728571Y-49773809D01*
X82852380Y-49650000D01*
X83038095Y-49588095D01*
X83161904Y-49588095D01*
X83347619Y-49650000D01*
X83409523Y-49711904D01*
X83780952Y-49588095D02*
X84523809Y-49588095D01*
X84152380Y-50888095D02*
X84152380Y-49588095D01*
X84895238Y-50826190D02*
X85080952Y-50888095D01*
X85390476Y-50888095D01*
X85514285Y-50826190D01*
X85576190Y-50764285D01*
X85638095Y-50640476D01*
X85638095Y-50516666D01*
X85576190Y-50392857D01*
X85514285Y-50330952D01*
X85390476Y-50269047D01*
X85142857Y-50207142D01*
X85019047Y-50145238D01*
X84957142Y-50083333D01*
X84895238Y-49959523D01*
X84895238Y-49835714D01*
X84957142Y-49711904D01*
X85019047Y-49650000D01*
X85142857Y-49588095D01*
X85452380Y-49588095D01*
X85638095Y-49650000D01*
X78519047Y-48388095D02*
X78085714Y-47769047D01*
X77776190Y-48388095D02*
X77776190Y-47088095D01*
X78271428Y-47088095D01*
X78395238Y-47150000D01*
X78457142Y-47211904D01*
X78519047Y-47335714D01*
X78519047Y-47521428D01*
X78457142Y-47645238D01*
X78395238Y-47707142D01*
X78271428Y-47769047D01*
X77776190Y-47769047D01*
X79076190Y-47707142D02*
X79509523Y-47707142D01*
X79695238Y-48388095D02*
X79076190Y-48388095D01*
X79076190Y-47088095D01*
X79695238Y-47088095D01*
X80685714Y-47707142D02*
X80252380Y-47707142D01*
X80252380Y-48388095D02*
X80252380Y-47088095D01*
X80871428Y-47088095D01*
X82295238Y-47026190D02*
X81180952Y-48697619D01*
X82542857Y-47088095D02*
X82976190Y-48388095D01*
X83409523Y-47088095D01*
X84585714Y-48264285D02*
X84523809Y-48326190D01*
X84338095Y-48388095D01*
X84214285Y-48388095D01*
X84028571Y-48326190D01*
X83904761Y-48202380D01*
X83842857Y-48078571D01*
X83780952Y-47830952D01*
X83780952Y-47645238D01*
X83842857Y-47397619D01*
X83904761Y-47273809D01*
X84028571Y-47150000D01*
X84214285Y-47088095D01*
X84338095Y-47088095D01*
X84523809Y-47150000D01*
X84585714Y-47211904D01*
X85885714Y-48264285D02*
X85823809Y-48326190D01*
X85638095Y-48388095D01*
X85514285Y-48388095D01*
X85328571Y-48326190D01*
X85204761Y-48202380D01*
X85142857Y-48078571D01*
X85080952Y-47830952D01*
X85080952Y-47645238D01*
X85142857Y-47397619D01*
X85204761Y-47273809D01*
X85328571Y-47150000D01*
X85514285Y-47088095D01*
X85638095Y-47088095D01*
X85823809Y-47150000D01*
X85885714Y-47211904D01*
X78580952Y-45664285D02*
X78519047Y-45726190D01*
X78333333Y-45788095D01*
X78209523Y-45788095D01*
X78023809Y-45726190D01*
X77900000Y-45602380D01*
X77838095Y-45478571D01*
X77776190Y-45230952D01*
X77776190Y-45045238D01*
X77838095Y-44797619D01*
X77900000Y-44673809D01*
X78023809Y-44550000D01*
X78209523Y-44488095D01*
X78333333Y-44488095D01*
X78519047Y-44550000D01*
X78580952Y-44611904D01*
X79757142Y-45788095D02*
X79138095Y-45788095D01*
X79138095Y-44488095D01*
X80190476Y-45788095D02*
X80190476Y-44488095D01*
X80933333Y-45788095D02*
X80376190Y-45045238D01*
X80933333Y-44488095D02*
X80190476Y-45230952D01*
X82419047Y-44426190D02*
X81304761Y-46097619D01*
X82666666Y-44488095D02*
X83409523Y-44488095D01*
X83038095Y-45788095D02*
X83038095Y-44488095D01*
X83719047Y-44488095D02*
X84585714Y-45788095D01*
X84585714Y-44488095D02*
X83719047Y-45788095D01*
X85080952Y-45788095D02*
X85080952Y-44488095D01*
X85390476Y-44488095D01*
X85576190Y-44550000D01*
X85700000Y-44673809D01*
X85761904Y-44797619D01*
X85823809Y-45045238D01*
X85823809Y-45230952D01*
X85761904Y-45478571D01*
X85700000Y-45602380D01*
X85576190Y-45726190D01*
X85390476Y-45788095D01*
X85080952Y-45788095D01*
X78488095Y-43288095D02*
X78054761Y-42669047D01*
X77745238Y-43288095D02*
X77745238Y-41988095D01*
X78240476Y-41988095D01*
X78364285Y-42050000D01*
X78426190Y-42111904D01*
X78488095Y-42235714D01*
X78488095Y-42421428D01*
X78426190Y-42545238D01*
X78364285Y-42607142D01*
X78240476Y-42669047D01*
X77745238Y-42669047D01*
X78983333Y-43226190D02*
X79169047Y-43288095D01*
X79478571Y-43288095D01*
X79602380Y-43226190D01*
X79664285Y-43164285D01*
X79726190Y-43040476D01*
X79726190Y-42916666D01*
X79664285Y-42792857D01*
X79602380Y-42730952D01*
X79478571Y-42669047D01*
X79230952Y-42607142D01*
X79107142Y-42545238D01*
X79045238Y-42483333D01*
X78983333Y-42359523D01*
X78983333Y-42235714D01*
X79045238Y-42111904D01*
X79107142Y-42050000D01*
X79230952Y-41988095D01*
X79540476Y-41988095D01*
X79726190Y-42050000D01*
X80097619Y-41988095D02*
X80840476Y-41988095D01*
X80469047Y-43288095D02*
X80469047Y-41988095D01*
X82202380Y-41926190D02*
X81088095Y-43597619D01*
X83378571Y-43288095D02*
X82945238Y-42669047D01*
X82635714Y-43288095D02*
X82635714Y-41988095D01*
X83130952Y-41988095D01*
X83254761Y-42050000D01*
X83316666Y-42111904D01*
X83378571Y-42235714D01*
X83378571Y-42421428D01*
X83316666Y-42545238D01*
X83254761Y-42607142D01*
X83130952Y-42669047D01*
X82635714Y-42669047D01*
X83811904Y-41988095D02*
X84678571Y-43288095D01*
X84678571Y-41988095D02*
X83811904Y-43288095D01*
X85173809Y-43288095D02*
X85173809Y-41988095D01*
X85483333Y-41988095D01*
X85669047Y-42050000D01*
X85792857Y-42173809D01*
X85854761Y-42297619D01*
X85916666Y-42545238D01*
X85916666Y-42730952D01*
X85854761Y-42978571D01*
X85792857Y-43102380D01*
X85669047Y-43226190D01*
X85483333Y-43288095D01*
X85173809Y-43288095D01*
X77559523Y-40626190D02*
X77745238Y-40688095D01*
X78054761Y-40688095D01*
X78178571Y-40626190D01*
X78240476Y-40564285D01*
X78302380Y-40440476D01*
X78302380Y-40316666D01*
X78240476Y-40192857D01*
X78178571Y-40130952D01*
X78054761Y-40069047D01*
X77807142Y-40007142D01*
X77683333Y-39945238D01*
X77621428Y-39883333D01*
X77559523Y-39759523D01*
X77559523Y-39635714D01*
X77621428Y-39511904D01*
X77683333Y-39450000D01*
X77807142Y-39388095D01*
X78116666Y-39388095D01*
X78302380Y-39450000D01*
X78735714Y-39388095D02*
X79045238Y-40688095D01*
X79292857Y-39759523D01*
X79540476Y-40688095D01*
X79850000Y-39388095D01*
X80592857Y-39388095D02*
X80840476Y-39388095D01*
X80964285Y-39450000D01*
X81088095Y-39573809D01*
X81150000Y-39821428D01*
X81150000Y-40254761D01*
X81088095Y-40502380D01*
X80964285Y-40626190D01*
X80840476Y-40688095D01*
X80592857Y-40688095D01*
X80469047Y-40626190D01*
X80345238Y-40502380D01*
X80283333Y-40254761D01*
X80283333Y-39821428D01*
X80345238Y-39573809D01*
X80469047Y-39450000D01*
X80592857Y-39388095D01*
X82635714Y-39326190D02*
X81521428Y-40997619D01*
X83811904Y-40688095D02*
X83378571Y-40069047D01*
X83069047Y-40688095D02*
X83069047Y-39388095D01*
X83564285Y-39388095D01*
X83688095Y-39450000D01*
X83750000Y-39511904D01*
X83811904Y-39635714D01*
X83811904Y-39821428D01*
X83750000Y-39945238D01*
X83688095Y-40007142D01*
X83564285Y-40069047D01*
X83069047Y-40069047D01*
X84183333Y-39388095D02*
X84926190Y-39388095D01*
X84554761Y-40688095D02*
X84554761Y-39388095D01*
X85297619Y-40626190D02*
X85483333Y-40688095D01*
X85792857Y-40688095D01*
X85916666Y-40626190D01*
X85978571Y-40564285D01*
X86040476Y-40440476D01*
X86040476Y-40316666D01*
X85978571Y-40192857D01*
X85916666Y-40130952D01*
X85792857Y-40069047D01*
X85545238Y-40007142D01*
X85421428Y-39945238D01*
X85359523Y-39883333D01*
X85297619Y-39759523D01*
X85297619Y-39635714D01*
X85359523Y-39511904D01*
X85421428Y-39450000D01*
X85545238Y-39388095D01*
X85854761Y-39388095D01*
X86040476Y-39450000D01*
D11*
X65928571Y-51903571D02*
X65928571Y-53117857D01*
X66000000Y-53260714D01*
X66071428Y-53332142D01*
X66214285Y-53403571D01*
X66500000Y-53403571D01*
X66642857Y-53332142D01*
X66714285Y-53260714D01*
X66785714Y-53117857D01*
X66785714Y-51903571D01*
X67500000Y-52403571D02*
X67500000Y-53403571D01*
X67500000Y-52546428D02*
X67571428Y-52475000D01*
X67714285Y-52403571D01*
X67928571Y-52403571D01*
X68071428Y-52475000D01*
X68142857Y-52617857D01*
X68142857Y-53403571D01*
X68857142Y-53403571D02*
X68857142Y-52403571D01*
X68857142Y-51903571D02*
X68785714Y-51975000D01*
X68857142Y-52046428D01*
X68928571Y-51975000D01*
X68857142Y-51903571D01*
X68857142Y-52046428D01*
X69428571Y-52403571D02*
X69785714Y-53403571D01*
X70142857Y-52403571D01*
X71285714Y-53332142D02*
X71142857Y-53403571D01*
X70857142Y-53403571D01*
X70714285Y-53332142D01*
X70642857Y-53189285D01*
X70642857Y-52617857D01*
X70714285Y-52475000D01*
X70857142Y-52403571D01*
X71142857Y-52403571D01*
X71285714Y-52475000D01*
X71357142Y-52617857D01*
X71357142Y-52760714D01*
X70642857Y-52903571D01*
X72000000Y-53403571D02*
X72000000Y-52403571D01*
X72000000Y-52689285D02*
X72071428Y-52546428D01*
X72142857Y-52475000D01*
X72285714Y-52403571D01*
X72428571Y-52403571D01*
X72857142Y-53332142D02*
X73000000Y-53403571D01*
X73285714Y-53403571D01*
X73428571Y-53332142D01*
X73500000Y-53189285D01*
X73500000Y-53117857D01*
X73428571Y-52975000D01*
X73285714Y-52903571D01*
X73071428Y-52903571D01*
X72928571Y-52832142D01*
X72857142Y-52689285D01*
X72857142Y-52617857D01*
X72928571Y-52475000D01*
X73071428Y-52403571D01*
X73285714Y-52403571D01*
X73428571Y-52475000D01*
X74785714Y-53403571D02*
X74785714Y-52617857D01*
X74714285Y-52475000D01*
X74571428Y-52403571D01*
X74285714Y-52403571D01*
X74142857Y-52475000D01*
X74785714Y-53332142D02*
X74642857Y-53403571D01*
X74285714Y-53403571D01*
X74142857Y-53332142D01*
X74071428Y-53189285D01*
X74071428Y-53046428D01*
X74142857Y-52903571D01*
X74285714Y-52832142D01*
X74642857Y-52832142D01*
X74785714Y-52760714D01*
X75714285Y-53403571D02*
X75571428Y-53332142D01*
X75500000Y-53189285D01*
X75500000Y-51903571D01*
X66821428Y-55525000D02*
X67535714Y-55525000D01*
X66678571Y-55953571D02*
X67178571Y-54453571D01*
X67678571Y-55953571D01*
X68821428Y-55953571D02*
X68821428Y-54453571D01*
X68821428Y-55882142D02*
X68678571Y-55953571D01*
X68392857Y-55953571D01*
X68250000Y-55882142D01*
X68178571Y-55810714D01*
X68107142Y-55667857D01*
X68107142Y-55239285D01*
X68178571Y-55096428D01*
X68250000Y-55025000D01*
X68392857Y-54953571D01*
X68678571Y-54953571D01*
X68821428Y-55025000D01*
X70178571Y-55953571D02*
X70178571Y-55167857D01*
X70107142Y-55025000D01*
X69964285Y-54953571D01*
X69678571Y-54953571D01*
X69535714Y-55025000D01*
X70178571Y-55882142D02*
X70035714Y-55953571D01*
X69678571Y-55953571D01*
X69535714Y-55882142D01*
X69464285Y-55739285D01*
X69464285Y-55596428D01*
X69535714Y-55453571D01*
X69678571Y-55382142D01*
X70035714Y-55382142D01*
X70178571Y-55310714D01*
X70892857Y-54953571D02*
X70892857Y-56453571D01*
X70892857Y-55025000D02*
X71035714Y-54953571D01*
X71321428Y-54953571D01*
X71464285Y-55025000D01*
X71535714Y-55096428D01*
X71607142Y-55239285D01*
X71607142Y-55667857D01*
X71535714Y-55810714D01*
X71464285Y-55882142D01*
X71321428Y-55953571D01*
X71035714Y-55953571D01*
X70892857Y-55882142D01*
X72035714Y-54953571D02*
X72607142Y-54953571D01*
X72250000Y-54453571D02*
X72250000Y-55739285D01*
X72321428Y-55882142D01*
X72464285Y-55953571D01*
X72607142Y-55953571D01*
X73678571Y-55882142D02*
X73535714Y-55953571D01*
X73250000Y-55953571D01*
X73107142Y-55882142D01*
X73035714Y-55739285D01*
X73035714Y-55167857D01*
X73107142Y-55025000D01*
X73250000Y-54953571D01*
X73535714Y-54953571D01*
X73678571Y-55025000D01*
X73750000Y-55167857D01*
X73750000Y-55310714D01*
X73035714Y-55453571D01*
X74392857Y-55953571D02*
X74392857Y-54953571D01*
X74392857Y-55239285D02*
X74464285Y-55096428D01*
X74535714Y-55025000D01*
X74678571Y-54953571D01*
X74821428Y-54953571D01*
X68035714Y-36903571D02*
X68892857Y-36903571D01*
X68464285Y-38403571D02*
X68464285Y-36903571D01*
X70035714Y-38403571D02*
X70035714Y-37617857D01*
X69964285Y-37475000D01*
X69821428Y-37403571D01*
X69535714Y-37403571D01*
X69392857Y-37475000D01*
X70035714Y-38332142D02*
X69892857Y-38403571D01*
X69535714Y-38403571D01*
X69392857Y-38332142D01*
X69321428Y-38189285D01*
X69321428Y-38046428D01*
X69392857Y-37903571D01*
X69535714Y-37832142D01*
X69892857Y-37832142D01*
X70035714Y-37760714D01*
X71392857Y-37403571D02*
X71392857Y-38617857D01*
X71321428Y-38760714D01*
X71250000Y-38832142D01*
X71107142Y-38903571D01*
X70892857Y-38903571D01*
X70750000Y-38832142D01*
X71392857Y-38332142D02*
X71250000Y-38403571D01*
X70964285Y-38403571D01*
X70821428Y-38332142D01*
X70750000Y-38260714D01*
X70678571Y-38117857D01*
X70678571Y-37689285D01*
X70750000Y-37546428D01*
X70821428Y-37475000D01*
X70964285Y-37403571D01*
X71250000Y-37403571D01*
X71392857Y-37475000D01*
X72107142Y-37832142D02*
X73250000Y-37832142D01*
X67464285Y-40810714D02*
X67392857Y-40882142D01*
X67178571Y-40953571D01*
X67035714Y-40953571D01*
X66821428Y-40882142D01*
X66678571Y-40739285D01*
X66607142Y-40596428D01*
X66535714Y-40310714D01*
X66535714Y-40096428D01*
X66607142Y-39810714D01*
X66678571Y-39667857D01*
X66821428Y-39525000D01*
X67035714Y-39453571D01*
X67178571Y-39453571D01*
X67392857Y-39525000D01*
X67464285Y-39596428D01*
X68321428Y-40953571D02*
X68178571Y-40882142D01*
X68107142Y-40810714D01*
X68035714Y-40667857D01*
X68035714Y-40239285D01*
X68107142Y-40096428D01*
X68178571Y-40025000D01*
X68321428Y-39953571D01*
X68535714Y-39953571D01*
X68678571Y-40025000D01*
X68750000Y-40096428D01*
X68821428Y-40239285D01*
X68821428Y-40667857D01*
X68750000Y-40810714D01*
X68678571Y-40882142D01*
X68535714Y-40953571D01*
X68321428Y-40953571D01*
X69464285Y-39953571D02*
X69464285Y-40953571D01*
X69464285Y-40096428D02*
X69535714Y-40025000D01*
X69678571Y-39953571D01*
X69892857Y-39953571D01*
X70035714Y-40025000D01*
X70107142Y-40167857D01*
X70107142Y-40953571D01*
X70821428Y-39953571D02*
X70821428Y-40953571D01*
X70821428Y-40096428D02*
X70892857Y-40025000D01*
X71035714Y-39953571D01*
X71250000Y-39953571D01*
X71392857Y-40025000D01*
X71464285Y-40167857D01*
X71464285Y-40953571D01*
X72750000Y-40882142D02*
X72607142Y-40953571D01*
X72321428Y-40953571D01*
X72178571Y-40882142D01*
X72107142Y-40739285D01*
X72107142Y-40167857D01*
X72178571Y-40025000D01*
X72321428Y-39953571D01*
X72607142Y-39953571D01*
X72750000Y-40025000D01*
X72821428Y-40167857D01*
X72821428Y-40310714D01*
X72107142Y-40453571D01*
X74107142Y-40882142D02*
X73964285Y-40953571D01*
X73678571Y-40953571D01*
X73535714Y-40882142D01*
X73464285Y-40810714D01*
X73392857Y-40667857D01*
X73392857Y-40239285D01*
X73464285Y-40096428D01*
X73535714Y-40025000D01*
X73678571Y-39953571D01*
X73964285Y-39953571D01*
X74107142Y-40025000D01*
X74535714Y-39953571D02*
X75107142Y-39953571D01*
X74750000Y-39453571D02*
X74750000Y-40739285D01*
X74821428Y-40882142D01*
X74964285Y-40953571D01*
X75107142Y-40953571D01*
X93728571Y-53185714D02*
X93814285Y-52928571D01*
X93814285Y-52500000D01*
X93728571Y-52328571D01*
X93642857Y-52242857D01*
X93471428Y-52157142D01*
X93300000Y-52157142D01*
X93128571Y-52242857D01*
X93042857Y-52328571D01*
X92957142Y-52500000D01*
X92871428Y-52842857D01*
X92785714Y-53014285D01*
X92700000Y-53100000D01*
X92528571Y-53185714D01*
X92357142Y-53185714D01*
X92185714Y-53100000D01*
X92100000Y-53014285D01*
X92014285Y-52842857D01*
X92014285Y-52414285D01*
X92100000Y-52157142D01*
X92014285Y-51557142D02*
X93814285Y-51128571D01*
X92528571Y-50785714D01*
X93814285Y-50442857D01*
X92014285Y-50014285D01*
X93814285Y-49328571D02*
X92014285Y-49328571D01*
X92014285Y-48900000D01*
X92100000Y-48642857D01*
X92271428Y-48471428D01*
X92442857Y-48385714D01*
X92785714Y-48300000D01*
X93042857Y-48300000D01*
X93385714Y-48385714D01*
X93557142Y-48471428D01*
X93728571Y-48642857D01*
X93814285Y-48900000D01*
X93814285Y-49328571D01*
X91928571Y-46242857D02*
X94242857Y-47785714D01*
X92014285Y-45642857D02*
X93471428Y-45642857D01*
X93642857Y-45557142D01*
X93728571Y-45471428D01*
X93814285Y-45300000D01*
X93814285Y-44957142D01*
X93728571Y-44785714D01*
X93642857Y-44700000D01*
X93471428Y-44614285D01*
X92014285Y-44614285D01*
X93300000Y-43842857D02*
X93300000Y-42985714D01*
X93814285Y-44014285D02*
X92014285Y-43414285D01*
X93814285Y-42814285D01*
X93814285Y-41185714D02*
X92957142Y-41785714D01*
X93814285Y-42214285D02*
X92014285Y-42214285D01*
X92014285Y-41528571D01*
X92100000Y-41357142D01*
X92185714Y-41271428D01*
X92357142Y-41185714D01*
X92614285Y-41185714D01*
X92785714Y-41271428D01*
X92871428Y-41357142D01*
X92957142Y-41528571D01*
X92957142Y-42214285D01*
X92014285Y-40671428D02*
X92014285Y-39642857D01*
X93814285Y-40157142D02*
X92014285Y-40157142D01*
D12*
X58500000Y-60000000D02*
G75*
G02X58000000Y-59500000I0J500000D01*
G01*
X58000000Y-33500000D02*
G75*
G02X58500000Y-33000000I500000J0D01*
G01*
X96000000Y-38000000D02*
G75*
G02X96500000Y-38500000I0J-500000D01*
G01*
X96500000Y-54500000D02*
G75*
G02X96000000Y-55000000I-500000J0D01*
G01*
X86000000Y-38000000D02*
X65000000Y-33000000D01*
X96000000Y-38000000D02*
X86000000Y-38000000D01*
X96500000Y-54500000D02*
X96500000Y-38500000D01*
X86000000Y-55000000D02*
X96000000Y-55000000D01*
X65000000Y-60000000D02*
X86000000Y-55000000D01*
X65000000Y-33000000D02*
X58500000Y-33000000D01*
X58500000Y-60000000D02*
X65000000Y-60000000D01*
X58000000Y-33500000D02*
X58000000Y-59500000D01*
D13*
X89330000Y-54180000D02*
X88000000Y-54180000D01*
X89330000Y-52850000D02*
X89330000Y-54180000D01*
X89330000Y-51580000D02*
X86670000Y-51580000D01*
X86670000Y-51580000D02*
X86670000Y-38820000D01*
X89330000Y-51580000D02*
X89330000Y-38820000D01*
X89330000Y-38820000D02*
X86670000Y-38820000D01*
X75830000Y-50380000D02*
X74500000Y-50380000D01*
X75830000Y-49050000D02*
X75830000Y-50380000D01*
X73230000Y-50380000D02*
X70630000Y-50380000D01*
X73230000Y-47780000D02*
X73230000Y-50380000D01*
X75830000Y-47780000D02*
X73230000Y-47780000D01*
X70630000Y-50380000D02*
X70630000Y-42640000D01*
X75830000Y-47780000D02*
X75830000Y-42640000D01*
X75830000Y-42640000D02*
X70630000Y-42640000D01*
X58870000Y-33770000D02*
X60200000Y-33770000D01*
X58870000Y-35100000D02*
X58870000Y-33770000D01*
X61470000Y-33770000D02*
X64070000Y-33770000D01*
X61470000Y-36370000D02*
X61470000Y-33770000D01*
X58870000Y-36370000D02*
X61470000Y-36370000D01*
X64070000Y-33770000D02*
X64070000Y-59290000D01*
X58870000Y-36370000D02*
X58870000Y-59290000D01*
X58870000Y-59290000D02*
X64070000Y-59290000D01*
M02*
