G04 #@! TF.GenerationSoftware,KiCad,Pcbnew,5.1.0*
G04 #@! TF.CreationDate,2019-05-06T16:15:21+02:00*
G04 #@! TF.ProjectId,JlinkBreakout,4a6c696e-6b42-4726-9561-6b6f75742e6b,rev?*
G04 #@! TF.SameCoordinates,Original*
G04 #@! TF.FileFunction,Soldermask,Top*
G04 #@! TF.FilePolarity,Negative*
%FSLAX46Y46*%
G04 Gerber Fmt 4.6, Leading zero omitted, Abs format (unit mm)*
G04 Created by KiCad (PCBNEW 5.1.0) date 2019-05-06 16:15:21*
%MOMM*%
%LPD*%
G04 APERTURE LIST*
%ADD10C,0.050000*%
%ADD11C,0.100000*%
G04 APERTURE END LIST*
D10*
X58500000Y-60000000D02*
G75*
G02X58000000Y-59500000I0J500000D01*
G01*
X58000000Y-33500000D02*
G75*
G02X58500000Y-33000000I500000J0D01*
G01*
X96000000Y-38000000D02*
G75*
G02X96500000Y-38500000I0J-500000D01*
G01*
X96500000Y-54500000D02*
G75*
G02X96000000Y-55000000I-500000J0D01*
G01*
X86000000Y-38000000D02*
X65000000Y-33000000D01*
X96000000Y-38000000D02*
X86000000Y-38000000D01*
X96500000Y-54500000D02*
X96500000Y-38500000D01*
X86000000Y-55000000D02*
X96000000Y-55000000D01*
X65000000Y-60000000D02*
X86000000Y-55000000D01*
X65000000Y-33000000D02*
X58500000Y-33000000D01*
X58500000Y-60000000D02*
X65000000Y-60000000D01*
X58000000Y-33500000D02*
X58000000Y-59500000D01*
D11*
G36*
X62850442Y-57065518D02*
G01*
X62916627Y-57072037D01*
X63086466Y-57123557D01*
X63242991Y-57207222D01*
X63278729Y-57236552D01*
X63380186Y-57319814D01*
X63463448Y-57421271D01*
X63492778Y-57457009D01*
X63576443Y-57613534D01*
X63627963Y-57783373D01*
X63645359Y-57960000D01*
X63627963Y-58136627D01*
X63576443Y-58306466D01*
X63492778Y-58462991D01*
X63463448Y-58498729D01*
X63380186Y-58600186D01*
X63278729Y-58683448D01*
X63242991Y-58712778D01*
X63086466Y-58796443D01*
X62916627Y-58847963D01*
X62850443Y-58854481D01*
X62784260Y-58861000D01*
X62695740Y-58861000D01*
X62629557Y-58854481D01*
X62563373Y-58847963D01*
X62393534Y-58796443D01*
X62237009Y-58712778D01*
X62201271Y-58683448D01*
X62099814Y-58600186D01*
X62016552Y-58498729D01*
X61987222Y-58462991D01*
X61903557Y-58306466D01*
X61852037Y-58136627D01*
X61834641Y-57960000D01*
X61852037Y-57783373D01*
X61903557Y-57613534D01*
X61987222Y-57457009D01*
X62016552Y-57421271D01*
X62099814Y-57319814D01*
X62201271Y-57236552D01*
X62237009Y-57207222D01*
X62393534Y-57123557D01*
X62563373Y-57072037D01*
X62629558Y-57065518D01*
X62695740Y-57059000D01*
X62784260Y-57059000D01*
X62850442Y-57065518D01*
X62850442Y-57065518D01*
G37*
G36*
X60310442Y-57065518D02*
G01*
X60376627Y-57072037D01*
X60546466Y-57123557D01*
X60702991Y-57207222D01*
X60738729Y-57236552D01*
X60840186Y-57319814D01*
X60923448Y-57421271D01*
X60952778Y-57457009D01*
X61036443Y-57613534D01*
X61087963Y-57783373D01*
X61105359Y-57960000D01*
X61087963Y-58136627D01*
X61036443Y-58306466D01*
X60952778Y-58462991D01*
X60923448Y-58498729D01*
X60840186Y-58600186D01*
X60738729Y-58683448D01*
X60702991Y-58712778D01*
X60546466Y-58796443D01*
X60376627Y-58847963D01*
X60310443Y-58854481D01*
X60244260Y-58861000D01*
X60155740Y-58861000D01*
X60089557Y-58854481D01*
X60023373Y-58847963D01*
X59853534Y-58796443D01*
X59697009Y-58712778D01*
X59661271Y-58683448D01*
X59559814Y-58600186D01*
X59476552Y-58498729D01*
X59447222Y-58462991D01*
X59363557Y-58306466D01*
X59312037Y-58136627D01*
X59294641Y-57960000D01*
X59312037Y-57783373D01*
X59363557Y-57613534D01*
X59447222Y-57457009D01*
X59476552Y-57421271D01*
X59559814Y-57319814D01*
X59661271Y-57236552D01*
X59697009Y-57207222D01*
X59853534Y-57123557D01*
X60023373Y-57072037D01*
X60089558Y-57065518D01*
X60155740Y-57059000D01*
X60244260Y-57059000D01*
X60310442Y-57065518D01*
X60310442Y-57065518D01*
G37*
G36*
X62850443Y-54525519D02*
G01*
X62916627Y-54532037D01*
X63086466Y-54583557D01*
X63242991Y-54667222D01*
X63278729Y-54696552D01*
X63380186Y-54779814D01*
X63463448Y-54881271D01*
X63492778Y-54917009D01*
X63576443Y-55073534D01*
X63627963Y-55243373D01*
X63645359Y-55420000D01*
X63627963Y-55596627D01*
X63576443Y-55766466D01*
X63492778Y-55922991D01*
X63463448Y-55958729D01*
X63380186Y-56060186D01*
X63278729Y-56143448D01*
X63242991Y-56172778D01*
X63086466Y-56256443D01*
X62916627Y-56307963D01*
X62850442Y-56314482D01*
X62784260Y-56321000D01*
X62695740Y-56321000D01*
X62629558Y-56314482D01*
X62563373Y-56307963D01*
X62393534Y-56256443D01*
X62237009Y-56172778D01*
X62201271Y-56143448D01*
X62099814Y-56060186D01*
X62016552Y-55958729D01*
X61987222Y-55922991D01*
X61903557Y-55766466D01*
X61852037Y-55596627D01*
X61834641Y-55420000D01*
X61852037Y-55243373D01*
X61903557Y-55073534D01*
X61987222Y-54917009D01*
X62016552Y-54881271D01*
X62099814Y-54779814D01*
X62201271Y-54696552D01*
X62237009Y-54667222D01*
X62393534Y-54583557D01*
X62563373Y-54532037D01*
X62629557Y-54525519D01*
X62695740Y-54519000D01*
X62784260Y-54519000D01*
X62850443Y-54525519D01*
X62850443Y-54525519D01*
G37*
G36*
X60310443Y-54525519D02*
G01*
X60376627Y-54532037D01*
X60546466Y-54583557D01*
X60702991Y-54667222D01*
X60738729Y-54696552D01*
X60840186Y-54779814D01*
X60923448Y-54881271D01*
X60952778Y-54917009D01*
X61036443Y-55073534D01*
X61087963Y-55243373D01*
X61105359Y-55420000D01*
X61087963Y-55596627D01*
X61036443Y-55766466D01*
X60952778Y-55922991D01*
X60923448Y-55958729D01*
X60840186Y-56060186D01*
X60738729Y-56143448D01*
X60702991Y-56172778D01*
X60546466Y-56256443D01*
X60376627Y-56307963D01*
X60310442Y-56314482D01*
X60244260Y-56321000D01*
X60155740Y-56321000D01*
X60089558Y-56314482D01*
X60023373Y-56307963D01*
X59853534Y-56256443D01*
X59697009Y-56172778D01*
X59661271Y-56143448D01*
X59559814Y-56060186D01*
X59476552Y-55958729D01*
X59447222Y-55922991D01*
X59363557Y-55766466D01*
X59312037Y-55596627D01*
X59294641Y-55420000D01*
X59312037Y-55243373D01*
X59363557Y-55073534D01*
X59447222Y-54917009D01*
X59476552Y-54881271D01*
X59559814Y-54779814D01*
X59661271Y-54696552D01*
X59697009Y-54667222D01*
X59853534Y-54583557D01*
X60023373Y-54532037D01*
X60089557Y-54525519D01*
X60155740Y-54519000D01*
X60244260Y-54519000D01*
X60310443Y-54525519D01*
X60310443Y-54525519D01*
G37*
G36*
X62850443Y-51985519D02*
G01*
X62916627Y-51992037D01*
X63086466Y-52043557D01*
X63242991Y-52127222D01*
X63278729Y-52156552D01*
X63380186Y-52239814D01*
X63463448Y-52341271D01*
X63492778Y-52377009D01*
X63576443Y-52533534D01*
X63627963Y-52703373D01*
X63645359Y-52880000D01*
X63627963Y-53056627D01*
X63576443Y-53226466D01*
X63492778Y-53382991D01*
X63463448Y-53418729D01*
X63380186Y-53520186D01*
X63278729Y-53603448D01*
X63242991Y-53632778D01*
X63086466Y-53716443D01*
X62916627Y-53767963D01*
X62850442Y-53774482D01*
X62784260Y-53781000D01*
X62695740Y-53781000D01*
X62629558Y-53774482D01*
X62563373Y-53767963D01*
X62393534Y-53716443D01*
X62237009Y-53632778D01*
X62201271Y-53603448D01*
X62099814Y-53520186D01*
X62016552Y-53418729D01*
X61987222Y-53382991D01*
X61903557Y-53226466D01*
X61852037Y-53056627D01*
X61834641Y-52880000D01*
X61852037Y-52703373D01*
X61903557Y-52533534D01*
X61987222Y-52377009D01*
X62016552Y-52341271D01*
X62099814Y-52239814D01*
X62201271Y-52156552D01*
X62237009Y-52127222D01*
X62393534Y-52043557D01*
X62563373Y-51992037D01*
X62629557Y-51985519D01*
X62695740Y-51979000D01*
X62784260Y-51979000D01*
X62850443Y-51985519D01*
X62850443Y-51985519D01*
G37*
G36*
X60310443Y-51985519D02*
G01*
X60376627Y-51992037D01*
X60546466Y-52043557D01*
X60702991Y-52127222D01*
X60738729Y-52156552D01*
X60840186Y-52239814D01*
X60923448Y-52341271D01*
X60952778Y-52377009D01*
X61036443Y-52533534D01*
X61087963Y-52703373D01*
X61105359Y-52880000D01*
X61087963Y-53056627D01*
X61036443Y-53226466D01*
X60952778Y-53382991D01*
X60923448Y-53418729D01*
X60840186Y-53520186D01*
X60738729Y-53603448D01*
X60702991Y-53632778D01*
X60546466Y-53716443D01*
X60376627Y-53767963D01*
X60310442Y-53774482D01*
X60244260Y-53781000D01*
X60155740Y-53781000D01*
X60089558Y-53774482D01*
X60023373Y-53767963D01*
X59853534Y-53716443D01*
X59697009Y-53632778D01*
X59661271Y-53603448D01*
X59559814Y-53520186D01*
X59476552Y-53418729D01*
X59447222Y-53382991D01*
X59363557Y-53226466D01*
X59312037Y-53056627D01*
X59294641Y-52880000D01*
X59312037Y-52703373D01*
X59363557Y-52533534D01*
X59447222Y-52377009D01*
X59476552Y-52341271D01*
X59559814Y-52239814D01*
X59661271Y-52156552D01*
X59697009Y-52127222D01*
X59853534Y-52043557D01*
X60023373Y-51992037D01*
X60089557Y-51985519D01*
X60155740Y-51979000D01*
X60244260Y-51979000D01*
X60310443Y-51985519D01*
X60310443Y-51985519D01*
G37*
G36*
X88901000Y-53751000D02*
G01*
X87099000Y-53751000D01*
X87099000Y-51949000D01*
X88901000Y-51949000D01*
X88901000Y-53751000D01*
X88901000Y-53751000D01*
G37*
G36*
X62850442Y-49445518D02*
G01*
X62916627Y-49452037D01*
X63086466Y-49503557D01*
X63242991Y-49587222D01*
X63278729Y-49616552D01*
X63380186Y-49699814D01*
X63463448Y-49801271D01*
X63492778Y-49837009D01*
X63492779Y-49837011D01*
X63560407Y-49963532D01*
X63576443Y-49993534D01*
X63627963Y-50163373D01*
X63645359Y-50340000D01*
X63627963Y-50516627D01*
X63576443Y-50686466D01*
X63492778Y-50842991D01*
X63463448Y-50878729D01*
X63380186Y-50980186D01*
X63279546Y-51062778D01*
X63242991Y-51092778D01*
X63242989Y-51092779D01*
X63142594Y-51146442D01*
X63086466Y-51176443D01*
X62916627Y-51227963D01*
X62850443Y-51234481D01*
X62784260Y-51241000D01*
X62695740Y-51241000D01*
X62629557Y-51234481D01*
X62563373Y-51227963D01*
X62393534Y-51176443D01*
X62337407Y-51146442D01*
X62237011Y-51092779D01*
X62237009Y-51092778D01*
X62200454Y-51062778D01*
X62099814Y-50980186D01*
X62016552Y-50878729D01*
X61987222Y-50842991D01*
X61903557Y-50686466D01*
X61852037Y-50516627D01*
X61834641Y-50340000D01*
X61852037Y-50163373D01*
X61903557Y-49993534D01*
X61919594Y-49963532D01*
X61987221Y-49837011D01*
X61987222Y-49837009D01*
X62016552Y-49801271D01*
X62099814Y-49699814D01*
X62201271Y-49616552D01*
X62237009Y-49587222D01*
X62393534Y-49503557D01*
X62563373Y-49452037D01*
X62629558Y-49445518D01*
X62695740Y-49439000D01*
X62784260Y-49439000D01*
X62850442Y-49445518D01*
X62850442Y-49445518D01*
G37*
G36*
X60310442Y-49445518D02*
G01*
X60376627Y-49452037D01*
X60546466Y-49503557D01*
X60702991Y-49587222D01*
X60738729Y-49616552D01*
X60840186Y-49699814D01*
X60923448Y-49801271D01*
X60952778Y-49837009D01*
X60952779Y-49837011D01*
X61020407Y-49963532D01*
X61036443Y-49993534D01*
X61087963Y-50163373D01*
X61105359Y-50340000D01*
X61087963Y-50516627D01*
X61036443Y-50686466D01*
X60952778Y-50842991D01*
X60923448Y-50878729D01*
X60840186Y-50980186D01*
X60739546Y-51062778D01*
X60702991Y-51092778D01*
X60702989Y-51092779D01*
X60602594Y-51146442D01*
X60546466Y-51176443D01*
X60376627Y-51227963D01*
X60310443Y-51234481D01*
X60244260Y-51241000D01*
X60155740Y-51241000D01*
X60089557Y-51234481D01*
X60023373Y-51227963D01*
X59853534Y-51176443D01*
X59797407Y-51146442D01*
X59697011Y-51092779D01*
X59697009Y-51092778D01*
X59660454Y-51062778D01*
X59559814Y-50980186D01*
X59476552Y-50878729D01*
X59447222Y-50842991D01*
X59363557Y-50686466D01*
X59312037Y-50516627D01*
X59294641Y-50340000D01*
X59312037Y-50163373D01*
X59363557Y-49993534D01*
X59379594Y-49963532D01*
X59447221Y-49837011D01*
X59447222Y-49837009D01*
X59476552Y-49801271D01*
X59559814Y-49699814D01*
X59661271Y-49616552D01*
X59697009Y-49587222D01*
X59853534Y-49503557D01*
X60023373Y-49452037D01*
X60089558Y-49445518D01*
X60155740Y-49439000D01*
X60244260Y-49439000D01*
X60310442Y-49445518D01*
X60310442Y-49445518D01*
G37*
G36*
X88110442Y-49415518D02*
G01*
X88176627Y-49422037D01*
X88346466Y-49473557D01*
X88346468Y-49473558D01*
X88424729Y-49515390D01*
X88502991Y-49557222D01*
X88538729Y-49586552D01*
X88640186Y-49669814D01*
X88723448Y-49771271D01*
X88752778Y-49807009D01*
X88836443Y-49963534D01*
X88887963Y-50133373D01*
X88905359Y-50310000D01*
X88887963Y-50486627D01*
X88836443Y-50656466D01*
X88836442Y-50656468D01*
X88794611Y-50734728D01*
X88752778Y-50812991D01*
X88728159Y-50842989D01*
X88640186Y-50950186D01*
X88538729Y-51033448D01*
X88502991Y-51062778D01*
X88346466Y-51146443D01*
X88176627Y-51197963D01*
X88110443Y-51204481D01*
X88044260Y-51211000D01*
X87955740Y-51211000D01*
X87889558Y-51204482D01*
X87823373Y-51197963D01*
X87653534Y-51146443D01*
X87497009Y-51062778D01*
X87461271Y-51033448D01*
X87359814Y-50950186D01*
X87271841Y-50842989D01*
X87247222Y-50812991D01*
X87205389Y-50734728D01*
X87163558Y-50656468D01*
X87163557Y-50656466D01*
X87112037Y-50486627D01*
X87094641Y-50310000D01*
X87112037Y-50133373D01*
X87163557Y-49963534D01*
X87247222Y-49807009D01*
X87276552Y-49771271D01*
X87359814Y-49669814D01*
X87461271Y-49586552D01*
X87497009Y-49557222D01*
X87575271Y-49515390D01*
X87653532Y-49473558D01*
X87653534Y-49473557D01*
X87823373Y-49422037D01*
X87889558Y-49415518D01*
X87955740Y-49409000D01*
X88044260Y-49409000D01*
X88110442Y-49415518D01*
X88110442Y-49415518D01*
G37*
G36*
X72070442Y-48155518D02*
G01*
X72136627Y-48162037D01*
X72306466Y-48213557D01*
X72462991Y-48297222D01*
X72470020Y-48302991D01*
X72600186Y-48409814D01*
X72683448Y-48511271D01*
X72712778Y-48547009D01*
X72796443Y-48703534D01*
X72847963Y-48873373D01*
X72865359Y-49050000D01*
X72847963Y-49226627D01*
X72796443Y-49396466D01*
X72712778Y-49552991D01*
X72684686Y-49587221D01*
X72600186Y-49690186D01*
X72498729Y-49773448D01*
X72462991Y-49802778D01*
X72306466Y-49886443D01*
X72136627Y-49937963D01*
X72070443Y-49944481D01*
X72004260Y-49951000D01*
X71915740Y-49951000D01*
X71849558Y-49944482D01*
X71783373Y-49937963D01*
X71613534Y-49886443D01*
X71457009Y-49802778D01*
X71421271Y-49773448D01*
X71319814Y-49690186D01*
X71235314Y-49587221D01*
X71207222Y-49552991D01*
X71123557Y-49396466D01*
X71072037Y-49226627D01*
X71054641Y-49050000D01*
X71072037Y-48873373D01*
X71123557Y-48703534D01*
X71207222Y-48547009D01*
X71236552Y-48511271D01*
X71319814Y-48409814D01*
X71449980Y-48302991D01*
X71457009Y-48297222D01*
X71613534Y-48213557D01*
X71783373Y-48162037D01*
X71849558Y-48155518D01*
X71915740Y-48149000D01*
X72004260Y-48149000D01*
X72070442Y-48155518D01*
X72070442Y-48155518D01*
G37*
G36*
X75401000Y-49951000D02*
G01*
X73599000Y-49951000D01*
X73599000Y-48149000D01*
X75401000Y-48149000D01*
X75401000Y-49951000D01*
X75401000Y-49951000D01*
G37*
G36*
X60310443Y-46905519D02*
G01*
X60376627Y-46912037D01*
X60546466Y-46963557D01*
X60702991Y-47047222D01*
X60738729Y-47076552D01*
X60840186Y-47159814D01*
X60923448Y-47261271D01*
X60952778Y-47297009D01*
X60952779Y-47297011D01*
X61020407Y-47423532D01*
X61036443Y-47453534D01*
X61087963Y-47623373D01*
X61105359Y-47800000D01*
X61087963Y-47976627D01*
X61036443Y-48146466D01*
X60952778Y-48302991D01*
X60923448Y-48338729D01*
X60840186Y-48440186D01*
X60739546Y-48522778D01*
X60702991Y-48552778D01*
X60702989Y-48552779D01*
X60602594Y-48606442D01*
X60546466Y-48636443D01*
X60376627Y-48687963D01*
X60310443Y-48694481D01*
X60244260Y-48701000D01*
X60155740Y-48701000D01*
X60089558Y-48694482D01*
X60023373Y-48687963D01*
X59853534Y-48636443D01*
X59797407Y-48606442D01*
X59697011Y-48552779D01*
X59697009Y-48552778D01*
X59660454Y-48522778D01*
X59559814Y-48440186D01*
X59476552Y-48338729D01*
X59447222Y-48302991D01*
X59363557Y-48146466D01*
X59312037Y-47976627D01*
X59294641Y-47800000D01*
X59312037Y-47623373D01*
X59363557Y-47453534D01*
X59379594Y-47423532D01*
X59447221Y-47297011D01*
X59447222Y-47297009D01*
X59476552Y-47261271D01*
X59559814Y-47159814D01*
X59661271Y-47076552D01*
X59697009Y-47047222D01*
X59853534Y-46963557D01*
X60023373Y-46912037D01*
X60089557Y-46905519D01*
X60155740Y-46899000D01*
X60244260Y-46899000D01*
X60310443Y-46905519D01*
X60310443Y-46905519D01*
G37*
G36*
X62850443Y-46905519D02*
G01*
X62916627Y-46912037D01*
X63086466Y-46963557D01*
X63242991Y-47047222D01*
X63278729Y-47076552D01*
X63380186Y-47159814D01*
X63463448Y-47261271D01*
X63492778Y-47297009D01*
X63492779Y-47297011D01*
X63560407Y-47423532D01*
X63576443Y-47453534D01*
X63627963Y-47623373D01*
X63645359Y-47800000D01*
X63627963Y-47976627D01*
X63576443Y-48146466D01*
X63492778Y-48302991D01*
X63463448Y-48338729D01*
X63380186Y-48440186D01*
X63279546Y-48522778D01*
X63242991Y-48552778D01*
X63242989Y-48552779D01*
X63142594Y-48606442D01*
X63086466Y-48636443D01*
X62916627Y-48687963D01*
X62850443Y-48694481D01*
X62784260Y-48701000D01*
X62695740Y-48701000D01*
X62629558Y-48694482D01*
X62563373Y-48687963D01*
X62393534Y-48636443D01*
X62337407Y-48606442D01*
X62237011Y-48552779D01*
X62237009Y-48552778D01*
X62200454Y-48522778D01*
X62099814Y-48440186D01*
X62016552Y-48338729D01*
X61987222Y-48302991D01*
X61903557Y-48146466D01*
X61852037Y-47976627D01*
X61834641Y-47800000D01*
X61852037Y-47623373D01*
X61903557Y-47453534D01*
X61919594Y-47423532D01*
X61987221Y-47297011D01*
X61987222Y-47297009D01*
X62016552Y-47261271D01*
X62099814Y-47159814D01*
X62201271Y-47076552D01*
X62237009Y-47047222D01*
X62393534Y-46963557D01*
X62563373Y-46912037D01*
X62629557Y-46905519D01*
X62695740Y-46899000D01*
X62784260Y-46899000D01*
X62850443Y-46905519D01*
X62850443Y-46905519D01*
G37*
G36*
X88110442Y-46875518D02*
G01*
X88176627Y-46882037D01*
X88346466Y-46933557D01*
X88346468Y-46933558D01*
X88424729Y-46975390D01*
X88502991Y-47017222D01*
X88538729Y-47046552D01*
X88640186Y-47129814D01*
X88723448Y-47231271D01*
X88752778Y-47267009D01*
X88836443Y-47423534D01*
X88887963Y-47593373D01*
X88905359Y-47770000D01*
X88887963Y-47946627D01*
X88836443Y-48116466D01*
X88836442Y-48116468D01*
X88819053Y-48149000D01*
X88752778Y-48272991D01*
X88732893Y-48297221D01*
X88640186Y-48410186D01*
X88538729Y-48493448D01*
X88502991Y-48522778D01*
X88346466Y-48606443D01*
X88176627Y-48657963D01*
X88110443Y-48664481D01*
X88044260Y-48671000D01*
X87955740Y-48671000D01*
X87889558Y-48664482D01*
X87823373Y-48657963D01*
X87653534Y-48606443D01*
X87497009Y-48522778D01*
X87461271Y-48493448D01*
X87359814Y-48410186D01*
X87267107Y-48297221D01*
X87247222Y-48272991D01*
X87180947Y-48149000D01*
X87163558Y-48116468D01*
X87163557Y-48116466D01*
X87112037Y-47946627D01*
X87094641Y-47770000D01*
X87112037Y-47593373D01*
X87163557Y-47423534D01*
X87247222Y-47267009D01*
X87276552Y-47231271D01*
X87359814Y-47129814D01*
X87461271Y-47046552D01*
X87497009Y-47017222D01*
X87575272Y-46975389D01*
X87653532Y-46933558D01*
X87653534Y-46933557D01*
X87823373Y-46882037D01*
X87889558Y-46875518D01*
X87955740Y-46869000D01*
X88044260Y-46869000D01*
X88110442Y-46875518D01*
X88110442Y-46875518D01*
G37*
G36*
X74610442Y-45615518D02*
G01*
X74676627Y-45622037D01*
X74846466Y-45673557D01*
X75002991Y-45757222D01*
X75010020Y-45762991D01*
X75140186Y-45869814D01*
X75223448Y-45971271D01*
X75252778Y-46007009D01*
X75336443Y-46163534D01*
X75387963Y-46333373D01*
X75405359Y-46510000D01*
X75387963Y-46686627D01*
X75336443Y-46856466D01*
X75252778Y-47012991D01*
X75224686Y-47047221D01*
X75140186Y-47150186D01*
X75038729Y-47233448D01*
X75002991Y-47262778D01*
X74846466Y-47346443D01*
X74676627Y-47397963D01*
X74610443Y-47404481D01*
X74544260Y-47411000D01*
X74455740Y-47411000D01*
X74389558Y-47404482D01*
X74323373Y-47397963D01*
X74153534Y-47346443D01*
X73997009Y-47262778D01*
X73961271Y-47233448D01*
X73859814Y-47150186D01*
X73775314Y-47047221D01*
X73747222Y-47012991D01*
X73663557Y-46856466D01*
X73612037Y-46686627D01*
X73594641Y-46510000D01*
X73612037Y-46333373D01*
X73663557Y-46163534D01*
X73747222Y-46007009D01*
X73776552Y-45971271D01*
X73859814Y-45869814D01*
X73989980Y-45762991D01*
X73997009Y-45757222D01*
X74153534Y-45673557D01*
X74323373Y-45622037D01*
X74389558Y-45615518D01*
X74455740Y-45609000D01*
X74544260Y-45609000D01*
X74610442Y-45615518D01*
X74610442Y-45615518D01*
G37*
G36*
X72070442Y-45615518D02*
G01*
X72136627Y-45622037D01*
X72306466Y-45673557D01*
X72462991Y-45757222D01*
X72470020Y-45762991D01*
X72600186Y-45869814D01*
X72683448Y-45971271D01*
X72712778Y-46007009D01*
X72796443Y-46163534D01*
X72847963Y-46333373D01*
X72865359Y-46510000D01*
X72847963Y-46686627D01*
X72796443Y-46856466D01*
X72712778Y-47012991D01*
X72684686Y-47047221D01*
X72600186Y-47150186D01*
X72498729Y-47233448D01*
X72462991Y-47262778D01*
X72306466Y-47346443D01*
X72136627Y-47397963D01*
X72070443Y-47404481D01*
X72004260Y-47411000D01*
X71915740Y-47411000D01*
X71849558Y-47404482D01*
X71783373Y-47397963D01*
X71613534Y-47346443D01*
X71457009Y-47262778D01*
X71421271Y-47233448D01*
X71319814Y-47150186D01*
X71235314Y-47047221D01*
X71207222Y-47012991D01*
X71123557Y-46856466D01*
X71072037Y-46686627D01*
X71054641Y-46510000D01*
X71072037Y-46333373D01*
X71123557Y-46163534D01*
X71207222Y-46007009D01*
X71236552Y-45971271D01*
X71319814Y-45869814D01*
X71449980Y-45762991D01*
X71457009Y-45757222D01*
X71613534Y-45673557D01*
X71783373Y-45622037D01*
X71849558Y-45615518D01*
X71915740Y-45609000D01*
X72004260Y-45609000D01*
X72070442Y-45615518D01*
X72070442Y-45615518D01*
G37*
G36*
X62850442Y-44365518D02*
G01*
X62916627Y-44372037D01*
X63086466Y-44423557D01*
X63242991Y-44507222D01*
X63278729Y-44536552D01*
X63380186Y-44619814D01*
X63463448Y-44721271D01*
X63492778Y-44757009D01*
X63492779Y-44757011D01*
X63560407Y-44883532D01*
X63576443Y-44913534D01*
X63627963Y-45083373D01*
X63645359Y-45260000D01*
X63627963Y-45436627D01*
X63576443Y-45606466D01*
X63492778Y-45762991D01*
X63463448Y-45798729D01*
X63380186Y-45900186D01*
X63279546Y-45982778D01*
X63242991Y-46012778D01*
X63242989Y-46012779D01*
X63142594Y-46066442D01*
X63086466Y-46096443D01*
X62916627Y-46147963D01*
X62850443Y-46154481D01*
X62784260Y-46161000D01*
X62695740Y-46161000D01*
X62629557Y-46154481D01*
X62563373Y-46147963D01*
X62393534Y-46096443D01*
X62337407Y-46066442D01*
X62237011Y-46012779D01*
X62237009Y-46012778D01*
X62200454Y-45982778D01*
X62099814Y-45900186D01*
X62016552Y-45798729D01*
X61987222Y-45762991D01*
X61903557Y-45606466D01*
X61852037Y-45436627D01*
X61834641Y-45260000D01*
X61852037Y-45083373D01*
X61903557Y-44913534D01*
X61919594Y-44883532D01*
X61987221Y-44757011D01*
X61987222Y-44757009D01*
X62016552Y-44721271D01*
X62099814Y-44619814D01*
X62201271Y-44536552D01*
X62237009Y-44507222D01*
X62393534Y-44423557D01*
X62563373Y-44372037D01*
X62629558Y-44365518D01*
X62695740Y-44359000D01*
X62784260Y-44359000D01*
X62850442Y-44365518D01*
X62850442Y-44365518D01*
G37*
G36*
X60310442Y-44365518D02*
G01*
X60376627Y-44372037D01*
X60546466Y-44423557D01*
X60702991Y-44507222D01*
X60738729Y-44536552D01*
X60840186Y-44619814D01*
X60923448Y-44721271D01*
X60952778Y-44757009D01*
X60952779Y-44757011D01*
X61020407Y-44883532D01*
X61036443Y-44913534D01*
X61087963Y-45083373D01*
X61105359Y-45260000D01*
X61087963Y-45436627D01*
X61036443Y-45606466D01*
X60952778Y-45762991D01*
X60923448Y-45798729D01*
X60840186Y-45900186D01*
X60739546Y-45982778D01*
X60702991Y-46012778D01*
X60702989Y-46012779D01*
X60602594Y-46066442D01*
X60546466Y-46096443D01*
X60376627Y-46147963D01*
X60310443Y-46154481D01*
X60244260Y-46161000D01*
X60155740Y-46161000D01*
X60089557Y-46154481D01*
X60023373Y-46147963D01*
X59853534Y-46096443D01*
X59797407Y-46066442D01*
X59697011Y-46012779D01*
X59697009Y-46012778D01*
X59660454Y-45982778D01*
X59559814Y-45900186D01*
X59476552Y-45798729D01*
X59447222Y-45762991D01*
X59363557Y-45606466D01*
X59312037Y-45436627D01*
X59294641Y-45260000D01*
X59312037Y-45083373D01*
X59363557Y-44913534D01*
X59379594Y-44883532D01*
X59447221Y-44757011D01*
X59447222Y-44757009D01*
X59476552Y-44721271D01*
X59559814Y-44619814D01*
X59661271Y-44536552D01*
X59697009Y-44507222D01*
X59853534Y-44423557D01*
X60023373Y-44372037D01*
X60089558Y-44365518D01*
X60155740Y-44359000D01*
X60244260Y-44359000D01*
X60310442Y-44365518D01*
X60310442Y-44365518D01*
G37*
G36*
X88110442Y-44335518D02*
G01*
X88176627Y-44342037D01*
X88346466Y-44393557D01*
X88346468Y-44393558D01*
X88424729Y-44435390D01*
X88502991Y-44477222D01*
X88538729Y-44506552D01*
X88640186Y-44589814D01*
X88723448Y-44691271D01*
X88752778Y-44727009D01*
X88836443Y-44883534D01*
X88887963Y-45053373D01*
X88905359Y-45230000D01*
X88887963Y-45406627D01*
X88836443Y-45576466D01*
X88836442Y-45576468D01*
X88819053Y-45609000D01*
X88752778Y-45732991D01*
X88732893Y-45757221D01*
X88640186Y-45870186D01*
X88538729Y-45953448D01*
X88502991Y-45982778D01*
X88346466Y-46066443D01*
X88176627Y-46117963D01*
X88110442Y-46124482D01*
X88044260Y-46131000D01*
X87955740Y-46131000D01*
X87889558Y-46124482D01*
X87823373Y-46117963D01*
X87653534Y-46066443D01*
X87497009Y-45982778D01*
X87461271Y-45953448D01*
X87359814Y-45870186D01*
X87267107Y-45757221D01*
X87247222Y-45732991D01*
X87180947Y-45609000D01*
X87163558Y-45576468D01*
X87163557Y-45576466D01*
X87112037Y-45406627D01*
X87094641Y-45230000D01*
X87112037Y-45053373D01*
X87163557Y-44883534D01*
X87247222Y-44727009D01*
X87276552Y-44691271D01*
X87359814Y-44589814D01*
X87461271Y-44506552D01*
X87497009Y-44477222D01*
X87575272Y-44435389D01*
X87653532Y-44393558D01*
X87653534Y-44393557D01*
X87823373Y-44342037D01*
X87889558Y-44335518D01*
X87955740Y-44329000D01*
X88044260Y-44329000D01*
X88110442Y-44335518D01*
X88110442Y-44335518D01*
G37*
G36*
X72070442Y-43075518D02*
G01*
X72136627Y-43082037D01*
X72306466Y-43133557D01*
X72462991Y-43217222D01*
X72470020Y-43222991D01*
X72600186Y-43329814D01*
X72683448Y-43431271D01*
X72712778Y-43467009D01*
X72796443Y-43623534D01*
X72847963Y-43793373D01*
X72865359Y-43970000D01*
X72847963Y-44146627D01*
X72796443Y-44316466D01*
X72712778Y-44472991D01*
X72684686Y-44507221D01*
X72600186Y-44610186D01*
X72498729Y-44693448D01*
X72462991Y-44722778D01*
X72306466Y-44806443D01*
X72136627Y-44857963D01*
X72070443Y-44864481D01*
X72004260Y-44871000D01*
X71915740Y-44871000D01*
X71849557Y-44864481D01*
X71783373Y-44857963D01*
X71613534Y-44806443D01*
X71457009Y-44722778D01*
X71421271Y-44693448D01*
X71319814Y-44610186D01*
X71235314Y-44507221D01*
X71207222Y-44472991D01*
X71123557Y-44316466D01*
X71072037Y-44146627D01*
X71054641Y-43970000D01*
X71072037Y-43793373D01*
X71123557Y-43623534D01*
X71207222Y-43467009D01*
X71236552Y-43431271D01*
X71319814Y-43329814D01*
X71449980Y-43222991D01*
X71457009Y-43217222D01*
X71613534Y-43133557D01*
X71783373Y-43082037D01*
X71849558Y-43075518D01*
X71915740Y-43069000D01*
X72004260Y-43069000D01*
X72070442Y-43075518D01*
X72070442Y-43075518D01*
G37*
G36*
X74610442Y-43075518D02*
G01*
X74676627Y-43082037D01*
X74846466Y-43133557D01*
X75002991Y-43217222D01*
X75010020Y-43222991D01*
X75140186Y-43329814D01*
X75223448Y-43431271D01*
X75252778Y-43467009D01*
X75336443Y-43623534D01*
X75387963Y-43793373D01*
X75405359Y-43970000D01*
X75387963Y-44146627D01*
X75336443Y-44316466D01*
X75252778Y-44472991D01*
X75224686Y-44507221D01*
X75140186Y-44610186D01*
X75038729Y-44693448D01*
X75002991Y-44722778D01*
X74846466Y-44806443D01*
X74676627Y-44857963D01*
X74610443Y-44864481D01*
X74544260Y-44871000D01*
X74455740Y-44871000D01*
X74389557Y-44864481D01*
X74323373Y-44857963D01*
X74153534Y-44806443D01*
X73997009Y-44722778D01*
X73961271Y-44693448D01*
X73859814Y-44610186D01*
X73775314Y-44507221D01*
X73747222Y-44472991D01*
X73663557Y-44316466D01*
X73612037Y-44146627D01*
X73594641Y-43970000D01*
X73612037Y-43793373D01*
X73663557Y-43623534D01*
X73747222Y-43467009D01*
X73776552Y-43431271D01*
X73859814Y-43329814D01*
X73989980Y-43222991D01*
X73997009Y-43217222D01*
X74153534Y-43133557D01*
X74323373Y-43082037D01*
X74389558Y-43075518D01*
X74455740Y-43069000D01*
X74544260Y-43069000D01*
X74610442Y-43075518D01*
X74610442Y-43075518D01*
G37*
G36*
X62850443Y-41825519D02*
G01*
X62916627Y-41832037D01*
X63086466Y-41883557D01*
X63242991Y-41967222D01*
X63278729Y-41996552D01*
X63380186Y-42079814D01*
X63463448Y-42181271D01*
X63492778Y-42217009D01*
X63492779Y-42217011D01*
X63560407Y-42343532D01*
X63576443Y-42373534D01*
X63627963Y-42543373D01*
X63645359Y-42720000D01*
X63627963Y-42896627D01*
X63576443Y-43066466D01*
X63492778Y-43222991D01*
X63463448Y-43258729D01*
X63380186Y-43360186D01*
X63279546Y-43442778D01*
X63242991Y-43472778D01*
X63242989Y-43472779D01*
X63142594Y-43526442D01*
X63086466Y-43556443D01*
X62916627Y-43607963D01*
X62850443Y-43614481D01*
X62784260Y-43621000D01*
X62695740Y-43621000D01*
X62629557Y-43614481D01*
X62563373Y-43607963D01*
X62393534Y-43556443D01*
X62337407Y-43526442D01*
X62237011Y-43472779D01*
X62237009Y-43472778D01*
X62200454Y-43442778D01*
X62099814Y-43360186D01*
X62016552Y-43258729D01*
X61987222Y-43222991D01*
X61903557Y-43066466D01*
X61852037Y-42896627D01*
X61834641Y-42720000D01*
X61852037Y-42543373D01*
X61903557Y-42373534D01*
X61919594Y-42343532D01*
X61987221Y-42217011D01*
X61987222Y-42217009D01*
X62016552Y-42181271D01*
X62099814Y-42079814D01*
X62201271Y-41996552D01*
X62237009Y-41967222D01*
X62393534Y-41883557D01*
X62563373Y-41832037D01*
X62629557Y-41825519D01*
X62695740Y-41819000D01*
X62784260Y-41819000D01*
X62850443Y-41825519D01*
X62850443Y-41825519D01*
G37*
G36*
X60310443Y-41825519D02*
G01*
X60376627Y-41832037D01*
X60546466Y-41883557D01*
X60702991Y-41967222D01*
X60738729Y-41996552D01*
X60840186Y-42079814D01*
X60923448Y-42181271D01*
X60952778Y-42217009D01*
X60952779Y-42217011D01*
X61020407Y-42343532D01*
X61036443Y-42373534D01*
X61087963Y-42543373D01*
X61105359Y-42720000D01*
X61087963Y-42896627D01*
X61036443Y-43066466D01*
X60952778Y-43222991D01*
X60923448Y-43258729D01*
X60840186Y-43360186D01*
X60739546Y-43442778D01*
X60702991Y-43472778D01*
X60702989Y-43472779D01*
X60602594Y-43526442D01*
X60546466Y-43556443D01*
X60376627Y-43607963D01*
X60310443Y-43614481D01*
X60244260Y-43621000D01*
X60155740Y-43621000D01*
X60089557Y-43614481D01*
X60023373Y-43607963D01*
X59853534Y-43556443D01*
X59797407Y-43526442D01*
X59697011Y-43472779D01*
X59697009Y-43472778D01*
X59660454Y-43442778D01*
X59559814Y-43360186D01*
X59476552Y-43258729D01*
X59447222Y-43222991D01*
X59363557Y-43066466D01*
X59312037Y-42896627D01*
X59294641Y-42720000D01*
X59312037Y-42543373D01*
X59363557Y-42373534D01*
X59379594Y-42343532D01*
X59447221Y-42217011D01*
X59447222Y-42217009D01*
X59476552Y-42181271D01*
X59559814Y-42079814D01*
X59661271Y-41996552D01*
X59697009Y-41967222D01*
X59853534Y-41883557D01*
X60023373Y-41832037D01*
X60089557Y-41825519D01*
X60155740Y-41819000D01*
X60244260Y-41819000D01*
X60310443Y-41825519D01*
X60310443Y-41825519D01*
G37*
G36*
X88110442Y-41795518D02*
G01*
X88176627Y-41802037D01*
X88346466Y-41853557D01*
X88346468Y-41853558D01*
X88424729Y-41895390D01*
X88502991Y-41937222D01*
X88538729Y-41966552D01*
X88640186Y-42049814D01*
X88723448Y-42151271D01*
X88752778Y-42187009D01*
X88836443Y-42343534D01*
X88887963Y-42513373D01*
X88905359Y-42690000D01*
X88887963Y-42866627D01*
X88836443Y-43036466D01*
X88836442Y-43036468D01*
X88819053Y-43069000D01*
X88752778Y-43192991D01*
X88732893Y-43217221D01*
X88640186Y-43330186D01*
X88538729Y-43413448D01*
X88502991Y-43442778D01*
X88346466Y-43526443D01*
X88176627Y-43577963D01*
X88110443Y-43584481D01*
X88044260Y-43591000D01*
X87955740Y-43591000D01*
X87889557Y-43584481D01*
X87823373Y-43577963D01*
X87653534Y-43526443D01*
X87497009Y-43442778D01*
X87461271Y-43413448D01*
X87359814Y-43330186D01*
X87267107Y-43217221D01*
X87247222Y-43192991D01*
X87180947Y-43069000D01*
X87163558Y-43036468D01*
X87163557Y-43036466D01*
X87112037Y-42866627D01*
X87094641Y-42690000D01*
X87112037Y-42513373D01*
X87163557Y-42343534D01*
X87247222Y-42187009D01*
X87276552Y-42151271D01*
X87359814Y-42049814D01*
X87461271Y-41966552D01*
X87497009Y-41937222D01*
X87575271Y-41895390D01*
X87653532Y-41853558D01*
X87653534Y-41853557D01*
X87823373Y-41802037D01*
X87889558Y-41795518D01*
X87955740Y-41789000D01*
X88044260Y-41789000D01*
X88110442Y-41795518D01*
X88110442Y-41795518D01*
G37*
G36*
X62850442Y-39285518D02*
G01*
X62916627Y-39292037D01*
X63086466Y-39343557D01*
X63242991Y-39427222D01*
X63278729Y-39456552D01*
X63380186Y-39539814D01*
X63463448Y-39641271D01*
X63492778Y-39677009D01*
X63492779Y-39677011D01*
X63560407Y-39803532D01*
X63576443Y-39833534D01*
X63627963Y-40003373D01*
X63645359Y-40180000D01*
X63627963Y-40356627D01*
X63576443Y-40526466D01*
X63492778Y-40682991D01*
X63463448Y-40718729D01*
X63380186Y-40820186D01*
X63279546Y-40902778D01*
X63242991Y-40932778D01*
X63242989Y-40932779D01*
X63142594Y-40986442D01*
X63086466Y-41016443D01*
X62916627Y-41067963D01*
X62850442Y-41074482D01*
X62784260Y-41081000D01*
X62695740Y-41081000D01*
X62629558Y-41074482D01*
X62563373Y-41067963D01*
X62393534Y-41016443D01*
X62337407Y-40986442D01*
X62237011Y-40932779D01*
X62237009Y-40932778D01*
X62200454Y-40902778D01*
X62099814Y-40820186D01*
X62016552Y-40718729D01*
X61987222Y-40682991D01*
X61903557Y-40526466D01*
X61852037Y-40356627D01*
X61834641Y-40180000D01*
X61852037Y-40003373D01*
X61903557Y-39833534D01*
X61919594Y-39803532D01*
X61987221Y-39677011D01*
X61987222Y-39677009D01*
X62016552Y-39641271D01*
X62099814Y-39539814D01*
X62201271Y-39456552D01*
X62237009Y-39427222D01*
X62393534Y-39343557D01*
X62563373Y-39292037D01*
X62629558Y-39285518D01*
X62695740Y-39279000D01*
X62784260Y-39279000D01*
X62850442Y-39285518D01*
X62850442Y-39285518D01*
G37*
G36*
X60310442Y-39285518D02*
G01*
X60376627Y-39292037D01*
X60546466Y-39343557D01*
X60702991Y-39427222D01*
X60738729Y-39456552D01*
X60840186Y-39539814D01*
X60923448Y-39641271D01*
X60952778Y-39677009D01*
X60952779Y-39677011D01*
X61020407Y-39803532D01*
X61036443Y-39833534D01*
X61087963Y-40003373D01*
X61105359Y-40180000D01*
X61087963Y-40356627D01*
X61036443Y-40526466D01*
X60952778Y-40682991D01*
X60923448Y-40718729D01*
X60840186Y-40820186D01*
X60739546Y-40902778D01*
X60702991Y-40932778D01*
X60702989Y-40932779D01*
X60602594Y-40986442D01*
X60546466Y-41016443D01*
X60376627Y-41067963D01*
X60310442Y-41074482D01*
X60244260Y-41081000D01*
X60155740Y-41081000D01*
X60089558Y-41074482D01*
X60023373Y-41067963D01*
X59853534Y-41016443D01*
X59797407Y-40986442D01*
X59697011Y-40932779D01*
X59697009Y-40932778D01*
X59660454Y-40902778D01*
X59559814Y-40820186D01*
X59476552Y-40718729D01*
X59447222Y-40682991D01*
X59363557Y-40526466D01*
X59312037Y-40356627D01*
X59294641Y-40180000D01*
X59312037Y-40003373D01*
X59363557Y-39833534D01*
X59379594Y-39803532D01*
X59447221Y-39677011D01*
X59447222Y-39677009D01*
X59476552Y-39641271D01*
X59559814Y-39539814D01*
X59661271Y-39456552D01*
X59697009Y-39427222D01*
X59853534Y-39343557D01*
X60023373Y-39292037D01*
X60089558Y-39285518D01*
X60155740Y-39279000D01*
X60244260Y-39279000D01*
X60310442Y-39285518D01*
X60310442Y-39285518D01*
G37*
G36*
X88110443Y-39255519D02*
G01*
X88176627Y-39262037D01*
X88346466Y-39313557D01*
X88346468Y-39313558D01*
X88424729Y-39355390D01*
X88502991Y-39397222D01*
X88538729Y-39426552D01*
X88640186Y-39509814D01*
X88723448Y-39611271D01*
X88752778Y-39647009D01*
X88836443Y-39803534D01*
X88887963Y-39973373D01*
X88905359Y-40150000D01*
X88887963Y-40326627D01*
X88836443Y-40496466D01*
X88836442Y-40496468D01*
X88794611Y-40574728D01*
X88752778Y-40652991D01*
X88728159Y-40682989D01*
X88640186Y-40790186D01*
X88538729Y-40873448D01*
X88502991Y-40902778D01*
X88346466Y-40986443D01*
X88176627Y-41037963D01*
X88110442Y-41044482D01*
X88044260Y-41051000D01*
X87955740Y-41051000D01*
X87889558Y-41044482D01*
X87823373Y-41037963D01*
X87653534Y-40986443D01*
X87497009Y-40902778D01*
X87461271Y-40873448D01*
X87359814Y-40790186D01*
X87271841Y-40682989D01*
X87247222Y-40652991D01*
X87205389Y-40574728D01*
X87163558Y-40496468D01*
X87163557Y-40496466D01*
X87112037Y-40326627D01*
X87094641Y-40150000D01*
X87112037Y-39973373D01*
X87163557Y-39803534D01*
X87247222Y-39647009D01*
X87276552Y-39611271D01*
X87359814Y-39509814D01*
X87461271Y-39426552D01*
X87497009Y-39397222D01*
X87575272Y-39355389D01*
X87653532Y-39313558D01*
X87653534Y-39313557D01*
X87823373Y-39262037D01*
X87889557Y-39255519D01*
X87955740Y-39249000D01*
X88044260Y-39249000D01*
X88110443Y-39255519D01*
X88110443Y-39255519D01*
G37*
G36*
X60310442Y-36745518D02*
G01*
X60376627Y-36752037D01*
X60546466Y-36803557D01*
X60702991Y-36887222D01*
X60738729Y-36916552D01*
X60840186Y-36999814D01*
X60923448Y-37101271D01*
X60952778Y-37137009D01*
X61036443Y-37293534D01*
X61087963Y-37463373D01*
X61105359Y-37640000D01*
X61087963Y-37816627D01*
X61036443Y-37986466D01*
X60952778Y-38142991D01*
X60923448Y-38178729D01*
X60840186Y-38280186D01*
X60738729Y-38363448D01*
X60702991Y-38392778D01*
X60546466Y-38476443D01*
X60376627Y-38527963D01*
X60310442Y-38534482D01*
X60244260Y-38541000D01*
X60155740Y-38541000D01*
X60089558Y-38534482D01*
X60023373Y-38527963D01*
X59853534Y-38476443D01*
X59697009Y-38392778D01*
X59661271Y-38363448D01*
X59559814Y-38280186D01*
X59476552Y-38178729D01*
X59447222Y-38142991D01*
X59363557Y-37986466D01*
X59312037Y-37816627D01*
X59294641Y-37640000D01*
X59312037Y-37463373D01*
X59363557Y-37293534D01*
X59447222Y-37137009D01*
X59476552Y-37101271D01*
X59559814Y-36999814D01*
X59661271Y-36916552D01*
X59697009Y-36887222D01*
X59853534Y-36803557D01*
X60023373Y-36752037D01*
X60089558Y-36745518D01*
X60155740Y-36739000D01*
X60244260Y-36739000D01*
X60310442Y-36745518D01*
X60310442Y-36745518D01*
G37*
G36*
X62850442Y-36745518D02*
G01*
X62916627Y-36752037D01*
X63086466Y-36803557D01*
X63242991Y-36887222D01*
X63278729Y-36916552D01*
X63380186Y-36999814D01*
X63463448Y-37101271D01*
X63492778Y-37137009D01*
X63576443Y-37293534D01*
X63627963Y-37463373D01*
X63645359Y-37640000D01*
X63627963Y-37816627D01*
X63576443Y-37986466D01*
X63492778Y-38142991D01*
X63463448Y-38178729D01*
X63380186Y-38280186D01*
X63278729Y-38363448D01*
X63242991Y-38392778D01*
X63086466Y-38476443D01*
X62916627Y-38527963D01*
X62850442Y-38534482D01*
X62784260Y-38541000D01*
X62695740Y-38541000D01*
X62629558Y-38534482D01*
X62563373Y-38527963D01*
X62393534Y-38476443D01*
X62237009Y-38392778D01*
X62201271Y-38363448D01*
X62099814Y-38280186D01*
X62016552Y-38178729D01*
X61987222Y-38142991D01*
X61903557Y-37986466D01*
X61852037Y-37816627D01*
X61834641Y-37640000D01*
X61852037Y-37463373D01*
X61903557Y-37293534D01*
X61987222Y-37137009D01*
X62016552Y-37101271D01*
X62099814Y-36999814D01*
X62201271Y-36916552D01*
X62237009Y-36887222D01*
X62393534Y-36803557D01*
X62563373Y-36752037D01*
X62629558Y-36745518D01*
X62695740Y-36739000D01*
X62784260Y-36739000D01*
X62850442Y-36745518D01*
X62850442Y-36745518D01*
G37*
G36*
X61101000Y-36001000D02*
G01*
X59299000Y-36001000D01*
X59299000Y-34199000D01*
X61101000Y-34199000D01*
X61101000Y-36001000D01*
X61101000Y-36001000D01*
G37*
G36*
X62850442Y-34205518D02*
G01*
X62916627Y-34212037D01*
X63086466Y-34263557D01*
X63242991Y-34347222D01*
X63278729Y-34376552D01*
X63380186Y-34459814D01*
X63463448Y-34561271D01*
X63492778Y-34597009D01*
X63576443Y-34753534D01*
X63627963Y-34923373D01*
X63645359Y-35100000D01*
X63627963Y-35276627D01*
X63576443Y-35446466D01*
X63492778Y-35602991D01*
X63463448Y-35638729D01*
X63380186Y-35740186D01*
X63278729Y-35823448D01*
X63242991Y-35852778D01*
X63086466Y-35936443D01*
X62916627Y-35987963D01*
X62850442Y-35994482D01*
X62784260Y-36001000D01*
X62695740Y-36001000D01*
X62629558Y-35994482D01*
X62563373Y-35987963D01*
X62393534Y-35936443D01*
X62237009Y-35852778D01*
X62201271Y-35823448D01*
X62099814Y-35740186D01*
X62016552Y-35638729D01*
X61987222Y-35602991D01*
X61903557Y-35446466D01*
X61852037Y-35276627D01*
X61834641Y-35100000D01*
X61852037Y-34923373D01*
X61903557Y-34753534D01*
X61987222Y-34597009D01*
X62016552Y-34561271D01*
X62099814Y-34459814D01*
X62201271Y-34376552D01*
X62237009Y-34347222D01*
X62393534Y-34263557D01*
X62563373Y-34212037D01*
X62629558Y-34205518D01*
X62695740Y-34199000D01*
X62784260Y-34199000D01*
X62850442Y-34205518D01*
X62850442Y-34205518D01*
G37*
M02*
